<svg width="64" height="64" viewBox="0 0 64 64" fill="none" xmlns="http://www.w3.org/2000/svg">
<path d="M52.25 31.8081C52.25 35.838 52.25 39.8678 52.25 43.8337C52.25 44.0256 52.25 44.1535 52.1863 44.3454C51.5497 46.2644 50.8494 48.1194 50.0217 49.9744C49.2578 51.6375 48.4301 53.2367 47.4752 54.7079C46.3929 56.435 45.1832 58.0341 43.7189 59.4414C42.8913 60.209 42.0637 60.9765 41.1087 61.5522C40.9177 61.6802 40.663 61.8081 40.4084 61.936C40.2811 62 40.2174 62 40.0901 62C34.5512 62 29.0124 62 23.4099 62C23.2826 62 23.1553 61.936 23.028 61.936C22.455 61.6802 21.9457 61.2964 21.5 60.9765C20.354 60.081 19.3354 59.1215 18.3804 58.0341C16.7888 56.1791 15.5155 54.1322 14.3696 51.9574C13.2236 49.7185 12.2686 47.4158 11.5047 45.049C11.441 44.8571 11.3773 44.6013 11.25 44.4094C11.3137 44.1535 11.3137 44.0256 11.3137 43.8337C11.3137 35.774 11.3137 27.7143 11.3137 19.6546C11.3137 19.4627 11.3137 19.3348 11.3773 19.2068C12.587 15.6887 14.1149 12.2345 16.0885 9.03625C16.9161 7.69296 17.8075 6.47761 18.8261 5.32623C19.6537 4.36674 20.6087 3.53518 21.691 2.89552C22.2003 2.57569 22.7096 2.31983 23.2189 2.12793C23.4099 2.06397 23.6646 2 23.8556 2C29.1398 2 34.4239 2 39.7081 2C39.8991 2 40.0264 2.06397 40.2174 2.12793C41.6817 2.70362 42.8913 3.59915 43.9736 4.68657C44.9922 5.71002 45.9472 6.86141 46.7748 8.07676C47.9208 9.80384 48.9394 11.5949 49.8307 13.4499C50.722 15.3049 51.5497 17.2878 52.1863 19.2068C52.25 19.3987 52.25 19.5906 52.25 19.7185C52.25 23.7484 52.25 27.7782 52.25 31.8081ZM42.3183 32.064C42.3183 32 42.3183 32 42.3183 31.936C42.2547 31.7441 42.191 31.5522 42.1273 31.2964C41.045 27.7143 39.9627 24.1322 38.8804 20.5501C38.8804 20.4861 38.8168 20.4222 38.7531 20.3582C36.5248 19.1429 34.2329 17.9275 32.0047 16.7122C31.8137 16.7122 31.75 16.7122 31.6863 16.7122C29.4581 17.9275 27.1661 19.1429 24.9379 20.3582C24.8742 20.4222 24.8106 20.4861 24.7469 20.5501C24.1739 22.3412 23.6646 24.1962 23.0916 25.9872C22.5186 27.9701 21.882 29.8891 21.309 31.8721C21.309 31.936 21.309 32 21.309 32.1279C21.3727 32.3198 21.4363 32.5117 21.5 32.6397C22.5823 36.2217 23.6646 39.8038 24.8106 43.4499C24.8106 43.5139 24.8742 43.5778 24.9379 43.6418C27.2298 44.8571 29.4581 46.0725 31.75 47.2878C31.8137 47.3518 31.8773 47.3518 32.0047 47.2878C34.2329 46.0725 36.5248 44.8571 38.7531 43.6418C38.8168 43.5778 38.8804 43.5139 38.8804 43.4499C39.3898 41.7228 39.9627 39.9318 40.472 38.2047C41.1087 36.1578 41.6817 34.1748 42.3183 32.1279V32.064ZM17.2981 10.5075C17.2345 10.5075 17.2345 10.5075 17.2345 10.6354V10.6994C17.2981 12.4264 17.2981 14.0896 17.3618 15.8166C17.3618 17.2239 17.4255 18.6311 17.4255 20.1023C17.4255 20.4222 17.4255 20.806 17.4255 21.1258C17.4255 21.2537 17.4255 21.2537 17.5528 21.1898H17.6165C18.5714 20.8699 19.5264 20.5501 20.4814 20.2303C21.5637 19.8465 22.5823 19.5267 23.6646 19.1429C23.7283 19.1429 23.7919 19.0789 23.7919 18.951C23.7919 18.6951 23.8556 18.3753 23.8556 18.1194C23.9193 17.3518 24.0466 16.5842 24.1102 15.8166C24.1739 15.049 24.3012 14.2814 24.3649 13.5139C24.4286 12.6823 24.5559 11.9147 24.6196 11.0832C24.6196 10.9552 24.6196 10.9552 24.4922 10.9552C23.9829 10.9552 23.5373 10.8913 23.028 10.8913C22.5186 10.8913 22.0093 10.8273 21.5 10.7633C20.9907 10.6994 20.4177 10.6994 19.9084 10.6354C19.4627 10.5714 19.0171 10.5714 18.5078 10.5075C18.1894 10.5714 17.8075 10.5075 17.2981 10.5075ZM24.6832 52.9808C24.6196 52.2132 24.5559 51.5096 24.4286 50.806C24.3012 49.7825 24.1739 48.7591 24.1102 47.7356C23.9829 46.8401 23.9193 45.9446 23.7919 45.113C23.7919 44.9851 23.7283 44.9211 23.6009 44.9211C21.6273 44.2175 19.5901 43.5778 17.6165 42.8742C17.5528 42.8742 17.5528 42.8102 17.4891 42.8742C17.4255 46.4563 17.3618 50.0384 17.2981 53.6205C19.7174 53.3006 22.2003 53.1087 24.6832 52.9808ZM46.1382 21.2537C46.1382 21.2537 46.1382 21.1898 46.1382 21.1258C46.2019 19.3987 46.2019 17.6716 46.2655 15.9446C46.2655 14.6652 46.3292 13.4499 46.3292 12.1706C46.3292 11.6588 46.3292 11.1471 46.3929 10.5714C46.3929 10.4435 46.3929 10.4435 46.2655 10.4435C46.0745 10.4435 45.8199 10.5075 45.6289 10.5075C44.8649 10.5714 44.1646 10.6354 43.4006 10.7633C42.7003 10.8273 42 10.8913 41.3634 10.9552C40.5994 11.0192 39.8991 11.0192 39.1351 11.0832C39.0714 11.0832 39.0714 11.0832 39.0078 11.0832C38.9441 11.0832 38.9441 11.0832 38.9441 11.1471V11.2111C39.0078 11.5949 39.0078 11.9787 39.0714 12.3625C39.1351 13.1301 39.2624 13.8977 39.3261 14.6652C39.3898 15.4328 39.5171 16.2004 39.5807 16.968C39.6444 17.6716 39.7081 18.3113 39.8354 19.0149C39.8354 19.1429 39.8991 19.1429 39.9627 19.2068C42 19.9104 43.9736 20.5501 46.0109 21.2537C46.0109 21.1898 46.0745 21.2537 46.1382 21.2537ZM46.1382 42.8102C46.0745 42.8102 46.0109 42.8742 46.0109 42.8742C44.7376 43.322 43.528 43.7058 42.2547 44.1535C41.4907 44.4094 40.663 44.6652 39.8991 44.9211C39.8354 44.9211 39.7717 44.9851 39.7717 45.049C39.7081 45.6247 39.6444 46.1365 39.5807 46.7122C39.5171 47.2878 39.4534 47.8635 39.3897 48.4392C39.3261 49.0789 39.2624 49.7825 39.1351 50.4222C39.0714 50.9979 39.0078 51.6375 38.9441 52.2132C38.9441 52.4051 38.8804 52.597 38.8804 52.8529C38.8804 52.9808 38.8804 52.9808 39.0078 52.9808C39.1351 52.9808 39.2624 52.9808 39.3261 52.9808C40.0901 52.9808 40.9177 53.0448 41.6817 53.1087C42.1273 53.1087 42.5093 53.1727 42.955 53.2367C43.4643 53.3006 43.9099 53.3006 44.4193 53.3646C44.9286 53.4286 45.5016 53.4925 46.0109 53.5565C46.1382 53.5565 46.2019 53.5565 46.3292 53.5565C46.2655 49.9744 46.2019 46.4563 46.1382 42.8102ZM16.7888 23.9403C16.7888 24.0043 16.7252 24.0043 16.7252 24.0682C15.3882 26.6908 14.0512 29.3134 12.7143 31.936C12.6506 32 12.6506 32.064 12.7143 32.1919C14.0512 34.8145 15.3882 37.4371 16.7252 40.0597C16.7252 40.1237 16.7888 40.1237 16.7888 40.1876C16.8525 40.1237 16.8525 40.0597 16.8525 40.0597C17.8711 37.4371 18.8261 34.8785 19.8447 32.2559C19.9084 32.1279 19.9084 32.064 19.8447 31.936C18.8261 29.3134 17.8711 26.6908 16.8525 24.1322C16.8525 24.0043 16.8525 23.9403 16.7888 23.9403ZM46.7748 40.1237C46.8385 40.0597 46.8385 40.0597 46.8385 39.9957C48.1755 37.3731 49.5124 34.7505 50.8494 32.1279C50.913 32 50.913 31.936 50.8494 31.8721C50.4674 31.1684 50.0854 30.4009 49.7671 29.6972C48.8121 27.8422 47.8571 25.9232 46.9022 24.0682C46.9022 24.0043 46.8385 23.9403 46.7748 23.9403C46.7748 24.0043 46.7748 24.0043 46.7112 24.0682C45.6925 26.6908 44.6739 29.3134 43.6553 31.936C43.5916 32 43.6553 32.1279 43.6553 32.1919C44.5466 34.5586 45.4379 36.9254 46.3292 39.2281C46.5202 39.548 46.6475 39.8678 46.7748 40.1237ZM26.4658 53.9403C26.4658 54.0043 26.5295 54.0043 26.5295 54.0682C28.3121 56.0512 30.0311 58.0981 31.559 60.3369C31.6863 60.4648 31.8773 60.4648 32.0047 60.3369C32.2593 59.9531 32.514 59.6333 32.7686 59.2495C33.9783 57.5863 35.3152 55.9872 36.6522 54.452C36.7795 54.3241 36.9068 54.1322 37.0342 54.0043C37.0978 53.9403 37.0978 53.9403 37.0342 53.8763L36.9705 53.8124C35.2516 52.3411 33.5963 50.8699 31.8773 49.3987C31.8773 49.3987 31.8137 49.3987 31.8137 49.3348C31.75 49.2708 31.75 49.2708 31.6863 49.3348C31.6863 49.3348 31.6863 49.3348 31.6227 49.3987C29.9037 50.8699 28.2484 52.3411 26.5295 53.8124C26.5295 53.8124 26.5295 53.8763 26.4658 53.9403ZM26.4658 10.1876C26.5295 10.2516 26.5295 10.2516 26.5932 10.3156C27.2935 10.9552 28.0575 11.5949 28.7578 12.1706C29.7127 13.0021 30.6677 13.8337 31.6863 14.6652C31.8137 14.7292 31.8137 14.7292 31.8773 14.6652C33.5326 13.194 35.2516 11.7868 36.9068 10.3156C36.9705 10.2516 37.0978 10.1876 37.0978 10.1237C37.0978 10.0597 36.9705 9.99573 36.9705 9.93177C35.1879 8.01279 33.5326 5.96588 32.0683 3.79104C31.941 3.59915 31.75 3.66311 31.6227 3.79104C31.368 4.11087 31.177 4.49467 30.9224 4.8145C29.6491 6.54158 28.3121 8.20469 26.8478 9.80384C26.6568 9.93177 26.5932 10.0597 26.4658 10.1876ZM23.3463 21.0618C23.2826 21.0618 23.2189 21.0618 23.2189 21.0618C21.4363 21.6375 19.7174 22.2132 17.9348 22.8529C17.8075 22.9168 17.8075 22.9168 17.8711 23.0448C18.2531 24.0682 18.6351 25.0917 19.0171 26.1151C19.5264 27.3945 20.0357 28.6738 20.4814 30.0171C20.4814 30.081 20.4814 30.145 20.545 30.145C21.5 27.0746 22.3913 24.0682 23.3463 21.0618ZM43.0823 33.9829C43.0186 33.9829 43.0186 33.9829 43.0823 33.9829C42.1273 36.9893 41.236 39.9957 40.2811 43.0021C40.3447 43.0021 40.4084 43.0021 40.472 42.9382C42.191 42.3625 43.9099 41.7868 45.6289 41.2111C45.8199 41.1471 45.8199 41.1471 45.7562 40.9552C45.0559 39.1002 44.3556 37.3092 43.6553 35.4542C43.4643 35.0064 43.2733 34.4947 43.0823 33.9829ZM40.2811 20.9979C40.2811 21.0618 40.2811 21.0618 40.2811 21.0618C41.1724 24.0682 42.1273 27.0107 43.0186 30.0171C43.0186 29.9531 43.0186 29.9531 43.0823 29.8891C43.9736 27.5864 44.8649 25.2836 45.7562 22.9808C45.8199 22.7889 45.8199 22.8529 45.6289 22.7889C44.2283 22.3412 42.8913 21.8294 41.4907 21.3817C41.1087 21.2537 40.7267 21.1258 40.2811 20.9979ZM20.545 33.9829C20.4814 34.0469 20.4814 34.0469 20.4814 34.1109C19.8447 35.71 19.2717 37.2452 18.6351 38.8443C18.3804 39.548 18.0621 40.3156 17.8075 41.0192C17.7438 41.1471 17.7438 41.1471 17.8711 41.2111C19.5264 41.7868 21.2453 42.3625 22.9006 42.9382C23.028 43.0021 23.0916 43.0021 23.2826 43.0661C22.3913 40.0597 21.5 37.0533 20.545 33.9829ZM17.9348 8.84435C20.0994 9.10021 22.264 9.29211 24.4922 9.35608C23.9829 7.56503 23.4736 5.77399 23.0916 3.98294C23.028 3.98294 22.9643 4.04691 22.9006 4.04691C22.0093 4.49467 21.2453 5.07036 20.545 5.77399C19.5901 6.66951 18.7624 7.69296 17.9984 8.78038C17.9348 8.78038 17.9348 8.78038 17.9348 8.84435ZM39.1351 9.35608C41.3634 9.29211 43.528 9.10021 45.6925 8.84435C45.6925 8.78038 45.6289 8.78038 45.6289 8.71642C45.5016 8.52452 45.3742 8.39659 45.2469 8.20469C44.5466 7.2452 43.7189 6.28571 42.8276 5.51812C42.191 4.94243 41.4907 4.4307 40.7267 4.04691C40.663 4.04691 40.663 3.98294 40.5357 3.98294C40.0901 5.77399 39.6444 7.56503 39.1351 9.35608ZM39.1351 54.7079C39.6444 56.4989 40.1537 58.29 40.5357 60.145C40.5994 60.145 40.5994 60.145 40.5994 60.145C40.9177 59.9531 41.236 59.6972 41.5543 59.5053C43.0823 58.29 44.3556 56.8827 45.5016 55.3475C45.5016 55.3475 45.5652 55.2836 45.5016 55.2836C43.4006 54.9638 41.236 54.7719 39.1351 54.7079ZM18.0621 55.2196C18.0621 55.2836 18.0621 55.2836 18.1258 55.3475C18.8261 56.307 19.6537 57.2665 20.4814 58.0981C21.2453 58.8017 22.0093 59.5053 22.9006 60.081C22.9643 60.081 22.9643 60.145 23.0916 60.145C23.4736 58.29 23.9829 56.4989 24.4922 54.7079C22.3276 54.7719 20.2267 54.9637 18.0621 55.2196ZM16.0885 11.8507C16.0248 11.9147 16.0248 11.9787 15.9612 12.0426C15.3245 13.258 14.6879 14.4733 14.1149 15.7527C13.6693 16.7761 13.2236 17.8635 12.778 18.951C12.7143 19.0789 12.7143 19.0789 12.8416 19.1429C13.5419 19.6546 14.3059 20.2303 15.0062 20.678C15.4519 20.8699 15.7702 21.0618 16.1522 21.1898C16.2158 21.1898 16.2158 21.2537 16.2795 21.2537C16.2158 18.1194 16.1522 14.9851 16.0885 11.8507ZM47.3478 21.2537C47.4115 21.2537 47.4115 21.2537 47.4752 21.2537C47.6025 21.1898 47.6661 21.1258 47.7935 21.1258C48.8758 20.5501 49.8307 19.8465 50.7857 19.1429C50.8494 19.0789 50.8494 19.0789 50.8494 18.951C50.7857 18.7591 50.722 18.5672 50.6584 18.3753C49.8307 16.2004 48.8758 14.0896 47.7935 12.1066C47.7298 12.0426 47.7298 11.9787 47.6661 11.9147C47.4752 14.9851 47.4115 18.1194 47.3478 21.2537ZM25.8292 11.5949C25.5745 13.8977 25.3199 16.1365 25.0652 18.4392C26.8478 17.4797 28.6304 16.5203 30.413 15.5608C28.9488 14.2814 27.4208 12.9382 25.8292 11.5949ZM25.8292 52.4691C27.3571 51.1258 28.8851 49.8465 30.413 48.5032C29.8401 48.1834 25.1925 45.6887 25.0652 45.6247C25.3199 47.8635 25.5745 50.1663 25.8292 52.4691ZM37.7345 52.4691C37.9891 50.1663 38.2438 47.9275 38.4984 45.6247C36.7158 46.5842 34.9332 47.5437 33.1506 48.5032C34.6786 49.8465 36.2065 51.1258 37.7345 52.4691ZM38.4984 18.4392C38.4984 18.1834 37.7981 11.7228 37.7345 11.5949C36.2065 12.9382 34.6786 14.2175 33.1506 15.5608C34.9332 16.5203 36.7158 17.4797 38.4984 18.4392ZM47.5388 52.0853C47.6025 52.0213 47.6025 51.9574 47.6661 51.9574C48.8758 49.7825 49.8307 47.4797 50.6584 45.113C50.722 44.9851 50.722 44.9851 50.5947 44.9211C49.9581 44.4094 49.3214 43.9616 48.6211 43.5139C48.2391 43.258 47.8571 43.0661 47.4752 42.8742C47.4115 42.8742 47.4115 42.8102 47.2842 42.8102C47.4115 45.8806 47.4752 48.951 47.5388 52.0853ZM16.2795 42.8102C16.2158 42.8102 16.2158 42.8102 16.2158 42.8102C15.9612 42.9382 15.7065 43.0661 15.3882 43.258C14.5606 43.7697 13.7966 44.2814 13.0326 44.8571C12.9053 44.9211 12.9053 44.9211 12.9689 45.049C13.2873 46.0085 13.6693 46.904 14.0512 47.8635C14.6242 49.2708 15.2609 50.6141 16.0248 51.9574C16.0248 52.0213 16.0885 52.0853 16.0885 52.0853C16.1522 51.0618 16.2795 43.0661 16.2795 42.8102ZM25.6382 8.90832C27.1662 7.2452 28.6304 5.51812 29.9674 3.72708C28.0575 3.72708 26.1475 3.72708 24.3012 3.72708C24.3649 4.4307 25.4472 8.33262 25.6382 8.90832ZM33.6599 3.72708C34.9969 5.58209 36.4612 7.2452 37.9891 8.97228C38.4984 7.2452 39.0078 5.51812 39.3897 3.72708C37.4161 3.72708 35.5699 3.72708 33.6599 3.72708ZM24.3012 60.3369C26.2112 60.3369 28.0575 60.3369 29.9674 60.3369C28.6304 58.4819 27.1662 56.8188 25.6382 55.1556C25.1289 56.8827 24.6832 58.6098 24.3012 60.3369ZM33.6599 60.3369C35.5699 60.3369 37.4161 60.3369 39.3261 60.3369C39.2624 59.8252 38.1165 55.3475 37.9255 55.1556C37.0978 55.9872 33.9783 59.8252 33.6599 60.3369ZM12.5233 29.3774C12.587 29.3134 12.587 29.3134 12.587 29.2495C13.1599 28.0981 13.7329 27.0107 14.3059 25.8593C14.8152 24.8998 15.2609 23.9403 15.7702 22.9808C15.8339 22.8529 15.8339 22.8529 15.7065 22.7889C15.2609 22.597 14.8789 22.3412 14.4969 22.0853C13.8602 21.7015 13.2236 21.2537 12.587 20.742C12.5233 20.742 12.5233 20.678 12.4596 20.678C12.5233 23.6205 12.5233 26.4989 12.5233 29.3774ZM12.5233 43.322C12.587 43.322 12.6506 43.258 12.6506 43.258C13.4783 42.6823 14.3059 42.1066 15.1335 41.5949C15.3245 41.4669 15.5155 41.403 15.7065 41.2751C15.8339 41.2111 15.8339 41.2111 15.7702 41.0832C14.6879 38.9723 13.6056 36.9254 12.587 34.8145C12.587 34.7505 12.587 34.7505 12.5233 34.6866C12.5233 37.565 12.5233 40.4435 12.5233 43.322ZM51.0404 43.322C51.104 43.258 51.0404 43.258 51.0404 43.258C51.0404 40.4435 51.0404 37.565 51.0404 34.7505C51.0404 34.8145 50.9767 34.8145 50.9767 34.8785C50.2127 36.3497 49.4488 37.8849 48.6848 39.3561C48.3665 39.9318 48.0481 40.5714 47.7935 41.1471C47.7298 41.2751 47.7298 41.2751 47.8571 41.2751C47.9845 41.339 48.1755 41.403 48.3028 41.5309C49.1304 41.9787 49.8307 42.4904 50.5947 43.0021C50.722 43.0661 50.913 43.194 51.0404 43.322ZM51.0404 20.742C50.9767 20.806 50.9767 20.806 50.913 20.806C50.722 20.9979 50.4674 21.1258 50.2764 21.3177C49.5124 21.8934 48.6848 22.4051 47.7935 22.8529C47.7298 22.9168 47.7298 22.9168 47.7935 22.9808C48.8758 25.0917 49.9581 27.2026 51.0404 29.2495C51.0404 29.2495 51.0404 29.3134 51.104 29.3134C51.0404 26.4989 51.0404 23.6205 51.0404 20.742Z" fill="#203F5B"/>
</svg>
