<svg width="64" height="64" viewBox="0 0 64 64" fill="none" xmlns="http://www.w3.org/2000/svg">
<path d="M52.7446 32.1325C52.7446 38.447 52.7446 44.6957 52.7446 51.0101C52.7446 51.4705 52.8111 51.339 52.4784 51.6021C49.1507 55.0224 45.8231 58.377 42.562 61.7315C42.2293 62.0604 42.3624 61.9946 41.8965 61.9946C35.1082 61.9946 28.3864 61.9946 21.598 61.9946C21.1322 61.9946 21.2653 62.0604 20.9325 61.7315C17.6049 58.3112 14.2773 54.9566 10.9497 51.5363C10.8831 51.4705 10.8831 51.4705 10.8166 51.4048C10.75 51.339 10.75 51.2732 10.75 51.2074C10.75 51.1417 10.75 51.0759 10.75 51.0101C10.75 38.447 10.75 25.8181 10.75 13.2549V13.1892C10.75 12.9918 10.8166 12.9261 10.8831 12.7945C11.4155 12.2025 11.8814 11.6763 12.3473 11.2159C15.209 8.25599 18.0708 5.23031 20.9325 2.27041C21.2653 1.94153 21.1322 2.00731 21.5315 2.00731C28.3198 2.00731 35.1082 2.00731 41.8965 2.00731C42.2958 2.00731 42.1627 1.94153 42.4289 2.20464C45.2907 5.23031 48.219 8.19021 51.0808 11.2159C51.5466 11.6763 52.0125 12.2025 52.4784 12.663C52.6115 12.7945 52.678 12.9261 52.678 13.1234C52.678 13.1892 52.678 13.2549 52.678 13.3207C52.7446 19.6352 52.7446 25.8838 52.7446 32.1325ZM22.3301 32.0667C22.3301 35.816 22.3301 39.5652 22.3301 43.3144C22.3301 43.3801 22.3301 43.5117 22.3301 43.5775C22.3301 43.6432 22.3301 43.709 22.3967 43.7748C22.4632 43.8406 22.4632 43.9064 22.5298 43.9721C23.9274 45.7481 25.3915 47.5898 26.7891 49.3657C27.0553 49.6946 26.9222 49.6288 27.3215 49.6288C30.3164 49.6288 33.2447 49.6288 36.2396 49.6288C36.3061 49.6288 36.3727 49.6288 36.4392 49.6288C36.5058 49.6288 36.5723 49.6288 36.6389 49.4973C36.6389 49.4315 36.7054 49.4315 36.7054 49.4315C38.1696 47.5898 39.6337 45.6823 41.0979 43.8406C41.1644 43.709 41.231 43.6432 41.231 43.4459C41.231 43.3801 41.231 43.3144 41.231 43.3144C41.231 35.816 41.231 28.2518 41.231 20.7533C41.231 20.6876 41.231 20.6218 41.231 20.556C41.231 20.4902 41.231 20.4245 41.1644 20.3587C41.0979 20.2929 41.0313 20.2271 41.0313 20.1614C39.6337 18.3197 38.1696 16.4779 36.772 14.6362C36.5723 14.3731 36.6389 14.3731 36.3061 14.3731C34.7089 14.3731 33.1782 14.3731 31.5809 14.3731C30.1167 14.3731 28.7192 14.3731 27.255 14.3731C27.0553 14.3731 26.9888 14.4389 26.8557 14.5704C26.5229 15.0309 26.1236 15.5571 25.7243 16.0175C24.6595 17.3988 23.5281 18.8459 22.4632 20.2271C22.3301 20.3587 22.2636 20.4902 22.2636 20.6876C22.2636 20.7533 22.2636 20.8191 22.2636 20.8191C22.3301 24.5683 22.3301 28.3175 22.3301 32.0667ZM12.2807 14.702C12.2807 14.8335 12.2807 14.8993 12.2807 14.9651C12.2807 26.3443 12.2807 37.7892 12.2807 49.1684C12.2807 49.2342 12.2807 49.3657 12.2807 49.4315C12.2807 49.4973 12.3473 49.4973 12.3473 49.4973C12.4138 49.4973 12.4138 49.4315 12.4804 49.4315C12.9462 49.1026 13.4121 48.7737 13.8114 48.4449C14.2107 48.1818 14.1442 48.3133 14.1442 47.8529C14.1442 37.3288 14.1442 26.8705 14.1442 16.3464C14.1442 16.2806 14.1442 16.2148 14.1442 16.1491C14.1442 16.0175 14.0776 15.886 13.9445 15.8202C13.4121 15.4913 12.8797 15.0966 12.4138 14.7678C12.4138 14.7678 12.3473 14.702 12.2807 14.702ZM51.2139 14.702C51.0808 14.7678 51.0142 14.8335 50.9477 14.8335C50.5483 15.1624 50.0825 15.4255 49.6832 15.7544C49.2838 16.0175 49.3504 15.886 49.3504 16.4122C49.3504 26.8705 49.3504 37.3946 49.3504 47.8529C49.3504 47.9187 49.3504 47.9844 49.3504 48.0502C49.3504 48.1818 49.3504 48.3133 49.4835 48.3791C50.0159 48.7737 50.5483 49.1026 51.0808 49.4973C51.0808 49.4973 51.1473 49.563 51.2139 49.4973V49.4315C51.2139 37.9208 51.2139 26.3443 51.2139 14.8335C51.2804 14.7678 51.2139 14.7678 51.2139 14.702ZM15.6749 17.0699C15.6749 17.2015 15.6749 17.2672 15.6749 17.333C15.6749 27.2651 15.6749 37.1972 15.6749 47.1293C15.7414 47.1293 15.808 47.0636 15.8745 46.9978C16.3404 46.7347 16.8063 46.4058 17.2056 46.0769C17.6049 45.8138 17.5383 45.9454 17.5383 45.4192C17.5383 36.5395 17.5383 27.594 17.5383 18.7143C17.5383 18.6485 17.5383 18.5828 17.5383 18.517C17.5383 18.3854 17.4718 18.2539 17.3387 18.1881C16.8063 17.8592 16.3404 17.4646 15.808 17.1357C15.808 17.1357 15.7414 17.0699 15.6749 17.0699ZM47.8197 17.0699C47.6866 17.1357 47.62 17.2015 47.5535 17.2672C47.1542 17.5303 46.7549 17.8592 46.289 18.1223C45.8897 18.3854 45.9562 18.2539 45.9562 18.7143C45.9562 27.6598 45.9562 36.5395 45.9562 45.485C45.9562 45.5507 45.9562 45.6165 45.9562 45.6823C45.9562 45.8138 46.0228 45.8796 46.0893 45.9454C46.6217 46.2743 47.0876 46.6689 47.62 46.9978C47.6866 46.9978 47.6866 47.0636 47.7531 47.0636C47.8197 46.8662 47.8862 17.3988 47.8197 17.0699ZM44.4921 32.0667C44.4921 27.9887 44.4921 23.9106 44.4921 19.8325C44.4921 19.7009 44.4921 19.6352 44.4921 19.5036C44.4921 19.4378 44.4255 19.3721 44.359 19.4378C43.9597 19.7667 43.4938 20.0298 43.0945 20.3587C42.6952 20.6218 42.7617 20.4902 42.7617 20.9507C42.7617 28.3833 42.7617 35.7502 42.7617 43.1828C42.7617 43.2486 42.7617 43.3144 42.7617 43.3801C42.7617 43.5117 42.8283 43.5775 42.8948 43.709C43.3607 43.9721 43.76 44.301 44.1593 44.6299C44.2259 44.6957 44.2924 44.7614 44.4255 44.7614C44.5586 44.6957 44.4921 44.5641 44.4921 44.4983C44.4921 44.4326 44.4921 44.3668 44.4921 44.301C44.4921 40.1571 44.4921 36.1448 44.4921 32.0667ZM19.1356 44.7614C19.2687 44.6957 19.3353 44.6299 19.4018 44.5641C19.8011 44.301 20.1339 44.0379 20.5332 43.7748C20.9325 43.5117 20.866 43.6432 20.866 43.117C20.866 35.6844 20.866 28.3175 20.866 20.8849C20.866 20.8191 20.866 20.7533 20.866 20.6876C20.866 20.556 20.7994 20.4902 20.7329 20.4245C20.3335 20.1614 19.8677 19.8325 19.4684 19.5694C19.4018 19.5036 19.3353 19.4378 19.2022 19.4378C19.1356 19.5036 19.1356 19.6352 19.1356 19.7667C19.1356 27.9887 19.1356 36.2106 19.1356 44.4326C19.0691 44.4983 19.0691 44.6299 19.1356 44.7614ZM22.796 3.52015C22.796 3.58592 22.8625 3.6517 22.8625 3.71747C23.1287 4.24368 23.3284 4.76988 23.5946 5.29609C23.7943 5.69074 23.6612 5.62497 24.127 5.62497C29.2516 5.62497 34.3096 5.62497 39.4341 5.62497C39.5006 5.62497 39.5672 5.62497 39.6337 5.62497C39.7668 5.62497 39.8334 5.55919 39.9 5.42764C40.1662 4.83566 40.4324 4.24368 40.7651 3.58592C40.7651 3.52015 40.8317 3.52015 40.7651 3.45437C40.3658 3.52015 22.9956 3.52015 22.796 3.52015ZM39.7668 58.377C39.6337 58.377 39.5006 58.377 39.4341 58.377C34.3096 58.377 29.185 58.377 24.0605 58.377C23.9939 58.377 23.9274 58.377 23.8608 58.377C23.7277 58.377 23.6612 58.4427 23.5946 58.5085C23.3284 59.1005 23.0622 59.6925 22.796 60.2845C22.796 60.3502 22.7294 60.3502 22.7294 60.416C22.7294 60.4818 22.7294 60.4818 22.796 60.4818C22.9291 60.4818 22.9956 60.4818 23.1287 60.4818C28.8523 60.4818 34.6423 60.4818 40.3658 60.4818C40.4324 60.4818 40.5655 60.4818 40.632 60.4818C40.6986 60.4818 40.6986 60.4818 40.7651 60.4818C40.6986 60.2845 40.0331 58.8374 39.7668 58.377ZM24.3267 56.8641C24.4598 56.8641 24.5263 56.8641 24.5929 56.8641C29.3181 56.8641 34.0433 56.8641 38.7686 56.8641C38.8351 56.8641 38.9017 56.8641 38.9682 56.8641C39.0348 56.8641 39.0348 56.7984 39.0348 56.7984C39.0348 56.7326 38.9682 56.6668 38.9682 56.601C38.6355 55.9433 38.3027 55.2197 38.0365 54.562C37.9034 54.2331 37.9699 54.2989 37.6372 54.2989C33.7106 54.2989 29.7174 54.2989 25.7908 54.2989C25.7243 54.2989 25.6577 54.2989 25.5912 54.2989C25.5246 54.2989 25.4581 54.2989 25.4581 54.3647C25.4581 54.4304 25.3915 54.4304 25.3915 54.4962C25.0588 55.154 24.7926 55.8775 24.4598 56.5353C24.3932 56.6668 24.3932 56.7326 24.3267 56.8641ZM24.4598 7.20358C24.5263 7.33513 24.5929 7.46668 24.5929 7.53246C24.8591 8.19021 25.1919 8.84797 25.5246 9.43995C25.7243 9.8346 25.5912 9.76883 26.0571 9.76883C29.9171 9.76883 33.7106 9.76883 37.5706 9.76883H37.6372C37.9699 9.76883 37.9034 9.8346 38.103 9.50572C38.3692 8.97952 38.5689 8.45331 38.8351 7.92711C38.9017 7.72978 39.0348 7.53246 39.1013 7.33513C39.1679 7.20358 39.1679 7.1378 38.9682 7.1378C38.9017 7.1378 38.8351 7.1378 38.7686 7.1378C34.1764 7.1378 29.5178 7.1378 24.9257 7.1378C24.726 7.20358 24.5929 7.20358 24.4598 7.20358ZM50.8145 13.1234C50.8145 13.0576 50.748 12.9918 50.6814 12.9261C50.5483 12.7945 50.4152 12.663 50.2821 12.5314C48.219 10.4266 46.2224 8.25599 44.1593 6.15117C43.5603 5.49341 42.9614 4.90143 42.3624 4.24368C42.2958 4.1779 42.2958 4.11213 42.2293 4.11213C42.1627 4.11213 42.1627 4.1779 42.1627 4.24368C41.8965 4.90143 41.5638 5.49341 41.2976 6.15117C41.231 6.28272 41.231 6.3485 41.3641 6.48005C41.6969 6.80893 42.0296 7.20358 42.3624 7.53246C44.4255 9.76883 46.4886 12.071 48.5518 14.3073C48.6183 14.3731 48.6849 14.5047 48.818 14.5047C49.417 14.0442 50.149 13.5838 50.8145 13.1234ZM14.8097 14.5704C14.8762 14.5047 14.9428 14.4389 15.0094 14.3073C16.6732 12.4656 18.337 10.6239 20.0673 8.78219C20.7994 7.99289 21.4649 7.26935 22.197 6.48005C22.3967 6.28272 22.3967 6.28272 22.2636 6.01962C21.9974 5.42764 21.7311 4.83566 21.4649 4.24368C21.4649 4.1779 21.3984 4.11213 21.3318 4.04635C21.0656 4.24368 14.6766 10.887 12.8131 12.8603C12.7466 12.9918 12.7466 12.9918 12.68 13.0576C12.8797 13.2549 14.4769 14.3731 14.8097 14.5704ZM48.7514 49.6288C48.6183 49.6946 48.5518 49.8262 48.4852 49.8919C46.4886 51.9967 44.5586 54.1673 42.562 56.2722C42.1627 56.7326 41.7634 57.1272 41.3641 57.5877C41.231 57.7192 41.231 57.785 41.2976 57.9165C41.5638 58.5085 41.8965 59.1663 42.1627 59.7583C42.1627 59.824 42.1627 59.8898 42.2958 59.8898C42.3624 59.824 42.4289 59.7583 42.562 59.6925C44.0928 58.1139 45.6235 56.5353 47.1542 54.9566C48.3521 53.7727 49.4835 52.5229 50.6814 51.339C50.748 51.2732 50.8145 51.2074 50.8145 51.2074C50.8811 51.1417 50.8811 51.0759 50.8145 51.0101C50.748 50.9443 50.6814 50.9443 50.6149 50.8786C50.0825 50.4839 49.5501 50.155 49.0176 49.7604C48.8845 49.7604 48.818 49.6946 48.7514 49.6288ZM21.2653 59.9556C21.3318 59.8898 21.3318 59.824 21.3318 59.824C21.598 59.1663 21.8643 58.5743 22.197 57.9165C22.197 57.8508 22.197 57.8508 22.2636 57.785C22.2636 57.7192 22.2636 57.6534 22.2636 57.5877C22.197 57.5219 22.197 57.4561 22.1305 57.4561C21.3984 56.6668 20.6663 55.8775 19.8677 55.0224C18.2704 53.3123 16.6066 51.5363 15.0094 49.8261C14.9428 49.7604 14.8762 49.6946 14.8097 49.6288C14.2107 50.0235 13.6118 50.4839 13.0128 50.8786C12.68 51.0759 12.7466 51.0759 12.9462 51.339C15.6749 54.1016 18.337 56.8641 21.0656 59.6267C21.0656 59.7583 21.1987 59.824 21.2653 59.9556ZM23.0622 7.79556C22.9291 7.86133 22.8625 7.92711 22.796 8.05866C21.1322 9.8346 19.5349 11.6763 17.8711 13.4523C17.3387 14.0442 16.7397 14.702 16.2073 15.294C16.0742 15.4255 16.0742 15.4255 16.2073 15.5571C16.8063 15.9517 17.3387 16.3464 17.9377 16.741C18.0708 16.8068 18.2039 16.8726 18.337 17.0041C18.4701 16.9384 18.5366 16.8068 18.6697 16.6753C20.0673 15.0966 21.4649 13.4523 22.8625 11.8736C23.2619 11.3474 23.7277 10.887 24.127 10.3608C24.1936 10.295 24.2601 10.2293 24.1936 10.0977C23.8608 9.37417 23.5281 8.65064 23.1953 7.92711C23.1287 7.86133 23.0622 7.86133 23.0622 7.79556ZM45.2241 17.0041C45.2241 17.0041 45.2907 17.0041 45.2907 16.9384C46.0228 16.4779 46.6883 15.9517 47.4204 15.4913C47.4204 15.4913 47.4204 15.4913 47.4204 15.4255C47.3538 15.3597 47.2873 15.294 47.2207 15.2282C46.3555 14.3073 45.5569 13.3865 44.6917 12.4656C43.3607 10.9528 41.9631 9.50572 40.632 7.99289C40.5655 7.92711 40.5655 7.86133 40.4324 7.86133C40.4324 7.92711 40.3658 7.99289 40.3658 8.05866C40.0996 8.71642 39.7669 9.37417 39.5006 9.96615C39.3675 10.295 39.301 10.2293 39.5672 10.4924C41.3641 12.5972 43.2276 14.702 45.0245 16.8068C45.091 16.8726 45.1576 16.9384 45.2241 17.0041ZM40.4989 56.2722C40.632 56.2064 40.6986 56.1406 40.7651 56.0748C42.562 54.1016 44.4255 52.1941 46.2224 50.2208C46.6217 49.7604 47.0211 49.3657 47.4204 48.9053C47.4869 48.8395 47.4869 48.7737 47.4204 48.708C46.7549 48.2475 46.0893 47.7871 45.3573 47.2609C45.2241 47.1951 45.2241 47.1951 45.1576 47.2609C45.091 47.3267 45.091 47.3925 45.0245 47.3925C43.2276 49.4315 41.4307 51.4705 39.6337 53.5096C39.301 53.9042 39.3675 53.7069 39.5672 54.1673C39.8334 54.8909 40.1662 55.5486 40.4989 56.2722ZM24.0605 53.7069C24.0605 53.7069 24.0605 53.6411 23.9939 53.6411C23.9274 53.5754 23.9274 53.5096 23.8608 53.4438C22.4632 51.8652 21.0656 50.2866 19.668 48.708C19.2687 48.2475 18.8694 47.7871 18.4035 47.3267C18.337 47.1951 18.2704 47.1951 18.2039 47.3267C17.5383 47.7871 16.8728 48.2475 16.1407 48.7737C16.0076 48.8395 16.0076 48.8395 16.1407 48.9711L16.2073 49.0368C18.337 51.339 20.5332 53.6411 22.6629 56.0091C22.7294 56.0748 22.796 56.1406 22.8625 56.2064C22.9291 56.2722 22.9956 56.2722 22.9956 56.2064C23.1953 55.746 23.395 55.3513 23.5946 54.8909C23.7277 54.562 23.8608 54.2989 23.9939 53.97C24.0605 53.7727 24.0605 53.7727 24.0605 53.7069ZM31.6475 52.786C33.3778 52.786 35.0416 52.786 36.772 52.786C36.8385 52.786 36.9716 52.786 37.0382 52.786C37.1713 52.786 37.1713 52.7861 37.1048 52.6545C36.9051 52.2598 36.772 51.8652 36.5723 51.4705C36.3727 51.1417 36.5058 51.1417 36.1065 51.1417C33.1116 51.1417 30.1833 51.1417 27.1884 51.1417C27.1219 51.1417 27.0553 51.1417 26.9888 51.1417C26.9222 51.1417 26.8557 51.2074 26.7891 51.2732C26.5895 51.6679 26.4564 52.0625 26.2567 52.5229C26.1236 52.7861 26.1236 52.786 26.4564 52.786C28.1867 52.786 29.9171 52.786 31.6475 52.786ZM26.3898 11.2817C26.3898 11.3474 26.4564 11.4132 26.4564 11.4132C26.656 11.8736 26.8557 12.2683 27.0553 12.7287C27.1219 12.8603 27.1884 12.9261 27.3215 12.9261C27.3881 12.9261 27.4547 12.9261 27.4547 12.9261C30.3164 12.9261 33.2447 12.9261 36.1065 12.9261C36.173 12.9261 36.2396 12.9261 36.3061 12.9261C36.4392 12.9261 36.5058 12.8603 36.5723 12.7945C36.772 12.3341 36.9716 11.9394 37.1713 11.479C37.1713 11.4132 37.2379 11.4132 37.1713 11.3474C33.5775 11.2817 29.9836 11.2817 26.3898 11.2817ZM24.9257 11.7421C24.5929 12.071 19.7346 17.6619 19.6015 17.8592C19.6015 17.925 19.668 17.925 19.7346 17.9908C20.2004 18.3197 20.7329 18.6485 21.1987 19.0432C21.2653 19.0432 21.2653 19.109 21.3318 19.109C21.3984 19.109 21.3984 19.109 21.4649 19.109C21.5315 19.0432 21.598 18.9774 21.598 18.9116C22.3967 17.925 23.1953 16.8726 23.9274 15.886C24.4598 15.1624 24.9922 14.4389 25.5912 13.7811C25.6577 13.6496 25.7243 13.5838 25.6577 13.4523C25.4581 12.9918 25.1919 12.4656 24.9922 12.0052C24.9257 11.8736 24.9257 11.8079 24.9257 11.7421ZM43.9597 17.8592C43.8931 17.7277 43.8265 17.6619 43.6934 17.5961C43.0945 16.8726 42.4955 16.2148 41.8965 15.4913C40.8982 14.3073 39.8334 13.1234 38.8351 11.9394C38.7686 11.8736 38.7686 11.8079 38.6355 11.8079C38.4358 12.2683 38.1696 12.7945 37.9699 13.2549C37.8368 13.5838 37.7703 13.518 38.0365 13.7811C38.9017 14.8993 39.7669 16.0175 40.632 17.1357C41.0979 17.7934 41.6303 18.3854 42.0962 19.0432C42.1627 19.1747 42.2293 19.1747 42.2958 19.109C42.8283 18.7143 43.3607 18.3854 43.8931 17.9908C43.8931 17.925 43.8931 17.925 43.9597 17.8592ZM43.8931 46.2743C43.8265 46.2085 43.76 46.1427 43.6269 46.0769C43.2276 45.7481 42.7617 45.485 42.3624 45.2219C42.0296 45.0245 42.0962 44.9588 41.83 45.2876C41.0313 46.2743 40.2327 47.3267 39.4341 48.3133C38.9017 48.9711 38.3692 49.6946 37.8368 50.3524C37.7037 50.4839 37.7037 50.5497 37.7703 50.747C37.9699 51.2074 38.2361 51.6679 38.4358 52.1283C38.4358 52.1941 38.5024 52.2598 38.5024 52.2598C38.8351 52.1283 43.76 46.5374 43.8931 46.2743ZM24.726 52.1283C24.7926 52.0625 24.7926 52.0625 24.726 52.1283C24.9922 51.5363 25.2584 51.0101 25.4581 50.4839C25.5246 50.4181 25.4581 50.3524 25.4581 50.2866C25.3915 50.2208 25.3915 50.155 25.325 50.0892C24.1936 48.708 23.1287 47.2609 21.9974 45.8796C21.7977 45.6165 21.598 45.3534 21.3318 45.0903C21.1322 45.2219 19.7346 46.1427 19.5349 46.34C19.668 46.6031 23.395 50.8128 24.5263 52.0625C24.6595 52.0625 24.6595 52.0625 24.726 52.1283Z" fill="#203F5B"/>
</svg>
