<svg width="64" height="64" viewBox="0 0 64 64" fill="none" xmlns="http://www.w3.org/2000/svg">
<path d="M31.7687 11.5247C31.8552 11.3531 31.9417 11.2673 32.0282 11.1815C33.239 9.55167 34.6228 8.09336 36.1796 6.80662C37.6498 5.60566 39.2931 4.66204 41.1093 3.97578C42.2337 3.54687 43.358 3.28952 44.5688 3.11795C45.4337 3.03217 46.2985 3.03217 47.2499 3.11795C49.2391 3.28952 51.0553 3.80422 52.8715 4.57626C53.0445 4.66204 53.2175 4.74783 53.3905 4.83361C54.4283 5.51987 55.2932 6.29192 56.158 7.14975C58.5797 9.63746 60.1364 12.4683 61.0013 15.8138C61.2608 16.8432 61.4337 17.8726 61.6067 18.9878C61.7797 20.1888 61.7797 21.3897 61.6932 22.5907C61.6932 22.9338 61.6067 23.3627 61.6067 23.7059C61.6067 23.8774 61.6067 23.9632 61.6932 24.1348C61.7797 24.3921 61.7797 24.6495 61.6067 24.821C61.5202 24.9068 61.4337 25.0784 61.4337 25.25C61.3472 25.5931 61.3472 25.9362 61.2608 26.2793C61.0013 27.7377 60.5689 29.2818 60.0499 30.6543C59.1851 33.142 58.1472 35.5439 56.8499 37.86C55.3797 40.5193 53.7364 43.0928 51.9202 45.5805C51.6607 45.9236 51.4013 46.2668 51.1418 46.6957C50.4499 47.6393 49.6715 48.4971 48.8067 49.2692C47.5093 50.4701 46.0391 51.5853 44.5688 52.6147C41.8877 54.5877 39.0336 56.4749 36.2661 58.2764C34.9688 59.1342 33.6715 59.9063 32.3741 60.7641C32.2877 60.8499 32.2012 60.8499 32.1147 60.9357C31.8552 61.0214 31.6823 61.0214 31.4228 60.9357C31.3363 60.9357 31.2498 60.8499 31.1633 60.8499C27.012 58.3622 22.9471 55.7029 19.0552 52.8721C17.6714 51.8427 16.2876 50.8133 14.9903 49.6981C14.5579 49.2692 14.0389 48.8403 13.6065 48.4114C13.2606 48.0682 12.9146 47.6393 12.5687 47.2962C10.6659 44.8085 8.93621 42.235 7.37944 39.4899C5.99565 37.088 4.78484 34.6003 3.747 32.0268C3.0551 30.2254 2.53618 28.4239 2.19023 26.5367C2.10375 26.1078 2.01726 25.7647 2.01726 25.3357C2.01726 25.25 1.93077 25.1642 1.93077 24.9926C1.7578 24.7353 1.67131 24.4779 1.84429 24.2206C1.93077 24.049 1.93077 23.9632 1.93077 23.7916C1.84429 22.9338 1.84429 22.076 1.84429 21.2182C1.93077 17.7868 2.62267 14.5271 4.3524 11.4389C5.47673 9.12276 7.11998 7.14975 9.10918 5.60566C9.80108 5.00518 10.6659 4.57626 11.5308 4.23313C12.6551 3.80422 13.7795 3.46108 14.9038 3.28952C16.0281 3.03217 17.2389 2.94639 18.4498 3.03217C21.1309 3.20373 23.466 4.14735 25.7147 5.60566C27.3579 6.63505 28.7417 7.9218 30.039 9.29432C30.6444 9.8948 31.1633 10.5811 31.6823 11.2673C31.5958 11.3531 31.6823 11.4389 31.7687 11.5247ZM13.2606 45.1516C13.2606 45.2374 13.2606 45.2374 13.2606 45.1516C13.2606 44.98 13.2606 44.8942 13.2606 44.7227C13.1741 44.3795 13.1741 43.9506 13.0876 43.6075C12.9146 42.6639 12.8281 41.6345 12.6551 40.6909C12.4822 39.6615 12.3957 38.6321 12.2227 37.6027C12.2227 37.4311 12.1362 37.3453 12.0497 37.2596C10.147 35.887 8.24431 34.5145 6.25512 33.142C6.16863 33.142 6.16863 33.0562 6.08214 33.0562C6.08214 33.142 6.08214 33.142 6.08214 33.2278C6.25512 33.5709 6.42809 33.914 6.60106 34.2572C7.72539 36.7449 9.10918 39.1468 10.6659 41.4629C11.4443 42.6639 12.2227 43.7791 13.0876 44.8942C13.1741 45.0658 13.1741 45.1516 13.2606 45.1516ZM31.7687 45.2374C31.8552 45.1516 31.9417 45.1516 32.0282 45.0658C34.7093 42.9212 37.3904 40.7767 40.0715 38.5463C40.2444 38.3747 40.3309 38.289 40.5039 38.1174C42.4066 35.115 44.3093 32.1984 46.212 29.196C46.2985 29.0244 46.385 28.8528 46.385 28.5955C46.385 24.9926 46.385 21.3039 46.385 17.7011C46.385 17.6153 46.385 17.5295 46.385 17.4437C46.385 17.3579 46.385 17.2721 46.2985 17.2721C46.212 17.2721 46.212 17.2721 46.1256 17.1864C43.4445 16.5001 40.7634 15.8138 38.0823 15.1276C37.6498 15.0418 37.7363 15.0418 37.4769 15.2991C35.8336 16.5001 34.2769 17.6153 32.6336 18.8162C32.5471 18.902 32.4606 18.902 32.3741 18.9878C32.0282 19.1594 31.7687 19.1594 31.5093 18.9878C31.4228 18.902 31.2498 18.8162 31.1633 18.7304C29.5201 17.5295 27.9633 16.4143 26.3201 15.2133C26.1471 15.1276 26.0606 15.0418 25.8876 15.1276C23.2065 15.8138 20.439 16.5001 17.7579 17.1864C17.3254 17.2721 17.4119 17.2721 17.4119 17.6153C17.4119 21.2182 17.4119 24.9068 17.4119 28.5097C17.4119 28.7671 17.4984 28.9386 17.5849 29.196C19.4876 32.1984 21.3903 35.115 23.3795 38.1174C23.466 38.289 23.5525 38.3747 23.7255 38.4605C24.3309 38.8894 24.8498 39.4041 25.4552 39.8331C27.5309 41.5487 29.6931 43.2644 31.7687 44.98C31.5958 45.0658 31.6823 45.1516 31.7687 45.2374ZM13.9524 38.0316C13.9524 38.1174 13.9524 38.2032 13.9524 38.2032C14.0389 38.8037 14.1254 39.4899 14.2119 40.0904C14.2984 40.7767 14.3849 41.4629 14.4714 42.1492C14.5579 42.8355 14.6443 43.5217 14.7308 44.208C14.8173 44.8942 14.9038 45.5805 14.9903 46.3526C15.0768 46.6957 15.0768 47.0388 15.1633 47.2962C15.1633 47.382 15.2497 47.4677 15.3362 47.4677C15.4227 47.4677 15.4227 47.4677 15.5092 47.5535C16.2011 47.8109 16.893 47.9824 17.4984 48.2398C20.0065 49.0976 22.6011 49.9554 25.1093 50.8133C25.1957 50.8133 25.2822 50.8991 25.3687 50.8991C25.3687 50.8133 25.2822 50.7275 25.2822 50.6417C24.2444 47.1246 23.1201 43.6075 22.0822 40.0904C22.0822 40.0046 21.9957 39.9188 21.9957 39.8331C21.9957 39.7473 21.9092 39.6615 21.8228 39.6615H21.7363C20.8714 39.4899 20.0065 39.3184 19.1417 39.1468C17.7579 38.8894 16.3741 38.5463 14.9038 38.289C14.7308 38.1174 14.3849 38.1174 13.9524 38.0316ZM38.0823 50.8133C38.1688 50.8133 38.2553 50.7275 38.3417 50.7275C41.1093 49.7839 43.8769 48.8403 46.731 47.8966C47.1634 47.7251 47.6823 47.5535 48.1148 47.4677C48.2877 47.382 48.3742 47.382 48.3742 47.2104C48.4607 46.6099 48.5472 46.0952 48.6337 45.4947C48.7202 44.8085 48.8066 44.1222 48.8931 43.4359C48.9796 42.7497 49.0661 42.0634 49.1526 41.3771C49.2391 40.6909 49.3256 40.0046 49.4121 39.3184C49.4985 38.9752 49.4985 38.5463 49.585 38.2032V38.1174C49.585 38.0316 49.585 37.9458 49.4121 38.0316C48.5472 38.2032 47.7688 38.3747 46.9039 38.5463C45.4337 38.8894 43.8769 39.1468 42.4066 39.4899C42.1472 39.5757 41.8877 39.5757 41.5418 39.6615C41.4553 39.6615 41.4553 39.7473 41.3688 39.8331C41.3688 39.9188 41.3688 39.9188 41.2823 40.0046C41.0228 40.6909 40.8499 41.4629 40.5904 42.1492C39.7255 44.98 38.8607 47.8109 37.9958 50.6417C38.0823 50.6417 38.0823 50.7275 38.0823 50.8133ZM54.7742 22.5907C54.6878 22.5907 54.6013 22.7622 54.5148 22.7622C52.4391 24.9068 50.3634 26.9656 48.2877 29.1102L48.2012 29.196C48.1148 29.2818 48.1148 29.3675 48.1148 29.4533V29.5391C48.9796 31.5121 49.8445 33.5709 50.7094 35.5439C50.7094 35.6297 50.7094 35.6297 50.7958 35.7155C53.2175 33.9998 55.6391 32.2842 58.0607 30.5685C57.0229 27.9092 55.8986 25.25 54.7742 22.5907ZM12.6551 35.7155C12.7416 35.6297 12.7416 35.5439 12.8281 35.4581C13.693 33.5709 14.4714 31.5979 15.3362 29.7107C15.5092 29.3675 15.5092 29.4533 15.2497 29.196C13.1741 27.0514 11.0984 24.9926 9.02269 22.848C8.93621 22.7622 8.84972 22.7622 8.84972 22.6765C8.67675 22.6765 8.67675 22.7622 8.59026 22.848C7.81188 24.7353 7.0335 26.5367 6.25512 28.4239C5.99565 29.0244 5.73619 29.7107 5.47673 30.3111C5.39025 30.5685 5.30376 30.5685 5.56322 30.7401C7.89837 32.3699 10.147 33.9998 12.4822 35.6297C12.4822 35.6297 12.5687 35.7155 12.6551 35.7155ZM47.9418 8.69384C47.9418 8.77963 47.9418 8.86541 47.9418 8.95119C47.9418 11.2673 47.9418 13.5835 47.9418 15.8138C47.9418 15.8996 47.9418 15.8996 47.9418 15.9854C47.9418 16.0712 47.9418 16.157 48.0283 16.157C48.0283 16.157 48.1148 16.157 48.1148 16.2427C50.1904 17.4437 52.3526 18.5589 54.4283 19.7598C54.5148 19.7598 54.5148 19.8456 54.6013 19.8456C54.6013 19.7598 54.6878 19.7598 54.6878 19.6741C55.6391 17.3579 56.5905 15.0418 57.5418 12.6399C57.6283 12.3825 57.6283 12.3825 57.3689 12.2967C55.9851 11.782 54.6013 11.1815 53.131 10.6669C51.4877 9.98059 49.8445 9.38011 48.2012 8.69384C48.2012 8.77963 48.1148 8.69384 47.9418 8.69384ZM8.84972 19.9314C8.93621 19.9314 9.02269 19.8456 9.10918 19.8456C11.1849 18.7304 13.2606 17.5295 15.2497 16.4143C15.5957 16.157 15.5957 16.2427 15.5957 15.8996C15.5957 13.5835 15.5957 11.3531 15.5957 9.03697C15.5957 8.95119 15.5957 8.86541 15.5957 8.69384C15.5092 8.69384 15.3362 8.77963 15.2497 8.77963C12.9146 9.72324 10.5795 10.5811 8.24431 11.5247C7.46593 11.782 6.77404 12.1252 5.99565 12.3825C5.82268 12.4683 5.82268 12.4683 5.90917 12.6399C5.90917 12.7256 5.99565 12.7256 5.99565 12.8114C6.94701 15.1276 7.81188 17.3579 8.76323 19.6741C8.76323 19.7598 8.76323 19.8456 8.84972 19.9314ZM45.6066 7.57867C45.6066 7.49288 45.5201 7.49288 45.5201 7.4071C44.3958 6.72084 43.358 6.12035 42.2336 5.43409C42.0607 5.34831 41.9742 5.34831 41.8012 5.43409C41.8012 5.43409 41.7147 5.43409 41.7147 5.51987C40.5904 5.94879 39.5526 6.46349 38.5147 7.14975C36.439 8.52228 34.7093 10.3237 33.239 12.2967L33.1525 12.3825V12.4683H33.239C34.1904 12.6399 35.0552 12.8972 36.0066 13.0688C36.3525 13.1546 36.6985 13.2403 37.0444 13.3261C37.1309 13.3261 37.3039 13.3261 37.3904 13.2403C37.3904 13.2403 37.4769 13.2403 37.4769 13.1546C40.0715 11.3531 42.6661 9.55167 45.2607 7.75023C45.4337 7.75023 45.5201 7.66445 45.6066 7.57867ZM17.9308 7.57867C18.0173 7.66445 18.1038 7.75023 18.1903 7.75023C19.5741 8.69384 20.8714 9.63746 22.2552 10.5811C23.5525 11.4389 24.7633 12.2967 26.0606 13.2403C26.2336 13.3261 26.3201 13.3261 26.493 13.3261C27.7039 13.0688 28.9147 12.8114 30.1255 12.4683C30.3849 12.3825 30.4714 12.4683 30.212 12.1252C29.1741 10.7526 27.8768 9.38011 26.493 8.17915C25.2822 7.14975 23.9849 6.3777 22.5146 5.69144C22.2552 5.60566 21.9092 5.51987 21.6498 5.43409C21.5633 5.43409 21.4768 5.34831 21.3903 5.43409C21.3903 5.43409 21.3038 5.43409 21.3038 5.51987C20.266 6.12035 19.1417 6.80662 18.1038 7.4071C18.0173 7.4071 18.0173 7.49288 17.9308 7.57867ZM31.7687 58.6195C31.8552 58.5337 31.9417 58.448 31.9417 58.448C33.1525 56.4749 34.4498 54.5019 35.6606 52.5289C35.6606 52.4431 35.7471 52.4431 35.7471 52.3574C35.7471 52.2716 35.7471 52.2716 35.7471 52.1858L35.6606 52.1C34.4498 50.6417 33.1525 49.1834 31.9417 47.8109C31.8552 47.7251 31.8552 47.6393 31.7687 47.6393C31.7687 47.7251 31.6823 47.7251 31.6823 47.8109C30.8174 48.7545 30.039 49.7839 29.1741 50.7275C28.7417 51.2422 28.3093 51.7569 27.8768 52.2716C27.7903 52.3574 27.7903 52.3574 27.8768 52.5289C27.8768 52.6147 27.9633 52.6147 27.9633 52.7005C29.1741 54.6735 30.3849 56.6465 31.6823 58.6195C31.5958 58.448 31.6823 58.5337 31.7687 58.6195ZM53.7364 21.3039C53.6499 21.2182 53.6499 21.2182 53.5634 21.1324C51.7472 20.103 50.0175 19.1594 48.2012 18.13C48.1148 18.13 48.1148 18.0442 48.0283 18.0442C47.9418 18.0442 47.9418 18.0442 47.9418 18.13C47.9418 18.2158 47.9418 18.3015 47.9418 18.3873C47.9418 19.2451 47.9418 20.103 47.9418 20.9608C47.9418 22.9338 47.9418 24.9068 47.9418 26.794C47.9418 26.8798 47.9418 26.9656 47.9418 27.0514C47.9418 27.0514 47.9418 27.0514 47.9418 27.1372H48.0283C48.1148 27.0514 48.1148 27.0514 48.2012 26.9656C48.7202 26.4509 49.2391 25.8504 49.758 25.3357C50.9688 24.049 52.2661 22.848 53.4769 21.5613C53.5634 21.4755 53.6499 21.3897 53.7364 21.3039ZM9.80108 21.3039C11.7038 23.2769 13.6065 25.25 15.5092 27.1372V27.0514C15.5092 24.049 15.5092 21.1324 15.5092 18.13C15.4227 18.13 15.4227 18.13 15.4227 18.13C13.52 19.1594 11.7038 20.2745 9.80108 21.3039ZM57.3689 33.142C57.2824 33.2278 57.1959 33.2278 57.1094 33.3135C55.2067 34.6003 53.3905 35.9728 51.4877 37.2596C51.2283 37.4311 51.2283 37.4311 51.1418 37.7743V37.86C51.0553 38.3747 50.9688 38.8894 50.9688 39.4041C50.8823 40.0904 50.7958 40.7767 50.7094 41.4629C50.6229 42.1492 50.5364 42.8355 50.4499 43.5217C50.3634 44.0364 50.2769 44.5511 50.2769 44.98C50.2769 45.0658 50.2769 45.0658 50.2769 45.1516C51.7472 43.0928 53.2175 41.034 54.5148 38.8894C55.5526 37.088 56.5905 35.115 57.3689 33.142ZM24.1579 13.9266C24.0714 13.8408 23.9849 13.755 23.8984 13.755C21.7363 12.2967 19.6606 10.7526 17.4984 9.29432C17.4119 9.20854 17.3254 9.12276 17.3254 9.12276H17.2389V9.20854C17.2389 9.8948 17.2389 10.5811 17.2389 11.2673C17.2389 12.5541 17.2389 13.9266 17.2389 15.2133C17.2389 15.2991 17.2389 15.3849 17.2389 15.4707C19.4876 14.8702 21.7363 14.3555 23.9849 13.755C24.0714 13.9266 24.0714 13.9266 24.1579 13.9266ZM39.3796 13.9266C39.4661 13.9266 39.5526 14.0124 39.5526 14.0124C41.7147 14.5271 43.7904 15.1276 45.9526 15.6423C46.212 15.728 46.212 15.8138 46.212 15.3849C46.212 13.4119 46.212 11.4389 46.212 9.46589C46.212 9.38011 46.212 9.29432 46.212 9.20854C46.212 9.20854 46.1256 9.12276 46.1256 9.20854C45.9526 9.29432 45.7796 9.38011 45.6931 9.55167C43.6174 11.01 41.6282 12.3825 39.5526 13.8408C39.5526 13.755 39.4661 13.755 39.3796 13.9266ZM30.6444 46.3526C28.5687 44.6369 26.493 42.9212 24.3309 41.2914C25.2822 44.2938 26.1471 47.2962 27.0984 50.2986C27.0984 50.3844 27.0984 50.3844 27.1849 50.4701C28.2228 49.0976 29.4336 47.7251 30.6444 46.3526ZM39.2931 41.2914C39.1201 41.3771 39.1201 41.3771 39.0336 41.4629C38.5147 41.8918 37.9958 42.3208 37.4769 42.7497C36.0066 43.9506 34.6228 45.0658 33.1525 46.2668C33.066 46.3526 33.066 46.3526 32.9796 46.4383V46.5241C32.9796 46.6099 33.066 46.6099 33.066 46.6957C33.4985 47.1246 33.8444 47.6393 34.2769 48.0682C34.9688 48.8403 35.5742 49.6123 36.2661 50.3844C36.3525 50.4701 36.3525 50.5559 36.5255 50.5559C37.3904 47.382 38.3417 44.3795 39.2931 41.2914ZM49.3256 36.4017V36.316C48.5472 34.5145 47.7688 32.7988 46.9904 30.9974C46.8175 31.2548 42.7526 37.5169 42.5796 37.7743C42.8391 37.6885 49.0661 36.4875 49.3256 36.4017ZM14.1254 36.4017C16.2876 36.8307 18.4498 37.2596 20.6119 37.6885C20.6984 37.6885 20.7849 37.6885 20.8714 37.6885C19.4011 35.4581 17.9308 33.142 16.4606 30.9116C16.3741 31.169 14.3849 35.887 14.1254 36.4017ZM58.8391 14.0982C58.7526 14.184 58.7526 14.2697 58.6662 14.3555C57.8013 16.4143 57.0229 18.4731 56.158 20.4461C56.158 20.5319 56.158 20.5319 56.0715 20.6177C56.0715 20.7035 56.0715 20.7035 56.0715 20.7892C56.0715 20.7892 56.158 20.875 56.2445 20.875C57.4553 21.5613 58.5797 22.1618 59.7905 22.848C59.877 22.848 59.877 22.9338 59.9635 22.9338C60.0499 22.5049 60.1364 20.7035 59.9635 19.3309C59.877 17.5295 59.4445 15.8138 58.8391 14.0982ZM4.78484 14.184C4.69835 14.184 4.69835 14.2697 4.69835 14.2697C4.61186 14.4413 4.52538 14.6129 4.52538 14.7844C4.09294 16.0712 3.747 17.2721 3.57402 18.6447C3.48754 19.1594 3.48754 19.7598 3.40105 20.2745C3.31456 21.1324 3.40105 21.9902 3.40105 22.848C3.40105 22.9338 3.40105 22.9338 3.48754 22.9338C3.57402 22.9338 3.57402 22.848 3.66051 22.848C4.61186 22.3333 5.56322 21.8186 6.42809 21.3039C6.68755 21.1324 6.94701 21.0466 7.11998 20.875C7.29296 20.7892 7.29296 20.7892 7.20647 20.6177C7.20647 20.5319 7.20647 20.5319 7.11998 20.4461C6.42809 18.6447 5.64971 16.8432 4.95781 15.0418C5.0443 14.7844 4.87133 14.4413 4.78484 14.184ZM48.8931 7.32132C48.9796 7.32132 49.0661 7.4071 49.1526 7.4071C50.104 7.75023 51.1418 8.17915 52.0932 8.52228C53.5634 9.12276 55.0337 9.63746 56.504 10.2379C56.5905 10.2379 56.5905 10.3237 56.677 10.2379L56.5905 10.1522C55.5526 8.77963 54.4283 7.57866 53.0445 6.54927C52.6121 6.20614 52.0932 5.94879 51.5742 5.69144C51.4013 5.60566 51.3148 5.60566 51.1418 5.69144C50.4499 6.12035 49.758 6.63505 49.0661 7.06397C49.0661 7.23553 48.9796 7.23553 48.8931 7.32132ZM14.5579 7.32132C14.5579 7.23553 14.5579 7.23553 14.4714 7.23553C14.2984 7.14975 14.1254 6.97818 13.9524 6.8924C13.4335 6.54927 12.8281 6.12035 12.3092 5.77722C12.2227 5.69144 12.1362 5.69144 12.0497 5.77722C11.4443 6.03457 10.9254 6.29192 10.493 6.63505C10.2335 6.80662 9.97405 6.97818 9.80108 7.14975C8.67675 8.00758 7.81188 9.03698 6.94701 10.1522C6.94701 10.2379 6.86052 10.2379 6.86052 10.3237C9.45513 9.38011 12.0497 8.35071 14.5579 7.32132ZM45.1742 50.2128C45.1742 50.127 45.1742 50.127 45.1742 50.2128C45.0877 50.2128 45.0012 50.2128 44.9147 50.2986C42.7526 51.0706 40.5904 51.7569 38.4282 52.5289C38.4282 52.6147 38.4282 52.6147 38.5147 52.7005C38.9471 53.1294 39.4661 53.4725 39.8985 53.9015C39.8985 53.9015 39.985 53.9015 39.985 53.9872H40.0715L40.158 53.9015C41.8012 52.7863 43.4445 51.6711 45.0012 50.4701C45.0877 50.2986 45.1742 50.2128 45.1742 50.2128ZM25.1093 52.4431C22.8606 51.6711 20.6984 50.9848 18.4498 50.2128C18.4498 50.2128 18.4498 50.2128 18.3633 50.2128C18.3633 50.2986 18.4498 50.2986 18.4498 50.3844C20.093 51.5853 21.7363 52.7863 23.3795 53.9015C23.7255 53.6441 24.9363 52.6147 25.1093 52.4431ZM6.77404 23.0196C6.68755 23.0196 6.68755 23.0196 6.60106 23.1054C6.3416 23.1912 6.16863 23.3627 5.90917 23.4485C5.21727 23.8774 4.43889 24.2206 3.747 24.6495C3.57402 24.7353 3.57402 24.7353 3.66051 24.9068C3.83348 26.022 4.09294 27.223 4.3524 28.3381C4.3524 28.4239 4.3524 28.5097 4.43889 28.5097C5.21727 26.6225 5.99565 24.9068 6.77404 23.0196ZM59.0986 28.5097C59.4445 27.3945 59.704 26.1936 59.7905 25.3357C59.7905 25.1642 59.877 24.9926 59.877 24.821C59.877 24.7353 59.877 24.7353 59.7905 24.7353C59.7905 24.7353 59.704 24.7353 59.704 24.6495C58.7526 24.1348 57.8013 23.6201 56.9364 23.1054C56.9364 23.1054 56.8499 23.0196 56.7634 23.1054C57.5418 24.9068 58.2337 26.6225 59.0121 28.4239C59.0121 28.4239 59.0986 28.4239 59.0986 28.5097ZM34.4498 57.5901C34.5363 57.5901 34.6228 57.5043 34.7093 57.4186C35.7471 56.7323 36.785 56.1318 37.8228 55.4455C38.0823 55.274 38.3417 55.1024 38.6012 54.9309C38.6877 54.8451 38.6877 54.8451 38.6012 54.7593C38.0823 54.3304 37.6498 53.9015 37.1309 53.4725L37.0444 53.3868C36.8715 53.5583 34.5363 57.247 34.4498 57.5901C34.4498 57.5043 34.3633 57.5043 34.4498 57.5901ZM26.493 53.3868C25.8876 53.8157 25.4552 54.2446 24.9363 54.7593C24.8498 54.8451 24.8498 54.8451 24.9363 54.9309C25.1093 55.1024 25.3687 55.1882 25.5417 55.3598C26.666 56.046 27.7039 56.8181 28.8282 57.5043C28.9147 57.5901 29.0012 57.5901 29.0876 57.6759C29.0876 57.5901 29.0876 57.5043 29.0012 57.5043C27.8768 55.4455 26.666 53.5583 26.493 53.3868ZM16.3741 6.54927C16.4606 6.54927 16.5471 6.46349 16.5471 6.46349C17.4119 5.94879 18.1903 5.43409 19.0552 5.00518C19.1417 5.00518 19.1417 4.91939 19.2281 4.91939C19.2281 4.91939 19.3146 4.91939 19.2281 4.83361C19.2281 4.83361 19.2281 4.83361 19.1417 4.83361C18.7092 4.74783 18.2768 4.74783 17.7579 4.66204C16.72 4.66204 15.7687 4.74783 14.7308 4.91939C14.5579 4.91939 14.2984 5.00518 14.0389 5.09096C14.9038 5.60566 15.6822 6.03457 16.3741 6.54927ZM49.3256 5.00518C48.3742 4.74783 47.4229 4.66204 46.4715 4.57626C45.9526 4.57626 45.4337 4.57626 44.8283 4.66204C44.6553 4.66204 44.4823 4.66204 44.3093 4.74783C44.3093 4.74783 44.3093 4.74783 44.2228 4.74783V4.83361C45.0877 5.34831 45.9526 5.86301 46.8175 6.3777C46.9039 6.46349 46.9904 6.46349 47.0769 6.3777C47.7688 5.94879 48.3742 5.51987 49.0661 5.09096C49.2391 5.09096 49.3256 5.09096 49.3256 5.00518ZM30.9904 16.6717C30.9904 15.8996 30.9904 14.184 30.9904 14.0124C30.9039 14.0124 30.9039 14.0124 30.8174 14.0124C30.5579 14.0982 30.212 14.0982 29.9525 14.184C29.4336 14.2697 28.8282 14.4413 28.3093 14.5271C28.2228 14.5271 28.2228 14.5271 28.2228 14.6129C28.2228 14.6987 28.3093 14.6987 28.3093 14.6987C29.1741 15.2991 30.039 15.8996 30.9039 16.5859C30.8174 16.6717 30.9039 16.6717 30.9904 16.6717ZM32.5471 16.6717C32.6336 16.6717 32.6336 16.6717 32.6336 16.6717C33.4985 15.9854 34.4498 15.3849 35.3147 14.6987C35.3147 14.6987 35.4012 14.6987 35.3147 14.6129C34.3633 14.4413 33.4985 14.184 32.5471 14.0124C32.5471 14.0982 32.5471 14.0982 32.5471 14.184C32.5471 14.956 32.5471 15.8138 32.5471 16.6717Z" fill="#203F5B"/>
</svg>
