<svg width="64" height="64" viewBox="0 0 64 64" fill="none" xmlns="http://www.w3.org/2000/svg">
<path d="M52.25 31.7995C52.25 32.9624 52.181 33.9885 52.112 35.0145C51.5599 40.4185 49.6278 45.3436 46.5225 49.7898C44.5904 52.526 42.3132 54.9202 39.76 57.0407C37.4828 58.8876 35.0676 60.4609 32.5144 61.7606C32.4454 61.829 32.3074 61.829 32.2384 61.8974C31.9624 62.0342 31.6863 62.0342 31.3413 61.8974C31.2723 61.8974 31.2033 61.829 31.2033 61.829C27.408 59.8453 23.9577 57.3827 20.9215 54.3729C18.0922 51.4999 15.746 48.2849 14.0899 44.6595C13.0548 42.4022 12.2958 40.008 11.8127 37.5455C11.6057 36.451 11.4677 35.2881 11.3297 34.1253C11.2607 32.8256 11.1917 31.5259 11.3297 30.1578C11.5367 26.9428 12.2268 23.8646 13.3998 20.9232C14.6419 17.7082 16.3671 14.8353 18.5753 12.1675C20.5074 9.77334 22.7846 7.72121 25.1998 5.8743C27.063 4.43781 29.0641 3.20653 31.1343 2.18047H31.2033C31.6173 1.90685 32.0314 1.97526 32.4454 2.18047C33.2735 2.59089 34.2395 3.06972 35.1366 3.68536C38.0348 5.46387 40.7261 7.58441 43.0723 9.97855C45.9015 12.9199 48.1097 16.2033 49.7658 19.8972C50.6629 22.0177 51.3529 24.275 51.767 26.6008C51.974 27.9005 52.181 29.2686 52.25 30.5682C52.25 31.0471 52.25 31.5259 52.25 31.7995ZM36.5857 17.9135C36.4477 17.9819 36.3787 18.0503 36.2407 18.1187C34.9296 18.9395 33.6875 19.7604 32.3764 20.5128C32.3074 20.5812 32.1694 20.6496 32.1004 20.6496C31.8243 20.7864 31.5483 20.7864 31.2723 20.6496C31.2033 20.5812 31.0653 20.5128 30.9963 20.5128C29.6852 19.692 28.3741 18.8711 27.063 18.1187C26.994 18.0503 26.8559 17.9819 26.7869 17.9819C26.7179 18.0503 26.6489 18.1871 26.6489 18.2555C25.8899 20.1708 25.0618 22.0861 24.3027 24.0014C23.2676 26.6008 22.2326 29.1318 21.1975 31.7311C21.1285 31.9363 21.0595 32.0731 21.1975 32.2783C22.9916 36.7246 24.7858 41.1709 26.5799 45.6856C26.6489 45.754 26.6489 45.8908 26.7179 45.9592C26.8559 45.9592 26.9249 45.8908 26.994 45.8224C28.3051 45.0015 29.6852 44.1123 30.9963 43.2914C31.0653 43.223 31.1343 43.223 31.2033 43.1546C31.5483 42.9494 31.8933 42.9494 32.2384 43.1546C32.3074 43.223 32.4454 43.2914 32.5144 43.2914C33.8255 44.1123 35.1366 44.8647 36.3787 45.6856C36.4477 45.754 36.5167 45.8224 36.6547 45.8224C36.7237 45.754 36.7237 45.6172 36.7927 45.5488C38.5179 41.3761 40.243 37.2035 41.8992 33.0308C42.0372 32.7572 42.1752 32.4152 42.2442 32.1415C42.3132 32.0047 42.3132 31.9363 42.2442 31.7995C42.2442 31.7311 42.2442 31.7311 42.1752 31.6627C40.381 27.148 38.5179 22.7017 36.7237 18.1871C36.7237 18.1187 36.7237 18.0503 36.5857 17.9135ZM39.0009 18.7343C39.0009 18.8711 39.0699 19.0079 39.1389 19.0763C40.312 22.0177 41.5541 25.0275 42.7272 27.9689C43.0033 28.6529 43.2793 29.337 43.5553 30.021C43.6243 30.2262 43.6243 30.2262 43.8313 30.021C45.4874 28.1741 47.0746 26.3956 48.7307 24.5487C48.9377 24.3435 48.9377 24.3435 48.6617 24.2066C45.4874 22.3597 42.3822 20.5812 39.2079 18.7343C39.1389 18.8027 39.0699 18.7343 39.0009 18.7343ZM14.6419 24.4803C14.78 24.6855 17.6092 27.9005 19.6794 30.1578C19.7484 30.2262 19.7484 30.2946 19.8174 30.2946L19.8864 30.2262C21.4045 26.464 22.9226 22.6333 24.5097 18.8711V18.8027C24.4407 18.8027 24.3717 18.8711 24.3027 18.8711C20.8525 20.7864 14.78 24.3435 14.6419 24.4803ZM39.0009 45.1384C39.1389 45.0699 39.2079 45.0015 39.2769 45.0015C42.3822 43.223 45.4874 41.4445 48.5237 39.666C48.5927 39.5976 48.6617 39.5976 48.7307 39.5292C48.7997 39.5292 48.7997 39.4608 48.7307 39.3924C48.6617 39.324 48.5927 39.2556 48.5927 39.1872C48.1787 38.7083 47.6956 38.2295 47.2816 37.7507C46.1085 36.451 44.9354 35.2197 43.8313 33.92C43.7623 33.8516 43.7623 33.7832 43.6243 33.7832C42.1062 37.5455 40.5881 41.3077 39.0009 45.0015C39.0009 45.0015 39.0009 45.0699 39.0009 45.1384ZM19.8174 33.7832C19.7484 33.7832 19.6794 33.8516 19.6794 33.92C18.2992 35.4249 14.849 39.1872 14.6419 39.5292C14.78 39.5976 14.849 39.666 14.987 39.7344C17.1262 40.9657 19.2653 42.2654 21.4045 43.4966C22.3706 44.0439 23.2676 44.5911 24.2337 45.1384C24.3027 45.1384 24.3717 45.2752 24.4407 45.2068C22.8536 41.3077 21.3355 37.5455 19.8174 33.7832ZM29.8922 4.77983C27.477 6.21632 25.2688 7.78962 23.1986 9.70494C22.2326 10.5942 21.0595 11.7571 20.8525 12.0991C20.9215 12.1675 20.9905 12.1675 21.0595 12.2359C22.5776 13.1936 24.0957 14.1512 25.6138 15.1089C25.8899 15.2457 25.8209 15.2457 25.9589 14.9721C27.27 11.6887 28.5121 8.33685 29.8232 5.05345C29.8922 4.98504 29.9612 4.91664 29.8922 4.77983ZM42.5202 12.0991C42.0372 11.415 39.76 9.1577 37.7588 7.65281C36.3787 6.55834 33.9635 4.98504 33.5495 4.84823C33.5495 4.91664 33.5495 4.98504 33.6185 5.05345C34.9296 8.33685 36.1717 11.6887 37.4828 14.9721C37.6208 15.2457 37.5518 15.2457 37.8278 15.1089C39.346 14.1512 40.8641 13.1936 42.3132 12.3043C42.3822 12.2359 42.4512 12.1675 42.5202 12.0991ZM33.5495 59.0244C33.6875 59.0244 33.7565 58.956 33.8255 58.8876C36.0337 57.5879 38.0348 56.083 39.898 54.4413C40.7951 53.6889 41.6231 52.7996 42.3822 51.9788C42.5202 51.842 42.5202 51.842 42.3132 51.7052C40.7261 50.7475 39.2079 49.7214 37.6208 48.7638C37.5518 48.7638 37.5518 48.6954 37.4828 48.6954C36.1717 52.1156 34.7916 55.5358 33.4805 58.956C33.5495 58.956 33.5495 59.0244 33.5495 59.0244ZM29.8922 59.0928C29.8922 58.956 29.8922 58.8876 29.8232 58.8192C28.5121 55.6042 27.27 52.3208 25.9589 49.1058C25.9589 49.0374 25.8899 49.0374 25.8899 48.969C25.8209 48.8322 25.8209 48.8322 25.6828 48.9006C25.6138 48.9006 25.5448 48.969 25.5448 48.969C24.0957 49.8582 22.6466 50.7475 21.1975 51.7052C21.1285 51.7736 21.0595 51.7736 20.9905 51.842C20.9215 51.9104 20.9215 51.9104 20.9905 51.9788C21.1975 52.2524 21.4735 52.4576 21.6805 52.7312C24.0267 55.1938 26.7179 57.2459 29.6162 59.0244C29.6852 58.956 29.7542 59.0244 29.8922 59.0928ZM48.7307 22.2229C48.6617 22.0861 48.6617 22.0177 48.6617 21.9493C47.5576 18.9395 45.9015 16.1349 43.9003 13.604C43.7623 13.4672 43.7623 13.4672 43.6243 13.5356C43.5553 13.5356 43.5553 13.604 43.4863 13.604C42.0372 14.4932 40.5881 15.3825 39.2079 16.2717C38.8629 16.477 38.8629 16.477 39.2079 16.6822C42.3132 18.4607 45.3494 20.2392 48.4547 22.0177C48.4547 22.1545 48.5927 22.1545 48.7307 22.2229ZM24.5097 16.6138C24.4407 16.5454 24.3717 16.477 24.3027 16.4086C22.8536 15.5193 21.3355 14.5616 19.8864 13.6724C19.8174 13.6724 19.7484 13.604 19.7484 13.604C19.6794 13.604 19.6794 13.604 19.6104 13.604C19.5413 13.6724 19.4723 13.7408 19.4723 13.8092C18.2992 15.3141 17.2642 16.9558 16.3671 18.6659C15.815 19.7604 15.263 20.8548 14.849 22.0177C14.849 22.0861 14.78 22.1545 14.849 22.2229C18.0922 20.376 21.3355 18.4607 24.5097 16.6138ZM48.6617 41.6497C45.4184 43.4966 42.1752 45.412 38.9319 47.2589V47.3273L39.0009 47.3957C40.5881 48.3533 42.1752 49.311 43.6933 50.3371C43.6933 50.3371 43.6933 50.3371 43.7623 50.3371C45.9015 47.6693 47.5576 44.8647 48.6617 41.6497ZM14.78 41.7181C14.78 41.8549 14.849 41.9234 14.849 42.0602C16.0221 45.0015 17.5402 47.6693 19.5413 50.2003C19.7484 50.4739 19.7484 50.4055 19.9554 50.2687C21.4045 49.3794 22.8536 48.4902 24.3027 47.6009C24.3717 47.5325 24.4407 47.5325 24.5097 47.4641V47.3957C21.3355 45.5488 18.0922 43.6335 14.918 41.7865C14.849 41.7181 14.849 41.7181 14.78 41.7181ZM35.5506 47.3957C35.4816 47.3273 35.4126 47.3273 35.3436 47.2589C34.1705 46.5748 33.0664 45.8224 31.8933 45.1384C31.8243 45.1384 31.8243 45.0699 31.7553 45.0699C31.6863 45.0015 31.6173 45.0015 31.5483 45.0699C31.4793 45.0699 31.4793 45.1384 31.4103 45.1384C30.2372 45.8908 29.0641 46.5748 27.891 47.3273C27.684 47.4641 27.615 47.4641 27.891 47.6693C29.0641 48.627 30.1682 49.653 31.3413 50.6107C31.4103 50.6791 31.4793 50.7475 31.5483 50.8159C31.9624 50.6791 35.4126 47.6009 35.5506 47.3957ZM35.4816 16.477C35.4126 16.4086 35.3436 16.3402 35.2746 16.2717C34.2395 15.3825 33.2045 14.4932 32.1004 13.5356C32.0314 13.4672 31.9624 13.3988 31.8933 13.3988C31.6173 13.1936 31.6863 13.1936 31.4103 13.3988C31.3413 13.4672 31.2033 13.5356 31.1343 13.604C30.0992 14.4932 29.0641 15.3825 28.029 16.2717C27.96 16.3402 27.822 16.4086 27.822 16.477C27.891 16.5454 27.96 16.5454 27.96 16.6138C29.1331 17.2978 30.2372 18.0503 31.4103 18.7343C31.4793 18.7343 31.4793 18.8027 31.5483 18.8027C31.6173 18.8027 31.6173 18.8027 31.6863 18.8027C31.7553 18.8027 31.7553 18.7343 31.8243 18.7343C32.9974 17.9819 34.1705 17.2978 35.2746 16.5454C35.4126 16.5454 35.4816 16.5454 35.4816 16.477ZM34.7916 13.4672C34.8606 13.3988 34.8606 13.3988 34.7916 13.4672C34.7916 13.3304 34.7916 13.262 34.7226 13.1936C34.4466 12.4411 34.1705 11.6887 33.8945 11.0046C33.2045 9.22611 32.5144 7.516 31.8243 5.73749C31.7553 5.66909 31.7553 5.53228 31.6863 5.46387C31.6173 5.66909 28.6501 13.0567 28.5811 13.4672V13.5356C28.7191 13.4672 28.7881 13.3988 28.8571 13.3304C29.5472 12.7147 30.2372 12.0991 30.9963 11.4834C31.0653 11.415 31.1343 11.3466 31.2033 11.2782C31.5483 11.073 31.8933 11.073 32.2384 11.2782C32.3074 11.3466 32.3764 11.3466 32.3764 11.415C33.0664 11.9623 33.6875 12.5779 34.3775 13.1252C34.5846 13.1936 34.7226 13.3304 34.7916 13.4672ZM28.5811 50.5423C28.5811 50.6107 28.5811 50.6791 28.5811 50.6791C29.6162 53.2785 30.6512 55.9462 31.6863 58.5456C31.6863 58.4772 31.7553 58.4772 31.7553 58.4772C32.7904 55.8778 33.7565 53.2785 34.7916 50.6791V50.6107C34.7226 50.6107 34.6536 50.6791 34.5846 50.7475C33.8945 51.3631 33.2045 51.9788 32.5144 52.5944C32.4454 52.6628 32.3074 52.7312 32.2384 52.7996C32.0314 52.9364 31.8243 53.0048 31.5483 53.0048C31.3413 53.0048 31.2033 52.868 30.9963 52.7312C30.5822 52.3208 30.0992 51.9788 29.6852 51.5683C29.3401 51.2263 28.9261 50.8843 28.5811 50.5423ZM49.8348 26.1904C49.6968 26.2588 49.6278 26.3272 49.5588 26.3956C48.2477 27.9005 46.8676 29.4054 45.5565 30.8419C45.4874 30.9103 45.4874 30.9103 45.4184 30.9787C45.4184 31.0471 45.4184 31.0471 45.4875 31.0471H45.5565C47.0746 31.0471 48.5927 31.0471 50.1108 31.0471C50.3868 31.0471 50.3868 31.0471 50.3178 30.7735C50.3178 30.6366 50.3178 30.4998 50.3178 30.363C50.2488 29.8158 50.2488 29.2002 50.1798 28.6529C50.1108 27.9005 49.9728 27.0796 49.8348 26.1904ZM18.0232 32.9624C17.9542 32.894 17.8852 32.894 17.8162 32.894C16.2981 32.894 14.78 32.894 13.2618 32.894C13.1928 32.894 13.1238 32.894 13.1238 32.894C13.0548 32.894 13.0548 32.894 13.0548 32.9624C13.0548 33.0308 13.0548 33.0992 13.0548 33.0992C13.0548 33.5096 13.1238 33.9201 13.1238 34.3305C13.1928 35.2197 13.3308 36.0406 13.4689 36.9298C13.5379 37.1351 13.5379 37.3403 13.6069 37.5455C13.6069 37.6139 13.6759 37.6139 13.7449 37.5455C13.8139 37.4771 13.8829 37.4087 13.9519 37.3403C15.194 35.9722 16.4361 34.6041 17.6092 33.3044C17.7472 33.3044 17.8852 33.0992 18.0232 32.9624ZM47.9026 32.894C47.2126 32.894 46.4535 32.894 45.7635 32.894C45.6945 32.894 45.6255 32.894 45.4875 32.894C45.4184 32.894 45.4184 32.9624 45.4875 32.9624L45.5565 33.0308C46.9366 34.5357 48.2477 35.9722 49.6278 37.4771C49.6968 37.5455 49.6968 37.5455 49.7658 37.6139C49.8348 37.6823 49.9038 37.6823 49.9038 37.5455C50.0418 36.793 50.1798 35.9722 50.3178 35.1513C50.3868 34.5357 50.4559 33.8516 50.4559 33.236C50.4559 33.1676 50.4559 33.0992 50.4559 32.9624C50.4559 32.8256 50.4559 32.8256 50.3178 32.8256C50.2488 32.8256 50.1798 32.8256 50.1108 32.8256C49.3518 32.894 48.6617 32.894 47.9026 32.894ZM13.6759 26.1904C13.6759 26.2588 13.6069 26.2588 13.6069 26.3272C13.3998 27.3532 13.1928 28.4477 13.1238 29.4738C13.0548 29.8842 13.0548 30.2946 13.0548 30.705C13.0548 31.0471 12.9858 31.0471 13.3308 31.0471C14.849 31.0471 16.2981 31.1155 17.8162 31.1155H17.8852C17.8852 31.1155 17.9542 31.1155 17.9542 31.0471V30.9787C17.9542 30.9103 17.8852 30.9103 17.8852 30.8419C16.5741 29.337 15.263 27.9005 13.8829 26.3956C13.8139 26.3272 13.7449 26.2588 13.6759 26.1904Z" fill="#203F5B"/>
</svg>
