<svg width="64" height="64" viewBox="0 0 64 64" fill="none" xmlns="http://www.w3.org/2000/svg">
<path d="M51.7447 32.1231C51.7652 33.0392 51.7242 34.0517 51.6557 35.0642C51.5668 36.3936 51.4299 37.716 51.2247 39.0385C50.8073 41.8142 50.1367 44.5211 49.1856 47.1592C48.5561 48.9018 47.8034 50.5824 46.9002 52.201C45.8464 54.102 44.6079 55.8722 43.1368 57.4702C42.2952 58.3862 41.3851 59.2265 40.3792 59.9635C38.566 61.2998 36.5885 62.2847 34.3715 62.7324C33.3178 62.9459 32.2503 63.0355 31.176 62.9873C28.6169 62.8702 26.2973 62.0368 24.1488 60.673C22.5339 59.6467 21.1312 58.3725 19.879 56.9329C18.7911 55.6862 17.8468 54.3431 17.0052 52.9173C15.5614 50.4722 14.4734 47.8686 13.6455 45.1548C13.0775 43.2882 12.6465 41.3872 12.3386 39.4655C12.1059 38.0053 11.9485 36.5382 11.8527 35.0642C11.7296 33.1838 11.7159 31.2966 11.8185 29.4162C11.9827 26.4752 12.407 23.5685 13.1254 20.7101C13.8576 17.8172 14.8771 15.0346 16.273 12.3965C17.3336 10.3853 18.5926 8.50494 20.1048 6.81055C21.0217 5.78427 22.0207 4.84064 23.1292 4.02789C24.8125 2.78809 26.6463 1.85135 28.6922 1.36232C30.047 1.03859 31.4087 0.928386 32.7977 1.04548C35.0558 1.23145 37.129 1.97533 39.0586 3.14625C40.7624 4.17942 42.2336 5.4881 43.5473 6.98274C44.6558 8.23632 45.6206 9.6001 46.4759 11.0465C47.8787 13.4228 48.9598 15.9437 49.774 18.5818C50.342 20.4139 50.7867 22.2736 51.1015 24.1677C51.2999 25.3387 51.4505 26.5165 51.5599 27.7012C51.69 29.1407 51.7584 30.5803 51.7447 32.1231ZM31.7577 13.9532C31.655 14.0289 31.5798 14.0909 31.5045 14.1529C29.4175 15.8818 27.3305 17.6037 25.2367 19.3325C25.0862 19.4565 24.9972 19.6012 24.9425 19.7871C23.834 23.7614 22.7187 27.7287 21.6102 31.703C21.5281 31.9992 21.5281 32.006 21.6102 32.3091C22.7187 36.2833 23.834 40.2507 24.9425 44.225C24.9904 44.404 25.0725 44.5349 25.2162 44.652C27.31 46.3739 29.397 48.1028 31.484 49.8316C31.785 50.0796 31.7098 50.0865 32.0177 49.8385C32.8661 49.1428 33.7078 48.4403 34.5563 47.7446C35.8016 46.7183 37.0401 45.6852 38.2854 44.6658C38.4291 44.5487 38.5181 44.4178 38.566 44.2387C38.6412 43.9081 38.7507 43.5844 38.8397 43.2538C39.8592 39.5964 40.8788 35.9458 41.9051 32.2953C41.9599 32.0956 41.9599 31.9165 41.8983 31.7168C41.0088 28.5415 40.1192 25.3593 39.2297 22.1841C39.0039 21.3713 38.7713 20.5517 38.5455 19.7389C38.5044 19.5943 38.4428 19.4772 38.3196 19.3876C38.2649 19.3532 38.217 19.305 38.1691 19.2637C36.3079 17.7277 34.4468 16.1848 32.5856 14.6488C32.3187 14.4147 32.045 14.1942 31.7577 13.9532ZM37.1085 52.387C37.2796 52.4008 37.4506 52.3801 37.6217 52.3594C38.3265 52.2837 39.0313 52.201 39.7429 52.1252C40.6666 52.0288 41.5904 51.9324 42.5141 51.836C43.3215 51.7533 44.1221 51.6638 44.9295 51.5742C45.0938 51.5536 45.258 51.5329 45.4154 51.5122C45.4633 51.5053 45.4975 51.4778 45.4975 51.4296C45.4975 51.3745 45.4975 51.3194 45.4906 51.2643C45.4427 50.8166 45.3948 50.3689 45.3469 49.9212C45.2717 49.2117 45.1896 48.5023 45.1143 47.7859C45.039 47.0972 44.9706 46.4084 44.8953 45.7196C44.8132 44.962 44.7311 44.2112 44.649 43.4535C44.6011 43.0127 44.5532 42.5788 44.5053 42.138C44.4916 42.0071 44.4506 41.9933 44.3342 42.0691C44.3137 42.0829 44.3 42.0966 44.2795 42.1035C42.7673 43.1367 41.2619 44.1699 39.7497 45.203C39.6334 45.2788 39.5581 45.3752 39.5171 45.5061C39.3597 45.9607 39.1955 46.4153 39.0313 46.8699C38.4086 48.6056 37.7859 50.3482 37.1701 52.0839C37.129 52.1803 37.0606 52.2699 37.1085 52.387ZM37.0948 11.6182C37.0675 11.7353 37.1359 11.8317 37.1701 11.9351C37.9365 14.0909 38.7097 16.2399 39.476 18.3958C39.5445 18.5955 39.6539 18.7333 39.825 18.8504C41.2688 19.8284 42.7057 20.8134 44.1426 21.7984C44.2179 21.8466 44.2863 21.9017 44.3616 21.943C44.4369 21.9912 44.4916 21.9637 44.5053 21.881C44.5258 21.7295 44.5327 21.5711 44.5532 21.4195C44.6285 20.7101 44.7106 20.0006 44.7858 19.2843C44.8611 18.5955 44.9295 17.9068 45.0048 17.218C45.0869 16.4741 45.169 15.7302 45.2511 14.9863C45.3059 14.4835 45.3606 13.9807 45.4222 13.4779C45.4496 13.2024 45.4838 12.9338 45.5112 12.6583C45.5248 12.5067 45.5112 12.4999 45.3538 12.4723C45.3196 12.4654 45.2922 12.4585 45.258 12.4585C44.56 12.3828 43.8689 12.3139 43.171 12.2381C42.6783 12.1899 42.1925 12.1348 41.6999 12.0797C40.9814 12.0039 40.2629 11.9213 39.5445 11.8455C38.7918 11.7629 38.0459 11.6871 37.2933 11.6044C37.218 11.6044 37.1564 11.5769 37.0948 11.6182ZM19.0374 41.9864C19.01 42.1449 18.9895 42.2688 18.9758 42.3859C18.8869 43.2056 18.7979 44.0252 18.709 44.8517C18.6132 45.7609 18.5174 46.6701 18.4216 47.5793C18.2847 48.8398 18.141 50.0933 18.0042 51.3538C17.9905 51.4847 18.0042 51.5122 18.1342 51.526C18.7432 51.5949 19.3521 51.6569 19.9611 51.7257C20.4538 51.7809 20.9396 51.8291 21.4323 51.8842C22.1507 51.9599 22.8692 52.0426 23.5877 52.1184C24.3472 52.201 25.1136 52.2837 25.8731 52.3663C26.0578 52.387 26.2357 52.4214 26.441 52.387C26.3931 52.2492 26.3589 52.1252 26.3178 52.0013C25.5583 49.8798 24.7988 47.7584 24.0393 45.6301C23.964 45.4234 23.8545 45.2719 23.6766 45.1479C22.226 44.163 20.7822 43.1711 19.3316 42.1793C19.2427 42.1173 19.1606 42.0691 19.0374 41.9864ZM19.0442 21.9774C19.1332 21.9912 19.1879 21.9292 19.2495 21.8879C19.5916 21.6537 19.9338 21.4195 20.2827 21.1853C21.4118 20.4139 22.5408 19.6356 23.6766 18.8642C23.8614 18.7402 23.9777 18.5955 24.0393 18.382C24.094 18.1685 24.183 17.9687 24.2582 17.7621C24.9562 15.806 25.6541 13.8499 26.3589 11.8937C26.3931 11.8042 26.441 11.7215 26.4273 11.6113C26.3657 11.6113 26.311 11.6044 26.2563 11.6113C25.6883 11.6733 25.1272 11.7353 24.5593 11.7904C24.094 11.8386 23.6219 11.8868 23.1566 11.9419C22.4313 12.0177 21.6991 12.1004 20.9738 12.183C20.269 12.2588 19.5574 12.3277 18.8526 12.4034C18.6132 12.431 18.3737 12.4516 18.1342 12.4861C18.0042 12.5067 17.9973 12.5274 18.011 12.6652C18.0931 13.4228 18.1752 14.1736 18.2573 14.9312C18.3258 15.5787 18.3942 16.2193 18.4695 16.8667C18.5447 17.5693 18.6268 18.2649 18.7021 18.9675C18.7774 19.67 18.8458 20.3726 18.9279 21.0682C18.9621 21.3644 18.9553 21.6744 19.0442 21.9774ZM45.258 39.2107C45.3811 39.1556 45.4222 39.0522 45.4838 38.9627C46.0586 38.1431 46.6265 37.3165 47.1944 36.4969C48.1797 35.078 49.1651 33.6591 50.1435 32.2402C50.342 31.9509 50.3488 32.0474 50.1367 31.7374C49.8014 31.2484 49.4593 30.7594 49.124 30.2772C47.9129 28.5346 46.7086 26.792 45.4975 25.0494C45.4359 24.9598 45.388 24.8428 45.2648 24.7876C45.2374 24.8634 45.2169 24.9254 45.1964 24.9874C44.5942 27.2535 43.9921 29.5196 43.3831 31.7787C43.3421 31.9372 43.3421 32.0749 43.39 32.2264C43.9921 34.4788 44.5942 36.7311 45.1896 38.9902C45.2032 39.066 45.2306 39.1349 45.258 39.2107ZM18.2231 24.8083C18.1273 24.8496 18.0863 24.9461 18.0384 25.0218C16.4851 27.2604 14.9319 29.4989 13.3786 31.7374C13.3444 31.7925 13.3034 31.8476 13.2691 31.9027C13.2281 31.9647 13.2144 32.0198 13.2623 32.0887C13.3034 32.1507 13.3512 32.2127 13.3923 32.2816C13.8713 32.9772 14.3571 33.6729 14.8361 34.3685C15.924 35.939 17.0188 37.5094 18.1068 39.0798C18.141 39.128 18.1615 39.2175 18.2368 39.1969C18.2916 39.1831 18.2916 39.1073 18.3052 39.0591C18.3121 39.0385 18.3121 39.0178 18.3189 38.9971C18.9142 36.7517 19.5164 34.5132 20.1185 32.2747C20.1664 32.0956 20.1664 31.9372 20.1185 31.7581C19.9269 31.0555 19.7422 30.353 19.5574 29.6573C19.1469 28.1144 18.7363 26.5785 18.3258 25.0356C18.2984 24.9461 18.3052 24.8565 18.2231 24.8083ZM31.744 60.7419C31.8398 60.6867 31.8535 60.5765 31.8945 60.4939C32.9551 58.2623 34.0089 56.0306 35.0694 53.7921C35.1037 53.7232 35.1379 53.6543 35.1721 53.5855C35.1995 53.5303 35.1789 53.4752 35.1242 53.4477C35.0763 53.4201 35.0284 53.3926 34.9805 53.3719C33.9815 52.8485 32.9893 52.3181 31.9903 51.7946C31.9424 51.7671 31.8945 51.7464 31.8466 51.7189C31.785 51.6844 31.7234 51.6775 31.6619 51.7189C31.614 51.7464 31.5661 51.7671 31.5182 51.7946C30.5328 52.3181 29.5475 52.8347 28.5622 53.3582C28.2748 53.5097 28.2817 53.4684 28.4253 53.7645C29.4859 56.0099 30.5465 58.2485 31.614 60.4939C31.6413 60.5765 31.6687 60.6799 31.744 60.7419ZM28.2953 10.4955C28.3911 10.5575 28.4596 10.5988 28.5211 10.6333C29.527 11.1636 30.5328 11.694 31.5387 12.2312C31.5798 12.2519 31.614 12.2726 31.655 12.2932C31.7166 12.3277 31.7782 12.3277 31.8398 12.2932C31.8877 12.2657 31.9356 12.245 31.9835 12.2175C32.9688 11.694 33.961 11.1774 34.9463 10.6539C34.9942 10.6264 35.0421 10.6057 35.09 10.5782C35.1858 10.5231 35.1926 10.4955 35.1447 10.3922C34.9189 9.90316 34.6863 9.42102 34.4536 8.93198C33.5983 7.13427 32.7498 5.33656 31.8945 3.53885C31.8466 3.44243 31.8329 3.33222 31.7098 3.26334C30.5807 5.66718 29.4449 8.07101 28.2953 10.4955ZM44.9637 52.9242C44.6764 52.9518 44.4163 52.9793 44.1495 53.0069C43.6295 53.062 43.1094 53.124 42.5825 53.1791C42.083 53.2342 41.5835 53.2824 41.084 53.3375C40.3314 53.4201 39.5855 53.5028 38.8328 53.5786C38.3675 53.6268 37.8954 53.675 37.4301 53.7301C37.3617 53.737 37.2727 53.7232 37.2317 53.8265C37.2591 53.8679 37.2796 53.9161 37.307 53.9643C38.2375 55.452 39.1681 56.9467 40.0987 58.4344C40.1055 58.4413 40.1124 58.4482 40.1261 58.4551C40.1329 58.462 40.1466 58.462 40.1534 58.462C41.4946 57.5666 44.2727 54.3775 44.9637 52.9242ZM18.5584 52.9242C18.5516 53.0344 18.62 53.1033 18.6679 53.1722C18.9416 53.5717 19.2016 53.9781 19.489 54.3707C20.5154 55.7964 21.6786 57.0913 23.0266 58.2209C23.1155 58.2967 23.2113 58.3725 23.3071 58.4482C23.3413 58.4758 23.3756 58.462 23.3961 58.4344C23.4303 58.3931 23.4645 58.3449 23.4919 58.3036C24.3951 56.8571 25.2915 55.4107 26.1878 53.9643C26.2221 53.9092 26.2768 53.861 26.2426 53.7783C26.2084 53.7645 26.1673 53.7508 26.1263 53.7439C23.6082 53.4615 21.0833 53.1928 18.5584 52.9242ZM18.5926 11.0534C18.75 11.0741 18.9074 11.0465 19.0716 11.0259C19.3727 10.9914 19.6806 10.957 19.9817 10.9226C20.7001 10.8468 21.4186 10.771 22.1371 10.6953C22.9103 10.6126 23.6835 10.5299 24.4498 10.4473C25.0178 10.3853 25.5789 10.3233 26.1468 10.2613C26.2768 10.2475 26.2905 10.22 26.2152 10.0891C26.1878 10.0409 26.1605 9.9927 26.1263 9.95137C25.2641 8.56004 24.3951 7.16871 23.5329 5.78427C23.4987 5.72917 23.4645 5.67407 23.4303 5.61896C23.3756 5.5432 23.3413 5.53631 23.2661 5.58452C23.225 5.61896 23.184 5.6534 23.1361 5.68784C21.3433 7.16871 19.879 8.93887 18.62 10.8881C18.5995 10.9363 18.5584 10.9777 18.5926 11.0534ZM37.2522 10.2338C37.7312 10.3095 44.6695 11.0741 44.9295 11.0465C44.8064 10.7159 43.9989 9.545 43.2463 8.62203C42.3225 7.48555 41.3098 6.4455 40.1671 5.52942C39.9619 5.75672 38.0459 8.80112 37.2933 10.0822C37.2659 10.1305 37.2248 10.1787 37.2522 10.2338ZM24.4361 4.73733C24.7646 5.34345 27.18 9.19372 27.3442 9.37969C27.5153 9.13173 29.9923 3.95212 30.6013 2.57456C30.6218 2.52635 30.656 2.47814 30.6355 2.42303C29.0617 2.39548 25.6678 3.65595 24.4361 4.73733ZM32.8661 2.40237C32.8388 2.47814 32.873 2.52635 32.8935 2.57456C33.9678 4.84753 35.0489 7.1205 36.13 9.40724C36.2395 9.33836 36.2806 9.24882 36.3285 9.16617C37.1975 7.76795 38.0733 6.36284 38.9423 4.96462C38.9697 4.91641 38.9971 4.8682 39.0313 4.82687C39.0792 4.7511 39.0518 4.70289 38.9902 4.66156C38.956 4.63401 38.9149 4.61335 38.8807 4.5858C37.2385 3.5113 35.4595 2.77431 33.5162 2.47814C33.2972 2.4437 33.0783 2.42303 32.8661 2.40237ZM24.4293 59.2816C24.5251 59.3436 24.6004 59.4056 24.6825 59.4538C25.3736 59.9015 26.092 60.2941 26.8447 60.6179C27.9258 61.0862 29.048 61.3962 30.2112 61.5546C30.3481 61.5753 30.4849 61.6028 30.6286 61.5615C30.5397 61.2584 28.1243 56.1064 27.4263 54.7288C27.399 54.6806 27.3853 54.6324 27.3305 54.6117C27.1732 54.8321 24.6072 58.951 24.4293 59.2816ZM36.1506 54.6186C36.0616 54.6944 36.0342 54.8046 35.9863 54.901C35.4868 55.9548 34.9873 57.0087 34.4878 58.0625C33.9678 59.1577 33.4546 60.2459 32.9346 61.3411C32.9004 61.4169 32.8388 61.4857 32.873 61.5959C34.1731 61.4857 35.4116 61.1482 36.609 60.6385C37.5943 60.2184 38.7713 59.5503 39.0586 59.2403C38.1144 57.725 37.1701 56.2028 36.219 54.6875C36.2121 54.6531 36.1779 54.6393 36.1506 54.6186ZM17.5184 40.5951C17.3815 40.2989 14.3024 35.815 13.2623 34.3892C13.2349 34.3479 13.2144 34.2928 13.146 34.2928C13.1323 34.3134 13.1186 34.3272 13.1186 34.341C13.1254 34.527 13.1254 34.7129 13.1391 34.8989C13.2281 36.0974 13.3376 37.289 13.5018 38.4806C13.6797 39.7204 13.9055 40.9533 14.186 42.1793C14.1997 42.2482 14.2066 42.3308 14.2955 42.3859C15.363 41.7936 16.4372 41.1943 17.5184 40.5951ZM45.9901 23.4583C46.0517 23.5478 46.1133 23.6512 46.1817 23.7476C46.9823 24.9047 47.7829 26.055 48.5834 27.2121C49.1308 28.0042 49.6851 28.8032 50.2393 29.5953C50.2804 29.6504 50.3009 29.7468 50.4104 29.7193C50.3762 29.2372 50.342 28.755 50.3078 28.2729C50.2599 27.529 50.1778 26.7851 50.082 26.0412C49.9246 24.7945 49.7125 23.5616 49.4388 22.3356C49.3909 22.1221 49.343 21.9086 49.2882 21.695C49.2745 21.6537 49.2403 21.6193 49.1856 21.6399C49.1445 21.6537 49.1035 21.6744 49.0693 21.695C48.0908 22.2392 47.1191 22.7764 46.1407 23.3206C46.0859 23.355 46.0243 23.3757 45.9901 23.4583ZM45.9628 40.5676C46.0586 40.6227 46.1133 40.664 46.168 40.6915C46.5102 40.8844 46.8523 41.0772 47.2013 41.2701C47.8445 41.6283 48.4808 41.9795 49.124 42.3377C49.2472 42.4066 49.2745 42.3928 49.3019 42.2688C49.3498 42.0622 49.3977 41.8625 49.4388 41.6558C49.6851 40.4918 49.8972 39.3277 50.0477 38.1499C50.1504 37.3441 50.2462 36.5313 50.3009 35.7186C50.3351 35.2433 50.3693 34.7749 50.3967 34.2997C50.3967 34.2721 50.3899 34.2583 50.3488 34.2652C50.3078 34.2652 50.2941 34.3134 50.2667 34.3479C48.8435 36.4073 47.4134 38.4737 45.9628 40.5676ZM14.2613 21.633C14.1997 21.7088 14.186 21.7984 14.1724 21.881C14.0492 22.4596 13.926 23.045 13.8097 23.6236C13.6318 24.5741 13.4813 25.5315 13.3786 26.4958C13.317 27.0331 13.2555 27.5703 13.2144 28.1076C13.1733 28.6035 13.146 29.0994 13.1186 29.5884C13.1186 29.6366 13.0912 29.6986 13.1802 29.7262C14.6308 27.6392 16.0814 25.5453 17.532 23.4583C17.4978 23.417 17.4773 23.3894 17.4499 23.3757C16.4167 22.7971 15.3835 22.2254 14.3503 21.6537C14.3229 21.6399 14.2887 21.6399 14.2613 21.633ZM40.2082 43.2469C40.3245 43.2331 40.3998 43.1505 40.4887 43.0885C41.6588 42.2895 42.822 41.4905 43.9853 40.6915C44.04 40.6571 44.0947 40.6158 44.1495 40.5813C44.2248 40.5331 44.259 40.478 44.2179 40.3885C44.2042 40.3609 44.1974 40.3265 44.1905 40.292C43.6979 38.4461 43.2052 36.5933 42.7126 34.7474C42.6989 34.6854 42.7057 34.6027 42.6236 34.5752C42.5073 34.8645 40.2492 42.9645 40.2082 43.2469ZM42.6441 29.4851C42.6852 29.3611 42.7126 29.2716 42.7399 29.1821C43.2189 27.3981 43.691 25.6142 44.17 23.8302C44.1905 23.7476 44.2111 23.6581 44.2384 23.5754C44.2521 23.5272 44.2316 23.4859 44.1974 23.4583C44.1563 23.4239 44.1084 23.3963 44.0674 23.3619C42.8494 22.5285 41.6314 21.6881 40.4066 20.8547C40.345 20.8134 40.2971 20.7514 40.1877 20.7652C40.9814 23.603 41.7751 26.4407 42.562 29.2716C42.5757 29.3267 42.6031 29.3887 42.6441 29.4851ZM23.2798 20.7514C23.2387 20.7721 23.2045 20.7858 23.1771 20.7996C21.9318 21.6537 20.6796 22.5078 19.4343 23.3619C19.4 23.3894 19.359 23.4101 19.3248 23.4376C19.2906 23.4652 19.27 23.5065 19.2769 23.5547C19.2837 23.6167 19.3043 23.6856 19.3179 23.7476C19.7969 25.5522 20.2759 27.3568 20.7617 29.1614C20.7822 29.244 20.7754 29.3887 20.8507 29.3887C20.9738 29.3887 20.9465 29.2372 20.967 29.1545C21.7402 26.4132 22.5066 23.6718 23.2729 20.9305C23.2934 20.8892 23.314 20.8341 23.2798 20.7514ZM23.2866 43.2744C23.3071 43.1505 23.2798 43.0816 23.2592 43.0058C22.7597 41.215 22.2602 39.4242 21.7607 37.6334C21.5075 36.7242 21.2544 35.815 21.0012 34.8989C20.9807 34.8231 20.9601 34.7474 20.9328 34.6785C20.9259 34.6509 20.9054 34.6096 20.8849 34.6096C20.8233 34.5958 20.8233 34.6578 20.8096 34.6923C20.7891 34.7543 20.7754 34.8163 20.7549 34.8851C20.2827 36.6622 19.8106 38.4323 19.3385 40.2094C19.2427 40.5676 19.27 40.5193 19.5095 40.6846C20.6933 41.4974 21.877 42.3102 23.0608 43.116C23.1224 43.1642 23.184 43.2056 23.2866 43.2744ZM14.5966 43.7428C14.8224 44.9964 16.2867 48.95 16.8409 49.8178C16.8546 49.7834 16.8752 49.7627 16.8752 49.7352C17.1557 47.2211 17.4294 44.7002 17.7099 42.1862C17.7168 42.1449 17.7099 42.1035 17.7099 42.014C16.6562 42.5926 15.6367 43.1642 14.5966 43.7428ZM46.6333 49.8661C46.6949 49.7834 46.7223 49.7558 46.736 49.7283C47.6255 47.8479 48.3303 45.8987 48.8845 43.8943C48.9256 43.7566 48.9187 43.7428 48.775 43.6671C47.8308 43.1367 46.8865 42.6132 45.9354 42.0897C45.8943 42.0691 45.8464 42.0278 45.7849 42.0897C46.0654 44.6589 46.3459 47.2349 46.6333 49.8661ZM46.6265 14.1874C46.3459 16.784 46.0654 19.3601 45.7849 21.9292C45.867 21.9637 45.9149 21.9292 45.9559 21.9017C46.8865 21.3851 47.8102 20.8754 48.7408 20.3588C48.7819 20.3381 48.8161 20.3175 48.8503 20.2899C48.8845 20.2624 48.905 20.2211 48.8982 20.1728C48.8914 20.1315 48.8708 20.0902 48.864 20.0489C48.3234 18.0927 47.6323 16.1986 46.7702 14.3596C46.7496 14.3045 46.7428 14.2356 46.6265 14.1874ZM16.8752 14.2011C16.8546 14.2011 16.8341 14.2011 16.8136 14.2011C16.7725 14.2907 16.7246 14.3733 16.6836 14.4629C16.2114 15.4823 15.794 16.5154 15.4177 17.5761C15.1303 18.382 14.8771 19.2017 14.6445 20.0282C14.5761 20.2555 14.5829 20.2624 14.7677 20.3657C15.6846 20.8754 16.6015 21.3851 17.5252 21.8948C17.5799 21.9223 17.6278 21.9774 17.7236 21.9292C17.4362 19.3532 17.1625 16.7772 16.8752 14.2011ZM37.5533 17.0251C37.567 17.0113 37.5738 16.9976 37.5875 16.9838C37.567 16.9218 37.5533 16.8598 37.5328 16.7978C36.9648 15.2067 36.3901 13.6088 35.8221 12.0177C35.8016 11.9557 35.7811 11.8937 35.7537 11.8317C35.7332 11.7904 35.6921 11.7697 35.6442 11.7904C35.5826 11.818 35.5279 11.8455 35.4663 11.88C34.6999 12.2863 33.9404 12.6858 33.1741 13.0922C33.1125 13.1266 33.0372 13.1473 32.9825 13.2231C33.0098 13.2575 33.0372 13.2919 33.0646 13.3195C34.5631 14.5524 36.0616 15.7922 37.5533 17.0251ZM30.5192 13.2093C30.4849 13.1817 30.4713 13.168 30.4507 13.1611C29.6091 12.7134 28.7675 12.2726 27.9327 11.8249C27.9053 11.8111 27.8711 11.7973 27.8437 11.7835C27.8095 11.7697 27.7753 11.7904 27.7616 11.818C27.7343 11.8662 27.7137 11.9213 27.7 11.9695C27.1184 13.595 26.5368 15.2136 25.9552 16.8392C25.9347 16.8874 25.9073 16.9356 25.9483 16.9907C26.181 16.846 30.2865 13.4573 30.5192 13.2093ZM30.5602 50.789C29.0001 49.4941 27.4811 48.2405 25.9552 46.987C25.9005 47.0765 25.9483 47.1316 25.9689 47.1936C26.5505 48.8191 27.1321 50.4446 27.7137 52.0701C27.7343 52.1252 27.7411 52.201 27.83 52.2354C28.7127 51.7602 29.6159 51.2918 30.5602 50.789ZM37.5464 47.0352C37.5259 47.0352 37.5191 47.0352 37.5054 47.0352C37.478 47.0489 37.4438 47.0627 37.4233 47.0834C35.9521 48.3025 34.481 49.5148 33.0098 50.7339C33.003 50.7408 32.9962 50.7477 32.9893 50.7615C32.9893 50.7683 32.9893 50.7821 32.9962 50.789C33.0098 50.8028 33.0167 50.8303 33.0372 50.8372C33.9062 51.2987 34.7821 51.7533 35.6511 52.2148C35.6579 52.2217 35.6716 52.2217 35.6784 52.2217C35.6853 52.2217 35.699 52.2148 35.74 52.1941C36.3353 50.5204 36.9443 48.826 37.5464 47.1247C37.5601 47.0972 37.5533 47.0627 37.5464 47.0352Z" fill="#203F5B"/>
</svg>
