<svg width="64" height="64" viewBox="0 0 64 64" fill="none" xmlns="http://www.w3.org/2000/svg">
<path d="M52.2443 41.6461C52.2371 42.2575 52.2728 42.8335 52.2229 43.4165C52.2158 43.4947 52.23 43.5729 52.2371 43.6511C52.2514 43.8004 52.2371 43.9497 52.1659 44.0848C52.1018 44.2057 52.0733 44.3408 52.0448 44.4759C51.66 46.6444 51.0472 48.7419 50.2349 50.7896C50.185 50.9176 50.1208 51.0384 50.1066 51.1735C50.0995 51.2162 50.0852 51.2588 50.0567 51.3015C49.8501 51.6428 49.7147 52.0196 49.5437 52.3751C48.6245 54.3162 47.4844 56.1221 46.0949 57.7645C44.5415 59.5918 42.4751 61.2058 40.2662 62.2438C38.7983 62.9406 37.2592 63.417 35.656 63.6943C34.3947 63.9147 33.1264 63.9929 31.8438 64C31.3307 64 30.8177 63.9858 30.3047 63.9645C28.11 63.8649 25.9937 63.4241 23.9629 62.5709C21.7041 61.6253 19.7446 60.2459 18.0558 58.4755C16.7518 57.1104 15.6759 55.5746 14.7567 53.9322C14.3719 53.2496 14.0228 52.5458 13.7021 51.8276C13.6309 51.6712 13.5453 51.529 13.4741 51.3726C13.4028 51.2091 13.353 51.0313 13.2888 50.8607C13.1178 50.4127 12.9397 49.9719 12.7829 49.524C12.1986 47.8674 11.7426 46.1823 11.4433 44.4545C11.4219 44.3337 11.3934 44.2128 11.3364 44.099C11.258 43.9426 11.2295 43.772 11.2652 43.6013C11.3008 43.4378 11.2509 43.2885 11.2509 43.125C11.258 42.3855 11.2438 41.6461 11.2937 40.9066C11.3222 40.4445 11.3507 39.9752 11.3792 39.5131C11.4362 38.6172 11.5359 37.7214 11.6499 36.8326C11.7782 35.8372 11.9492 34.856 12.1345 33.8748C12.562 31.6138 13.1534 29.4026 13.8802 27.2198C14.5144 25.3073 15.2555 23.4373 16.0892 21.6029C16.1604 21.4465 16.2388 21.2972 16.2673 21.1266C16.2816 21.0483 16.3172 20.9772 16.3671 20.9133C16.474 20.7639 16.5523 20.6004 16.6307 20.4369C18.5404 16.4411 20.8419 12.687 23.4499 9.11062C23.8418 8.57737 24.2408 8.05833 24.647 7.5393C25.046 7.01316 25.4593 6.50124 25.8797 5.98932C26.3072 5.47029 26.7348 4.95836 27.1765 4.44644C27.6112 3.94874 28.0459 3.45104 28.4948 2.96756C28.9437 2.48408 29.3926 2.00059 29.8558 1.52422C30.2263 1.14028 30.6111 0.770561 30.9958 0.393729C31.0885 0.308409 31.1811 0.223089 31.288 0.151988C31.5944 -0.0470922 31.915 -0.0542022 32.2214 0.151988C32.3568 0.237309 32.4708 0.351069 32.5848 0.457719C33.6537 1.48156 34.6726 2.55518 35.656 3.66434C36.9884 5.15744 38.2568 6.70743 39.4681 8.30719C42.3754 12.1608 44.9121 16.2349 46.9785 20.6004C48.6744 24.1839 50.1137 28.0019 51.1256 32.5524C51.432 33.9175 51.6671 35.2968 51.8524 36.6833C52.0661 38.3399 52.2015 40.0037 52.2443 41.6461ZM31.7725 15.9576C31.6656 16.0642 31.5944 16.1353 31.5231 16.2135C29.243 18.6665 26.9699 21.1194 24.6897 23.5724C24.4118 23.871 24.1339 24.1768 23.8489 24.4754C23.7634 24.5607 23.7206 24.6531 23.7064 24.774C23.685 24.9517 23.6494 25.1366 23.6209 25.3144C23.4427 26.4022 23.2646 27.49 23.0936 28.5779C22.9511 29.4666 22.8086 30.3483 22.6589 31.237C22.4879 32.2893 22.3169 33.3487 22.1459 34.401C21.9749 35.4461 21.811 36.4913 21.64 37.5294C21.4618 38.603 21.2908 39.6837 21.1127 40.7573C20.9702 41.6532 20.8277 42.5562 20.6709 43.452C20.6353 43.6724 20.6495 43.8715 20.7208 44.0848C21.4547 46.1894 22.1815 48.294 22.9155 50.3985C23.0437 50.7754 23.1791 51.1522 23.3074 51.529C23.343 51.6357 23.4 51.7068 23.514 51.7352C23.5781 51.7565 23.6423 51.7779 23.7064 51.8063C26.2075 52.7164 28.7157 53.6265 31.2167 54.5366C31.3949 54.6005 31.5801 54.7143 31.7654 54.7072C31.9507 54.7072 32.1288 54.6005 32.3141 54.5294C34.8294 53.6194 37.3447 52.7022 39.86 51.7921C40.0524 51.721 40.1878 51.6428 40.2591 51.4295C41.107 48.9552 41.9621 46.488 42.8243 44.0208C42.8813 43.8502 42.8955 43.6938 42.867 43.5231C42.7886 43.0539 42.7103 42.5846 42.6319 42.1082C42.4609 41.0773 42.297 40.0463 42.126 39.0083C41.955 37.956 41.7839 36.8966 41.6201 35.8443C41.4704 34.9129 41.3137 33.9815 41.164 33.0501C41.0215 32.1542 40.8719 31.2583 40.7294 30.3554C40.5583 29.2889 40.3802 28.2224 40.2092 27.1559C40.0809 26.3809 39.9527 25.6059 39.8315 24.8309C39.803 24.6673 39.7389 24.5394 39.6249 24.4185C37.0811 21.6811 34.5372 18.9438 32.0005 16.2064C31.9222 16.1353 31.858 16.0571 31.7725 15.9576ZM24.7895 14.2298C24.6755 14.2796 24.6185 14.3649 24.5472 14.4431C22.4024 16.8037 20.2576 19.1642 18.1128 21.5176C17.9846 21.6598 17.9133 21.802 17.9133 22.0011C17.8991 22.8116 17.8706 23.6151 17.8492 24.4256C17.8136 25.7125 17.7779 26.9923 17.7494 28.2792C17.7494 28.3717 17.7423 28.4641 17.7423 28.5494C17.7067 29.6159 17.671 30.6895 17.6425 31.756C17.6425 31.82 17.614 31.884 17.6782 31.9551C17.7708 31.884 17.8064 31.7703 17.8563 31.6778C19.2315 29.1751 20.5997 26.6724 21.9749 24.1696C22.0818 23.9777 22.1601 23.7857 22.2172 23.5724C23.0437 20.572 23.8774 17.5715 24.7111 14.5711C24.7396 14.4574 24.761 14.3507 24.7895 14.2298ZM45.874 31.9765C45.874 31.8698 45.8811 31.8058 45.8811 31.7418C45.8669 31.2441 45.8455 30.7393 45.8313 30.2416C45.7814 28.4996 45.7315 26.7648 45.6816 25.0229C45.6531 23.999 45.6246 22.9752 45.5961 21.9513C45.5961 21.9158 45.5961 21.8802 45.5961 21.8518C45.6032 21.7665 45.5747 21.6954 45.5177 21.6385C45.4607 21.5816 45.4109 21.5247 45.3538 21.4607C44.0998 20.0814 42.8457 18.6949 41.5844 17.3156C40.7151 16.3557 39.8387 15.3959 38.9622 14.436C38.9052 14.3791 38.8625 14.2938 38.7698 14.2796C38.7485 14.3791 38.777 14.4502 38.7983 14.5285C39.5964 17.4151 40.4016 20.3089 41.1996 23.2027C41.3208 23.6577 41.4918 24.0772 41.7198 24.4896C43.038 26.8786 44.3491 29.2746 45.6674 31.6636C45.7173 31.7632 45.7529 31.8698 45.874 31.9765ZM31.7512 2.80403C31.6799 2.86091 31.6514 2.95334 31.6086 3.03155C30.3545 5.4774 29.1004 7.92324 27.8463 10.3762C27.8178 10.4402 27.7822 10.4971 27.7537 10.5611C27.7323 10.6037 27.7395 10.6535 27.7822 10.6819C27.8463 10.7317 27.9105 10.7815 27.9675 10.8312C28.8796 11.5067 29.7987 12.1821 30.7108 12.8576C31.0101 13.078 31.3165 13.3055 31.6158 13.5259C31.744 13.6184 31.7512 13.6184 31.8865 13.5259C31.915 13.5046 31.9435 13.4833 31.972 13.4691C33.1691 12.5803 34.3662 11.6916 35.5705 10.8099C35.8412 10.6108 35.7985 10.6322 35.6631 10.3762C34.409 7.93035 33.1549 5.4774 31.9008 3.03155C31.8652 2.94623 31.8438 2.8538 31.7512 2.80403ZM46.9856 37.7142C46.9001 37.9347 46.8217 38.1551 46.7362 38.3755C46.0878 40.1245 45.4322 41.8665 44.7767 43.6156C44.7125 43.7791 44.684 43.9284 44.7411 44.1062C45.1472 45.4073 45.5391 46.7155 45.931 48.0167C45.9524 48.0807 45.9524 48.1518 46.0308 48.1873C46.1448 48.1446 46.2018 48.0451 46.273 47.9598C47.5628 46.5804 48.8454 45.194 50.1351 43.8075C50.1707 43.7649 50.2135 43.7222 50.2491 43.6796C50.299 43.6227 50.3275 43.5658 50.2776 43.4947C50.2491 43.4591 50.2349 43.4165 50.2135 43.3738C49.1945 41.5465 48.1684 39.7193 47.1495 37.8991C47.1139 37.8422 47.0925 37.7569 46.9856 37.7142ZM16.4811 37.7C15.3766 39.6766 14.2793 41.6319 13.1819 43.5871C13.2318 43.644 13.2674 43.7009 13.3173 43.7507C13.6023 44.0635 13.8874 44.3692 14.1795 44.675C15.2056 45.777 16.2246 46.872 17.2506 47.9811C17.5499 48.3082 17.5214 48.2229 17.6212 47.9029C17.9988 46.6729 18.3622 45.4428 18.7399 44.2199C18.8111 43.9924 18.8111 43.7862 18.7256 43.5658C18.0344 41.7243 17.3504 39.8828 16.6592 38.0413C16.6093 37.9347 16.5951 37.8138 16.4811 37.7ZM31.8367 56.5842C31.7013 56.5558 31.6086 56.6056 31.5089 56.6411C30.2477 57.0677 28.9864 57.4943 27.7323 57.9138C27.4046 58.0276 27.4188 58.0276 27.6611 58.248C28.9651 59.4283 30.269 60.6156 31.5801 61.803C31.6158 61.8314 31.6443 61.867 31.6799 61.8954C31.7298 61.9381 31.7797 61.9381 31.8295 61.8954C31.8652 61.867 31.8937 61.8314 31.9293 61.803C33.2546 60.6014 34.5729 59.4069 35.8982 58.2053C35.941 58.1698 35.9837 58.1271 36.0194 58.0845C36.0407 58.056 36.0407 58.0205 36.0051 57.9991C35.9624 57.9778 35.9267 57.9636 35.884 57.9423C34.5729 57.5014 33.2546 57.0535 31.9435 56.6127C31.8937 56.6056 31.8509 56.5914 31.8367 56.5842ZM39.3399 56.7762C39.4966 56.7762 39.6391 56.7762 39.7888 56.7762C40.8291 56.7549 41.8623 56.7336 42.9027 56.7122C43.3159 56.7051 43.7221 56.6909 44.1354 56.6767C44.1924 56.6767 44.2494 56.6696 44.3064 56.6696C44.3563 56.6625 44.3919 56.634 44.399 56.5842C44.4133 56.4847 44.4275 56.3781 44.4275 56.2785C44.456 55.8448 44.4774 55.4182 44.4988 54.9845C44.5558 53.8469 44.6199 52.7164 44.6769 51.5788C44.6769 51.529 44.7054 51.465 44.6342 51.4366C44.6128 51.4437 44.5914 51.4437 44.57 51.4579C43.5796 51.9485 42.5963 52.4462 41.6058 52.9368C41.4704 53.0008 41.3992 53.1074 41.3279 53.2283C40.6866 54.3446 40.0453 55.4538 39.404 56.57C39.3755 56.6127 39.3185 56.6625 39.3399 56.7762ZM18.8753 51.4366C18.8254 51.5077 18.8539 51.593 18.8539 51.6641C18.8753 52.0481 18.8966 52.432 18.918 52.823C18.975 53.8895 19.0249 54.9561 19.0819 56.0226C19.089 56.1932 19.1033 56.3638 19.1175 56.5345C19.1247 56.6482 19.146 56.6625 19.2672 56.6696C19.5379 56.6838 19.8158 56.6909 20.0866 56.698C21.3265 56.7264 22.5663 56.7478 23.8062 56.7762C23.9059 56.7762 24.0128 56.7762 24.1126 56.7762C24.1696 56.7762 24.1909 56.7336 24.1696 56.6838C24.1553 56.6411 24.1339 56.5985 24.1126 56.5629C23.4641 55.4324 22.8086 54.3019 22.1601 53.1643C22.0889 53.0363 21.982 52.9652 21.8609 52.9013C20.9274 52.432 19.994 51.9627 19.0534 51.4935C19.0035 51.465 18.9465 51.4153 18.8753 51.4366ZM24.7253 20.9275C24.8536 20.8919 24.8964 20.8137 24.9605 20.7497C26.7348 18.8442 28.5019 16.9316 30.2762 15.0262C30.3189 14.9764 30.3688 14.9266 30.4115 14.8697C30.4401 14.8342 30.4258 14.8057 30.4044 14.7773C30.3759 14.7418 30.3403 14.7133 30.3047 14.6849C29.2928 13.9312 28.2739 13.1847 27.262 12.431C27.2193 12.3954 27.1765 12.3599 27.0982 12.3883C26.3072 15.2252 25.5163 18.0621 24.7253 20.9275ZM38.7413 20.9061C38.7841 20.8279 38.7413 20.7568 38.72 20.6786C38.4563 19.7259 38.1927 18.7731 37.929 17.8204C37.4516 16.0927 36.9742 14.3578 36.4897 12.6301C36.4754 12.5874 36.4683 12.5448 36.4469 12.5021C36.4255 12.4594 36.4469 12.3812 36.3543 12.367C36.3115 12.3954 36.2688 12.4239 36.2189 12.4523C35.2284 13.1847 34.2451 13.917 33.2546 14.6493C33.219 14.6778 33.1834 14.6991 33.1478 14.7275C33.0694 14.7915 33.0623 14.8271 33.1193 14.8911C33.1549 14.9337 33.1976 14.9764 33.2333 15.019C35.0147 16.9388 36.7961 18.8585 38.5774 20.7782C38.6273 20.835 38.6629 20.899 38.7413 20.9061ZM44.1211 40.4587C44.1639 40.3592 44.1853 40.3165 44.1995 40.2739C44.7411 38.8163 45.2826 37.3587 45.8313 35.9012C45.8954 35.7305 45.8669 35.6026 45.7885 35.4533C44.6698 33.4198 43.5582 31.3934 42.4395 29.36C42.3967 29.2818 42.3754 29.1893 42.2614 29.1396C42.8599 32.8368 43.4585 36.5198 44.057 40.2028C44.0641 40.2667 44.0855 40.3307 44.1211 40.4587ZM21.1982 29.1538C21.1554 29.232 21.1056 29.3102 21.0628 29.3884C19.9584 31.4005 18.8539 33.4127 17.7494 35.4248C17.7209 35.4746 17.6995 35.5244 17.6639 35.5741C17.6212 35.6452 17.6069 35.7234 17.6425 35.8016C17.6639 35.8514 17.6853 35.9083 17.6995 35.9581C18.2197 37.3516 18.7399 38.7452 19.26 40.1388C19.2885 40.217 19.3028 40.3094 19.4168 40.4089C20.0367 36.6477 20.6495 32.9079 21.1982 29.1538ZM47.4986 26.2316C47.4844 26.2316 47.463 26.2387 47.4488 26.2387C47.4488 26.3666 47.4488 26.4875 47.4488 26.6155C47.4915 28.0802 47.5343 29.5448 47.577 31.0095C47.6127 32.1755 47.6412 33.3487 47.6697 34.5147C47.6697 34.5858 47.6697 34.6498 47.6768 34.7209C47.6839 34.8276 47.7124 34.856 47.8264 34.8702C48.2183 34.92 48.6174 34.9698 49.0093 35.0124C49.2587 35.0409 49.5081 35.0693 49.7574 35.0978C49.8501 35.1049 49.8857 35.0693 49.8715 34.9769C49.7931 34.5218 49.7147 34.0597 49.6221 33.6046C49.1304 31.237 48.4748 28.912 47.6554 26.6297C47.5984 26.4946 47.5485 26.3666 47.4986 26.2316ZM16.0678 26.324C16.0464 26.3169 16.025 26.3169 16.0037 26.3098C15.9752 26.388 15.9395 26.4733 15.911 26.5515C15.0203 29.0116 14.322 31.5285 13.8161 34.0952C13.7591 34.3725 13.7092 34.6569 13.6665 34.9342C13.6451 35.0764 13.6736 35.1049 13.8019 35.0906C14.3078 35.0338 14.8208 34.9698 15.3267 34.9129C15.4479 34.8987 15.5761 34.8845 15.6973 34.8702C15.8041 34.856 15.8255 34.8276 15.8398 34.7138C15.8469 34.6712 15.8398 34.6214 15.8469 34.5787C15.8612 34.0241 15.8825 33.4624 15.8968 32.9079C15.9538 30.8033 16.0108 28.6987 16.0678 26.6013C16.0678 26.5017 16.0678 26.4164 16.0678 26.324ZM29.3142 62.0732C29.0292 61.8172 28.7442 61.5542 28.4663 61.2982C27.711 60.6085 26.9485 59.926 26.1932 59.2363C26.0721 59.1225 26.0436 59.1296 25.9794 59.2718C25.7158 59.862 25.4522 60.4521 25.1885 61.0422C25.1671 61.0849 25.16 61.1275 25.1743 61.1987C26.4925 61.6892 27.8677 62.0021 29.3142 62.0732ZM34.1382 62.1301C34.3306 62.1158 34.4446 62.1158 34.5515 62.1016C35.3068 62.0021 36.055 61.867 36.7889 61.6679C37.2735 61.5399 37.7509 61.3906 38.2212 61.22C38.3637 61.1631 38.3779 61.1418 38.3138 60.9925C38.0573 60.4237 37.8008 59.8549 37.5442 59.2861C37.5229 59.2363 37.5086 59.1723 37.416 59.1581C36.3543 60.1179 35.2783 61.0991 34.1382 62.1301ZM38.8696 53.982C38.3209 54.1811 37.8435 54.3517 37.3661 54.5294C36.8744 54.7072 36.3828 54.885 35.8911 55.0627C35.4208 55.2333 34.9363 55.3969 34.466 55.5888C34.4945 55.6244 34.5016 55.6528 34.523 55.6599C35.4279 55.9657 36.3329 56.2714 37.2378 56.5771C37.3803 56.6269 37.3875 56.6198 37.473 56.4634C37.9148 55.6955 38.3565 54.9276 38.7983 54.1597C38.8126 54.1313 38.8268 54.0886 38.8696 53.982ZM24.6826 53.9962C24.6683 54.1028 24.7111 54.1455 24.7396 54.1953C25.1671 54.9418 25.6018 55.6884 26.0293 56.442C26.0507 56.4847 26.0792 56.5203 26.1006 56.5558C26.1291 56.5985 26.1718 56.6127 26.2146 56.5985C26.2573 56.5914 26.3001 56.5771 26.35 56.5629C27.2122 56.2714 28.0744 55.9799 28.9366 55.6884C28.9936 55.667 29.0434 55.6528 29.0648 55.5817C27.6112 55.0556 26.1576 54.5294 24.6826 53.9962ZM20.4928 58.4684C20.8704 58.8097 21.2623 59.0941 21.6542 59.3714C22.4095 59.9046 23.1791 60.3454 23.5354 60.4592C23.5568 60.4308 23.5781 60.4094 23.5924 60.381C23.856 59.8051 24.1126 59.2221 24.3762 58.6462C24.3976 58.6035 24.3976 58.5608 24.3762 58.5182C23.5924 58.4542 20.8419 58.4186 20.4928 58.4684ZM39.0834 58.504C39.3826 59.1865 39.6605 59.8193 39.9598 60.4592C40.6439 60.125 41.2709 59.7269 41.8694 59.3003C42.2257 59.0443 42.582 58.7884 42.9525 58.4257C41.6343 58.44 40.3873 58.504 39.0834 58.504ZM19.766 46.7155C19.4952 47.6114 19.2315 48.4859 18.9608 49.3676C18.9251 49.4742 18.9394 49.5027 19.0463 49.5524C19.7161 49.8866 20.3859 50.2279 21.0628 50.5621C21.0771 50.5692 21.0984 50.5478 21.1412 50.5265C20.7137 49.2823 20.279 48.0451 19.8443 46.8009C19.8372 46.7724 19.8016 46.7511 19.766 46.7155ZM43.7363 46.7155C43.5938 46.9644 42.753 49.3178 42.411 50.427C42.3967 50.4696 42.3754 50.5123 42.4181 50.5621C42.4466 50.5549 42.4751 50.555 42.5036 50.5407C43.1521 50.2137 43.8005 49.8866 44.4489 49.5595C44.5843 49.4884 44.5843 49.4884 44.5344 49.3178C44.2921 48.5073 44.0427 47.6896 43.8005 46.8791C43.7791 46.8293 43.7577 46.7795 43.7363 46.7155ZM17.2649 54.7996C17.3148 54.7641 17.2934 54.7214 17.2934 54.6788C17.2293 53.5127 17.1651 52.3467 17.101 51.1735C17.101 51.1451 17.0725 51.1166 17.0654 51.0882C17.044 51.0811 17.0369 51.074 17.0297 51.074C16.5381 51.2091 16.0393 51.3371 15.5476 51.4721C15.5263 51.4793 15.5049 51.4864 15.4835 51.5006C15.4407 51.5219 15.4051 51.5504 15.4265 51.6072C15.4407 51.6428 15.4479 51.6712 15.4621 51.6997C15.9609 52.7519 16.5238 53.7616 17.1723 54.7214C17.1865 54.757 17.2008 54.8139 17.2649 54.7996ZM46.4369 51.0598C46.3443 51.6926 46.3657 52.2969 46.3158 52.8941C46.2232 53.982 46.216 54.4939 46.2802 54.6788C46.3586 54.565 46.4227 54.4655 46.4939 54.3588C46.9999 53.5767 47.4559 52.7662 47.862 51.9343C47.9119 51.8348 47.9618 51.7281 48.0046 51.6286C48.0402 51.5432 48.0259 51.5006 47.9404 51.4792C47.4488 51.337 46.9571 51.202 46.4369 51.0598ZM42.1117 15.3319C42.1188 15.1684 42.0476 15.1044 42.0048 15.0262C41.0785 13.5188 40.0881 12.0471 39.0477 10.6179C39.0121 10.5753 38.9836 10.5255 38.948 10.4829C38.9123 10.4402 38.8696 10.4402 38.8268 10.4686C38.6273 10.6251 38.4349 10.7744 38.2425 10.9379C38.1927 10.9806 38.1998 11.0374 38.2425 11.0872C38.2782 11.1299 38.3209 11.1725 38.3565 11.2152C39.5251 12.5021 40.6937 13.789 41.8623 15.0688C41.9265 15.1399 41.9977 15.2181 42.1117 15.3319ZM21.3265 15.4101C21.3906 15.3461 21.4547 15.2821 21.5188 15.2181C22.7444 13.8743 23.9629 12.5305 25.1885 11.1867C25.217 11.1512 25.2526 11.1228 25.2811 11.0872C25.3381 11.0161 25.3381 10.9806 25.2598 10.9166C25.0603 10.753 24.8536 10.5966 24.6612 10.4402C24.5828 10.4615 24.5543 10.5113 24.5187 10.5611C23.4071 12.0968 22.3525 13.6681 21.3621 15.2892C21.3336 15.3248 21.298 15.3603 21.3265 15.4101ZM50.3987 40.1885C50.47 39.833 50.413 39.4918 50.3916 39.1505C50.3489 38.4466 50.2705 37.7498 50.185 37.053C50.1636 36.9037 50.1493 36.8824 49.9926 36.8681C49.5437 36.8113 49.0876 36.7615 48.6387 36.7117C48.5889 36.7046 48.5247 36.6762 48.482 36.7686C49.1161 37.9062 49.7574 39.0509 50.3987 40.1885ZM13.0537 40.1956C13.1606 40.1388 13.1819 40.0748 13.2176 40.0108C13.5525 39.4135 13.8874 38.8234 14.2151 38.2262C14.4717 37.7711 14.7282 37.3161 14.9776 36.861C14.999 36.8255 15.0417 36.7828 15.0132 36.7402C14.9847 36.6904 14.9348 36.7046 14.8921 36.7117C14.4289 36.7686 13.9658 36.8184 13.5026 36.8753C13.41 36.8824 13.3601 36.9321 13.3458 37.0246C13.3387 37.0886 13.3245 37.1597 13.3173 37.2237C13.2532 37.8209 13.1891 38.4181 13.1321 39.0225C13.0964 39.4064 13.0822 39.7904 13.0537 40.1956ZM13.6807 46.744C13.7092 46.8577 13.7377 46.9644 13.7662 47.0781C13.9871 47.9029 14.2437 48.7063 14.5429 49.5098C14.7353 50.0217 14.6427 49.9364 15.1272 49.8155C15.455 49.7373 15.7828 49.6378 16.1105 49.5453C16.2602 49.5027 16.2673 49.4671 16.1533 49.3462C15.3837 48.5144 14.6071 47.6825 13.8375 46.8506C13.8019 46.8009 13.7662 46.7511 13.6807 46.744ZM47.2564 49.4458C47.3348 49.5311 47.406 49.5382 47.4701 49.5524C47.8335 49.652 48.1898 49.7515 48.5532 49.8511C48.7456 49.9008 48.7456 49.9008 48.824 49.7089C48.8382 49.6804 48.8525 49.6449 48.8668 49.6164C49.1945 48.7419 49.4867 47.8602 49.7289 46.9644C49.7432 46.9146 49.7859 46.8648 49.7147 46.8009C48.9024 47.6825 48.0829 48.557 47.2564 49.4458ZM37.8435 9.04663C37.53 8.54182 35.6916 6.28083 35.3638 5.99643C35.4066 6.08175 35.4279 6.14574 35.4564 6.20262C36.0051 7.26912 36.5538 8.34274 37.1024 9.40924C37.131 9.45901 37.1523 9.51589 37.2307 9.53011C37.4302 9.37369 37.6297 9.21727 37.8435 9.04663ZM26.293 9.53011C26.3714 9.50878 26.3785 9.45901 26.3999 9.42346C26.9557 8.32852 27.5186 7.23357 28.0744 6.14574C28.0815 6.13863 28.0744 6.12441 28.0744 6.1173C28.0744 6.11019 28.0672 6.09597 28.0601 6.08886C27.711 6.41592 25.9082 8.64847 25.6873 9.03241C25.7301 9.13195 25.8298 9.17461 25.9082 9.2386C26.0365 9.33814 26.1647 9.4519 26.293 9.53011Z" fill="#203F5B"/>
</svg>
