<svg width="64" height="64" viewBox="0 0 64 64" fill="none" xmlns="http://www.w3.org/2000/svg">
<path d="M61.25 61.5C61.15 61.5 61.05 61.5 60.95 61.5C41.25 61.5 21.45 61.5 1.75 61.5C1.75 61.4 1.75 61.4 1.75 61.3C1.75 61.2 1.75 61.1 1.75 61C1.75 41.5 1.75 22 1.75 2.4C1.75 2.3 1.75 2.2 1.75 2H1.85C21.65 2 41.35 2 61.15 2H61.25V2.1C61.25 2.2 61.25 2.3 61.25 2.5C61.25 22 61.25 41.5 61.25 61C61.25 61.2 61.25 61.4 61.25 61.5ZM16.45 16.8C16.45 16.9 16.45 17 16.35 17.1C16.35 17.5 16.25 17.9 16.25 18.2C16.15 18.7 16.15 19.3 16.05 19.8C15.95 20.5 15.85 21.2 15.75 22C15.65 22.5 15.65 23.1 15.55 23.6C15.45 24.3 15.35 25 15.25 25.7C15.15 26.4 15.05 27.1 14.95 27.8C14.85 28.6 14.75 29.3 14.65 30.1C14.55 30.6 14.55 31.1 14.45 31.5C14.45 31.5 14.45 31.6 14.45 31.7C14.45 31.9 14.45 32 14.55 32.2C14.65 33 14.75 33.8 14.85 34.6C14.95 35.4 15.05 36.2 15.15 37C15.25 37.8 15.35 38.6 15.45 39.4C15.55 40.2 15.65 41 15.75 41.8C15.85 42.6 15.95 43.4 16.05 44.2C16.15 45 16.25 45.8 16.35 46.6C16.35 46.7 16.35 46.8 16.45 46.9H16.55C16.95 46.9 17.35 47 17.75 47C18.35 47.1 18.95 47.2 19.55 47.2C19.95 47.2 20.35 47.3 20.75 47.3C21.15 47.4 21.55 47.4 22.05 47.5C22.45 47.6 22.85 47.6 23.25 47.7C23.65 47.7 24.05 47.8 24.45 47.8C25.05 47.9 25.55 47.9 26.15 48C26.75 48.1 27.35 48.2 27.95 48.2C28.35 48.2 28.75 48.3 29.15 48.3C29.75 48.4 30.25 48.4 30.85 48.5C31.05 48.5 31.25 48.5 31.45 48.5C31.95 48.4 32.45 48.4 33.05 48.3C33.75 48.2 34.45 48.1 35.15 48C35.85 47.9 36.55 47.8 37.15 47.7C37.85 47.6 38.55 47.5 39.25 47.4C39.95 47.3 40.65 47.2 41.25 47.1C42.05 47 42.95 46.9 43.75 46.8C44.45 46.7 45.25 46.6 45.95 46.5C46.05 46.5 46.25 46.5 46.35 46.4V46.3C46.45 45.6 46.55 44.9 46.55 44.2C46.65 43.6 46.65 43 46.75 42.4C46.85 41.8 46.85 41.2 46.95 40.6C47.05 40 47.05 39.4 47.15 38.8C47.25 38.2 47.25 37.6 47.35 37C47.45 36.4 47.45 35.8 47.55 35.2C47.65 34.6 47.65 34 47.75 33.4C47.85 32.8 47.85 32.1 47.95 31.5C47.95 31.2 47.95 30.8 47.95 30.5C47.85 30.1 47.85 29.6 47.75 29.2C47.65 28.7 47.65 28.2 47.55 27.6C47.45 27 47.35 26.4 47.35 25.8C47.25 25.3 47.25 24.7 47.15 24.2C47.05 23.6 47.05 23.1 46.95 22.5C46.85 22 46.85 21.4 46.75 20.9C46.65 20.2 46.55 19.5 46.45 18.7C46.35 18 46.25 17.3 46.15 16.6C46.15 16.5 46.15 16.5 46.05 16.4C45.95 16.4 45.95 16.4 45.85 16.4C45.45 16.4 45.15 16.3 44.75 16.3C44.25 16.2 43.65 16.2 43.15 16.1C42.65 16 42.15 16 41.55 15.9C41.05 15.8 40.45 15.8 39.95 15.7C39.45 15.6 38.95 15.6 38.35 15.5C37.85 15.4 37.25 15.4 36.75 15.3C36.25 15.2 35.75 15.2 35.15 15.1C34.55 15 34.05 15 33.45 14.9C32.95 14.8 32.45 14.8 31.85 14.7C31.55 14.7 31.35 14.7 31.05 14.7C30.45 14.8 29.85 14.8 29.25 14.9C28.85 14.9 28.45 15 28.05 15C27.45 15.1 26.95 15.1 26.35 15.2C25.95 15.3 25.55 15.3 25.15 15.3C24.55 15.4 23.95 15.4 23.35 15.5C22.95 15.5 22.55 15.6 22.15 15.6C21.55 15.7 20.95 15.7 20.35 15.8C19.95 15.8 19.55 15.9 19.15 15.9C18.55 16 18.05 16 17.45 16.1C16.95 16.2 16.35 16.2 15.85 16.3C16.65 16.7 16.55 16.8 16.45 16.8ZM58.65 3.5C58.55 3.4 58.35 3.5 58.25 3.5C40.55 3.5 22.75 3.5 5.05 3.5C4.95 3.5 4.85 3.5 4.75 3.5C4.75 3.5 4.65 3.5 4.65 3.6C4.65 3.6 4.75 3.7 4.85 3.7C6.95 5 8.95 6.3 11.05 7.6C11.55 7.9 11.35 7.8 11.85 7.8C20.15 7.8 28.55 7.8 36.85 7.8C41.65 7.8 46.55 7.8 51.35 7.8C51.55 7.8 51.75 7.8 51.95 7.6C53.05 6.9 54.25 6.2 55.35 5.5C56.35 4.9 57.35 4.3 58.35 3.6C58.45 3.7 58.55 3.6 58.65 3.5ZM3.25 4.7C3.15 4.9 3.25 5 3.25 5.1C3.25 23 3.25 40.8 3.25 58.7C3.25 58.8 3.25 58.9 3.25 59C3.25 59 3.25 59.1 3.35 59.1C3.45 59 3.45 58.9 3.55 58.8C4.75 56.7 5.95 54.6 7.25 52.5C7.55 52 7.45 52.2 7.45 51.6C7.45 38.4 7.45 25.2 7.45 12C7.45 11.9 7.45 11.9 7.45 11.8C7.45 11.6 7.45 11.5 7.35 11.3C6.05 9.2 4.75 7.1 3.45 4.9C3.45 4.9 3.35 4.8 3.25 4.7ZM4.75 60C4.95 60.1 5.05 60 5.15 60C22.95 60 40.65 60 58.45 60C58.55 60 58.65 60 58.75 60C58.75 60 58.85 60 58.85 59.9C58.75 59.8 58.65 59.8 58.55 59.7C56.15 58.4 53.85 57.1 51.45 55.8C51.25 55.7 51.05 55.7 50.85 55.7C48.95 55.7 47.05 55.7 45.15 55.7C41.85 55.7 38.45 55.7 35.15 55.7C32.85 55.7 30.45 55.7 28.15 55.7C25.25 55.7 22.35 55.7 19.45 55.7C16.85 55.7 14.35 55.7 11.75 55.7C11.55 55.7 11.45 55.7 11.25 55.8C9.15 57.1 7.05 58.4 4.95 59.6C4.85 59.9 4.85 59.9 4.75 60ZM59.85 4.9C59.75 4.9 59.75 4.9 59.75 5C59.65 5.1 59.65 5.2 59.65 5.2C58.45 7.2 57.25 9.2 56.15 11.1C55.85 11.6 55.95 11.4 55.95 11.9C55.95 25.1 55.95 38.4 55.95 51.6C55.95 51.8 55.95 52 55.95 52.1C55.95 52.2 55.95 52.2 56.05 52.3C56.05 52.4 56.15 52.4 56.15 52.5C57.25 54.3 58.45 56 59.55 57.8C59.65 58 59.75 58.1 59.85 58.3C59.85 58.3 59.95 58.4 59.95 58.3C59.85 40.6 59.85 22.8 59.85 4.9ZM55.15 50C55.25 49.9 55.25 49.7 55.25 49.6C55.25 37.7 55.25 25.8 55.25 13.9C55.25 13.8 55.25 13.7 55.25 13.6C55.25 13.6 55.25 13.5 55.15 13.5C55.05 13.6 55.05 13.7 55.05 13.8C53.65 17.9 52.25 22 50.85 26.2C50.35 27.8 49.75 29.4 49.25 31C49.15 31.2 49.15 31.4 49.25 31.6C50.25 34.6 51.15 37.6 52.15 40.5C53.15 43.5 54.15 46.6 55.05 49.6C55.05 49.8 55.05 49.9 55.15 50ZM8.05 49.9C8.15 49.8 8.15 49.7 8.25 49.5C10.05 43.8 11.85 38 13.75 32.2C13.85 32 13.95 31.8 13.95 31.6C13.95 31.4 13.85 31.2 13.85 31C12.45 26.5 11.05 22.1 9.65 17.6C9.15 16.2 8.75 14.7 8.25 13.3C8.25 13.2 8.25 13.1 8.15 13C8.15 25.2 8.15 37.4 8.15 49.6C8.05 49.9 8.05 49.9 8.05 49.9ZM13.65 8.5C13.75 8.5 13.85 8.6 13.95 8.6C17.65 9.7 21.25 10.9 24.95 12C27.25 12.7 29.55 13.4 31.85 14.1C32.05 14.2 32.25 14.2 32.45 14.1C32.45 14.1 32.45 14.1 32.55 14.1C37.55 12.5 42.45 10.9 47.45 9.3C48.05 9 48.75 8.8 49.55 8.5C49.55 8.5 49.65 8.5 49.65 8.4C49.55 8.4 49.55 8.4 49.45 8.4C37.55 8.4 25.55 8.4 13.65 8.5C13.65 8.4 13.65 8.4 13.65 8.5ZM13.85 55.2C13.85 55.3 13.85 55.3 13.85 55.2C13.95 55.3 14.05 55.3 14.15 55.3C16.05 55.3 17.95 55.3 19.85 55.3C23.05 55.3 26.15 55.3 29.35 55.3C31.75 55.3 34.15 55.3 36.45 55.3C40.15 55.3 43.85 55.3 47.55 55.3C48.05 55.3 48.45 55.3 48.95 55.3C49.05 55.3 49.05 55.3 49.15 55.2C49.05 55.1 48.95 55.1 48.75 55.1C43.65 53.4 38.65 51.8 33.55 50.1C32.85 49.9 32.25 49.7 31.55 49.5C31.45 49.5 31.35 49.4 31.15 49.5H31.05C26.85 50.9 22.75 52.3 18.55 53.7C17.05 54.2 15.55 54.7 14.05 55.2C13.95 55.2 13.95 55.2 13.85 55.2ZM14.05 33.2C14.05 33.3 13.95 33.5 13.95 33.6C12.35 38.6 10.75 43.6 9.15 48.7C8.85 49.5 8.65 50.4 8.35 51.2C8.35 51.3 8.25 51.4 8.35 51.5C8.45 51.4 8.55 51.4 8.65 51.4C9.75 50.8 10.85 50.2 11.95 49.6C13.25 48.9 14.55 48.1 15.85 47.4C15.95 47.3 16.05 47.3 16.15 47.2C16.15 47.2 16.15 47.2 16.15 47.1C16.05 46.2 15.95 45.4 15.75 44.5C15.65 43.6 15.45 42.6 15.35 41.7C15.25 40.7 15.05 39.8 14.95 38.8C14.85 37.8 14.65 36.9 14.55 35.9C14.45 35.1 14.35 34.3 14.25 33.5C14.15 33.3 14.15 33.2 14.05 33.2ZM47.25 46.8C49.75 48.4 52.25 49.9 54.75 51.4C54.75 51.4 54.85 51.4 54.95 51.5C54.95 51.4 54.95 51.2 54.85 51.1C53.15 45.8 51.45 40.6 49.75 35.3C49.55 34.5 49.25 33.8 49.05 33C49.05 32.9 49.05 32.8 48.95 32.8C48.95 32.9 48.95 32.9 48.95 33C48.35 37.6 47.75 42.2 47.25 46.8ZM46.75 47.3C42.15 47.9 37.55 48.5 32.95 49.1H32.85C32.85 49.1 32.85 49.2 32.95 49.2C33.05 49.2 33.15 49.3 33.25 49.3C38.35 51 43.55 52.7 48.65 54.3C49.25 54.5 49.75 54.7 50.35 54.8C50.45 54.8 50.55 54.9 50.65 54.8C50.45 54.7 46.95 47.7 46.75 47.3ZM30.45 14.4C30.35 14.4 30.35 14.3 30.25 14.3C29.25 14 28.15 13.7 27.15 13.3C22.85 12 18.55 10.6 14.15 9.3C13.55 9.1 12.85 8.9 12.25 8.7C12.15 8.7 12.15 8.6 12.05 8.7C12.05 8.8 12.15 8.9 12.15 9C12.45 9.5 12.85 10.1 13.15 10.6C14.15 12.3 15.25 14.1 16.25 15.8C16.35 15.9 16.35 16 16.45 16.1C21.15 15.6 25.85 15 30.45 14.4ZM29.85 49.2C29.75 49.2 29.75 49.1 29.65 49.1C29.25 49 28.85 49 28.45 49C27.55 48.9 26.65 48.8 25.75 48.7C24.75 48.6 23.75 48.5 22.75 48.3C21.75 48.2 20.75 48.1 19.75 47.9C18.75 47.8 17.75 47.7 16.75 47.5C16.65 47.5 16.55 47.5 16.45 47.5C16.25 47.7 12.25 54.4 11.85 55.1C11.85 55.1 11.85 55.2 11.75 55.2C11.95 55.3 11.95 55.3 12.05 55.2L12.15 55.1C12.25 55.1 12.35 55 12.35 55C14.35 54.3 16.45 53.6 18.45 53C22.05 51.8 25.75 50.6 29.35 49.4C29.65 49.3 29.75 49.3 29.85 49.2ZM48.95 29.8C49.05 29.6 49.05 29.5 49.15 29.4C50.85 24.4 52.55 19.4 54.25 14.4C54.45 13.7 54.65 13.1 54.95 12.4C54.95 12.3 55.05 12.3 54.95 12.2C54.95 12.2 54.85 12.2 54.85 12.3C52.35 13.8 49.95 15.2 47.45 16.7C47.45 16.7 47.45 16.7 47.45 16.8C47.45 16.9 47.45 17.1 47.45 17.2C47.55 17.6 47.55 18.1 47.65 18.5C47.75 19 47.75 19.5 47.85 20C47.95 20.7 48.05 21.4 48.15 22.2C48.25 22.9 48.35 23.6 48.45 24.3C48.55 25.2 48.65 26.1 48.75 26.9C48.85 27.8 48.95 28.6 49.05 29.5C48.85 29.6 48.85 29.7 48.95 29.8ZM15.85 16.6C13.45 15.3 11.05 14 8.65 12.6H8.55C8.55 12.7 8.55 12.8 8.55 12.9C8.65 13.4 8.85 13.8 8.95 14.3C10.45 19.1 11.95 24 13.55 28.8C13.65 29.2 13.85 29.7 13.95 30.1C13.95 30.2 13.95 30.2 14.05 30.2C14.75 25.7 15.35 21.2 15.85 16.6ZM46.75 16.1C46.85 16 46.85 15.9 46.95 15.8C47.95 14.1 48.95 12.4 49.95 10.8C50.35 10.2 50.65 9.5 51.05 8.9C51.05 8.8 51.15 8.8 51.15 8.7C51.05 8.7 50.95 8.7 50.85 8.8C45.85 10.4 40.75 12.1 35.75 13.7C35.15 13.9 34.55 14.1 33.95 14.3C33.85 14.3 33.85 14.3 33.85 14.4C38.15 15 42.45 15.5 46.75 16.1C46.65 16.1 46.65 16.1 46.75 16.1ZM47.75 47.9C47.75 48.1 47.85 48.1 47.85 48.2C48.95 50.5 50.15 52.8 51.25 55.1C51.35 55.3 51.45 55.4 51.65 55.5C54.25 56.9 56.85 58.3 59.35 59.7C59.45 59.7 59.45 59.8 59.55 59.8H59.65C59.65 59.7 59.55 59.6 59.55 59.5C58.05 57.2 56.65 54.9 55.15 52.6C55.05 52.5 54.95 52.3 54.75 52.2C52.45 50.8 50.15 49.4 47.85 48C47.95 48 47.85 47.9 47.75 47.9ZM3.35 3.6C3.45 3.7 3.45 3.8 3.55 3.9C5.05 6.4 6.55 8.9 8.05 11.5C8.15 11.7 8.25 11.8 8.45 11.9C9.95 12.7 11.45 13.6 13.05 14.4C13.75 14.8 14.55 15.2 15.25 15.6C15.35 15.6 15.35 15.7 15.45 15.7C15.45 15.6 15.35 15.6 15.35 15.5C13.95 13.2 12.55 10.9 11.25 8.6C11.15 8.4 11.05 8.3 10.95 8.2C10.25 7.8 9.55 7.3 8.75 6.9C7.15 5.8 5.45 4.8 3.75 3.7C3.65 3.7 3.55 3.6 3.35 3.6ZM3.55 60C3.65 60 3.75 59.9 3.85 59.8C6.15 58.4 8.55 57 10.85 55.5C11.05 55.4 11.15 55.2 11.25 55.1C12.45 53.1 13.65 51 14.95 49C15.05 48.8 15.25 48.5 15.35 48.3C15.35 48.3 15.45 48.2 15.35 48.2C15.25 48.2 15.15 48.3 15.15 48.3C12.85 49.6 10.45 50.9 8.15 52.3C7.95 52.4 7.85 52.5 7.75 52.7C6.75 54.4 5.75 56.1 4.85 57.7C4.45 58.4 4.05 59 3.65 59.7C3.55 59.8 3.55 59.9 3.55 60ZM59.75 3.6C59.65 3.7 59.55 3.7 59.45 3.8C57.05 5.2 54.75 6.7 52.35 8.1C52.15 8.2 52.05 8.4 51.95 8.5C50.65 10.7 49.35 12.9 48.05 15.1C48.05 15.2 47.95 15.3 47.95 15.3V15.4C48.05 15.4 48.15 15.3 48.15 15.3C50.45 13.9 52.75 12.6 55.15 11.2C55.35 11.1 55.45 11 55.55 10.8C56.05 10 56.55 9.1 57.05 8.3C57.95 6.8 58.85 5.3 59.75 3.8C59.65 3.9 59.75 3.8 59.75 3.6Z" fill="#203F5B"/>
</svg>
