<svg width="64" height="64" viewBox="0 0 64 64" fill="none" xmlns="http://www.w3.org/2000/svg">
<path d="M62.2142 31.8634C62.2142 37.4173 62.2142 43.0622 62.2142 48.6161C62.2142 48.9803 62.1229 49.1624 61.8491 49.3445C56.5555 53.4416 51.1706 57.5387 45.8769 61.6358C45.6031 61.909 45.238 62 44.873 62C36.4761 62 28.1706 62 19.7738 62C19.4087 62 19.0436 61.909 18.6785 61.6358C14.0238 57.9939 9.36904 54.4431 4.62301 50.8923C3.98412 50.346 3.34524 49.8907 2.61508 49.3445C2.34127 49.1624 2.25 48.8892 2.25 48.6161C2.25 37.4173 2.25 26.3096 2.25 15.1108C2.25 14.7466 2.34127 14.5645 2.61508 14.3824C6.26587 11.651 9.91666 8.91957 13.4762 6.18816C15.2103 4.91351 16.9444 3.63885 18.5873 2.27314C18.9524 2.09105 19.2262 2 19.5 2C19.5912 2 19.6825 2 19.7738 2C28.0793 2 36.3849 2 44.7817 2C44.9642 2 45.1468 2 45.238 2C45.4206 2 45.6031 2.09105 45.7857 2.27314C48.7063 4.45827 51.5356 6.6434 54.4563 8.73748C56.9206 10.5584 59.3848 12.4704 61.8491 14.2914C61.9404 14.3824 61.9404 14.3824 62.0317 14.4734C62.2142 14.5645 62.3055 14.7466 62.2142 14.9287V15.0197C62.2142 20.6646 62.2142 26.2185 62.2142 31.8634ZM15.8492 31.9545C15.8492 32.6829 15.8492 33.4112 15.8492 34.0486C15.8492 34.5948 15.9405 35.0501 16.0317 35.5964C17.4008 40.2398 18.7698 44.8832 20.1389 49.5266C20.2301 49.7086 20.2301 49.7997 20.4127 49.7997C23.5158 50.7102 26.7103 51.6206 29.8135 52.5311C29.9047 52.5311 30.0873 52.6222 30.1785 52.6222C31.5476 52.6222 32.9166 52.6222 34.1944 52.6222C34.2857 52.6222 34.4682 52.6222 34.5595 52.5311C37.6626 51.6206 40.7658 50.7102 43.9603 49.7997C44.1428 49.7086 44.2341 49.7086 44.2341 49.5266C45.6031 44.7011 47.0634 39.8756 48.5237 35.0501C48.5237 34.868 48.615 34.7769 48.615 34.5948C48.615 32.7739 48.615 31.044 48.615 29.2231C48.615 29.132 48.615 28.9499 48.5237 28.8589C47.0634 24.0334 45.6944 19.2079 44.2341 14.2914C44.2341 14.1093 44.1428 14.1093 43.9603 14.0182C40.8571 13.1077 37.6626 12.1973 34.5595 11.2868C34.4682 11.2868 34.3769 11.1958 34.1944 11.1958C32.8254 11.1958 31.4563 11.1958 30.0873 11.1958C29.996 11.1958 29.9047 11.1958 29.7222 11.1958C26.5277 12.1062 23.4246 13.0167 20.2301 13.9272C20.1389 13.9272 20.0476 14.0182 19.9563 14.2003C19.5912 15.566 19.1349 17.0228 18.6785 18.3885C17.6746 21.8483 16.6706 25.308 15.6666 28.6768C15.6666 28.7678 15.5754 28.9499 15.5754 29.041C15.8492 30.2246 15.8492 31.044 15.8492 31.9545ZM4.3492 31.9545C4.3492 37.1442 4.3492 42.2428 4.3492 47.4325C4.3492 47.5235 4.3492 47.5235 4.3492 47.6146C4.3492 47.7056 4.3492 47.7056 4.44047 47.7056C4.53174 47.7056 4.53174 47.7056 4.62301 47.7056C5.62698 47.7056 6.72222 47.7056 7.72618 47.7056C8.09126 47.7056 7.99999 47.7056 7.99999 47.4325C7.99999 40.695 7.99999 33.8665 7.99999 27.129C7.99999 23.5781 7.99999 20.0273 7.99999 16.4765C7.99999 16.2033 7.99999 16.2033 7.72618 16.2033C6.72222 16.2033 5.62698 16.2033 4.62301 16.2033C4.3492 16.2033 4.3492 16.2033 4.3492 16.4765C4.3492 21.6662 4.3492 26.8558 4.3492 31.9545ZM60.115 31.9545C60.115 28.2215 60.115 24.4886 60.115 20.6646C60.115 19.2079 60.115 17.8422 60.115 16.3854C60.115 16.2033 60.115 16.2033 59.9325 16.2033H59.8412C58.8372 16.2033 57.8333 16.2033 56.738 16.2033C56.3729 16.2033 56.3729 16.2033 56.3729 16.5675C56.3729 26.8558 56.3729 37.1442 56.3729 47.4325V47.5235C56.3729 47.7056 56.3729 47.7056 56.5555 47.7056H56.6467C57.6507 47.7056 58.7459 47.7056 59.7499 47.7056C60.115 47.7056 60.0237 47.7056 60.0237 47.4325C60.115 42.3338 60.115 37.1442 60.115 31.9545ZM43.6864 3.45675C36.0198 3.45675 28.4444 3.45675 20.7778 3.45675C20.7778 3.5478 20.7778 3.5478 20.7778 3.63885C21.0516 4.64036 21.2341 5.55083 21.5079 6.55235C21.5992 6.82549 21.5992 6.82549 21.873 6.82549C28.7182 6.82549 35.6547 6.82549 42.4999 6.82549H42.5912C42.6825 6.82549 42.7738 6.82549 42.7738 6.6434C42.9563 5.82398 43.2301 5.00455 43.4126 4.09408C43.5952 3.91199 43.5952 3.72989 43.6864 3.45675ZM43.6864 60.4522C43.6864 60.3611 43.6864 60.2701 43.5952 60.1791C43.3214 59.2686 43.1388 58.2671 42.865 57.3566C42.7738 57.0835 42.7738 57.0835 42.4999 57.0835C35.6547 57.0835 28.7182 57.0835 21.873 57.0835H21.7817C21.5992 57.0835 21.5992 57.0835 21.5992 57.2656C21.3254 58.2671 21.0516 59.2686 20.869 60.2701V60.3611C28.4444 60.4522 36.0198 60.4522 43.6864 60.4522ZM10.0992 43.4264C10.1905 43.4264 10.1905 43.3354 10.1905 43.2443C11.377 40.5129 12.5635 37.7815 13.6587 35.0501C13.75 34.959 13.75 34.868 13.75 34.6859C13.75 32.8649 13.75 31.1351 13.75 29.3141C13.75 29.2231 13.75 29.041 13.6587 28.9499C12.4722 26.2185 11.2857 23.4871 10.1905 20.7557C10.1905 20.6646 10.1905 20.6646 10.0992 20.5736C10.0992 28.2215 10.0992 35.7785 10.0992 43.4264ZM54.365 20.5736C54.2737 20.6646 54.2737 20.7557 54.2737 20.7557C53.0872 23.4871 51.9007 26.2185 50.8055 28.9499C50.8055 29.041 50.7142 29.132 50.7142 29.2231C50.7142 31.044 50.7142 32.8649 50.7142 34.5948C50.7142 34.6859 50.7142 34.7769 50.8055 34.868C51.0793 35.5053 51.3531 36.2337 51.6269 36.871C52.5396 38.9651 53.361 40.9681 54.2737 43.0622C54.2737 43.1533 54.2737 43.2443 54.365 43.2443C54.365 35.7785 54.365 28.2215 54.365 20.5736ZM46.5158 14.6555C46.6071 15.0197 49.8015 25.8543 49.8928 26.0364C51.2618 22.7587 52.7221 19.39 54.0912 16.1123C51.5356 15.566 49.0714 15.1108 46.5158 14.6555ZM14.5714 25.9454C15.7579 22.2124 16.8532 18.3885 17.9484 14.6555C17.8571 14.6555 17.8571 14.6555 17.7659 14.6555C15.3928 15.1108 12.9286 15.566 10.5555 16.0212C10.373 16.0212 10.373 16.0212 10.4643 16.2033C10.4643 16.2033 10.4643 16.2033 10.4643 16.2944C11.5595 18.8437 12.6547 21.4841 13.75 24.0334C14.0238 24.6707 14.2976 25.308 14.5714 25.9454ZM49.8928 37.9636C49.8015 37.9636 49.8015 37.9636 49.8928 37.9636C48.7063 41.6965 47.611 45.5205 46.5158 49.3445C47.4285 49.1624 48.2499 49.0713 49.0714 48.8892C49.8928 48.7071 50.7142 48.6161 51.6269 48.434C52.4483 48.2519 53.2698 48.1608 54.1825 47.9788C52.6309 44.61 51.2618 41.3323 49.8928 37.9636ZM17.9484 49.3445C16.8532 45.5205 15.7579 41.7876 14.5714 37.9636C14.4801 38.0546 14.4801 38.1457 14.4801 38.2367C13.6587 40.1487 12.8373 42.0607 12.0159 43.9727C11.4682 45.2473 10.9206 46.522 10.373 47.8877C10.2817 48.0698 10.2817 48.0698 10.4643 48.0698C11.2857 48.2519 12.0159 48.3429 12.8373 48.525C14.2063 48.7982 15.5754 49.0713 17.0357 49.2534C17.3095 49.2534 17.5833 49.2534 17.9484 49.3445ZM4.98809 14.7466C6.1746 14.7466 7.26983 14.7466 8.45634 14.7466C8.63888 14.7466 8.73015 14.7466 8.82142 14.6555C10.373 13.563 11.9246 12.5615 13.4762 11.4689C15.4841 10.1032 17.492 8.73748 19.5 7.37178C19.5912 7.28073 19.5912 7.28073 19.5912 7.09863C19.4087 6.18816 19.1349 5.36874 18.9524 4.45827C18.9524 4.36722 18.9524 4.36722 18.8611 4.36722C14.2063 7.82701 9.55158 11.2868 4.98809 14.7466ZM59.4761 14.7466C59.2023 14.5645 45.6944 4.36722 45.6031 4.36722V4.45827C45.4206 5.27769 45.1468 6.18816 44.9642 7.00759C44.873 7.18968 44.873 7.18968 45.0555 7.37178C48.615 9.83005 52.1745 12.1973 55.734 14.6555C55.8253 14.7466 55.9166 14.7466 56.0991 14.7466C57.1944 14.7466 58.2896 14.7466 59.3848 14.7466C59.2936 14.7466 59.3848 14.7466 59.4761 14.7466ZM18.8611 59.6328C19.1349 58.6313 19.4087 57.7208 19.6825 56.9014C19.6825 56.7193 19.6825 56.7193 19.5912 56.6282C16.0317 54.17 12.4722 51.8027 8.91269 49.3445C8.82142 49.2534 8.73015 49.2534 8.54761 49.2534C7.54364 49.2534 6.53968 49.2534 5.53571 49.2534C5.44444 49.2534 5.44444 49.2534 5.35317 49.2534C9.82539 52.7132 14.2976 56.173 18.8611 59.6328ZM45.6031 59.6328C45.6944 59.6328 45.6944 59.6328 45.6944 59.5417C50.1666 56.0819 54.6388 52.6222 59.111 49.2534C58.1071 49.2534 57.1031 49.2534 56.0079 49.2534C55.8253 49.2534 55.734 49.2534 55.6428 49.3445C54.2737 50.2549 52.9047 51.1654 51.5356 52.0759C49.3452 53.5326 47.1547 55.0804 44.9642 56.5372C44.7817 56.6282 44.7817 56.6282 44.873 56.8103C45.0555 57.4476 45.238 58.176 45.4206 58.8134C45.4206 59.0865 45.5118 59.3596 45.6031 59.6328ZM39.0317 55.7178C38.9404 55.6267 38.9404 55.6267 38.8492 55.6267C37.3888 55.1715 36.0198 54.6252 34.5595 54.17C34.4682 54.17 34.3769 54.0789 34.1944 54.0789C32.8254 54.0789 31.4563 54.0789 30.1785 54.0789C30.0873 54.0789 29.9047 54.0789 29.8135 54.17C28.4444 54.6252 26.9841 55.0804 25.615 55.6267C25.5238 55.6267 25.4325 55.6267 25.4325 55.7178C29.996 55.7178 34.4682 55.7178 39.0317 55.7178ZM25.4325 8.28225C25.4325 8.37329 25.5238 8.37329 25.5238 8.37329C26.9841 8.82853 28.4444 9.37481 29.9047 9.83005C29.996 9.83005 30.0873 9.83005 30.1785 9.83005C31.5476 9.83005 32.9166 9.83005 34.2857 9.83005C34.3769 9.83005 34.4682 9.83005 34.5595 9.83005C36.0198 9.28376 37.3888 8.82853 38.8492 8.37329C38.9404 8.37329 38.9404 8.37329 39.0317 8.28225C34.4682 8.28225 29.996 8.28225 25.4325 8.28225ZM43.7777 12.4704C43.5039 11.1958 43.1388 9.92109 42.865 8.64643C40.9484 9.28376 39.123 9.92109 37.2063 10.5584C39.3968 11.1958 41.5872 11.8331 43.7777 12.4704ZM37.2976 53.4416C37.3888 53.5326 37.3888 53.5326 37.4801 53.5326C39.2142 54.17 41.0396 54.7162 42.7738 55.3536C42.9563 55.4446 42.9563 55.4446 42.9563 55.2625C43.2301 54.0789 43.5039 52.9863 43.7777 51.8027C43.7777 51.7117 43.7777 51.7117 43.7777 51.6206C41.5872 52.1669 39.3968 52.8042 37.2976 53.4416ZM20.5952 51.5296C20.6865 51.8027 20.6865 51.9848 20.7778 52.1669C21.0516 53.1684 21.2341 54.17 21.5079 55.2625C21.5079 55.4446 21.5079 55.4446 21.6904 55.3536C21.6904 55.3536 21.6904 55.3536 21.7817 55.3536C23.4246 54.8073 24.9762 54.261 26.619 53.7147C26.8016 53.6237 26.9841 53.6237 27.2579 53.5326C24.9762 52.8042 22.877 52.1669 20.5952 51.5296ZM27.1666 10.5584C27.0754 10.4674 27.0754 10.4674 26.9841 10.4674C25.25 9.83005 23.4246 9.28376 21.6904 8.64643C21.5079 8.55539 21.5079 8.55539 21.4166 8.82853C21.2341 9.739 20.9603 10.7405 20.7778 11.651C20.6865 11.9241 20.6865 12.1973 20.5952 12.4704C22.877 11.8331 24.9762 11.1958 27.1666 10.5584ZM12.6547 14.1093C12.746 14.1093 12.746 14.1093 12.746 14.1093C14.5714 13.7451 16.3968 13.4719 18.2222 13.1077C18.4047 13.1077 18.4047 13.0167 18.496 12.8346C18.6785 12.1062 18.8611 11.2868 19.0436 10.5584C19.1349 10.2853 19.2262 9.92109 19.2262 9.5569C17.0357 11.1047 14.8452 12.5615 12.6547 14.1093ZM51.8095 49.8907C51.7182 49.8907 51.7182 49.8907 51.7182 49.8907C49.8928 50.2549 48.0674 50.5281 46.242 50.8923C46.1507 50.8923 46.0595 50.9833 46.0595 51.0744C45.7857 52.0759 45.6031 53.1684 45.3293 54.17C45.3293 54.261 45.3293 54.261 45.3293 54.352C47.4285 52.8953 49.619 51.4385 51.8095 49.8907ZM51.7182 14.1093C49.619 12.5615 47.4285 11.1047 45.238 9.64795C45.238 9.739 45.238 9.83005 45.238 9.83005C45.5118 10.8316 45.6944 11.8331 45.9682 12.8346C46.0595 13.0167 45.9682 13.0167 46.242 13.1077C47.7936 13.3809 49.3452 13.654 50.8968 13.9272C51.1706 14.0182 51.4444 14.0182 51.7182 14.1093ZM19.1349 54.352C19.0436 53.8058 18.9524 53.2595 18.7698 52.8042C18.6785 52.258 18.496 51.7117 18.4047 51.1654C18.4047 50.9833 18.3135 50.9833 18.1309 50.9833C18.1309 50.9833 18.1309 50.9833 18.0397 50.9833C16.3968 50.7102 14.7539 50.346 13.1111 50.0728C12.9286 50.0728 12.746 49.9818 12.5635 49.9818C14.8452 51.4385 17.0357 52.8953 19.1349 54.352Z" fill="#203F5B"/>
</svg>
