<svg width="64" height="64" viewBox="0 0 64 64" fill="none" xmlns="http://www.w3.org/2000/svg">
<g clip-path="url(#clip0_1061_45)">
<path d="M2.28106e-05 31.9967C-0.0138435 14.3795 14.2893 -0.055306 32.1075 0.00015931C49.7177 0.0556246 64.007 14.3241 64 32.0106C64 49.704 49.6692 64.0279 31.9619 64.0071C14.1853 63.9794 -0.0207767 49.5514 2.28106e-05 31.9967ZM32.0451 47.9014C32.1491 47.8598 32.2531 47.8182 32.3571 47.7766C35.8653 46.3137 39.3665 44.8508 42.8747 43.3879C43.3531 43.1868 43.2352 43.3185 43.4432 42.8124C44.712 39.741 45.9738 36.6627 47.2356 33.5913C47.4298 33.1199 47.617 32.6484 47.818 32.1769C47.8804 32.0314 47.8943 31.8996 47.818 31.761C47.7972 31.7194 47.7834 31.6778 47.7695 31.6362C46.2927 28.1003 44.816 24.5643 43.3392 21.0215C43.3115 20.9591 43.2837 20.8967 43.2629 20.8343C43.2352 20.758 43.1867 20.7026 43.1035 20.6748C43.0411 20.654 42.9787 20.6263 42.9163 20.5986C39.3596 19.1357 35.8029 17.6797 32.2531 16.2099C32.0451 16.1198 31.8718 16.1128 31.6638 16.203C28.1209 17.6866 24.5711 19.1634 21.0214 20.6471C20.6539 20.7996 20.744 20.7095 20.5846 21.0908C19.3574 24.0582 18.1372 27.0325 16.9169 30.0069C16.6673 30.6239 16.4177 31.241 16.1612 31.8511C16.1127 31.969 16.085 32.0799 16.1612 32.1977C16.182 32.2324 16.1959 32.2809 16.2167 32.3225C17.5271 35.4633 18.8374 38.604 20.1478 41.7378C20.328 42.1676 20.5152 42.5975 20.6816 43.0273C20.744 43.1937 20.8272 43.3255 21.0075 43.3671C21.0283 43.374 21.0491 43.3809 21.0699 43.3879C24.1413 44.6497 27.2196 45.9115 30.291 47.1803C30.8041 47.3883 31.3171 47.6032 31.8302 47.8112C31.8995 47.8459 31.9758 47.8736 32.0451 47.9014ZM39.3734 53.3993C39.2833 53.3508 39.207 53.3092 39.1308 53.2746C36.9191 52.1514 34.7074 51.0282 32.4957 49.905C32.3779 49.8426 32.26 49.7872 32.1422 49.7248C32.059 49.6832 31.9758 49.6762 31.8856 49.7178C31.6846 49.808 31.4766 49.8981 31.2755 49.9813C29.1401 50.9103 27.0116 51.8325 24.8762 52.7615C24.793 52.7962 24.689 52.817 24.6197 52.9071C24.6821 52.9903 24.7375 53.0596 24.793 53.129C26.762 55.5417 28.738 57.9544 30.707 60.3602C31.1091 60.8525 31.5043 61.3378 31.9064 61.8231C31.9966 61.9341 32.0243 61.9341 32.1144 61.8301C32.4403 61.4557 32.7661 61.0744 33.0989 60.7C35.1442 58.3358 37.1964 55.9785 39.2417 53.6143C39.2902 53.5588 39.3596 53.5103 39.3734 53.3993ZM41.8278 52.4287C42.1606 52.4495 42.4864 52.4772 42.8192 52.498C43.3045 52.5327 43.7899 52.5535 44.2821 52.5882C45.121 52.6436 45.9599 52.706 46.8058 52.7615C47.6586 52.817 48.5113 52.8655 49.3641 52.921C50.5289 52.9972 51.6867 53.0804 52.8515 53.1567C52.9278 53.1636 53.004 53.1636 53.0872 53.1636C53.1774 53.1636 53.2051 53.1359 53.1982 53.0388C53.1774 52.7962 53.1566 52.5535 53.1358 52.3108C53.0248 51.0629 52.9139 49.8149 52.803 48.5669C52.7128 47.5755 52.6227 46.5771 52.5395 45.5857C52.4424 44.4625 52.3454 43.3324 52.2483 42.2092C52.2414 42.126 52.2552 42.029 52.1651 41.9458C52.0819 41.9735 51.9918 41.9943 51.8947 42.029C49.5374 42.8055 47.1871 43.5889 44.8298 44.3654C44.5248 44.4694 44.5248 44.4694 44.4208 44.7745C43.5819 47.2288 42.743 49.6762 41.904 52.1306C41.8624 52.2207 41.8139 52.3108 41.8278 52.4287ZM12.0707 41.2733C12.0429 41.5575 12.0083 41.8348 11.9875 42.1052C11.932 42.6668 11.8835 43.2284 11.828 43.7969C11.7309 44.8092 11.6269 45.8283 11.5229 46.8406C11.4467 47.6448 11.3773 48.4491 11.2941 49.2603C11.1971 50.2725 11.0931 51.2917 10.9891 52.3039C10.9613 52.5604 10.9405 52.81 10.9198 53.0666C10.9059 53.2052 10.9336 53.226 11.0653 53.2122C11.7795 53.129 12.4936 53.0458 13.2146 52.9626C13.8109 52.8932 14.4002 52.8239 14.9964 52.7546C15.6551 52.6783 16.3137 52.5951 16.9793 52.5188C17.631 52.4426 18.2758 52.3663 18.9276 52.297C19.6347 52.2138 20.335 52.1306 21.0422 52.0474C21.4166 52.0058 21.7909 51.9573 22.1584 51.9087C22.2 51.777 22.1307 51.6799 22.096 51.5759C21.2779 49.3019 20.4528 47.0347 19.6417 44.7606C19.5793 44.5804 19.4822 44.4694 19.3019 44.3932C16.9863 43.3879 14.6706 42.3756 12.3618 41.3634C12.2717 41.3148 12.2024 41.2594 12.0707 41.2733ZM52.2275 22.6647C52.2344 22.6231 52.2483 22.5815 52.2552 22.5399C52.3038 22.1239 52.3523 21.7009 52.4008 21.285C52.484 20.6055 52.5603 19.9191 52.6435 19.2397C52.7198 18.581 52.796 17.9154 52.8723 17.2568C52.9555 16.5496 53.0387 15.8494 53.1219 15.1422C53.1982 14.4835 53.2744 13.8249 53.3576 13.1593C53.427 12.563 53.4963 11.9737 53.5656 11.3775C53.5795 11.2735 53.5379 11.2457 53.427 11.2527C52.9763 11.2943 52.5187 11.3289 52.0681 11.3705C51.4857 11.4191 50.8964 11.4676 50.314 11.5231C49.6276 11.5855 48.9481 11.6409 48.2617 11.7033C47.6655 11.7519 47.0692 11.8073 46.473 11.8559C45.8351 11.9113 45.1904 11.9737 44.5525 12.0292C43.9216 12.0847 43.2907 12.1332 42.6667 12.1887C42.4795 12.2025 42.2992 12.2303 42.119 12.2511C42.119 12.3828 42.1675 12.4868 42.2022 12.5908C42.9371 14.8094 43.672 17.028 44.4 19.2466C44.4624 19.4338 44.5525 19.5378 44.7328 19.6141C47.1524 20.6055 49.5652 21.6039 51.9849 22.5953C52.0473 22.63 52.1235 22.6855 52.2275 22.6647ZM61.9201 32.0244C61.8022 31.9274 61.7051 31.8442 61.6012 31.761C59.9095 30.4159 58.2108 29.0778 56.5191 27.7328C55.4584 26.8939 54.3976 26.055 53.3368 25.2161C53.1982 25.1051 53.1843 25.1121 53.0942 25.2715C53.0595 25.3409 53.0248 25.4102 52.9832 25.4795C52.4563 26.5056 51.9363 27.5317 51.4094 28.5578C50.8617 29.6255 50.3209 30.6933 49.7732 31.754C49.69 31.9204 49.683 32.0522 49.7662 32.2185C49.9604 32.6068 50.1337 33.002 50.314 33.3903C51.2291 35.3454 52.1374 37.3075 53.0526 39.2626C53.0942 39.3528 53.108 39.4568 53.2051 39.5122C53.427 39.3528 61.5942 32.3364 61.9201 32.0244ZM22.9072 12.1956C22.7755 12.1332 22.6645 12.1193 22.5536 12.1055C22.3317 12.0777 22.1168 12.0431 21.8949 12.0084C21.0838 11.8836 20.2726 11.7588 19.4614 11.634C18.6502 11.5092 17.839 11.3913 17.0279 11.2735C16.2306 11.1556 15.4263 11.0308 14.629 10.906C13.7831 10.7812 12.9442 10.6495 12.0984 10.5247C11.8765 10.49 11.6616 10.4623 11.4397 10.4346C11.3912 10.4276 11.3565 10.4623 11.3565 10.5108C11.3704 10.6634 11.3773 10.8228 11.3981 10.9754C11.4328 11.2804 11.4744 11.5924 11.5091 11.8975C11.5853 12.5353 11.6616 13.1732 11.7379 13.811C11.8141 14.4697 11.8973 15.1283 11.9736 15.7939C12.0499 16.4456 12.1261 17.0904 12.2024 17.7421C12.2787 18.3938 12.3618 19.0386 12.4381 19.6903C12.5144 20.342 12.5906 20.9868 12.66 21.6385C12.6808 21.8049 12.6946 21.9713 12.7154 22.1308C12.7362 22.2695 12.764 22.2903 12.8818 22.2417C12.9373 22.2209 12.9858 22.2001 13.0344 22.1793C15.0935 21.3404 17.1527 20.4946 19.2187 19.6557C19.4129 19.5725 19.5377 19.4615 19.6278 19.2674C20.6678 16.9933 21.7216 14.7193 22.7755 12.4452C22.824 12.3828 22.8587 12.2996 22.9072 12.1956ZM39.6854 11.1903C39.63 11.1071 39.6022 11.0655 39.5676 11.0239C37.245 8.07036 34.9154 5.11683 32.5928 2.17024C32.5859 2.1633 32.5789 2.15637 32.5651 2.14944C32.5581 2.14944 32.5443 2.14944 32.5235 2.14944C32.5027 2.17024 32.4749 2.1841 32.4541 2.21184C30.1038 5.20003 27.7535 8.18822 25.4031 11.1764C25.3962 11.1833 25.3893 11.1972 25.3893 11.2041C25.3893 11.2111 25.3962 11.2249 25.4101 11.2596C25.5903 11.3428 25.7844 11.4399 25.9855 11.53C27.8991 12.4313 29.8126 13.3326 31.7262 14.2339C31.8995 14.3171 32.052 14.3518 32.2253 14.2478C32.2462 14.2339 32.267 14.2339 32.2878 14.227C34.6381 13.2702 36.9815 12.3065 39.3318 11.3497C39.4358 11.3081 39.5468 11.2527 39.6854 11.1903ZM11.6893 24.7585C11.5576 24.8555 11.4605 24.9249 11.3635 24.9942C8.38915 27.2475 5.40789 29.5077 2.43356 31.761C2.42663 31.7679 2.41276 31.7748 2.40583 31.7818C2.11464 32.0036 2.0869 31.9828 2.39196 32.2047C2.53756 32.3087 2.67622 32.4196 2.81489 32.5236C5.47722 34.5481 8.14649 36.5726 10.8088 38.604C10.892 38.6664 10.9683 38.7565 11.0861 38.7704C11.1139 38.7149 11.1416 38.6664 11.1693 38.6179C12.1885 36.4894 13.2146 34.3678 14.2338 32.2393C14.2546 32.1908 14.2823 32.1423 14.3031 32.0868C14.3309 32.0244 14.3378 31.962 14.3101 31.8927C14.2823 31.8303 14.2615 31.7679 14.2407 31.7055C13.4226 29.4799 12.6114 27.2544 11.7933 25.0289C11.7725 24.9595 11.7379 24.8763 11.6893 24.7585ZM1.64318 30.305C1.96211 30.1317 9.26966 24.6267 10.3374 23.767C10.379 23.7324 10.4275 23.7046 10.4344 23.6422C10.4067 23.6284 10.3859 23.6006 10.3512 23.5868C8.17422 22.6508 6.00414 21.7079 3.82713 20.7719C3.82019 20.765 3.80633 20.7719 3.79246 20.7719C3.77859 20.7719 3.77166 20.7788 3.737 20.7858C2.53756 23.8225 1.83731 26.984 1.64318 30.305ZM11.0653 22.1447C11.1277 22.0407 11.0931 21.9575 11.0792 21.8743C11.0029 21.2018 10.9198 20.5292 10.8435 19.8637C10.7672 19.2258 10.6979 18.588 10.6216 17.9501C10.5454 17.2776 10.4622 16.6051 10.379 15.9395C10.3027 15.3016 10.2334 14.6638 10.1571 14.0259C10.0739 13.3326 9.99071 12.6393 9.90751 11.946C9.88671 11.7588 9.86591 11.5716 9.83818 11.3844C9.83818 11.3636 9.82431 11.3428 9.81044 11.3289C9.77578 11.3012 9.74805 11.322 9.72031 11.3428C9.67871 11.3775 9.64405 11.4191 9.60245 11.4607C9.19339 11.9321 8.7774 12.3897 8.38915 12.8681C6.86385 14.7401 5.58122 16.7715 4.54124 18.9485C4.49271 19.0455 4.42338 19.1357 4.43031 19.2813C6.64199 20.238 8.85367 21.1948 11.0653 22.1447ZM24.2938 9.99084C26.4708 7.22451 28.6201 4.49285 30.7694 1.75425C30.7902 1.72652 30.811 1.69878 30.7902 1.66412C30.7833 1.65718 30.7763 1.64332 30.7694 1.64332C30.6931 1.64332 30.6169 1.63638 30.5406 1.63638C29.1748 1.69185 27.8228 1.85825 26.4847 2.10091C24.8138 2.40597 23.1845 2.84969 21.5899 3.43901C21.4998 3.47367 21.4027 3.49447 21.3264 3.55687C21.3958 3.8134 24.072 9.60952 24.2938 9.99084ZM1.69171 33.7092C1.67091 33.7508 1.65705 33.7646 1.65705 33.7854C1.66398 33.938 1.66398 34.0974 1.67785 34.25C1.76105 35.2414 1.87891 36.2328 2.04531 37.2174C2.38503 39.1656 2.91195 41.0583 3.61913 42.9025C3.6538 42.9927 3.6746 43.0967 3.75086 43.166C3.86179 43.1521 3.95192 43.0828 4.04899 43.0343C5.90014 42.0567 7.74436 41.0722 9.59552 40.0946C9.66485 40.06 9.73418 40.0253 9.79658 39.9837C9.83818 39.956 9.85204 39.9074 9.81044 39.8728C9.74111 39.8173 9.67178 39.7618 9.60245 39.7064C8.24355 38.6733 6.88465 37.6403 5.53268 36.6072C4.35405 35.7059 3.16848 34.8116 1.98984 33.9102C1.89278 33.8409 1.80958 33.7508 1.69171 33.7092ZM42.2646 10.5871C42.2923 10.594 42.3131 10.6148 42.327 10.6148C43.0965 10.5524 43.8731 10.4831 44.6426 10.4207C45.336 10.3583 46.0362 10.3028 46.7295 10.2404C47.3258 10.1919 47.922 10.1364 48.5183 10.0879C49.17 10.0324 49.8217 9.97004 50.4734 9.91458C51.0905 9.85911 51.7075 9.81058 52.3315 9.76205C52.4147 9.75511 52.5048 9.76205 52.5742 9.69272C52.0611 9.07566 49.8217 7.32851 48.3033 6.3648C46.9999 5.53282 45.1696 4.55524 44.6704 4.42351C43.8661 6.448 43.0688 8.47248 42.2646 10.5039C42.2576 10.5178 42.2646 10.5594 42.2646 10.5871ZM9.39445 52.2207C9.74111 48.6501 10.0878 45.1004 10.4275 41.5506C10.4275 41.5436 10.4206 41.5298 10.4136 41.5229C10.4067 41.5159 10.3998 41.5159 10.3928 41.509C10.3096 41.509 10.2472 41.5575 10.1779 41.5922C8.31982 42.5767 6.46173 43.5612 4.60364 44.5526C4.54818 44.5804 4.48578 44.615 4.43031 44.6497C4.40258 44.6705 4.38871 44.6982 4.40258 44.7329C4.42338 44.7814 4.44418 44.8369 4.46498 44.8854C5.69908 47.4992 7.26598 49.8912 9.17259 52.0613C9.22806 52.1167 9.26272 52.193 9.39445 52.2207ZM11.8973 54.7236C11.9251 54.8484 12.0013 54.883 12.0568 54.9316C12.5005 55.299 12.9373 55.6734 13.3949 56.027C15.253 57.476 17.2636 58.6824 19.4129 59.6669C19.5169 59.7155 19.6209 59.7987 19.7595 59.7709C20.5222 57.7118 21.2918 55.6596 22.0544 53.6073C22.0613 53.5935 22.0475 53.5657 22.0336 53.5241C18.6641 53.9193 15.2876 54.3215 11.8973 54.7236ZM22.6923 10.49C22.7061 10.3791 22.6507 10.3098 22.616 10.2266C21.7147 8.28528 20.8134 6.35093 19.919 4.40965C19.7803 4.11152 19.7942 4.16005 19.5307 4.27792C16.9932 5.42189 14.6567 6.89172 12.5213 8.68047C12.445 8.74287 12.3064 8.80527 12.3272 8.88847C12.3618 9.01327 12.5144 8.9578 12.6184 8.9786C12.7362 9.00633 12.861 9.0202 12.9789 9.041C13.7901 9.1658 14.6013 9.29059 15.4124 9.40846C16.2098 9.52632 17.014 9.65112 17.8113 9.76898C18.6225 9.89378 19.4337 10.0116 20.2449 10.1364C21.0214 10.2543 21.7979 10.3722 22.5744 10.49C22.6091 10.5039 22.6507 10.49 22.6923 10.49ZM23.5797 54.2175C23.5173 54.2591 23.5104 54.3215 23.4826 54.3839C22.7547 56.3251 22.0336 58.2595 21.3056 60.2008C21.2848 60.2493 21.271 60.3048 21.2502 60.3602C21.2363 60.3949 21.2571 60.4296 21.2848 60.4434C21.3611 60.485 21.4443 60.5197 21.5275 60.5474C24.2661 61.5527 27.1017 62.1421 30.0137 62.3431C30.0691 62.3501 30.1385 62.3778 30.1939 62.3154C30.2009 62.2391 30.1385 62.1975 30.0969 62.149C27.8644 59.3549 23.8085 54.4255 23.5797 54.2175ZM54.46 40.6354C54.564 40.6839 54.668 40.7394 54.7789 40.781C56.4775 41.5159 58.1762 42.2508 59.8748 42.9857C60.3393 43.1868 60.2492 43.2284 60.4364 42.7431C61.511 39.9144 62.135 36.9886 62.3361 33.9726C62.3361 33.931 62.3499 33.8825 62.2529 33.8617C59.6876 36.0664 57.1085 38.2851 54.5293 40.5037C54.4947 40.5383 54.4669 40.573 54.46 40.6354ZM43.2075 3.75793C43.1035 3.71633 43.0272 3.67473 42.944 3.647C42.3963 3.43207 41.8416 3.23794 41.287 3.05768C39.2001 2.38517 37.0647 1.95531 34.8877 1.74038C34.7352 1.72652 34.5757 1.71958 34.4232 1.71265C34.4024 1.71265 34.3677 1.72652 34.3677 1.73345C34.3608 1.76118 34.3608 1.80278 34.3746 1.82358C34.4162 1.88598 34.4717 1.94838 34.5133 2.01078C35.6365 3.43901 36.7596 4.86724 37.8897 6.3024C38.7703 7.41864 39.6438 8.53488 40.5243 9.65112C40.5937 9.74125 40.6491 9.85911 40.7809 9.90764C41.5851 7.84156 42.4032 5.81015 43.2075 3.75793ZM43.1451 60.2424C42.2715 58.3843 41.391 56.5262 40.5035 54.6473C40.3649 54.7374 40.2886 54.8553 40.1916 54.9662C38.9366 56.4153 37.6817 57.8643 36.4268 59.3133C35.6087 60.2562 34.7906 61.2061 33.9725 62.1559C33.9309 62.2045 33.8408 62.2461 33.8893 62.3501C36.2119 62.2045 38.486 61.8023 40.7115 61.1368C41.9318 60.7624 42.847 60.4296 43.1451 60.2424ZM59.854 19.9399C59.8609 19.7874 59.7916 19.6834 59.7431 19.5725C58.6962 17.2429 57.3789 15.0867 55.7842 13.09C55.597 12.8542 55.4029 12.6254 55.2157 12.3966C55.181 12.355 55.1533 12.2927 55.084 12.3204C55.0354 12.3412 55.0493 12.3966 55.0424 12.4382C55.0077 12.7156 54.98 12.986 54.9453 13.2633C54.869 13.9358 54.7859 14.6083 54.7096 15.2808C54.6333 15.9395 54.564 16.6051 54.4808 17.2637C54.3837 18.1234 54.2797 18.9831 54.1757 19.8429C54.0925 20.557 54.0093 21.2711 53.9261 21.9921C53.9053 22.1655 53.8776 22.3388 53.9053 22.5468C55.909 21.6732 57.885 20.8066 59.854 19.9399ZM62.3499 30.2703C62.2182 27.9061 61.8161 25.632 61.1644 23.3996C60.8662 22.3804 60.6166 21.6801 60.4641 21.4236C58.4812 22.2903 56.4983 23.1569 54.5155 24.0236C54.5293 24.0652 54.5363 24.0929 54.5501 24.1068C57.1015 26.1312 59.6529 28.1557 62.2043 30.1802C62.2251 30.2079 62.2667 30.2287 62.3499 30.2703ZM54.7235 52.1514C54.8344 52.0335 54.8899 51.985 54.9384 51.9226C56.7965 49.7872 58.3287 47.4368 59.5351 44.8716C59.5559 44.823 59.5836 44.7745 59.6044 44.719C59.6321 44.6566 59.6044 44.615 59.5489 44.5873C59.5073 44.5665 59.4657 44.5526 59.4311 44.5318C57.6423 43.7553 55.8536 42.9857 54.0648 42.2092C54.0024 42.1815 53.9469 42.1468 53.8776 42.1607C53.8429 42.1954 53.8499 42.2439 53.8499 42.2855C54.1341 45.551 54.4253 48.8096 54.7235 52.1514ZM42.015 54.058C42.0704 54.1897 42.1051 54.2868 42.1467 54.3769C42.9232 56.0339 43.7067 57.684 44.4901 59.3341C44.6634 59.6947 44.5941 59.6669 44.9616 59.4936C46.986 58.5368 48.8788 57.372 50.6398 55.9993C51.1182 55.6249 51.5897 55.2366 52.0473 54.8276C52.0681 54.8068 52.0889 54.7721 52.0889 54.7444C52.0889 54.7028 52.0473 54.7028 52.0126 54.7028C51.0419 54.6404 50.0644 54.5711 49.0937 54.5087C48.2409 54.4532 47.3882 54.4047 46.5354 54.3492C46.161 54.3284 45.7797 54.3007 45.4053 54.2729C44.5317 54.2175 43.6581 54.1551 42.7845 54.0996C42.5419 54.0857 42.2992 54.0719 42.015 54.058ZM42.4934 45.3084C42.3894 45.2945 42.3062 45.3569 42.216 45.3985C40.5521 46.0918 38.8881 46.7851 37.2242 47.4854C36.2327 47.9014 35.2413 48.3104 34.2498 48.7264C34.1805 48.7541 34.1112 48.7888 34.0418 48.8304C34.0349 48.8373 34.028 48.8789 34.0418 48.8859C34.0834 48.9205 34.132 48.9483 34.1805 48.976C36.1218 49.9605 38.07 50.9519 40.0182 51.9365C40.0876 51.9711 40.15 52.0196 40.247 51.9989C41.0027 49.801 41.7584 47.5894 42.5072 45.3777C42.5211 45.35 42.5003 45.3292 42.4934 45.3084ZM48.8372 33.9934C48.8025 34.042 48.7748 34.0628 48.7609 34.0905C47.617 36.8638 46.4799 39.644 45.336 42.4172C45.329 42.4242 45.336 42.438 45.336 42.4519C45.3429 42.4588 45.3498 42.4658 45.3637 42.4866C45.3984 42.4796 45.44 42.4727 45.4816 42.4588C47.5615 41.7724 49.6414 41.0791 51.7214 40.3927C51.7283 40.3927 51.7422 40.3789 51.7491 40.3719C51.7561 40.365 51.763 40.3581 51.7769 40.3234C50.8062 38.2227 49.8286 36.1219 48.8372 33.9934ZM45.3429 21.6593C45.3706 21.7356 45.3914 21.798 45.4192 21.8604C46.5215 24.495 47.617 27.1296 48.7193 29.7642C48.7471 29.8266 48.7679 29.889 48.8025 29.9445C48.8233 29.9861 48.8788 29.9791 48.9065 29.9375C48.9412 29.8682 48.9759 29.7989 49.0105 29.7295C49.8841 28.0171 50.7646 26.2976 51.6382 24.5851C51.6729 24.5158 51.7075 24.4465 51.7422 24.3771C51.7838 24.287 51.7699 24.2593 51.6937 24.2177C51.6451 24.1969 51.5897 24.1761 51.5411 24.1553C49.5583 23.3372 47.5754 22.5191 45.5855 21.7079C45.5232 21.6732 45.4608 21.6177 45.3429 21.6593ZM42.4864 18.6573C42.4726 18.588 42.4656 18.5464 42.4518 18.5048C41.8278 16.612 41.2038 14.7193 40.5798 12.8334C40.5659 12.778 40.5451 12.7294 40.5174 12.6809C40.5035 12.6601 40.455 12.6393 40.4342 12.6462C40.351 12.667 40.2678 12.7017 40.1846 12.7364C39.0406 13.2078 37.8897 13.6793 36.7458 14.1438C35.9693 14.4627 35.1858 14.7817 34.4093 15.1006C34.34 15.1283 34.2637 15.156 34.1944 15.1907C34.1805 15.1976 34.1666 15.2254 34.1666 15.2392C34.1666 15.2531 34.1805 15.2808 34.2013 15.2878C34.2706 15.3224 34.3469 15.3502 34.4162 15.3779C37.0231 16.4525 39.6369 17.5272 42.2438 18.5949C42.3131 18.6226 42.3755 18.6642 42.4864 18.6573ZM29.9235 48.8235C29.9097 48.8027 29.9097 48.7957 29.9027 48.7819C29.8958 48.7749 29.8889 48.7611 29.8819 48.7611C29.8334 48.7403 29.7849 48.7125 29.7294 48.6917C27.0324 47.5894 24.3424 46.4801 21.6453 45.3777C21.6384 45.3708 21.6245 45.3708 21.6107 45.3708C21.6038 45.3708 21.5968 45.3846 21.5691 45.4054C22.2832 47.3814 22.9973 49.3712 23.7184 51.3541C23.7322 51.3957 23.76 51.4303 23.7946 51.4789C25.8399 50.5914 27.8783 49.7109 29.9235 48.8235ZM18.6502 42.3548C18.5809 42.1746 18.5393 42.0636 18.4908 41.9527C17.8876 40.5037 17.2775 39.0477 16.6743 37.5987C16.2236 36.524 15.7799 35.4494 15.3292 34.3817C15.2946 34.2985 15.2599 34.2153 15.2252 34.139C15.2183 34.1252 15.1975 34.1044 15.1767 34.1044C15.1628 34.1044 15.1282 34.1113 15.1212 34.1252C15.0727 34.2153 15.0311 34.2985 14.9826 34.3886C14.1922 36.0387 13.4018 37.6819 12.6114 39.332C12.445 39.6786 12.4173 39.6301 12.7848 39.7965C14.1853 40.4066 15.5858 41.0237 16.9863 41.6338C17.5201 41.8626 18.047 42.0914 18.6502 42.3548ZM29.9651 15.1907C29.8126 15.1144 29.7155 15.0659 29.6185 15.0174C28.2596 14.3795 26.8938 13.7347 25.5349 13.0969C25.2229 12.9513 24.9178 12.8057 24.6058 12.6601C24.5365 12.6254 24.481 12.6324 24.4394 12.7086C24.4255 12.7364 24.4117 12.771 24.3978 12.7988C23.5242 14.6846 22.6507 16.5773 21.7771 18.4632C21.7563 18.4978 21.7355 18.5394 21.7701 18.6088C24.4879 17.4787 27.1919 16.3485 29.9651 15.1907ZM18.6294 21.6663C18.1857 21.8049 17.8321 21.9783 17.4647 22.1239C17.1041 22.2625 16.7436 22.4151 16.39 22.5607C16.0226 22.7132 15.6551 22.8657 15.2807 23.0182C14.9202 23.1638 14.5597 23.3094 14.2061 23.455C13.8455 23.6076 13.4642 23.7324 13.1037 23.9265C13.8247 25.8886 14.5389 27.8299 15.2738 29.8405C16.3969 27.0949 17.4993 24.4118 18.6294 21.6663Z" fill="#203F5B"/>
</g>
<defs>
<clipPath id="clip0_1061_45">
<rect width="64" height="64" fill="white"/>
</clipPath>
</defs>
</svg>
