<svg width="64" height="64" viewBox="0 0 64 64" fill="none" xmlns="http://www.w3.org/2000/svg">
<path d="M60.95 10.8V10.7C60.95 10.6 60.95 10.6 60.85 10.5V10.4L53.15 2.3C53.15 2.3 53.05 2.3 53.05 2.2C53.05 2.2 53.05 2.2 52.95 2.1C52.95 2.1 52.95 2.1 52.85 2.1C52.85 2.1 52.75 2.1 52.65 2C52.55 2 52.55 2 52.45 2C52.45 2 52.45 2 52.35 2H11.75C11.75 2 11.75 2 11.65 2C11.65 2 11.65 2 11.55 2C11.55 2 11.45 2 11.45 2.1C11.45 2.1 11.45 2.1 11.35 2.1C11.35 2.1 11.35 2.1 11.25 2.2C11.25 2.2 11.15 2.2 11.15 2.3L3.44998 10.4V10.5C3.44998 10.5 3.34998 10.6 3.34998 10.7V10.8V10.9V53.7C3.34998 53.9 3.44998 54.1 3.64998 54.3L11.15 61.1C11.05 61.4 11.15 61.8 11.45 62C11.55 62.1 11.75 62.1 11.85 62.1C11.95 62.1 12.05 62.1 12.25 62C12.35 62.1 12.45 62.1 12.55 62.1H51.85C51.95 62.1 52.05 62.1 52.15 62C52.25 62.1 52.35 62.1 52.55 62.1C52.65 62.1 52.85 62.1 52.95 62C53.25 61.8 53.35 61.4 53.25 61.1L60.75 54.3C60.95 54.1 61.05 53.9 61.05 53.7V10.9C60.95 10.9 60.95 10.9 60.95 10.8ZM4.84998 12.5L8.34998 15.1V32.1V49.1L4.84998 51.7V12.5ZM11.65 4.1L14.25 8.2L9.14998 13.6L5.24998 10.8L11.65 4.1ZM58.95 10.8L55.15 13.6L50.05 8.2L52.65 4.1L58.95 10.8ZM54.25 32.1V47.9L51.25 45.7V32.1V18.5L54.25 16.3V32.1ZM32.15 55H16.65L18.25 52.5H32.15H46.05L47.65 55H32.15ZM9.94998 32.1V16.3L12.95 18.5V32.1V45.7L9.94998 47.9V32.1ZM32.15 9.2H47.65L46.05 11.7H32.15H18.25L16.65 9.2H32.15ZM49.75 32.1V44.5L47.95 43.2V32.2V21.2L49.75 19.9V32.1ZM32.15 50.9H19.25L20.95 48.2H32.15H43.35L45.05 50.9H32.15ZM14.55 32.1V19.7L16.35 21V32V43L14.55 44.3V32.1ZM32.15 13.3H45.05L43.35 16H32.15H20.95L19.25 13.3H32.15ZM43.35 46.5H32.15H20.85L17.95 43.2V32.1V21L20.85 17.7H32.15H43.45L46.35 21V32.1V43.2L43.35 46.5ZM47.25 19.6L44.75 16.8L46.45 14L49.35 18L47.25 19.6ZM19.45 16.8L16.95 19.6L14.85 18L17.75 14L19.45 16.8ZM17.05 44.6L19.55 47.4L17.85 50.2L14.95 46.2L17.05 44.6ZM44.75 47.4L47.25 44.6L49.45 46.2L46.55 50.2L44.75 47.4ZM50.65 17L47.35 12.5L49.05 9.7L53.75 14.7L50.65 17ZM16.85 12.5L13.55 17L10.35 14.6L15.05 9.6L16.85 12.5ZM13.55 47.2L16.85 51.7L15.15 54.5L10.45 49.5L13.55 47.2ZM47.45 51.7L50.75 47.2L53.95 49.6L49.25 54.6L47.45 51.7ZM48.55 7.5H32.15H15.65L13.25 3.6H51.05L48.55 7.5ZM9.04998 50.5L14.15 55.9L11.85 59.7L5.04998 53.5L9.04998 50.5ZM15.65 56.7H32.15H48.65L51.05 60.6H13.25L15.65 56.7ZM50.05 55.9L55.15 50.5L59.15 53.5L52.35 59.7L50.05 55.9ZM55.85 49.1V32.1V15.1L59.35 12.5V51.6L55.85 49.1Z" fill="#203F5B"/>
</svg>
