<?xml version="1.0" encoding="utf-8"?>
<!-- Generator: Adobe Illustrator 19.0.0, SVG Export Plug-In . SVG Version: 6.00 Build 0)  -->
<svg version="1.1" id="Layer_1" xmlns="http://www.w3.org/2000/svg" xmlns:xlink="http://www.w3.org/1999/xlink" x="0px" y="0px"
	 viewBox="-246 316 119 161" style="enable-background:new -246 316 119 161;" xml:space="preserve">
<style type="text/css">
	.st0{fill:#1F405C;}
	.st1{fill:#FFFFFF;}
	.st2{clip-path:url(#XMLID_154_);}
	.st3{clip-path:url(#XMLID_155_);fill:#FCFDFF;}
	.st4{fill:none;stroke:#1F405C;stroke-width:0.25;stroke-miterlimit:10;}
</style>
<g>
	<polygon id="XMLID_246_" class="st0" points="-244,355.7 -216.3,318.7 -155.5,318.7 -129,355.7 -129,465.2 -244,465.2 	"/>
	<g id="XMLID_12_">
		<path id="XMLID_13_" class="st1" d="M-220.6,377.8c0.9,0,1.8,0.2,2.5,0.5c0.7,0.3,1.3,0.7,1.8,1.3c0.5,0.5,0.9,1.2,1.1,1.9
			c0.3,0.7,0.4,1.5,0.4,2.3c0,0.8-0.1,1.6-0.4,2.3c-0.3,0.7-0.6,1.4-1.1,1.9c-0.5,0.5-1.1,1-1.8,1.3c-0.7,0.3-1.6,0.5-2.5,0.5h-4.8
			v-0.4c0.2,0,0.4,0,0.6-0.1c0.1-0.1,0.3-0.1,0.3-0.3c0.1-0.1,0.1-0.3,0.2-0.5c0-0.2,0-0.4,0-0.7v-8.3c0-0.3,0-0.5,0-0.7
			c0-0.2-0.1-0.4-0.2-0.5c-0.1-0.1-0.2-0.2-0.3-0.3c-0.1-0.1-0.3-0.1-0.6-0.1v-0.4H-220.6z M-222.2,387.9c0,0.3,0,0.5,0,0.7
			c0,0.2,0.1,0.4,0.2,0.5c0.1,0.1,0.2,0.2,0.3,0.3c0.1,0.1,0.3,0.1,0.6,0.1h0.5c0.7,0,1.4-0.1,1.9-0.4c0.5-0.3,0.9-0.7,1.2-1.2
			c0.3-0.5,0.5-1.1,0.6-1.8c0.1-0.7,0.2-1.4,0.2-2.2c0-0.8-0.1-1.5-0.2-2.2s-0.3-1.3-0.6-1.8c-0.3-0.5-0.7-0.9-1.2-1.2
			c-0.5-0.3-1.1-0.4-1.9-0.4h-0.5c-0.2,0-0.4,0-0.6,0.1c-0.1,0.1-0.3,0.1-0.3,0.3c-0.1,0.1-0.1,0.3-0.2,0.5c0,0.2,0,0.4,0,0.7V387.9
			z"/>
		<path id="XMLID_16_" class="st1" d="M-210.2,389.4v0.4h-4.3v-0.4c0.2,0,0.4,0,0.6-0.1c0.1-0.1,0.3-0.1,0.3-0.3s0.1-0.3,0.2-0.5
			c0-0.2,0-0.4,0-0.7v-8.3c0-0.3,0-0.5,0-0.7c0-0.2-0.1-0.3-0.2-0.5c-0.1-0.1-0.2-0.2-0.3-0.3c-0.1-0.1-0.3-0.1-0.6-0.1v-0.4h4.3
			v0.4c-0.2,0-0.4,0-0.6,0.1c-0.1,0.1-0.3,0.1-0.3,0.3c-0.1,0.1-0.1,0.3-0.2,0.5c0,0.2,0,0.4,0,0.7v8.3c0,0.3,0,0.5,0,0.7
			c0,0.2,0.1,0.4,0.2,0.5c0.1,0.1,0.2,0.2,0.3,0.3C-210.6,389.4-210.4,389.4-210.2,389.4z"/>
		<path id="XMLID_18_" class="st1" d="M-206.6,386.8c-0.1,0-0.2,0.1-0.3,0.1c-0.1,0-0.2,0.2-0.2,0.3l-0.2,0.7
			c-0.1,0.3-0.2,0.6-0.2,0.8c0,0.2,0,0.3,0,0.5c0,0.1,0.1,0.2,0.2,0.2c0.1,0,0.3,0.1,0.5,0.1v0.4h-2.4v-0.4c0.3,0,0.5,0,0.7-0.1
			c0.2-0.1,0.3-0.2,0.4-0.5l3.9-11h0.5l3.9,11.1c0.1,0.3,0.2,0.4,0.5,0.5c0.2,0.1,0.5,0.1,0.8,0.1v0.4h-4.3v-0.4
			c0.5,0,0.8-0.1,0.8-0.3c0.1-0.2,0-0.6-0.2-1.2l-0.6-1.7c-0.1-0.2-0.3-0.3-0.6-0.2L-206.6,386.8z M-204.5,381.2
			c-0.1-0.2-0.2-0.3-0.2-0.3c-0.1,0-0.2,0.1-0.2,0.3l-1.8,5c0,0.1,0,0.1,0,0.2c0,0.1,0.1,0.1,0.3,0l3-0.8c0.1,0,0.2-0.1,0.3-0.2
			c0.1-0.1,0.1-0.2,0-0.5L-204.5,381.2z"/>
		<path id="XMLID_21_" class="st1" d="M-188.2,377.8h3.2v0.4c-0.2,0-0.4,0-0.6,0.1c-0.1,0.1-0.3,0.1-0.3,0.3
			c-0.1,0.1-0.1,0.3-0.2,0.5c0,0.2,0,0.4,0,0.7v8.3c0,0.3,0,0.5,0,0.7c0,0.2,0.1,0.4,0.2,0.5c0.1,0.1,0.2,0.2,0.3,0.3
			c0.1,0.1,0.3,0.1,0.6,0.1v0.4h-4.3v-0.4c0.2,0,0.4,0,0.6-0.1c0.1-0.1,0.3-0.1,0.3-0.3c0.1-0.1,0.1-0.3,0.2-0.5c0-0.2,0-0.4,0-0.7
			v-7.8c0-0.1,0-0.2,0-0.2c0-0.1-0.1-0.1-0.1-0.1c0,0-0.1,0-0.2,0c-0.1,0-0.1,0.1-0.2,0.3l-3.3,9.6h-0.5l-3.4-9.6
			c-0.1-0.1-0.1-0.2-0.2-0.3c0,0-0.1-0.1-0.1,0c0,0-0.1,0.1-0.1,0.1c0,0.1,0,0.1,0,0.2v7.8c0,0.3,0,0.6,0.1,0.8
			c0,0.2,0.1,0.3,0.2,0.5c0.1,0.1,0.2,0.2,0.3,0.2c0.1,0,0.3,0.1,0.5,0.1v0.4h-2.4v-0.4c0.2,0,0.4,0,0.5-0.1c0.1,0,0.2-0.1,0.3-0.2
			c0.1-0.1,0.1-0.3,0.2-0.5c0-0.2,0.1-0.5,0.1-0.8v-8.3c0-0.5-0.1-0.9-0.2-1.2c-0.1-0.2-0.4-0.3-0.9-0.3v-0.4h2.9l3.2,8.9
			c0.1,0.3,0.2,0.3,0.3,0L-188.2,377.8z"/>
		<path id="XMLID_23_" class="st1" d="M-178.8,377.8c0.9,0,1.8,0.2,2.5,0.5c0.7,0.3,1.3,0.7,1.8,1.3c0.5,0.5,0.9,1.2,1.1,1.9
			c0.3,0.7,0.4,1.5,0.4,2.3c0,0.8-0.1,1.6-0.4,2.3c-0.3,0.7-0.6,1.4-1.1,1.9c-0.5,0.5-1.1,1-1.8,1.3c-0.7,0.3-1.6,0.5-2.5,0.5
			s-1.8-0.2-2.5-0.5c-0.7-0.3-1.3-0.7-1.8-1.3c-0.5-0.5-0.9-1.2-1.1-1.9c-0.3-0.7-0.4-1.5-0.4-2.3c0-0.8,0.1-1.6,0.4-2.3
			c0.3-0.7,0.6-1.4,1.1-1.9c0.5-0.5,1.1-1,1.8-1.3C-180.6,377.9-179.7,377.8-178.8,377.8z M-175,383.8c0-0.8-0.1-1.5-0.2-2.2
			c-0.1-0.7-0.3-1.3-0.6-1.8c-0.3-0.5-0.7-0.9-1.2-1.2c-0.5-0.3-1.1-0.4-1.9-0.4c-0.7,0-1.4,0.1-1.9,0.4c-0.5,0.3-0.9,0.7-1.2,1.2
			s-0.5,1.1-0.6,1.8c-0.1,0.7-0.2,1.4-0.2,2.2s0.1,1.5,0.2,2.2c0.1,0.7,0.3,1.3,0.6,1.8c0.3,0.5,0.7,0.9,1.2,1.2
			c0.5,0.3,1.1,0.4,1.9,0.4c0.7,0,1.4-0.1,1.9-0.4c0.5-0.3,0.9-0.7,1.2-1.2c0.3-0.5,0.5-1.1,0.6-1.8C-175,385.3-175,384.6-175,383.8
			z"/>
		<path id="XMLID_26_" class="st1" d="M-164,385.6c0.2,0.2,0.3,0.4,0.4,0.3c0.1,0,0.1-0.1,0.1-0.3v-6c0-0.3,0-0.6-0.1-0.8
			c0-0.2-0.1-0.4-0.2-0.5c-0.1-0.1-0.2-0.2-0.3-0.2c-0.1,0-0.3-0.1-0.5-0.1v-0.4h2.4v0.4c-0.2,0-0.4,0-0.5,0.1
			c-0.1,0-0.2,0.1-0.3,0.2c-0.1,0.1-0.1,0.3-0.2,0.5c0,0.2-0.1,0.5-0.1,0.8v10.1h-0.5l-6.9-9.6c-0.2-0.2-0.3-0.3-0.4-0.3
			c-0.1,0-0.1,0.2-0.1,0.3v7.8c0,0.3,0,0.6,0.1,0.8c0,0.2,0.1,0.3,0.2,0.5c0.1,0.1,0.2,0.2,0.3,0.2c0.1,0,0.3,0.1,0.5,0.1v0.4h-2.4
			v-0.4c0.2,0,0.4,0,0.5-0.1c0.1,0,0.2-0.1,0.3-0.2s0.1-0.3,0.2-0.5c0-0.2,0-0.5,0-0.8v-8.3c0-0.5-0.1-0.9-0.2-1.2
			c-0.1-0.2-0.4-0.3-0.8-0.3v-0.4h2.8L-164,385.6z"/>
		<path id="XMLID_28_" class="st1" d="M-156.4,377.8c0.9,0,1.8,0.2,2.5,0.5c0.7,0.3,1.3,0.7,1.8,1.3c0.5,0.5,0.9,1.2,1.1,1.9
			c0.3,0.7,0.4,1.5,0.4,2.3c0,0.8-0.1,1.6-0.4,2.3c-0.3,0.7-0.6,1.4-1.1,1.9c-0.5,0.5-1.1,1-1.8,1.3c-0.7,0.3-1.6,0.5-2.5,0.5h-4.8
			v-0.4c0.2,0,0.4,0,0.6-0.1c0.1-0.1,0.3-0.1,0.3-0.3c0.1-0.1,0.1-0.3,0.2-0.5c0-0.2,0-0.4,0-0.7v-8.3c0-0.3,0-0.5,0-0.7
			c0-0.2-0.1-0.4-0.2-0.5c-0.1-0.1-0.2-0.2-0.3-0.3c-0.1-0.1-0.3-0.1-0.6-0.1v-0.4H-156.4z M-158,387.9c0,0.3,0,0.5,0,0.7
			c0,0.2,0.1,0.4,0.2,0.5c0.1,0.1,0.2,0.2,0.3,0.3c0.1,0.1,0.3,0.1,0.6,0.1h0.5c0.7,0,1.4-0.1,1.9-0.4c0.5-0.3,0.9-0.7,1.2-1.2
			c0.3-0.5,0.5-1.1,0.6-1.8c0.1-0.7,0.2-1.4,0.2-2.2c0-0.8-0.1-1.5-0.2-2.2s-0.3-1.3-0.6-1.8c-0.3-0.5-0.7-0.9-1.2-1.2
			c-0.5-0.3-1.1-0.4-1.9-0.4h-0.5c-0.2,0-0.4,0-0.6,0.1c-0.1,0.1-0.3,0.1-0.3,0.3c-0.1,0.1-0.1,0.3-0.2,0.5c0,0.2,0,0.4,0,0.7V387.9
			z"/>
	</g>
	<g id="XMLID_1_">
		<path id="XMLID_2_" class="st1" d="M-207,395.5c0.1,0.8,0.2,1.7,0.2,2.5c0.1,0.8,0.2,1.7,0.3,2.5h-1c-0.1-0.5-0.2-1-0.3-1.5
			c-0.2-0.5-0.4-1-0.8-1.4c-0.4-0.4-0.8-0.7-1.3-1c-0.5-0.3-1.2-0.4-2-0.4h-4.4c-0.6,0-1,0.1-1.3,0.2c-0.3,0.1-0.6,0.3-0.7,0.6
			c-0.2,0.3-0.3,0.6-0.3,1.1c-0.1,0.4-0.1,1-0.1,1.6v6.9c0,0.2,0.1,0.4,0.2,0.5c0.1,0.2,0.3,0.2,0.5,0.2h1.2c0.8,0,1.5-0.1,2-0.3
			c0.5-0.2,0.9-0.4,1.2-0.7c0.3-0.3,0.5-0.7,0.6-1.1c0.1-0.4,0.2-0.9,0.2-1.3h0.9v7.7h-0.9c0-0.5-0.1-0.9-0.2-1.4
			c-0.1-0.4-0.3-0.8-0.6-1.1c-0.3-0.3-0.7-0.5-1.2-0.7c-0.5-0.2-1.2-0.3-2-0.3h-1.2c-0.2,0-0.4,0.1-0.5,0.2
			c-0.1,0.2-0.2,0.3-0.2,0.5v9.9c0,0.6,0,1.2,0.1,1.6c0.1,0.4,0.2,0.8,0.3,1.1c0.2,0.3,0.4,0.5,0.8,0.6c0.3,0.1,0.8,0.2,1.4,0.2v0.8
			h-9.7v-0.8c0.6,0,1-0.1,1.4-0.2c0.3-0.1,0.6-0.3,0.8-0.6c0.2-0.3,0.3-0.6,0.3-1.1c0.1-0.4,0.1-1,0.1-1.6v-19.1
			c0-0.6,0-1.2-0.1-1.6c-0.1-0.4-0.2-0.8-0.3-1.1c-0.2-0.3-0.4-0.5-0.8-0.6c-0.3-0.1-0.8-0.2-1.4-0.2v-0.8H-207z"/>
		<path id="XMLID_4_" class="st1" d="M-204.8,416.1c-0.3,0.1-0.5,0.2-0.8,0.3c-0.2,0.1-0.4,0.4-0.5,0.7l-0.6,1.6
			c-0.2,0.7-0.4,1.3-0.5,1.8c-0.1,0.4-0.1,0.8,0,1c0.1,0.2,0.3,0.4,0.5,0.5c0.3,0.1,0.6,0.1,1.1,0.1v0.8h-5.6v-0.8
			c0.7,0,1.2-0.1,1.7-0.2c0.5-0.2,0.8-0.6,1-1.2l9-25.3h1.2l9,25.4c0.2,0.6,0.6,1,1,1.1c0.5,0.1,1.1,0.2,1.9,0.2v0.8h-9.8v-0.8
			c1.1,0,1.8-0.2,1.9-0.7c0.1-0.5,0-1.4-0.5-2.8l-1.4-4c-0.2-0.5-0.7-0.7-1.5-0.6L-204.8,416.1z M-200.1,403.3
			c-0.2-0.4-0.3-0.6-0.5-0.6c-0.2,0-0.4,0.2-0.5,0.6l-4.1,11.5c-0.1,0.2-0.1,0.3,0,0.4c0,0.1,0.2,0.1,0.7,0l6.9-1.8
			c0.3-0.1,0.5-0.2,0.7-0.4c0.1-0.2,0.1-0.5-0.1-1.1L-200.1,403.3z"/>
		<path id="XMLID_7_" class="st1" d="M-174.5,422.2v0.8h-9.8v-0.8c0.6,0,1-0.1,1.3-0.2c0.3-0.1,0.6-0.3,0.8-0.6
			c0.2-0.3,0.3-0.6,0.3-1.1c0.1-0.4,0.1-1,0.1-1.6v-19c0-0.6,0-1.2-0.1-1.6c-0.1-0.4-0.2-0.8-0.3-1.1c-0.2-0.3-0.4-0.5-0.8-0.6
			c-0.3-0.1-0.8-0.2-1.3-0.2v-0.8h9.8v0.8c-0.6,0-1,0.1-1.4,0.2c-0.3,0.1-0.6,0.3-0.8,0.6c-0.2,0.3-0.3,0.6-0.3,1.1
			c-0.1,0.4-0.1,1-0.1,1.6v19c0,0.6,0,1.2,0.1,1.6c0.1,0.4,0.2,0.8,0.3,1.1c0.2,0.3,0.4,0.5,0.8,0.6
			C-175.5,422.2-175.1,422.2-174.5,422.2z"/>
		<path id="XMLID_9_" class="st1" d="M-163,395.5c0.6,0,1.3,0,2.1,0c0.8,0,1.5,0.1,2.3,0.2c0.8,0.1,1.5,0.3,2.3,0.6
			c0.7,0.3,1.4,0.7,2,1.2c0.6,0.5,1,1.2,1.4,2c0.3,0.8,0.5,1.8,0.5,3c0,1-0.1,1.8-0.4,2.6c-0.3,0.7-0.7,1.4-1.2,1.9
			c-0.5,0.5-1.1,1-1.8,1.4c-0.7,0.4-1.4,0.7-2.2,1l5.5,10.3c0.6,1,1.1,1.7,1.7,2c0.6,0.3,1.2,0.5,1.8,0.5v0.8h-5.2
			c-0.3,0-0.6-0.1-0.8-0.2c-0.2-0.2-0.4-0.4-0.6-0.6l-6-11.2c-0.2-0.3-0.4-0.4-0.6-0.4c-0.3,0-0.5,0.1-0.7,0.1l-1.3,0.4
			c-0.5,0.1-0.8,0.5-0.8,1.1v6.6c0,0.6,0,1.2,0.1,1.6c0.1,0.4,0.2,0.8,0.3,1.1c0.2,0.3,0.4,0.5,0.8,0.6c0.3,0.1,0.8,0.2,1.4,0.2v0.8
			h-9.8v-0.8c0.6,0,1-0.1,1.3-0.2c0.3-0.1,0.6-0.3,0.8-0.6c0.2-0.3,0.3-0.6,0.3-1.1c0.1-0.4,0.1-1,0.1-1.6v-19c0-0.6,0-1.2-0.1-1.6
			c-0.1-0.4-0.2-0.8-0.3-1.1c-0.2-0.3-0.4-0.5-0.8-0.6c-0.3-0.1-0.8-0.2-1.3-0.2v-0.8H-163z M-165.3,409.7c0,0.2,0.1,0.3,0.2,0.4
			c0.1,0.1,0.3,0.1,0.5,0.1l1.3-0.4c0.8-0.2,1.5-0.5,2.2-0.8c0.7-0.4,1.4-0.8,1.9-1.4c0.6-0.6,1-1.3,1.3-2.1c0.3-0.8,0.5-1.8,0.5-3
			c0-1.2-0.2-2.3-0.6-3.1c-0.4-0.8-0.9-1.5-1.5-1.9c-0.6-0.5-1.2-0.8-1.9-1c-0.7-0.2-1.3-0.3-1.8-0.3c-1,0.1-1.7,0.3-1.9,0.9
			c-0.3,0.5-0.4,1.4-0.4,2.6V409.7z"/>
	</g>
	<g id="XMLID_31_">
		<path id="XMLID_32_" class="st1" d="M-218.5,426.6c0.5,0,1,0,1.5,0c0.6,0,1.1,0.1,1.7,0.2c0.6,0.1,1.2,0.3,1.7,0.5
			c0.5,0.2,1,0.5,1.5,0.9c0.4,0.4,0.8,0.9,1,1.5c0.3,0.6,0.4,1.4,0.4,2.3c0,0.7-0.1,1.4-0.3,2c-0.2,0.6-0.6,1.2-1,1.7
			c-0.5,0.5-1.1,0.9-1.8,1.2c-0.7,0.3-1.5,0.4-2.5,0.4h-3.3c-0.2,0-0.3,0.1-0.4,0.2c-0.1,0.1-0.2,0.2-0.2,0.4v6.2
			c0,0.5,0,0.9,0.1,1.2c0,0.3,0.1,0.6,0.2,0.8c0.1,0.2,0.3,0.4,0.6,0.4c0.3,0.1,0.6,0.1,1,0.1v0.6h-7.3v-0.6c0.4,0,0.8,0,1-0.1
			c0.3-0.1,0.4-0.2,0.6-0.4c0.1-0.2,0.2-0.5,0.3-0.8c0-0.3,0.1-0.7,0.1-1.2v-14.2c0-0.5,0-0.9-0.1-1.2s-0.1-0.6-0.3-0.8
			c-0.1-0.2-0.3-0.4-0.6-0.5c-0.3-0.1-0.6-0.1-1-0.1v-0.6H-218.5z M-220.2,436.1c0,0.1,0.1,0.3,0.2,0.4c0.1,0.1,0.2,0.2,0.4,0.2h1
			c0.6,0,1.2-0.1,1.7-0.3c0.5-0.2,1-0.4,1.4-0.8c0.4-0.4,0.7-0.9,1-1.5c0.2-0.6,0.4-1.3,0.4-2.2c0-0.9-0.1-1.7-0.4-2.3
			c-0.3-0.6-0.7-1.1-1.1-1.4c-0.4-0.3-0.9-0.6-1.4-0.7c-0.5-0.1-1-0.2-1.4-0.2c-0.4,0-0.7,0.1-0.9,0.2c-0.2,0.1-0.4,0.3-0.5,0.5
			c-0.1,0.2-0.2,0.5-0.2,0.8c0,0.3,0,0.7,0,1.2V436.1z"/>
		<path id="XMLID_35_" class="st1" d="M-202.7,426.6c0.5,0,1,0,1.6,0c0.6,0,1.2,0.1,1.7,0.2c0.6,0.1,1.1,0.3,1.7,0.5
			c0.5,0.2,1,0.5,1.5,0.9c0.4,0.4,0.8,0.9,1,1.5c0.3,0.6,0.4,1.4,0.4,2.3c0,0.7-0.1,1.4-0.3,1.9c-0.2,0.5-0.5,1-0.9,1.4
			c-0.4,0.4-0.8,0.8-1.4,1c-0.5,0.3-1.1,0.5-1.7,0.7l4.1,7.7c0.4,0.8,0.9,1.3,1.3,1.5c0.4,0.2,0.9,0.3,1.3,0.3v0.6h-3.9
			c-0.2,0-0.4-0.1-0.6-0.2c-0.2-0.1-0.3-0.3-0.4-0.4l-4.5-8.4c-0.1-0.2-0.3-0.3-0.5-0.3c-0.2,0-0.4,0.1-0.6,0.1l-1,0.3
			c-0.4,0.1-0.6,0.4-0.6,0.8v5c0,0.5,0,0.9,0.1,1.2c0,0.3,0.1,0.6,0.3,0.8c0.1,0.2,0.3,0.4,0.6,0.4s0.6,0.1,1,0.1v0.6h-7.3v-0.6
			c0.4,0,0.8,0,1-0.1s0.4-0.2,0.6-0.4c0.1-0.2,0.2-0.5,0.3-0.8c0-0.3,0.1-0.7,0.1-1.2v-14.2c0-0.5,0-0.9-0.1-1.2s-0.1-0.6-0.3-0.8
			c-0.1-0.2-0.3-0.4-0.6-0.5c-0.2-0.1-0.6-0.1-1-0.1v-0.6H-202.7z M-204.4,437.3c0,0.1,0.1,0.3,0.2,0.3c0.1,0.1,0.2,0.1,0.4,0.1
			l1-0.3c0.6-0.1,1.1-0.4,1.7-0.6c0.5-0.3,1-0.6,1.4-1c0.4-0.4,0.8-0.9,1-1.6c0.3-0.6,0.4-1.4,0.4-2.2c0-0.9-0.1-1.7-0.4-2.3
			c-0.3-0.6-0.7-1.1-1.1-1.4c-0.4-0.3-0.9-0.6-1.4-0.7c-0.5-0.1-1-0.2-1.4-0.2c-0.8,0-1.3,0.3-1.4,0.7c-0.2,0.4-0.3,1-0.3,1.9V437.3
			z"/>
		<path id="XMLID_38_" class="st1" d="M-183.5,446.6v0.6h-7.3v-0.6c0.4,0,0.8,0,1-0.1s0.4-0.2,0.6-0.4c0.1-0.2,0.2-0.5,0.3-0.8
			c0-0.3,0.1-0.7,0.1-1.2v-14.2c0-0.5,0-0.9-0.1-1.2s-0.1-0.6-0.3-0.8c-0.1-0.2-0.3-0.4-0.6-0.5c-0.2-0.1-0.6-0.1-1-0.1v-0.6h7.3
			v0.6c-0.4,0-0.8,0-1,0.1c-0.3,0.1-0.4,0.2-0.6,0.5c-0.1,0.2-0.2,0.5-0.3,0.8c0,0.3-0.1,0.7-0.1,1.2V444c0,0.5,0,0.9,0.1,1.2
			c0,0.3,0.1,0.6,0.3,0.8c0.1,0.2,0.3,0.4,0.6,0.4S-183.9,446.6-183.5,446.6z"/>
		<path id="XMLID_40_" class="st1" d="M-172.4,426.7c1.8,0,3.3,0.4,4.5,1.1c0.4,0.2,0.8,0.4,1.1,0.5c0.3,0.1,0.5,0.1,0.7,0
			c0.2-0.1,0.3-0.2,0.3-0.5c0.1-0.2,0.1-0.6,0.1-1.1h0.7v5.6h-0.7c0-0.9-0.3-1.7-0.8-2.4c-0.6-0.8-1.3-1.4-2.1-1.8
			c-1-0.5-2.3-0.8-3.7-0.8c-1.1,0-2.1,0.3-2.9,0.8c-0.8,0.5-1.5,1.2-2.1,2.1c-0.5,0.9-1,1.9-1.2,3.1c-0.3,1.2-0.4,2.4-0.4,3.8
			c0,1.3,0.1,2.6,0.3,3.8c0.2,1.2,0.6,2.2,1,3.1c0.5,0.9,1.2,1.6,2,2.1c0.9,0.5,1.9,0.8,3.2,0.8c3.2,0,5.5-1.3,6.6-3.9h0.8
			c-0.6,1.4-1.4,2.4-2.6,3.3s-2.8,1.2-4.8,1.2c-1.6,0-3.1-0.3-4.3-0.8c-1.3-0.5-2.3-1.3-3.2-2.2c-0.9-0.9-1.5-2-1.9-3.3
			c-0.4-1.3-0.7-2.6-0.7-4s0.2-2.8,0.7-4c0.4-1.3,1.1-2.4,1.9-3.3c0.9-0.9,1.9-1.7,3.2-2.2C-175.4,426.9-174,426.7-172.4,426.7z"/>
		<path id="XMLID_42_" class="st1" d="M-149.3,426.7c0.1,0.6,0.1,1.3,0.2,1.9s0.1,1.3,0.2,1.9h-0.7c0-0.4-0.1-0.7-0.3-1.1
			c-0.1-0.4-0.3-0.7-0.6-1c-0.3-0.3-0.6-0.6-1-0.7c-0.4-0.2-0.9-0.3-1.5-0.3h-3.3c-0.4,0-0.8,0-1,0.1c-0.2,0.1-0.4,0.2-0.6,0.5
			c-0.1,0.2-0.2,0.5-0.3,0.8c0,0.3-0.1,0.7-0.1,1.2v5.1c0,0.1,0.1,0.3,0.2,0.4c0.1,0.1,0.2,0.2,0.4,0.2h0.9c0.6,0,1.1-0.1,1.5-0.2
			c0.4-0.1,0.7-0.3,0.9-0.5c0.2-0.2,0.4-0.5,0.4-0.8c0.1-0.3,0.1-0.6,0.1-1h0.7v5.7h-0.7c0-0.4,0-0.7-0.1-1
			c-0.1-0.3-0.2-0.6-0.4-0.8s-0.5-0.4-0.9-0.5c-0.4-0.1-0.9-0.2-1.5-0.2h-0.9c-0.2,0-0.3,0.1-0.4,0.2c-0.1,0.1-0.2,0.2-0.2,0.4v7.4
			c0,0.5,0,0.9,0.1,1.2c0,0.3,0.1,0.6,0.3,0.8c0.1,0.2,0.3,0.4,0.6,0.4c0.2,0.1,0.6,0.1,1,0.1h3.3c0.6,0,1.1-0.1,1.5-0.3
			c0.4-0.2,0.7-0.4,1-0.7c0.3-0.3,0.5-0.6,0.6-1c0.1-0.4,0.2-0.7,0.3-1.1h0.7c-0.1,0.6-0.2,1.3-0.2,1.9s-0.1,1.2-0.2,1.9h-14.2v-0.6
			c0.4,0,0.8,0,1-0.1c0.3-0.1,0.4-0.2,0.6-0.4c0.1-0.2,0.2-0.5,0.3-0.8c0-0.3,0.1-0.7,0.1-1.2v-14.3c0-0.5,0-0.9-0.1-1.2
			c0-0.3-0.1-0.6-0.3-0.8c-0.1-0.2-0.3-0.4-0.6-0.4c-0.3-0.1-0.6-0.1-1-0.1v-0.6H-149.3z"/>
	</g>
	<g id="XMLID_189_">
		<defs>
			<rect id="XMLID_190_" x="-203.5" y="339.7" width="32.4" height="29"/>
		</defs>
		<clipPath id="XMLID_154_">
			<use xlink:href="#XMLID_190_"  style="overflow:visible;"/>
		</clipPath>
		<g id="XMLID_191_" class="st2">
			<defs>
				<rect id="XMLID_192_" x="-203.5" y="339.7" width="32.4" height="29"/>
			</defs>
			<clipPath id="XMLID_155_">
				<use xlink:href="#XMLID_192_"  style="overflow:visible;"/>
			</clipPath>
			<path id="XMLID_193_" class="st3" d="M-171.1,347.8c0,0.1,0,0.1,0,0.2c0,0.1,0,0.2,0,0.3c0,0,0,0.1-0.1,0.1c0,0-0.1,0.1-0.1,0.1
				l-0.1,0.1c0,0,0,0,0,0l-15.2,19.6l-0.1,0.1c0,0-0.1,0.1-0.1,0.1c-0.1,0.1-0.3,0.2-0.5,0.2c-0.3,0-0.5-0.1-0.7-0.4l-15.3-19.7
				c-0.1-0.1-0.1-0.1-0.2-0.2c0,0,0-0.1,0-0.1c0-0.1,0-0.2,0-0.3c0-0.1,0-0.2,0.1-0.4l3.4-7.5c0,0,0,0,0,0c0-0.1,0.1-0.1,0.1-0.2
				c0,0,0.1-0.1,0.1-0.1c0,0,0,0,0.1,0c0,0,0,0,0.1,0c0.1,0,0.1-0.1,0.2-0.1c0.1,0,0.1,0,0.2,0h0h23.2c0.1,0,0.1,0,0.2,0
				c0.1,0,0.2,0.1,0.3,0.1c0,0,0.1,0.1,0.1,0.1c0,0,0,0,0.1,0.1c0,0,0.1,0.1,0.1,0.1l4,7.4c0,0,0,0.1,0,0.1
				C-171.1,347.7-171.1,347.8-171.1,347.8 M-173.4,347.2l-2.8-5.1l-3.7,5.1H-173.4z M-185.2,363.8l11.6-14.9h-7.2L-185.2,363.8z
				 M-181.5,346.7l3.8-5.3h-8.1L-181.5,346.7z M-187.3,364.8l4.7-15.9h-9.3L-187.3,364.8z M-183.3,347.2l-4.3-5.3l-3.8,5.3H-183.3z
				 M-193.1,346.7l3.8-5.3h-8.1L-193.1,346.7z M-189.4,363.8l-4.4-14.9h-7.2L-189.4,363.8z M-194.9,347.2l-4.1-5.1l-2.3,5.1H-194.9z
				"/>
		</g>
	</g>
	<g id="XMLID_185_">
		<path id="XMLID_69_" class="st0" d="M-187.3,369.1c-0.4,0-0.8-0.2-1-0.5l-15.3-19.7c-0.1-0.1-0.1-0.2-0.2-0.3c0,0,0-0.1-0.1-0.2
			c0-0.1-0.1-0.2-0.1-0.3c0-0.2,0-0.3,0.1-0.5l3.4-7.5l0.3,0.1l-0.3-0.2c0-0.1,0.1-0.2,0.2-0.2c0,0,0.1-0.1,0.1-0.1c0,0,0,0,0.1-0.1
			l0.1-0.1c0.1,0,0.2-0.1,0.2-0.1c0.1,0,0.2,0,0.3,0h23.2c0.1,0,0.2,0,0.3,0c0.1,0,0.3,0.1,0.4,0.2c0.1,0,0.1,0.1,0.2,0.2l0.1,0.1
			c0,0,0.1,0.1,0.1,0.1l4,7.4c0,0,0,0.1,0.1,0.1c0,0,0.1,0.1,0.1,0.2l0,0c0,0.1,0,0.2,0,0.3c0,0.1,0,0.3-0.1,0.4l-0.1,0.2
			c0,0.1-0.1,0.1-0.1,0.1l-0.1,0.1l-15.3,19.7c-0.1,0.1-0.1,0.1-0.2,0.2C-186.7,369-187,369.1-187.3,369.1z M-199.6,340.2l-0.1,0.1
			l-3.4,7.5c0,0.1,0,0.1,0,0.2c0,0,0,0.1,0,0.2l0,0.1c0,0,0.1,0.1,0.1,0.1l15.3,19.7c0.2,0.3,0.6,0.3,0.7,0.1l0.1-0.1l15.2-19.5
			v-0.1l0.1-0.1c0,0,0-0.1,0.1-0.1l0.3,0.1l-0.3-0.1c0,0,0-0.1,0-0.1c0,0,0-0.1,0-0.1c0,0,0-0.1,0-0.1l0-0.1l-4-7.4
			c0,0,0-0.1-0.1-0.1l-0.1-0.1c-0.1-0.1-0.1-0.1-0.2-0.1c0,0-0.1,0-0.1,0h-23.2c-0.1,0-0.1,0-0.1,0L-199.6,340.2L-199.6,340.2z"/>
	</g>
	<g id="XMLID_181_">
		<path id="XMLID_66_" class="st0" d="M-181.5,347.2l-5-6.2h9.5L-181.5,347.2z M-185.1,341.8l3.6,4.4l3.2-4.4H-185.1z"/>
	</g>
	<g id="XMLID_177_">
		<path id="XMLID_63_" class="st0" d="M-182.6,347.6h-9.5l4.5-6.2L-182.6,347.6z M-190.7,346.9h6.7l-3.6-4.4L-190.7,346.9z"/>
	</g>
	<g id="XMLID_173_">
		<path id="XMLID_60_" class="st0" d="M-193.1,347.2l-5-6.2h9.5L-193.1,347.2z M-196.7,341.8l3.6,4.4l3.2-4.4H-196.7z"/>
	</g>
	<g id="XMLID_169_">
		<path id="XMLID_57_" class="st0" d="M-194.2,347.6h-7.7l2.7-6L-194.2,347.6z M-200.8,346.9h5.2l-3.3-4.1L-200.8,346.9z"/>
	</g>
	<g id="XMLID_165_">
		<path id="XMLID_54_" class="st0" d="M-188.5,365.4l-13.1-16.9h8.1L-188.5,365.4z M-200.2,349.3l10,12.9l-3.8-12.9H-200.2z"/>
	</g>
	<g id="XMLID_161_">
		<path id="XMLID_51_" class="st0" d="M-187.3,366.1l-5.1-17.5h10.3L-187.3,366.1z M-191.5,349.3l4.2,14.4l4.2-14.4H-191.5z"/>
	</g>
	<g id="XMLID_157_">
		<path id="XMLID_48_" class="st0" d="M-186.1,365.5l4.9-16.9h8.1L-186.1,365.5z M-180.6,349.3l-3.8,12.9l10-12.9H-180.6z"/>
	</g>
	<g id="XMLID_153_">
		<path id="XMLID_45_" class="st0" d="M-172.8,347.6h-7.7l4.4-6L-172.8,347.6z M-179.1,346.9h5.2l-2.2-4.1L-179.1,346.9z"/>
	</g>
	<path id="XMLID_152_" class="st1" d="M-176.1,334.3L-176.1,334.3c1.2-0.4,2.1-1.4,2.6-2.6c0.4,1.2,1.4,2.1,2.6,2.6
		c-1.2,0.4-2.1,1.4-2.6,2.6C-174,335.6-174.9,334.7-176.1,334.3"/>
	<path id="XMLID_151_" class="st1" d="M-172.7,340.1l-0.2-0.1l0.2-0.1c0.6-0.2,1.2-0.7,1.4-1.4l0.1-0.2l0.1,0.2
		c0.2,0.6,0.7,1.2,1.4,1.4l0.2,0.1l-0.2,0.1c-0.6,0.2-1.2,0.7-1.4,1.4l-0.1,0.2l-0.1-0.2C-171.5,340.8-172,340.3-172.7,340.1"/>
	<path id="XMLID_150_" class="st1" d="M-179.7,336.6l-0.2-0.1l0.2-0.1c0.5-0.2,0.8-0.5,1-1l0.1-0.2l0.1,0.2c0.2,0.5,0.5,0.8,1,1
		l0.2,0.1l-0.2,0.1c-0.5,0.2-0.8,0.5-1,1l-0.1,0.2l-0.1-0.2C-178.9,337.2-179.2,336.8-179.7,336.6"/>
	<path id="XMLID_147_" class="st0" d="M-241.9,468.1c0.1,0,0.3,0,0.5,0c0.2,0,0.3,0,0.5,0.1c0.2,0,0.3,0.1,0.5,0.1
		c0.2,0.1,0.3,0.2,0.4,0.3c0.1,0.1,0.2,0.3,0.3,0.5c0.1,0.2,0.1,0.4,0.1,0.7c0,0.2,0,0.4-0.1,0.6c-0.1,0.2-0.2,0.3-0.3,0.4
		c-0.1,0.1-0.3,0.2-0.4,0.3c-0.2,0.1-0.3,0.2-0.5,0.2l1.2,2.3c0.1,0.2,0.3,0.4,0.4,0.5c0.1,0.1,0.3,0.1,0.4,0.1v0.2h-1.2
		c-0.1,0-0.1,0-0.2-0.1c-0.1,0-0.1-0.1-0.1-0.1l-1.4-2.5c0-0.1-0.1-0.1-0.1-0.1c-0.1,0-0.1,0-0.2,0l-0.3,0.1c-0.1,0-0.2,0.1-0.2,0.2
		v1.5c0,0.1,0,0.3,0,0.4c0,0.1,0,0.2,0.1,0.2c0,0.1,0.1,0.1,0.2,0.1c0.1,0,0.2,0,0.3,0v0.2h-2.2v-0.2c0.1,0,0.2,0,0.3,0
		c0.1,0,0.1-0.1,0.2-0.1c0-0.1,0.1-0.1,0.1-0.2c0-0.1,0-0.2,0-0.4v-4.3c0-0.1,0-0.3,0-0.4c0-0.1,0-0.2-0.1-0.2
		c0-0.1-0.1-0.1-0.2-0.1c-0.1,0-0.2,0-0.3,0v-0.2H-241.9z M-242.4,471.3c0,0,0,0.1,0.1,0.1c0,0,0.1,0,0.1,0l0.3-0.1
		c0.2,0,0.3-0.1,0.5-0.2c0.2-0.1,0.3-0.2,0.4-0.3c0.1-0.1,0.2-0.3,0.3-0.5c0.1-0.2,0.1-0.4,0.1-0.7c0-0.3,0-0.5-0.1-0.7
		c-0.1-0.2-0.2-0.3-0.3-0.4c-0.1-0.1-0.3-0.2-0.4-0.2c-0.2,0-0.3-0.1-0.4-0.1c-0.2,0-0.4,0.1-0.4,0.2c-0.1,0.1-0.1,0.3-0.1,0.6
		V471.3z"/>
	<path id="XMLID_144_" class="st4" d="M-241.9,468.1c0.1,0,0.3,0,0.5,0c0.2,0,0.3,0,0.5,0.1c0.2,0,0.3,0.1,0.5,0.1
		c0.2,0.1,0.3,0.2,0.4,0.3c0.1,0.1,0.2,0.3,0.3,0.5c0.1,0.2,0.1,0.4,0.1,0.7c0,0.2,0,0.4-0.1,0.6c-0.1,0.2-0.2,0.3-0.3,0.4
		c-0.1,0.1-0.3,0.2-0.4,0.3c-0.2,0.1-0.3,0.2-0.5,0.2l1.2,2.3c0.1,0.2,0.3,0.4,0.4,0.5c0.1,0.1,0.3,0.1,0.4,0.1v0.2h-1.2
		c-0.1,0-0.1,0-0.2-0.1c-0.1,0-0.1-0.1-0.1-0.1l-1.4-2.5c0-0.1-0.1-0.1-0.1-0.1c-0.1,0-0.1,0-0.2,0l-0.3,0.1c-0.1,0-0.2,0.1-0.2,0.2
		v1.5c0,0.1,0,0.3,0,0.4c0,0.1,0,0.2,0.1,0.2c0,0.1,0.1,0.1,0.2,0.1c0.1,0,0.2,0,0.3,0v0.2h-2.2v-0.2c0.1,0,0.2,0,0.3,0
		c0.1,0,0.1-0.1,0.2-0.1c0-0.1,0.1-0.1,0.1-0.2c0-0.1,0-0.2,0-0.4v-4.3c0-0.1,0-0.3,0-0.4c0-0.1,0-0.2-0.1-0.2
		c0-0.1-0.1-0.1-0.2-0.1c-0.1,0-0.2,0-0.3,0v-0.2H-241.9z M-242.4,471.3c0,0,0,0.1,0.1,0.1c0,0,0.1,0,0.1,0l0.3-0.1
		c0.2,0,0.3-0.1,0.5-0.2c0.2-0.1,0.3-0.2,0.4-0.3c0.1-0.1,0.2-0.3,0.3-0.5c0.1-0.2,0.1-0.4,0.1-0.7c0-0.3,0-0.5-0.1-0.7
		c-0.1-0.2-0.2-0.3-0.3-0.4c-0.1-0.1-0.3-0.2-0.4-0.2c-0.2,0-0.3-0.1-0.4-0.1c-0.2,0-0.4,0.1-0.4,0.2c-0.1,0.1-0.1,0.3-0.1,0.6
		V471.3z"/>
	<path id="XMLID_143_" class="st0" d="M-234,468.1c0,0.2,0,0.4,0.1,0.6c0,0.2,0,0.4,0.1,0.6h-0.2c0-0.1,0-0.2-0.1-0.3
		c0-0.1-0.1-0.2-0.2-0.3c-0.1-0.1-0.2-0.2-0.3-0.2c-0.1-0.1-0.3-0.1-0.4-0.1h-1c-0.1,0-0.2,0-0.3,0c-0.1,0-0.1,0.1-0.2,0.1
		c0,0.1-0.1,0.1-0.1,0.2c0,0.1,0,0.2,0,0.4v1.6c0,0,0,0.1,0,0.1c0,0,0.1,0.1,0.1,0.1h0.3c0.2,0,0.3,0,0.5-0.1c0.1,0,0.2-0.1,0.3-0.2
		c0.1-0.1,0.1-0.2,0.1-0.2c0-0.1,0-0.2,0-0.3h0.2v1.7h-0.2c0-0.1,0-0.2,0-0.3c0-0.1-0.1-0.2-0.1-0.2c-0.1-0.1-0.2-0.1-0.3-0.2
		c-0.1,0-0.3-0.1-0.5-0.1h-0.3c0,0-0.1,0-0.1,0.1c0,0,0,0.1,0,0.1v2.2c0,0.1,0,0.3,0,0.4c0,0.1,0,0.2,0.1,0.2c0,0.1,0.1,0.1,0.2,0.1
		c0.1,0,0.2,0,0.3,0h1c0.2,0,0.3,0,0.4-0.1c0.1-0.1,0.2-0.1,0.3-0.2c0.1-0.1,0.1-0.2,0.2-0.3c0-0.1,0.1-0.2,0.1-0.3h0.2
		c0,0.2,0,0.4-0.1,0.6c0,0.2,0,0.4-0.1,0.6h-4.3v-0.2c0.1,0,0.2,0,0.3,0c0.1,0,0.1-0.1,0.2-0.1c0-0.1,0.1-0.1,0.1-0.2
		c0-0.1,0-0.2,0-0.4v-4.3c0-0.1,0-0.3,0-0.4c0-0.1,0-0.2-0.1-0.2c0-0.1-0.1-0.1-0.2-0.1c-0.1,0-0.2,0-0.3,0v-0.2H-234z"/>
	<path id="XMLID_142_" class="st4" d="M-234,468.1c0,0.2,0,0.4,0.1,0.6c0,0.2,0,0.4,0.1,0.6h-0.2c0-0.1,0-0.2-0.1-0.3
		c0-0.1-0.1-0.2-0.2-0.3c-0.1-0.1-0.2-0.2-0.3-0.2c-0.1-0.1-0.3-0.1-0.4-0.1h-1c-0.1,0-0.2,0-0.3,0c-0.1,0-0.1,0.1-0.2,0.1
		c0,0.1-0.1,0.1-0.1,0.2c0,0.1,0,0.2,0,0.4v1.6c0,0,0,0.1,0,0.1c0,0,0.1,0.1,0.1,0.1h0.3c0.2,0,0.3,0,0.5-0.1c0.1,0,0.2-0.1,0.3-0.2
		c0.1-0.1,0.1-0.2,0.1-0.2c0-0.1,0-0.2,0-0.3h0.2v1.7h-0.2c0-0.1,0-0.2,0-0.3c0-0.1-0.1-0.2-0.1-0.2c-0.1-0.1-0.2-0.1-0.3-0.2
		c-0.1,0-0.3-0.1-0.5-0.1h-0.3c0,0-0.1,0-0.1,0.1c0,0,0,0.1,0,0.1v2.2c0,0.1,0,0.3,0,0.4c0,0.1,0,0.2,0.1,0.2c0,0.1,0.1,0.1,0.2,0.1
		c0.1,0,0.2,0,0.3,0h1c0.2,0,0.3,0,0.4-0.1c0.1-0.1,0.2-0.1,0.3-0.2c0.1-0.1,0.1-0.2,0.2-0.3c0-0.1,0.1-0.2,0.1-0.3h0.2
		c0,0.2,0,0.4-0.1,0.6c0,0.2,0,0.4-0.1,0.6h-4.3v-0.2c0.1,0,0.2,0,0.3,0c0.1,0,0.1-0.1,0.2-0.1c0-0.1,0.1-0.1,0.1-0.2
		c0-0.1,0-0.2,0-0.4v-4.3c0-0.1,0-0.3,0-0.4c0-0.1,0-0.2-0.1-0.2c0-0.1-0.1-0.1-0.2-0.1c-0.1,0-0.2,0-0.3,0v-0.2H-234z"/>
	<path id="XMLID_139_" class="st0" d="M-232.1,472.8c-0.1,0-0.1,0-0.2,0.1c0,0-0.1,0.1-0.1,0.2l-0.1,0.4c-0.1,0.2-0.1,0.3-0.1,0.4
		c0,0.1,0,0.2,0,0.2c0,0.1,0.1,0.1,0.1,0.1c0.1,0,0.1,0,0.2,0v0.2h-1.3v-0.2c0.1,0,0.3,0,0.4-0.1c0.1,0,0.2-0.1,0.2-0.3l2-5.7h0.3
		l2,5.7c0,0.1,0.1,0.2,0.2,0.3c0.1,0,0.2,0,0.4,0v0.2h-2.2v-0.2c0.3,0,0.4-0.1,0.4-0.2c0-0.1,0-0.3-0.1-0.6l-0.3-0.9
		c-0.1-0.1-0.2-0.2-0.3-0.1L-232.1,472.8z M-231,469.9c0-0.1-0.1-0.1-0.1-0.1c0,0-0.1,0.1-0.1,0.1l-0.9,2.6c0,0,0,0.1,0,0.1
		c0,0,0.1,0,0.1,0l1.6-0.4c0.1,0,0.1,0,0.2-0.1c0,0,0-0.1,0-0.2L-231,469.9z"/>
	<path id="XMLID_136_" class="st4" d="M-232.1,472.8c-0.1,0-0.1,0-0.2,0.1c0,0-0.1,0.1-0.1,0.2l-0.1,0.4c-0.1,0.2-0.1,0.3-0.1,0.4
		c0,0.1,0,0.2,0,0.2c0,0.1,0.1,0.1,0.1,0.1c0.1,0,0.1,0,0.2,0v0.2h-1.3v-0.2c0.1,0,0.3,0,0.4-0.1c0.1,0,0.2-0.1,0.2-0.3l2-5.7h0.3
		l2,5.7c0,0.1,0.1,0.2,0.2,0.3c0.1,0,0.2,0,0.4,0v0.2h-2.2v-0.2c0.3,0,0.4-0.1,0.4-0.2c0-0.1,0-0.3-0.1-0.6l-0.3-0.9
		c-0.1-0.1-0.2-0.2-0.3-0.1L-232.1,472.8z M-231,469.9c0-0.1-0.1-0.1-0.1-0.1c0,0-0.1,0.1-0.1,0.1l-0.9,2.6c0,0,0,0.1,0,0.1
		c0,0,0.1,0,0.1,0l1.6-0.4c0.1,0,0.1,0,0.2-0.1c0,0,0-0.1,0-0.2L-231,469.9z"/>
	<path id="XMLID_135_" class="st0" d="M-224.3,474.1c0.2,0,0.3,0,0.4-0.1c0.1-0.1,0.2-0.1,0.3-0.2c0.1-0.1,0.1-0.2,0.2-0.3
		c0-0.1,0.1-0.2,0.1-0.3h0.2l-0.1,1.1h-4.3v-0.2c0.1,0,0.2,0,0.3,0c0.1,0,0.1-0.1,0.2-0.1c0-0.1,0.1-0.1,0.1-0.2c0-0.1,0-0.2,0-0.4
		v-4.3c0-0.1,0-0.3,0-0.4c0-0.1,0-0.2-0.1-0.2c0-0.1-0.1-0.1-0.2-0.1c-0.1,0-0.2,0-0.3,0v-0.2h2.2v0.2c-0.1,0-0.2,0-0.3,0
		c-0.1,0-0.1,0.1-0.2,0.1c0,0.1-0.1,0.1-0.1,0.2c0,0.1,0,0.2,0,0.4v4.3c0,0.1,0,0.3,0,0.4c0,0.1,0,0.2,0.1,0.2
		c0,0.1,0.1,0.1,0.2,0.1c0.1,0,0.2,0,0.3,0H-224.3z"/>
	<path id="XMLID_134_" class="st4" d="M-224.3,474.1c0.2,0,0.3,0,0.4-0.1c0.1-0.1,0.2-0.1,0.3-0.2c0.1-0.1,0.1-0.2,0.2-0.3
		c0-0.1,0.1-0.2,0.1-0.3h0.2l-0.1,1.1h-4.3v-0.2c0.1,0,0.2,0,0.3,0c0.1,0,0.1-0.1,0.2-0.1c0-0.1,0.1-0.1,0.1-0.2c0-0.1,0-0.2,0-0.4
		v-4.3c0-0.1,0-0.3,0-0.4c0-0.1,0-0.2-0.1-0.2c0-0.1-0.1-0.1-0.2-0.1c-0.1,0-0.2,0-0.3,0v-0.2h2.2v0.2c-0.1,0-0.2,0-0.3,0
		c-0.1,0-0.1,0.1-0.2,0.1c0,0.1-0.1,0.1-0.1,0.2c0,0.1,0,0.2,0,0.4v4.3c0,0.1,0,0.3,0,0.4c0,0.1,0,0.2,0.1,0.2
		c0,0.1,0.1,0.1,0.2,0.1c0.1,0,0.2,0,0.3,0H-224.3z"/>
	<path id="XMLID_131_" class="st0" d="M-217.8,468.1c0.5,0,0.9,0.1,1.3,0.2c0.4,0.2,0.7,0.4,0.9,0.7c0.3,0.3,0.5,0.6,0.6,1
		c0.1,0.4,0.2,0.8,0.2,1.2c0,0.4-0.1,0.8-0.2,1.2c-0.1,0.4-0.3,0.7-0.6,1c-0.3,0.3-0.6,0.5-0.9,0.7c-0.4,0.2-0.8,0.2-1.3,0.2h-2.5
		v-0.2c0.1,0,0.2,0,0.3,0c0.1,0,0.1-0.1,0.2-0.1c0-0.1,0.1-0.1,0.1-0.2c0-0.1,0-0.2,0-0.4v-4.3c0-0.1,0-0.3,0-0.4
		c0-0.1,0-0.2-0.1-0.2c0-0.1-0.1-0.1-0.2-0.1c-0.1,0-0.2,0-0.3,0v-0.2H-217.8z M-218.7,473.4c0,0.1,0,0.3,0,0.4c0,0.1,0,0.2,0.1,0.2
		c0,0.1,0.1,0.1,0.2,0.1c0.1,0,0.2,0,0.3,0h0.3c0.4,0,0.7-0.1,1-0.2c0.3-0.2,0.5-0.4,0.6-0.6c0.2-0.3,0.3-0.6,0.3-0.9
		c0.1-0.4,0.1-0.7,0.1-1.1c0-0.4,0-0.8-0.1-1.1c-0.1-0.4-0.2-0.7-0.3-0.9c-0.1-0.3-0.4-0.5-0.6-0.6c-0.3-0.2-0.6-0.2-1-0.2h-0.3
		c-0.1,0-0.2,0-0.3,0c-0.1,0-0.1,0.1-0.2,0.1c0,0.1-0.1,0.1-0.1,0.2c0,0.1,0,0.2,0,0.4V473.4z"/>
	<path id="XMLID_128_" class="st4" d="M-217.8,468.1c0.5,0,0.9,0.1,1.3,0.2c0.4,0.2,0.7,0.4,0.9,0.7c0.3,0.3,0.5,0.6,0.6,1
		c0.1,0.4,0.2,0.8,0.2,1.2c0,0.4-0.1,0.8-0.2,1.2c-0.1,0.4-0.3,0.7-0.6,1c-0.3,0.3-0.6,0.5-0.9,0.7c-0.4,0.2-0.8,0.2-1.3,0.2h-2.5
		v-0.2c0.1,0,0.2,0,0.3,0c0.1,0,0.1-0.1,0.2-0.1c0-0.1,0.1-0.1,0.1-0.2c0-0.1,0-0.2,0-0.4v-4.3c0-0.1,0-0.3,0-0.4
		c0-0.1,0-0.2-0.1-0.2c0-0.1-0.1-0.1-0.2-0.1c-0.1,0-0.2,0-0.3,0v-0.2H-217.8z M-218.7,473.4c0,0.1,0,0.3,0,0.4c0,0.1,0,0.2,0.1,0.2
		c0,0.1,0.1,0.1,0.2,0.1c0.1,0,0.2,0,0.3,0h0.3c0.4,0,0.7-0.1,1-0.2c0.3-0.2,0.5-0.4,0.6-0.6c0.2-0.3,0.3-0.6,0.3-0.9
		c0.1-0.4,0.1-0.7,0.1-1.1c0-0.4,0-0.8-0.1-1.1c-0.1-0.4-0.2-0.7-0.3-0.9c-0.1-0.3-0.4-0.5-0.6-0.6c-0.3-0.2-0.6-0.2-1-0.2h-0.3
		c-0.1,0-0.2,0-0.3,0c-0.1,0-0.1,0.1-0.2,0.1c0,0.1-0.1,0.1-0.1,0.2c0,0.1,0,0.2,0,0.4V473.4z"/>
	<path id="XMLID_127_" class="st0" d="M-212.4,474.1v0.2h-2.2v-0.2c0.1,0,0.2,0,0.3,0c0.1,0,0.1-0.1,0.2-0.1c0-0.1,0.1-0.1,0.1-0.2
		c0-0.1,0-0.2,0-0.4v-4.3c0-0.1,0-0.3,0-0.4c0-0.1,0-0.2-0.1-0.2c0-0.1-0.1-0.1-0.2-0.1c-0.1,0-0.2,0-0.3,0v-0.2h2.2v0.2
		c-0.1,0-0.2,0-0.3,0c-0.1,0-0.1,0.1-0.2,0.1c0,0.1-0.1,0.1-0.1,0.2c0,0.1,0,0.2,0,0.4v4.3c0,0.1,0,0.3,0,0.4c0,0.1,0,0.2,0.1,0.2
		c0,0.1,0.1,0.1,0.2,0.1C-212.7,474.1-212.6,474.1-212.4,474.1"/>
	<path id="XMLID_126_" class="st4" d="M-212.4,474.1v0.2h-2.2v-0.2c0.1,0,0.2,0,0.3,0c0.1,0,0.1-0.1,0.2-0.1c0-0.1,0.1-0.1,0.1-0.2
		c0-0.1,0-0.2,0-0.4v-4.3c0-0.1,0-0.3,0-0.4c0-0.1,0-0.2-0.1-0.2c0-0.1-0.1-0.1-0.2-0.1c-0.1,0-0.2,0-0.3,0v-0.2h2.2v0.2
		c-0.1,0-0.2,0-0.3,0c-0.1,0-0.1,0.1-0.2,0.1c0,0.1-0.1,0.1-0.1,0.2c0,0.1,0,0.2,0,0.4v4.3c0,0.1,0,0.3,0,0.4c0,0.1,0,0.2,0.1,0.2
		c0,0.1,0.1,0.1,0.2,0.1C-212.7,474.1-212.6,474.1-212.4,474.1z"/>
	<path id="XMLID_123_" class="st0" d="M-210.6,472.8c-0.1,0-0.1,0-0.2,0.1c0,0-0.1,0.1-0.1,0.2l-0.1,0.4c-0.1,0.2-0.1,0.3-0.1,0.4
		c0,0.1,0,0.2,0,0.2c0,0.1,0.1,0.1,0.1,0.1c0.1,0,0.1,0,0.2,0v0.2h-1.3v-0.2c0.1,0,0.3,0,0.4-0.1c0.1,0,0.2-0.1,0.2-0.3l2-5.7h0.3
		l2,5.7c0,0.1,0.1,0.2,0.2,0.3c0.1,0,0.2,0,0.4,0v0.2h-2.2v-0.2c0.3,0,0.4-0.1,0.4-0.2c0-0.1,0-0.3-0.1-0.6l-0.3-0.9
		c-0.1-0.1-0.2-0.2-0.3-0.1L-210.6,472.8z M-209.5,469.9c0-0.1-0.1-0.1-0.1-0.1c0,0-0.1,0.1-0.1,0.1l-0.9,2.6c0,0,0,0.1,0,0.1
		c0,0,0.1,0,0.1,0l1.6-0.4c0.1,0,0.1,0,0.2-0.1c0,0,0-0.1,0-0.2L-209.5,469.9z"/>
	<path id="XMLID_120_" class="st4" d="M-210.6,472.8c-0.1,0-0.1,0-0.2,0.1c0,0-0.1,0.1-0.1,0.2l-0.1,0.4c-0.1,0.2-0.1,0.3-0.1,0.4
		c0,0.1,0,0.2,0,0.2c0,0.1,0.1,0.1,0.1,0.1c0.1,0,0.1,0,0.2,0v0.2h-1.3v-0.2c0.1,0,0.3,0,0.4-0.1c0.1,0,0.2-0.1,0.2-0.3l2-5.7h0.3
		l2,5.7c0,0.1,0.1,0.2,0.2,0.3c0.1,0,0.2,0,0.4,0v0.2h-2.2v-0.2c0.3,0,0.4-0.1,0.4-0.2c0-0.1,0-0.3-0.1-0.6l-0.3-0.9
		c-0.1-0.1-0.2-0.2-0.3-0.1L-210.6,472.8z M-209.5,469.9c0-0.1-0.1-0.1-0.1-0.1c0,0-0.1,0.1-0.1,0.1l-0.9,2.6c0,0,0,0.1,0,0.1
		c0,0,0.1,0,0.1,0l1.6-0.4c0.1,0,0.1,0,0.2-0.1c0,0,0-0.1,0-0.2L-209.5,469.9z"/>
	<path id="XMLID_119_" class="st0" d="M-201.1,468.1h1.6v0.2c-0.1,0-0.2,0-0.3,0c-0.1,0-0.1,0.1-0.2,0.1c0,0.1-0.1,0.1-0.1,0.2
		c0,0.1,0,0.2,0,0.4v4.3c0,0.1,0,0.3,0,0.4c0,0.1,0,0.2,0.1,0.2c0,0.1,0.1,0.1,0.2,0.1c0.1,0,0.2,0,0.3,0v0.2h-2.2v-0.2
		c0.1,0,0.2,0,0.3,0c0.1,0,0.1-0.1,0.2-0.1c0-0.1,0.1-0.1,0.1-0.2c0-0.1,0-0.2,0-0.4v-4c0,0,0-0.1,0-0.1c0,0,0-0.1-0.1-0.1
		c0,0,0,0-0.1,0c0,0-0.1,0.1-0.1,0.2l-1.7,5h-0.3l-1.8-5c0-0.1-0.1-0.1-0.1-0.1c0,0,0,0-0.1,0c0,0,0,0,0,0.1c0,0,0,0.1,0,0.1v4
		c0,0.2,0,0.3,0,0.4c0,0.1,0,0.2,0.1,0.2c0,0.1,0.1,0.1,0.2,0.1c0.1,0,0.2,0,0.3,0v0.2h-1.3v-0.2c0.1,0,0.2,0,0.3,0
		c0.1,0,0.1-0.1,0.2-0.1c0-0.1,0.1-0.1,0.1-0.2c0-0.1,0-0.2,0-0.4v-4.3c0-0.3,0-0.5-0.1-0.6s-0.2-0.2-0.4-0.2v-0.2h1.5l1.6,4.6
		c0,0.1,0.1,0.1,0.1,0L-201.1,468.1z"/>
	<path id="XMLID_118_" class="st4" d="M-201.1,468.1h1.6v0.2c-0.1,0-0.2,0-0.3,0c-0.1,0-0.1,0.1-0.2,0.1c0,0.1-0.1,0.1-0.1,0.2
		c0,0.1,0,0.2,0,0.4v4.3c0,0.1,0,0.3,0,0.4c0,0.1,0,0.2,0.1,0.2c0,0.1,0.1,0.1,0.2,0.1c0.1,0,0.2,0,0.3,0v0.2h-2.2v-0.2
		c0.1,0,0.2,0,0.3,0c0.1,0,0.1-0.1,0.2-0.1c0-0.1,0.1-0.1,0.1-0.2c0-0.1,0-0.2,0-0.4v-4c0,0,0-0.1,0-0.1c0,0,0-0.1-0.1-0.1
		c0,0,0,0-0.1,0c0,0-0.1,0.1-0.1,0.2l-1.7,5h-0.3l-1.8-5c0-0.1-0.1-0.1-0.1-0.1c0,0,0,0-0.1,0c0,0,0,0,0,0.1c0,0,0,0.1,0,0.1v4
		c0,0.2,0,0.3,0,0.4c0,0.1,0,0.2,0.1,0.2c0,0.1,0.1,0.1,0.2,0.1c0.1,0,0.2,0,0.3,0v0.2h-1.3v-0.2c0.1,0,0.2,0,0.3,0
		c0.1,0,0.1-0.1,0.2-0.1c0-0.1,0.1-0.1,0.1-0.2c0-0.1,0-0.2,0-0.4v-4.3c0-0.3,0-0.5-0.1-0.6s-0.2-0.2-0.4-0.2v-0.2h1.5l1.6,4.6
		c0,0.1,0.1,0.1,0.1,0L-201.1,468.1z"/>
	<path id="XMLID_115_" class="st0" d="M-196.2,468.1c0.5,0,0.9,0.1,1.3,0.2c0.4,0.2,0.7,0.4,0.9,0.7c0.3,0.3,0.5,0.6,0.6,1
		c0.1,0.4,0.2,0.8,0.2,1.2c0,0.4-0.1,0.8-0.2,1.2c-0.1,0.4-0.3,0.7-0.6,1c-0.3,0.3-0.6,0.5-0.9,0.7c-0.4,0.2-0.8,0.2-1.3,0.2
		c-0.5,0-0.9-0.1-1.3-0.2c-0.4-0.2-0.7-0.4-0.9-0.7c-0.3-0.3-0.5-0.6-0.6-1c-0.1-0.4-0.2-0.8-0.2-1.2c0-0.4,0.1-0.8,0.2-1.2
		c0.1-0.4,0.3-0.7,0.6-1c0.3-0.3,0.6-0.5,0.9-0.7C-197.2,468.2-196.7,468.1-196.2,468.1 M-194.3,471.2c0-0.4,0-0.8-0.1-1.1
		c-0.1-0.4-0.2-0.7-0.3-0.9c-0.2-0.3-0.4-0.5-0.6-0.6c-0.3-0.2-0.6-0.2-1-0.2c-0.4,0-0.7,0.1-1,0.2c-0.3,0.2-0.5,0.4-0.6,0.6
		c-0.1,0.3-0.3,0.6-0.3,0.9c-0.1,0.4-0.1,0.7-0.1,1.1c0,0.4,0,0.8,0.1,1.1c0.1,0.4,0.2,0.7,0.3,0.9c0.2,0.3,0.4,0.5,0.6,0.6
		c0.3,0.2,0.6,0.2,1,0.2c0.4,0,0.7-0.1,1-0.2c0.3-0.2,0.5-0.4,0.6-0.6c0.1-0.3,0.3-0.6,0.3-0.9C-194.3,472-194.3,471.6-194.3,471.2"
		/>
	<path id="XMLID_112_" class="st4" d="M-196.2,468.1c0.5,0,0.9,0.1,1.3,0.2c0.4,0.2,0.7,0.4,0.9,0.7c0.3,0.3,0.5,0.6,0.6,1
		c0.1,0.4,0.2,0.8,0.2,1.2c0,0.4-0.1,0.8-0.2,1.2c-0.1,0.4-0.3,0.7-0.6,1c-0.3,0.3-0.6,0.5-0.9,0.7c-0.4,0.2-0.8,0.2-1.3,0.2
		c-0.5,0-0.9-0.1-1.3-0.2c-0.4-0.2-0.7-0.4-0.9-0.7c-0.3-0.3-0.5-0.6-0.6-1c-0.1-0.4-0.2-0.8-0.2-1.2c0-0.4,0.1-0.8,0.2-1.2
		c0.1-0.4,0.3-0.7,0.6-1c0.3-0.3,0.6-0.5,0.9-0.7C-197.2,468.2-196.7,468.1-196.2,468.1z M-194.3,471.2c0-0.4,0-0.8-0.1-1.1
		c-0.1-0.4-0.2-0.7-0.3-0.9c-0.2-0.3-0.4-0.5-0.6-0.6c-0.3-0.2-0.6-0.2-1-0.2c-0.4,0-0.7,0.1-1,0.2c-0.3,0.2-0.5,0.4-0.6,0.6
		c-0.1,0.3-0.3,0.6-0.3,0.9c-0.1,0.4-0.1,0.7-0.1,1.1c0,0.4,0,0.8,0.1,1.1c0.1,0.4,0.2,0.7,0.3,0.9c0.2,0.3,0.4,0.5,0.6,0.6
		c0.3,0.2,0.6,0.2,1,0.2c0.4,0,0.7-0.1,1-0.2c0.3-0.2,0.5-0.4,0.6-0.6c0.1-0.3,0.3-0.6,0.3-0.9C-194.3,472-194.3,471.6-194.3,471.2z
		"/>
	<path id="XMLID_111_" class="st0" d="M-188.6,472.2c0.1,0.1,0.2,0.2,0.2,0.2c0,0,0.1-0.1,0.1-0.2v-3.1c0-0.2,0-0.3,0-0.4
		c0-0.1,0-0.2-0.1-0.2c0-0.1-0.1-0.1-0.2-0.1c-0.1,0-0.2,0-0.3,0v-0.2h1.3v0.2c-0.1,0-0.2,0-0.3,0c-0.1,0-0.1,0.1-0.2,0.1
		c0,0.1-0.1,0.1-0.1,0.2c0,0.1,0,0.2,0,0.4v5.2h-0.3l-3.6-5c-0.1-0.1-0.2-0.2-0.2-0.2c0,0-0.1,0.1-0.1,0.2v4c0,0.2,0,0.3,0,0.4
		c0,0.1,0,0.2,0.1,0.2c0,0.1,0.1,0.1,0.2,0.1c0.1,0,0.2,0,0.3,0v0.2h-1.3v-0.2c0.1,0,0.2,0,0.3,0c0.1,0,0.1-0.1,0.2-0.1
		c0-0.1,0.1-0.1,0.1-0.2c0-0.1,0-0.2,0-0.4v-4.3c0-0.3,0-0.5-0.1-0.6c-0.1-0.1-0.2-0.2-0.4-0.2v-0.2h1.5L-188.6,472.2z"/>
	<path id="XMLID_110_" class="st4" d="M-188.6,472.2c0.1,0.1,0.2,0.2,0.2,0.2c0,0,0.1-0.1,0.1-0.2v-3.1c0-0.2,0-0.3,0-0.4
		c0-0.1,0-0.2-0.1-0.2c0-0.1-0.1-0.1-0.2-0.1c-0.1,0-0.2,0-0.3,0v-0.2h1.3v0.2c-0.1,0-0.2,0-0.3,0c-0.1,0-0.1,0.1-0.2,0.1
		c0,0.1-0.1,0.1-0.1,0.2c0,0.1,0,0.2,0,0.4v5.2h-0.3l-3.6-5c-0.1-0.1-0.2-0.2-0.2-0.2c0,0-0.1,0.1-0.1,0.2v4c0,0.2,0,0.3,0,0.4
		c0,0.1,0,0.2,0.1,0.2c0,0.1,0.1,0.1,0.2,0.1c0.1,0,0.2,0,0.3,0v0.2h-1.3v-0.2c0.1,0,0.2,0,0.3,0c0.1,0,0.1-0.1,0.2-0.1
		c0-0.1,0.1-0.1,0.1-0.2c0-0.1,0-0.2,0-0.4v-4.3c0-0.3,0-0.5-0.1-0.6c-0.1-0.1-0.2-0.2-0.4-0.2v-0.2h1.5L-188.6,472.2z"/>
	<path id="XMLID_107_" class="st0" d="M-184.7,468.1c0.5,0,0.9,0.1,1.3,0.2c0.4,0.2,0.7,0.4,0.9,0.7c0.3,0.3,0.5,0.6,0.6,1
		c0.1,0.4,0.2,0.8,0.2,1.2c0,0.4-0.1,0.8-0.2,1.2c-0.1,0.4-0.3,0.7-0.6,1c-0.3,0.3-0.6,0.5-0.9,0.7c-0.4,0.2-0.8,0.2-1.3,0.2h-2.5
		v-0.2c0.1,0,0.2,0,0.3,0c0.1,0,0.1-0.1,0.2-0.1c0-0.1,0.1-0.1,0.1-0.2c0-0.1,0-0.2,0-0.4v-4.3c0-0.1,0-0.3,0-0.4
		c0-0.1,0-0.2-0.1-0.2c0-0.1-0.1-0.1-0.2-0.1c-0.1,0-0.2,0-0.3,0v-0.2H-184.7z M-185.5,473.4c0,0.1,0,0.3,0,0.4c0,0.1,0,0.2,0.1,0.2
		c0,0.1,0.1,0.1,0.2,0.1c0.1,0,0.2,0,0.3,0h0.3c0.4,0,0.7-0.1,1-0.2c0.3-0.2,0.5-0.4,0.6-0.6c0.2-0.3,0.3-0.6,0.3-0.9
		c0.1-0.4,0.1-0.7,0.1-1.1c0-0.4,0-0.8-0.1-1.1c-0.1-0.4-0.2-0.7-0.3-0.9c-0.1-0.3-0.4-0.5-0.6-0.6c-0.3-0.2-0.6-0.2-1-0.2h-0.3
		c-0.1,0-0.2,0-0.3,0c-0.1,0-0.1,0.1-0.2,0.1c0,0.1-0.1,0.1-0.1,0.2c0,0.1,0,0.2,0,0.4V473.4z"/>
	<path id="XMLID_104_" class="st4" d="M-184.7,468.1c0.5,0,0.9,0.1,1.3,0.2c0.4,0.2,0.7,0.4,0.9,0.7c0.3,0.3,0.5,0.6,0.6,1
		c0.1,0.4,0.2,0.8,0.2,1.2c0,0.4-0.1,0.8-0.2,1.2c-0.1,0.4-0.3,0.7-0.6,1c-0.3,0.3-0.6,0.5-0.9,0.7c-0.4,0.2-0.8,0.2-1.3,0.2h-2.5
		v-0.2c0.1,0,0.2,0,0.3,0c0.1,0,0.1-0.1,0.2-0.1c0-0.1,0.1-0.1,0.1-0.2c0-0.1,0-0.2,0-0.4v-4.3c0-0.1,0-0.3,0-0.4
		c0-0.1,0-0.2-0.1-0.2c0-0.1-0.1-0.1-0.2-0.1c-0.1,0-0.2,0-0.3,0v-0.2H-184.7z M-185.5,473.4c0,0.1,0,0.3,0,0.4c0,0.1,0,0.2,0.1,0.2
		c0,0.1,0.1,0.1,0.2,0.1c0.1,0,0.2,0,0.3,0h0.3c0.4,0,0.7-0.1,1-0.2c0.3-0.2,0.5-0.4,0.6-0.6c0.2-0.3,0.3-0.6,0.3-0.9
		c0.1-0.4,0.1-0.7,0.1-1.1c0-0.4,0-0.8-0.1-1.1c-0.1-0.4-0.2-0.7-0.3-0.9c-0.1-0.3-0.4-0.5-0.6-0.6c-0.3-0.2-0.6-0.2-1-0.2h-0.3
		c-0.1,0-0.2,0-0.3,0c-0.1,0-0.1,0.1-0.2,0.1c0,0.1-0.1,0.1-0.1,0.2c0,0.1,0,0.2,0,0.4V473.4z"/>
	<path id="XMLID_103_" class="st0" d="M-180.8,474.3c-0.1,0-0.2,0-0.3-0.1c-0.1-0.1-0.1-0.2-0.1-0.3c0-0.1,0-0.2,0.1-0.3
		c0.1-0.1,0.2-0.1,0.3-0.1c0.1,0,0.2,0,0.3,0.1c0.1,0.1,0.1,0.2,0.1,0.3c0,0.1,0,0.2-0.1,0.3C-180.6,474.3-180.7,474.3-180.8,474.3"
		/>
	<path id="XMLID_102_" class="st4" d="M-180.8,474.3c-0.1,0-0.2,0-0.3-0.1c-0.1-0.1-0.1-0.2-0.1-0.3c0-0.1,0-0.2,0.1-0.3
		c0.1-0.1,0.2-0.1,0.3-0.1c0.1,0,0.2,0,0.3,0.1c0.1,0.1,0.1,0.2,0.1,0.3c0,0.1,0,0.2-0.1,0.3C-180.6,474.3-180.7,474.3-180.8,474.3z
		"/>
	<path id="XMLID_99_" class="st0" d="M-175.6,468.1c0.1,0,0.3,0,0.5,0c0.2,0,0.3,0,0.5,0.1c0.2,0,0.3,0.1,0.5,0.1
		c0.2,0.1,0.3,0.2,0.4,0.3c0.1,0.1,0.2,0.3,0.3,0.5c0.1,0.2,0.1,0.4,0.1,0.7c0,0.2,0,0.4-0.1,0.6c-0.1,0.2-0.2,0.3-0.3,0.4
		c-0.1,0.1-0.3,0.2-0.4,0.3c-0.2,0.1-0.3,0.2-0.5,0.2l1.2,2.3c0.1,0.2,0.3,0.4,0.4,0.5c0.1,0.1,0.3,0.1,0.4,0.1v0.2h-1.2
		c-0.1,0-0.1,0-0.2-0.1c-0.1,0-0.1-0.1-0.1-0.1l-1.4-2.5c0-0.1-0.1-0.1-0.1-0.1c-0.1,0-0.1,0-0.2,0l-0.3,0.1c-0.1,0-0.2,0.1-0.2,0.2
		v1.5c0,0.1,0,0.3,0,0.4c0,0.1,0,0.2,0.1,0.2c0,0.1,0.1,0.1,0.2,0.1c0.1,0,0.2,0,0.3,0v0.2h-2.2v-0.2c0.1,0,0.2,0,0.3,0
		c0.1,0,0.1-0.1,0.2-0.1c0-0.1,0.1-0.1,0.1-0.2c0-0.1,0-0.2,0-0.4v-4.3c0-0.1,0-0.3,0-0.4c0-0.1,0-0.2-0.1-0.2
		c0-0.1-0.1-0.1-0.2-0.1c-0.1,0-0.2,0-0.3,0v-0.2H-175.6z M-176.1,471.3c0,0,0,0.1,0.1,0.1c0,0,0.1,0,0.1,0l0.3-0.1
		c0.2,0,0.3-0.1,0.5-0.2c0.2-0.1,0.3-0.2,0.4-0.3s0.2-0.3,0.3-0.5c0.1-0.2,0.1-0.4,0.1-0.7c0-0.3,0-0.5-0.1-0.7
		c-0.1-0.2-0.2-0.3-0.3-0.4c-0.1-0.1-0.3-0.2-0.4-0.2c-0.2,0-0.3-0.1-0.4-0.1c-0.2,0-0.4,0.1-0.4,0.2c-0.1,0.1-0.1,0.3-0.1,0.6
		V471.3z"/>
	<path id="XMLID_96_" class="st4" d="M-175.6,468.1c0.1,0,0.3,0,0.5,0c0.2,0,0.3,0,0.5,0.1c0.2,0,0.3,0.1,0.5,0.1
		c0.2,0.1,0.3,0.2,0.4,0.3c0.1,0.1,0.2,0.3,0.3,0.5c0.1,0.2,0.1,0.4,0.1,0.7c0,0.2,0,0.4-0.1,0.6c-0.1,0.2-0.2,0.3-0.3,0.4
		c-0.1,0.1-0.3,0.2-0.4,0.3c-0.2,0.1-0.3,0.2-0.5,0.2l1.2,2.3c0.1,0.2,0.3,0.4,0.4,0.5c0.1,0.1,0.3,0.1,0.4,0.1v0.2h-1.2
		c-0.1,0-0.1,0-0.2-0.1c-0.1,0-0.1-0.1-0.1-0.1l-1.4-2.5c0-0.1-0.1-0.1-0.1-0.1c-0.1,0-0.1,0-0.2,0l-0.3,0.1c-0.1,0-0.2,0.1-0.2,0.2
		v1.5c0,0.1,0,0.3,0,0.4c0,0.1,0,0.2,0.1,0.2c0,0.1,0.1,0.1,0.2,0.1c0.1,0,0.2,0,0.3,0v0.2h-2.2v-0.2c0.1,0,0.2,0,0.3,0
		c0.1,0,0.1-0.1,0.2-0.1c0-0.1,0.1-0.1,0.1-0.2c0-0.1,0-0.2,0-0.4v-4.3c0-0.1,0-0.3,0-0.4c0-0.1,0-0.2-0.1-0.2
		c0-0.1-0.1-0.1-0.2-0.1c-0.1,0-0.2,0-0.3,0v-0.2H-175.6z M-176.1,471.3c0,0,0,0.1,0.1,0.1c0,0,0.1,0,0.1,0l0.3-0.1
		c0.2,0,0.3-0.1,0.5-0.2c0.2-0.1,0.3-0.2,0.4-0.3s0.2-0.3,0.3-0.5c0.1-0.2,0.1-0.4,0.1-0.7c0-0.3,0-0.5-0.1-0.7
		c-0.1-0.2-0.2-0.3-0.3-0.4c-0.1-0.1-0.3-0.2-0.4-0.2c-0.2,0-0.3-0.1-0.4-0.1c-0.2,0-0.4,0.1-0.4,0.2c-0.1,0.1-0.1,0.3-0.1,0.6
		V471.3z"/>
	<path id="XMLID_95_" class="st0" d="M-167.7,468.1c0,0.2,0,0.4,0.1,0.6c0,0.2,0,0.4,0.1,0.6h-0.2c0-0.1,0-0.2-0.1-0.3
		c0-0.1-0.1-0.2-0.2-0.3c-0.1-0.1-0.2-0.2-0.3-0.2c-0.1-0.1-0.3-0.1-0.4-0.1h-1c-0.1,0-0.2,0-0.3,0c-0.1,0-0.1,0.1-0.2,0.1
		c0,0.1-0.1,0.1-0.1,0.2c0,0.1,0,0.2,0,0.4v1.6c0,0,0,0.1,0,0.1c0,0,0.1,0.1,0.1,0.1h0.3c0.2,0,0.3,0,0.5-0.1c0.1,0,0.2-0.1,0.3-0.2
		c0.1-0.1,0.1-0.2,0.1-0.2c0-0.1,0-0.2,0-0.3h0.2v1.7h-0.2c0-0.1,0-0.2,0-0.3c0-0.1-0.1-0.2-0.1-0.2c-0.1-0.1-0.2-0.1-0.3-0.2
		c-0.1,0-0.3-0.1-0.5-0.1h-0.3c0,0-0.1,0-0.1,0.1c0,0,0,0.1,0,0.1v2.2c0,0.1,0,0.3,0,0.4c0,0.1,0,0.2,0.1,0.2c0,0.1,0.1,0.1,0.2,0.1
		c0.1,0,0.2,0,0.3,0h1c0.2,0,0.3,0,0.4-0.1c0.1-0.1,0.2-0.1,0.3-0.2c0.1-0.1,0.1-0.2,0.2-0.3c0-0.1,0.1-0.2,0.1-0.3h0.2
		c0,0.2,0,0.4-0.1,0.6c0,0.2,0,0.4-0.1,0.6h-4.3v-0.2c0.1,0,0.2,0,0.3,0c0.1,0,0.1-0.1,0.2-0.1c0-0.1,0.1-0.1,0.1-0.2
		c0-0.1,0-0.2,0-0.4v-4.3c0-0.1,0-0.3,0-0.4c0-0.1,0-0.2-0.1-0.2c0-0.1-0.1-0.1-0.2-0.1s-0.2,0-0.3,0v-0.2H-167.7z"/>
	<path id="XMLID_94_" class="st4" d="M-167.7,468.1c0,0.2,0,0.4,0.1,0.6c0,0.2,0,0.4,0.1,0.6h-0.2c0-0.1,0-0.2-0.1-0.3
		c0-0.1-0.1-0.2-0.2-0.3c-0.1-0.1-0.2-0.2-0.3-0.2c-0.1-0.1-0.3-0.1-0.4-0.1h-1c-0.1,0-0.2,0-0.3,0c-0.1,0-0.1,0.1-0.2,0.1
		c0,0.1-0.1,0.1-0.1,0.2c0,0.1,0,0.2,0,0.4v1.6c0,0,0,0.1,0,0.1c0,0,0.1,0.1,0.1,0.1h0.3c0.2,0,0.3,0,0.5-0.1c0.1,0,0.2-0.1,0.3-0.2
		c0.1-0.1,0.1-0.2,0.1-0.2c0-0.1,0-0.2,0-0.3h0.2v1.7h-0.2c0-0.1,0-0.2,0-0.3c0-0.1-0.1-0.2-0.1-0.2c-0.1-0.1-0.2-0.1-0.3-0.2
		c-0.1,0-0.3-0.1-0.5-0.1h-0.3c0,0-0.1,0-0.1,0.1c0,0,0,0.1,0,0.1v2.2c0,0.1,0,0.3,0,0.4c0,0.1,0,0.2,0.1,0.2c0,0.1,0.1,0.1,0.2,0.1
		c0.1,0,0.2,0,0.3,0h1c0.2,0,0.3,0,0.4-0.1c0.1-0.1,0.2-0.1,0.3-0.2c0.1-0.1,0.1-0.2,0.2-0.3c0-0.1,0.1-0.2,0.1-0.3h0.2
		c0,0.2,0,0.4-0.1,0.6c0,0.2,0,0.4-0.1,0.6h-4.3v-0.2c0.1,0,0.2,0,0.3,0c0.1,0,0.1-0.1,0.2-0.1c0-0.1,0.1-0.1,0.1-0.2
		c0-0.1,0-0.2,0-0.4v-4.3c0-0.1,0-0.3,0-0.4c0-0.1,0-0.2-0.1-0.2c0-0.1-0.1-0.1-0.2-0.1s-0.2,0-0.3,0v-0.2H-167.7z"/>
	<path id="XMLID_91_" class="st0" d="M-165.7,472.8c-0.1,0-0.1,0-0.2,0.1c0,0-0.1,0.1-0.1,0.2l-0.1,0.4c-0.1,0.2-0.1,0.3-0.1,0.4
		c0,0.1,0,0.2,0,0.2c0,0.1,0.1,0.1,0.1,0.1c0.1,0,0.1,0,0.2,0v0.2h-1.3v-0.2c0.1,0,0.3,0,0.4-0.1c0.1,0,0.2-0.1,0.2-0.3l2-5.7h0.3
		l2,5.7c0,0.1,0.1,0.2,0.2,0.3c0.1,0,0.2,0,0.4,0v0.2h-2.2v-0.2c0.3,0,0.4-0.1,0.4-0.2c0-0.1,0-0.3-0.1-0.6l-0.3-0.9
		c-0.1-0.1-0.2-0.2-0.3-0.1L-165.7,472.8z M-164.7,469.9c0-0.1-0.1-0.1-0.1-0.1c0,0-0.1,0.1-0.1,0.1l-0.9,2.6c0,0,0,0.1,0,0.1
		c0,0,0.1,0,0.1,0l1.6-0.4c0.1,0,0.1,0,0.2-0.1c0,0,0-0.1,0-0.2L-164.7,469.9z"/>
	<path id="XMLID_88_" class="st4" d="M-165.7,472.8c-0.1,0-0.1,0-0.2,0.1c0,0-0.1,0.1-0.1,0.2l-0.1,0.4c-0.1,0.2-0.1,0.3-0.1,0.4
		c0,0.1,0,0.2,0,0.2c0,0.1,0.1,0.1,0.1,0.1c0.1,0,0.1,0,0.2,0v0.2h-1.3v-0.2c0.1,0,0.3,0,0.4-0.1c0.1,0,0.2-0.1,0.2-0.3l2-5.7h0.3
		l2,5.7c0,0.1,0.1,0.2,0.2,0.3c0.1,0,0.2,0,0.4,0v0.2h-2.2v-0.2c0.3,0,0.4-0.1,0.4-0.2c0-0.1,0-0.3-0.1-0.6l-0.3-0.9
		c-0.1-0.1-0.2-0.2-0.3-0.1L-165.7,472.8z M-164.7,469.9c0-0.1-0.1-0.1-0.1-0.1c0,0-0.1,0.1-0.1,0.1l-0.9,2.6c0,0,0,0.1,0,0.1
		c0,0,0.1,0,0.1,0l1.6-0.4c0.1,0,0.1,0,0.2-0.1c0,0,0-0.1,0-0.2L-164.7,469.9z"/>
	<path id="XMLID_87_" class="st0" d="M-157.9,474.1c0.2,0,0.3,0,0.4-0.1c0.1-0.1,0.2-0.1,0.3-0.2c0.1-0.1,0.1-0.2,0.2-0.3
		c0-0.1,0.1-0.2,0.1-0.3h0.2l-0.1,1.1h-4.3v-0.2c0.1,0,0.2,0,0.3,0c0.1,0,0.1-0.1,0.2-0.1c0-0.1,0.1-0.1,0.1-0.2c0-0.1,0-0.2,0-0.4
		v-4.3c0-0.1,0-0.3,0-0.4c0-0.1,0-0.2-0.1-0.2c0-0.1-0.1-0.1-0.2-0.1c-0.1,0-0.2,0-0.3,0v-0.2h2.2v0.2c-0.1,0-0.2,0-0.3,0
		c-0.1,0-0.1,0.1-0.2,0.1c0,0.1-0.1,0.1-0.1,0.2c0,0.1,0,0.2,0,0.4v4.3c0,0.1,0,0.3,0,0.4c0,0.1,0,0.2,0.1,0.2
		c0,0.1,0.1,0.1,0.2,0.1c0.1,0,0.2,0,0.3,0H-157.9z"/>
	<path id="XMLID_86_" class="st4" d="M-157.9,474.1c0.2,0,0.3,0,0.4-0.1c0.1-0.1,0.2-0.1,0.3-0.2c0.1-0.1,0.1-0.2,0.2-0.3
		c0-0.1,0.1-0.2,0.1-0.3h0.2l-0.1,1.1h-4.3v-0.2c0.1,0,0.2,0,0.3,0c0.1,0,0.1-0.1,0.2-0.1c0-0.1,0.1-0.1,0.1-0.2c0-0.1,0-0.2,0-0.4
		v-4.3c0-0.1,0-0.3,0-0.4c0-0.1,0-0.2-0.1-0.2c0-0.1-0.1-0.1-0.2-0.1c-0.1,0-0.2,0-0.3,0v-0.2h2.2v0.2c-0.1,0-0.2,0-0.3,0
		c-0.1,0-0.1,0.1-0.2,0.1c0,0.1-0.1,0.1-0.1,0.2c0,0.1,0,0.2,0,0.4v4.3c0,0.1,0,0.3,0,0.4c0,0.1,0,0.2,0.1,0.2
		c0,0.1,0.1,0.1,0.2,0.1c0.1,0,0.2,0,0.3,0H-157.9z"/>
	<path id="XMLID_85_" class="st0" d="M-152.1,469.1l1.2,3.5c0,0.1,0.1,0.2,0.1,0.1c0,0,0.1-0.1,0.1-0.2l1.2-3.4
		c0.1-0.3,0.1-0.5,0.1-0.6c0-0.1-0.2-0.2-0.4-0.2v-0.2h1.3v0.2c-0.1,0-0.2,0-0.3,0c-0.1,0-0.1,0.1-0.2,0.1c-0.1,0.1-0.1,0.1-0.2,0.2
		c0,0.1-0.1,0.2-0.2,0.4l-1.9,5.3h-0.3l-1.9-5.2c-0.1-0.1-0.1-0.3-0.2-0.4c0-0.1-0.1-0.2-0.2-0.2c-0.1-0.1-0.1-0.1-0.2-0.1
		s-0.2,0-0.3,0v-0.2h2.2v0.2c-0.3,0-0.4,0.1-0.4,0.2C-152.2,468.6-152.2,468.8-152.1,469.1"/>
	<path id="XMLID_84_" class="st4" d="M-152.1,469.1l1.2,3.5c0,0.1,0.1,0.2,0.1,0.1c0,0,0.1-0.1,0.1-0.2l1.2-3.4
		c0.1-0.3,0.1-0.5,0.1-0.6c0-0.1-0.2-0.2-0.4-0.2v-0.2h1.3v0.2c-0.1,0-0.2,0-0.3,0c-0.1,0-0.1,0.1-0.2,0.1c-0.1,0.1-0.1,0.1-0.2,0.2
		c0,0.1-0.1,0.2-0.2,0.4l-1.9,5.3h-0.3l-1.9-5.2c-0.1-0.1-0.1-0.3-0.2-0.4c0-0.1-0.1-0.2-0.2-0.2c-0.1-0.1-0.1-0.1-0.2-0.1
		s-0.2,0-0.3,0v-0.2h2.2v0.2c-0.3,0-0.4,0.1-0.4,0.2C-152.2,468.6-152.2,468.8-152.1,469.1z"/>
	<path id="XMLID_81_" class="st0" d="M-148.5,472.8c-0.1,0-0.1,0-0.2,0.1c0,0-0.1,0.1-0.1,0.2l-0.1,0.4c-0.1,0.2-0.1,0.3-0.1,0.4
		c0,0.1,0,0.2,0,0.2c0,0.1,0.1,0.1,0.1,0.1c0.1,0,0.1,0,0.2,0v0.2h-1.3v-0.2c0.1,0,0.3,0,0.4-0.1c0.1,0,0.2-0.1,0.2-0.3l2-5.7h0.3
		l2,5.7c0,0.1,0.1,0.2,0.2,0.3c0.1,0,0.2,0,0.4,0v0.2h-2.2v-0.2c0.3,0,0.4-0.1,0.4-0.2c0-0.1,0-0.3-0.1-0.6l-0.3-0.9
		c-0.1-0.1-0.2-0.2-0.3-0.1L-148.5,472.8z M-147.5,469.9c0-0.1-0.1-0.1-0.1-0.1c0,0-0.1,0.1-0.1,0.1l-0.9,2.6c0,0,0,0.1,0,0.1
		c0,0,0.1,0,0.1,0l1.6-0.4c0.1,0,0.1,0,0.2-0.1c0,0,0-0.1,0-0.2L-147.5,469.9z"/>
	<path id="XMLID_78_" class="st4" d="M-148.5,472.8c-0.1,0-0.1,0-0.2,0.1c0,0-0.1,0.1-0.1,0.2l-0.1,0.4c-0.1,0.2-0.1,0.3-0.1,0.4
		c0,0.1,0,0.2,0,0.2c0,0.1,0.1,0.1,0.1,0.1c0.1,0,0.1,0,0.2,0v0.2h-1.3v-0.2c0.1,0,0.3,0,0.4-0.1c0.1,0,0.2-0.1,0.2-0.3l2-5.7h0.3
		l2,5.7c0,0.1,0.1,0.2,0.2,0.3c0.1,0,0.2,0,0.4,0v0.2h-2.2v-0.2c0.3,0,0.4-0.1,0.4-0.2c0-0.1,0-0.3-0.1-0.6l-0.3-0.9
		c-0.1-0.1-0.2-0.2-0.3-0.1L-148.5,472.8z M-147.5,469.9c0-0.1-0.1-0.1-0.1-0.1c0,0-0.1,0.1-0.1,0.1l-0.9,2.6c0,0,0,0.1,0,0.1
		c0,0,0.1,0,0.1,0l1.6-0.4c0.1,0,0.1,0,0.2-0.1c0,0,0-0.1,0-0.2L-147.5,469.9z"/>
	<path id="XMLID_77_" class="st0" d="M-140.7,474.1c0.2,0,0.3,0,0.4-0.1c0.1-0.1,0.2-0.1,0.3-0.2c0.1-0.1,0.1-0.2,0.2-0.3
		c0-0.1,0.1-0.2,0.1-0.3h0.2l-0.1,1.1h-4.3v-0.2c0.1,0,0.2,0,0.3,0c0.1,0,0.1-0.1,0.2-0.1c0-0.1,0.1-0.1,0.1-0.2c0-0.1,0-0.2,0-0.4
		v-4.3c0-0.1,0-0.3,0-0.4c0-0.1,0-0.2-0.1-0.2c0-0.1-0.1-0.1-0.2-0.1c-0.1,0-0.2,0-0.3,0v-0.2h2.2v0.2c-0.1,0-0.2,0-0.3,0
		c-0.1,0-0.1,0.1-0.2,0.1c0,0.1-0.1,0.1-0.1,0.2c0,0.1,0,0.2,0,0.4v4.3c0,0.1,0,0.3,0,0.4c0,0.1,0,0.2,0.1,0.2
		c0,0.1,0.1,0.1,0.2,0.1c0.1,0,0.2,0,0.3,0H-140.7z"/>
	<path id="XMLID_76_" class="st4" d="M-140.7,474.1c0.2,0,0.3,0,0.4-0.1c0.1-0.1,0.2-0.1,0.3-0.2c0.1-0.1,0.1-0.2,0.2-0.3
		c0-0.1,0.1-0.2,0.1-0.3h0.2l-0.1,1.1h-4.3v-0.2c0.1,0,0.2,0,0.3,0c0.1,0,0.1-0.1,0.2-0.1c0-0.1,0.1-0.1,0.1-0.2c0-0.1,0-0.2,0-0.4
		v-4.3c0-0.1,0-0.3,0-0.4c0-0.1,0-0.2-0.1-0.2c0-0.1-0.1-0.1-0.2-0.1c-0.1,0-0.2,0-0.3,0v-0.2h2.2v0.2c-0.1,0-0.2,0-0.3,0
		c-0.1,0-0.1,0.1-0.2,0.1c0,0.1-0.1,0.1-0.1,0.2c0,0.1,0,0.2,0,0.4v4.3c0,0.1,0,0.3,0,0.4c0,0.1,0,0.2,0.1,0.2
		c0,0.1,0.1,0.1,0.2,0.1c0.1,0,0.2,0,0.3,0H-140.7z"/>
	<path id="XMLID_75_" class="st0" d="M-137.4,468.1v0.2c-0.1,0-0.2,0-0.3,0c-0.1,0-0.1,0.1-0.2,0.1c0,0.1-0.1,0.1-0.1,0.2
		c0,0.1,0,0.2,0,0.4v3.9c0,0.2,0,0.4,0.1,0.6c0.1,0.1,0.1,0.3,0.2,0.4c0.1,0.1,0.3,0.2,0.4,0.2c0.2,0,0.4,0.1,0.7,0.1
		c0.2,0,0.4,0,0.6-0.1c0.2,0,0.4-0.1,0.5-0.2c0.2-0.1,0.3-0.2,0.4-0.4c0.1-0.2,0.1-0.3,0.1-0.6v-3.9c0-0.2,0-0.3,0-0.4
		c0-0.1,0-0.2-0.1-0.2c0-0.1-0.1-0.1-0.2-0.1c-0.1,0-0.2,0-0.3,0v-0.2h1.3v0.2c-0.1,0-0.2,0-0.3,0c-0.1,0-0.1,0.1-0.2,0.1
		c0,0.1-0.1,0.1-0.1,0.2c0,0.1,0,0.2,0,0.4v3.9c0,0.3,0,0.5-0.1,0.6c-0.1,0.2-0.2,0.3-0.4,0.4c-0.2,0.1-0.4,0.2-0.6,0.2
		c-0.2,0-0.5,0.1-0.7,0.1c-0.3,0-0.7,0-1,0c-0.3,0-0.6-0.1-0.8-0.2c-0.2-0.1-0.4-0.2-0.5-0.4c-0.1-0.2-0.2-0.4-0.2-0.7v-3.9
		c0-0.1,0-0.3,0-0.4c0-0.1,0-0.2-0.1-0.2c0-0.1-0.1-0.1-0.2-0.1s-0.2,0-0.3,0v-0.2H-137.4z"/>
	<path id="XMLID_74_" class="st4" d="M-137.4,468.1v0.2c-0.1,0-0.2,0-0.3,0c-0.1,0-0.1,0.1-0.2,0.1c0,0.1-0.1,0.1-0.1,0.2
		c0,0.1,0,0.2,0,0.4v3.9c0,0.2,0,0.4,0.1,0.6c0.1,0.1,0.1,0.3,0.2,0.4c0.1,0.1,0.3,0.2,0.4,0.2c0.2,0,0.4,0.1,0.7,0.1
		c0.2,0,0.4,0,0.6-0.1c0.2,0,0.4-0.1,0.5-0.2c0.2-0.1,0.3-0.2,0.4-0.4c0.1-0.2,0.1-0.3,0.1-0.6v-3.9c0-0.2,0-0.3,0-0.4
		c0-0.1,0-0.2-0.1-0.2c0-0.1-0.1-0.1-0.2-0.1c-0.1,0-0.2,0-0.3,0v-0.2h1.3v0.2c-0.1,0-0.2,0-0.3,0c-0.1,0-0.1,0.1-0.2,0.1
		c0,0.1-0.1,0.1-0.1,0.2c0,0.1,0,0.2,0,0.4v3.9c0,0.3,0,0.5-0.1,0.6c-0.1,0.2-0.2,0.3-0.4,0.4c-0.2,0.1-0.4,0.2-0.6,0.2
		c-0.2,0-0.5,0.1-0.7,0.1c-0.3,0-0.7,0-1,0c-0.3,0-0.6-0.1-0.8-0.2c-0.2-0.1-0.4-0.2-0.5-0.4c-0.1-0.2-0.2-0.4-0.2-0.7v-3.9
		c0-0.1,0-0.3,0-0.4c0-0.1,0-0.2-0.1-0.2c0-0.1-0.1-0.1-0.2-0.1s-0.2,0-0.3,0v-0.2H-137.4z"/>
	<path id="XMLID_73_" class="st0" d="M-129.4,468.1c0,0.2,0,0.4,0.1,0.6s0,0.4,0.1,0.6h-0.2c0-0.1,0-0.2-0.1-0.3
		c0-0.1-0.1-0.2-0.2-0.3c-0.1-0.1-0.2-0.2-0.3-0.2c-0.1-0.1-0.3-0.1-0.4-0.1h-1c-0.1,0-0.2,0-0.3,0c-0.1,0-0.1,0.1-0.2,0.1
		c0,0.1-0.1,0.1-0.1,0.2c0,0.1,0,0.2,0,0.4v1.6c0,0,0,0.1,0,0.1c0,0,0.1,0.1,0.1,0.1h0.3c0.2,0,0.3,0,0.5-0.1c0.1,0,0.2-0.1,0.3-0.2
		c0.1-0.1,0.1-0.2,0.1-0.2c0-0.1,0-0.2,0-0.3h0.2v1.7h-0.2c0-0.1,0-0.2,0-0.3c0-0.1-0.1-0.2-0.1-0.2c-0.1-0.1-0.2-0.1-0.3-0.2
		c-0.1,0-0.3-0.1-0.5-0.1h-0.3c0,0-0.1,0-0.1,0.1c0,0,0,0.1,0,0.1v2.2c0,0.1,0,0.3,0,0.4c0,0.1,0,0.2,0.1,0.2c0,0.1,0.1,0.1,0.2,0.1
		c0.1,0,0.2,0,0.3,0h1c0.2,0,0.3,0,0.4-0.1c0.1-0.1,0.2-0.1,0.3-0.2c0.1-0.1,0.1-0.2,0.2-0.3c0-0.1,0.1-0.2,0.1-0.3h0.2
		c0,0.2,0,0.4-0.1,0.6c0,0.2,0,0.4-0.1,0.6h-4.3v-0.2c0.1,0,0.2,0,0.3,0c0.1,0,0.1-0.1,0.2-0.1c0-0.1,0.1-0.1,0.1-0.2
		c0-0.1,0-0.2,0-0.4v-4.3c0-0.1,0-0.3,0-0.4c0-0.1,0-0.2-0.1-0.2c0-0.1-0.1-0.1-0.2-0.1c-0.1,0-0.2,0-0.3,0v-0.2H-129.4z"/>
	<path id="XMLID_72_" class="st4" d="M-129.4,468.1c0,0.2,0,0.4,0.1,0.6s0,0.4,0.1,0.6h-0.2c0-0.1,0-0.2-0.1-0.3
		c0-0.1-0.1-0.2-0.2-0.3c-0.1-0.1-0.2-0.2-0.3-0.2c-0.1-0.1-0.3-0.1-0.4-0.1h-1c-0.1,0-0.2,0-0.3,0c-0.1,0-0.1,0.1-0.2,0.1
		c0,0.1-0.1,0.1-0.1,0.2c0,0.1,0,0.2,0,0.4v1.6c0,0,0,0.1,0,0.1c0,0,0.1,0.1,0.1,0.1h0.3c0.2,0,0.3,0,0.5-0.1c0.1,0,0.2-0.1,0.3-0.2
		c0.1-0.1,0.1-0.2,0.1-0.2c0-0.1,0-0.2,0-0.3h0.2v1.7h-0.2c0-0.1,0-0.2,0-0.3c0-0.1-0.1-0.2-0.1-0.2c-0.1-0.1-0.2-0.1-0.3-0.2
		c-0.1,0-0.3-0.1-0.5-0.1h-0.3c0,0-0.1,0-0.1,0.1c0,0,0,0.1,0,0.1v2.2c0,0.1,0,0.3,0,0.4c0,0.1,0,0.2,0.1,0.2c0,0.1,0.1,0.1,0.2,0.1
		c0.1,0,0.2,0,0.3,0h1c0.2,0,0.3,0,0.4-0.1c0.1-0.1,0.2-0.1,0.3-0.2c0.1-0.1,0.1-0.2,0.2-0.3c0-0.1,0.1-0.2,0.1-0.3h0.2
		c0,0.2,0,0.4-0.1,0.6c0,0.2,0,0.4-0.1,0.6h-4.3v-0.2c0.1,0,0.2,0,0.3,0c0.1,0,0.1-0.1,0.2-0.1c0-0.1,0.1-0.1,0.1-0.2
		c0-0.1,0-0.2,0-0.4v-4.3c0-0.1,0-0.3,0-0.4c0-0.1,0-0.2-0.1-0.2c0-0.1-0.1-0.1-0.2-0.1c-0.1,0-0.2,0-0.3,0v-0.2H-129.4z"/>
</g>
</svg>
