<?xml version="1.0" encoding="utf-8"?>
<!-- Generator: Adobe Illustrator 19.0.0, SVG Export Plug-In . SVG Version: 6.00 Build 0)  -->
<svg version="1.1" id="Layer_1" xmlns="http://www.w3.org/2000/svg" xmlns:xlink="http://www.w3.org/1999/xlink" x="0px" y="0px"
	 viewBox="-234 300 143 194" style="enable-background:new -234 300 143 194;" xml:space="preserve">
<style type="text/css">
	.st0{fill:#1F405C;}
	.st1{fill:#FFFFFF;}
	.st2{clip-path:url(#XMLID_154_);}
	.st3{clip-path:url(#XMLID_155_);fill:#FCFDFF;}
</style>
<g>
	<polygon id="XMLID_246_" class="st0" points="-231.1,347.9 -198.1,303.7 -125.5,303.7 -93.9,347.9 -93.9,478.5 -231.1,478.5 	"/>
	<g id="XMLID_12_">
		<path id="XMLID_13_" class="st1" d="M-203.2,374.2c1.1,0,2.1,0.2,3,0.6c0.9,0.4,1.6,0.9,2.2,1.5c0.6,0.6,1,1.4,1.4,2.3
			c0.3,0.9,0.5,1.8,0.5,2.8c0,1-0.2,1.9-0.5,2.8c-0.3,0.9-0.8,1.6-1.4,2.3c-0.6,0.6-1.3,1.1-2.2,1.5c-0.9,0.4-1.9,0.6-3,0.6h-5.7
			v-0.4c0.3,0,0.5,0,0.7-0.1c0.2-0.1,0.3-0.2,0.4-0.3c0.1-0.1,0.2-0.3,0.2-0.6c0-0.2,0-0.5,0-0.8v-9.9c0-0.3,0-0.6,0-0.8
			c0-0.2-0.1-0.4-0.2-0.6c-0.1-0.1-0.2-0.3-0.4-0.3c-0.2-0.1-0.4-0.1-0.7-0.1v-0.4H-203.2z M-205.1,386.3c0,0.3,0,0.6,0,0.8
			c0,0.2,0.1,0.4,0.2,0.6c0.1,0.1,0.2,0.2,0.4,0.3c0.2,0.1,0.4,0.1,0.7,0.1h0.6c0.9,0,1.6-0.2,2.2-0.5c0.6-0.4,1.1-0.8,1.4-1.4
			c0.3-0.6,0.6-1.3,0.7-2.1s0.2-1.7,0.2-2.6c0-0.9-0.1-1.8-0.2-2.6s-0.4-1.5-0.7-2.1c-0.3-0.6-0.8-1.1-1.4-1.4
			c-0.6-0.4-1.3-0.5-2.2-0.5h-0.6c-0.3,0-0.5,0-0.7,0.1c-0.2,0.1-0.3,0.2-0.4,0.3c-0.1,0.1-0.2,0.3-0.2,0.6c0,0.2,0,0.5,0,0.8V386.3
			z"/>
		<path id="XMLID_16_" class="st1" d="M-190.7,388v0.4h-5.1V388c0.3,0,0.5,0,0.7-0.1c0.2-0.1,0.3-0.2,0.4-0.3
			c0.1-0.1,0.2-0.3,0.2-0.6s0-0.5,0-0.8v-9.9c0-0.3,0-0.6,0-0.8s-0.1-0.4-0.2-0.6c-0.1-0.1-0.2-0.3-0.4-0.3
			c-0.2-0.1-0.4-0.1-0.7-0.1v-0.4h5.1v0.4c-0.3,0-0.5,0-0.7,0.1c-0.2,0.1-0.3,0.2-0.4,0.3c-0.1,0.1-0.2,0.3-0.2,0.6s0,0.5,0,0.8v9.9
			c0,0.3,0,0.6,0,0.8s0.1,0.4,0.2,0.6c0.1,0.1,0.2,0.2,0.4,0.3C-191.3,388-191,388-190.7,388z"/>
		<path id="XMLID_18_" class="st1" d="M-186.4,384.9c-0.2,0-0.3,0.1-0.4,0.1c-0.1,0.1-0.2,0.2-0.3,0.4l-0.3,0.8
			c-0.1,0.4-0.2,0.7-0.3,0.9c0,0.2,0,0.4,0,0.5c0,0.1,0.1,0.2,0.3,0.3c0.1,0,0.3,0.1,0.6,0.1v0.4h-2.9V388c0.3,0,0.6,0,0.9-0.1
			c0.2-0.1,0.4-0.3,0.5-0.6l4.7-13.2h0.6l4.7,13.2c0.1,0.3,0.3,0.5,0.5,0.6c0.2,0.1,0.6,0.1,1,0.1v0.4h-5.1V388c0.6,0,0.9-0.1,1-0.4
			c0.1-0.2,0-0.7-0.3-1.4l-0.7-2.1c-0.1-0.3-0.4-0.4-0.8-0.3L-186.4,384.9z M-184,378.2c-0.1-0.2-0.2-0.3-0.3-0.3
			c-0.1,0-0.2,0.1-0.3,0.3l-2.1,6c0,0.1,0,0.2,0,0.2c0,0.1,0.1,0.1,0.3,0l3.6-1c0.2,0,0.3-0.1,0.3-0.2c0.1-0.1,0.1-0.3,0-0.5
			L-184,378.2z"/>
		<path id="XMLID_21_" class="st1" d="M-164.5,374.1h3.8v0.4c-0.3,0-0.5,0-0.7,0.1c-0.2,0.1-0.3,0.2-0.4,0.3
			c-0.1,0.1-0.2,0.3-0.2,0.6c0,0.2,0,0.5,0,0.8v9.9c0,0.3,0,0.6,0,0.8c0,0.2,0.1,0.4,0.2,0.6c0.1,0.1,0.2,0.2,0.4,0.3
			c0.2,0.1,0.4,0.1,0.7,0.1v0.4h-5.1V388c0.3,0,0.5,0,0.7-0.1c0.2-0.1,0.3-0.2,0.4-0.3c0.1-0.1,0.2-0.3,0.2-0.6s0-0.5,0-0.8V377
			c0-0.1,0-0.2-0.1-0.3c0-0.1-0.1-0.1-0.1-0.1c0,0-0.1,0-0.2,0.1c-0.1,0.1-0.1,0.2-0.2,0.4l-4,11.5h-0.6l-4-11.5
			c-0.1-0.2-0.1-0.3-0.2-0.3c0-0.1-0.1-0.1-0.1-0.1c0,0-0.1,0.1-0.1,0.1c0,0.1,0,0.2,0,0.3v9.3c0,0.4,0,0.7,0.1,0.9
			c0,0.2,0.1,0.4,0.2,0.5s0.2,0.2,0.4,0.3c0.2,0,0.4,0.1,0.6,0.1v0.4h-2.9V388c0.2,0,0.4,0,0.6-0.1c0.2,0,0.3-0.1,0.4-0.3
			c0.1-0.1,0.2-0.3,0.2-0.5c0-0.2,0.1-0.5,0.1-0.9v-9.9c0-0.6-0.1-1.1-0.2-1.4c-0.2-0.3-0.5-0.4-1-0.4v-0.4h3.5l3.8,10.6
			c0.1,0.3,0.2,0.3,0.3,0L-164.5,374.1z"/>
		<path id="XMLID_23_" class="st1" d="M-153.3,374.2c1.1,0,2.1,0.2,3,0.6c0.9,0.4,1.6,0.9,2.2,1.5c0.6,0.7,1,1.4,1.4,2.3
			c0.3,0.9,0.5,1.8,0.5,2.8c0,1-0.2,1.9-0.5,2.8c-0.3,0.9-0.8,1.6-1.4,2.3c-0.6,0.6-1.3,1.2-2.2,1.5c-0.9,0.4-1.9,0.6-3,0.6
			s-2.1-0.2-3-0.6c-0.9-0.4-1.6-0.9-2.2-1.5c-0.6-0.6-1-1.4-1.4-2.3s-0.5-1.8-0.5-2.8c0-1,0.2-1.9,0.5-2.8c0.3-0.9,0.8-1.6,1.4-2.3
			s1.3-1.2,2.2-1.5C-155.4,374.4-154.4,374.2-153.3,374.2z M-148.8,381.4c0-0.9-0.1-1.8-0.2-2.6c-0.1-0.8-0.4-1.5-0.7-2.2
			c-0.3-0.6-0.8-1.1-1.4-1.5c-0.6-0.4-1.3-0.5-2.2-0.5c-0.9,0-1.6,0.2-2.2,0.5c-0.6,0.4-1.1,0.8-1.4,1.5c-0.3,0.6-0.6,1.3-0.7,2.2
			c-0.1,0.8-0.2,1.7-0.2,2.6s0.1,1.8,0.2,2.6c0.1,0.8,0.4,1.5,0.7,2.1c0.3,0.6,0.8,1.1,1.4,1.5c0.6,0.4,1.3,0.5,2.2,0.5
			c0.9,0,1.6-0.2,2.2-0.5c0.6-0.4,1.1-0.8,1.4-1.5c0.3-0.6,0.6-1.3,0.7-2.1C-148.8,383.2-148.8,382.3-148.8,381.4z"/>
		<path id="XMLID_26_" class="st1" d="M-135.6,383.6c0.2,0.3,0.4,0.4,0.5,0.4c0.1,0,0.2-0.2,0.2-0.4v-7.2c0-0.4,0-0.7-0.1-0.9
			c0-0.2-0.1-0.4-0.2-0.5s-0.2-0.2-0.4-0.3c-0.2,0-0.4-0.1-0.6-0.1v-0.4h2.9v0.4c-0.2,0-0.4,0-0.6,0.1c-0.2,0-0.3,0.1-0.4,0.3
			s-0.2,0.3-0.2,0.5c0,0.2-0.1,0.5-0.1,0.9v12.1h-0.6l-8.2-11.5c-0.2-0.3-0.4-0.4-0.5-0.4c-0.1,0.1-0.1,0.2-0.1,0.4v9.3
			c0,0.4,0,0.7,0.1,0.9c0,0.2,0.1,0.4,0.2,0.5s0.2,0.2,0.4,0.3c0.2,0,0.4,0.1,0.6,0.1v0.4h-2.9V388c0.2,0,0.4,0,0.6-0.1
			c0.2,0,0.3-0.1,0.4-0.3c0.1-0.1,0.2-0.3,0.2-0.5c0-0.2,0.1-0.5,0.1-0.9v-9.9c0-0.6-0.1-1.1-0.2-1.4c-0.1-0.3-0.5-0.4-1-0.4v-0.4
			h3.4L-135.6,383.6z"/>
		<path id="XMLID_28_" class="st1" d="M-126.6,374.2c1.1,0,2.1,0.2,3,0.6c0.9,0.4,1.6,0.9,2.2,1.5c0.6,0.6,1,1.4,1.4,2.3
			c0.3,0.9,0.5,1.8,0.5,2.8c0,1-0.2,1.9-0.5,2.8c-0.3,0.9-0.8,1.6-1.4,2.3c-0.6,0.6-1.3,1.1-2.2,1.5c-0.9,0.4-1.9,0.6-3,0.6h-5.7
			v-0.4c0.3,0,0.5,0,0.7-0.1c0.2-0.1,0.3-0.2,0.4-0.3c0.1-0.1,0.2-0.3,0.2-0.6c0-0.2,0-0.5,0-0.8v-9.9c0-0.3,0-0.6,0-0.8
			c0-0.2-0.1-0.4-0.2-0.6c-0.1-0.1-0.2-0.3-0.4-0.3c-0.2-0.1-0.4-0.1-0.7-0.1v-0.4H-126.6z M-128.5,386.3c0,0.3,0,0.6,0,0.8
			c0,0.2,0.1,0.4,0.2,0.6c0.1,0.1,0.2,0.2,0.4,0.3c0.2,0.1,0.4,0.1,0.7,0.1h0.6c0.9,0,1.6-0.2,2.2-0.5c0.6-0.4,1.1-0.8,1.4-1.4
			c0.3-0.6,0.6-1.3,0.7-2.1s0.2-1.7,0.2-2.6c0-0.9-0.1-1.8-0.2-2.6s-0.4-1.5-0.7-2.1c-0.3-0.6-0.8-1.1-1.4-1.4
			c-0.6-0.4-1.3-0.5-2.2-0.5h-0.6c-0.3,0-0.5,0-0.7,0.1c-0.2,0.1-0.3,0.2-0.4,0.3c-0.1,0.1-0.2,0.3-0.2,0.6c0,0.2,0,0.5,0,0.8V386.3
			z"/>
	</g>
	<g id="XMLID_1_">
		<path id="XMLID_2_" class="st1" d="M-186.9,395.3c0.1,1,0.2,2,0.3,3c0.1,1,0.2,2,0.3,3h-1.2c-0.1-0.6-0.2-1.2-0.4-1.8
			c-0.2-0.6-0.5-1.1-0.9-1.6c-0.4-0.5-1-0.9-1.6-1.2c-0.6-0.3-1.4-0.5-2.3-0.5h-5.2c-0.7,0-1.2,0.1-1.6,0.2
			c-0.4,0.1-0.7,0.4-0.9,0.7c-0.2,0.3-0.3,0.8-0.4,1.3c-0.1,0.5-0.1,1.2-0.1,1.9v8.2c0,0.2,0.1,0.4,0.2,0.6c0.2,0.2,0.4,0.3,0.6,0.3
			h1.4c1,0,1.8-0.1,2.4-0.3c0.6-0.2,1.1-0.5,1.5-0.9c0.4-0.4,0.6-0.8,0.7-1.3c0.1-0.5,0.2-1,0.2-1.6h1.1v9.1h-1.1
			c0-0.6-0.1-1.1-0.2-1.6c-0.1-0.5-0.4-0.9-0.7-1.3c-0.4-0.4-0.9-0.6-1.5-0.9c-0.6-0.2-1.4-0.3-2.4-0.3h-1.4c-0.3,0-0.5,0.1-0.6,0.3
			c-0.2,0.2-0.2,0.4-0.2,0.6v11.8c0,0.7,0,1.4,0.1,1.9c0.1,0.5,0.2,0.9,0.4,1.3c0.2,0.3,0.5,0.6,0.9,0.7c0.4,0.1,0.9,0.2,1.6,0.2v1
			h-11.6v-1c0.7,0,1.2-0.1,1.6-0.2c0.4-0.1,0.7-0.4,0.9-0.7c0.2-0.3,0.3-0.7,0.4-1.3c0.1-0.5,0.1-1.2,0.1-1.9v-22.7
			c0-0.7,0-1.4-0.1-1.9c-0.1-0.5-0.2-1-0.4-1.3c-0.2-0.3-0.5-0.6-0.9-0.7c-0.4-0.1-0.9-0.2-1.6-0.2v-1H-186.9z"/>
		<path id="XMLID_4_" class="st1" d="M-184.3,419.9c-0.4,0.1-0.7,0.2-0.9,0.3c-0.2,0.1-0.4,0.4-0.6,0.9l-0.7,1.9
			c-0.3,0.9-0.5,1.6-0.6,2.1c-0.1,0.5-0.1,0.9,0,1.2c0.1,0.3,0.3,0.5,0.7,0.6c0.3,0.1,0.8,0.2,1.3,0.2v1h-6.7v-1
			c0.8,0,1.4-0.1,2-0.3c0.5-0.2,1-0.7,1.2-1.5l10.7-30.2h1.5l10.7,30.3c0.3,0.7,0.7,1.2,1.2,1.4c0.6,0.2,1.3,0.2,2.3,0.2v1H-174v-1
			c1.4,0,2.1-0.3,2.3-0.8c0.2-0.6,0-1.7-0.6-3.3l-1.7-4.8c-0.3-0.6-0.9-0.9-1.7-0.7L-184.3,419.9z M-178.7,404.6
			c-0.2-0.5-0.4-0.8-0.7-0.8c-0.2,0-0.4,0.3-0.6,0.8l-4.9,13.7c-0.1,0.2-0.1,0.4,0,0.5c0,0.1,0.3,0.2,0.8,0l8.3-2.2
			c0.4-0.1,0.6-0.3,0.8-0.5c0.2-0.2,0.2-0.6-0.1-1.3L-178.7,404.6z"/>
		<path id="XMLID_7_" class="st1" d="M-148.2,427.2v1h-11.7v-1c0.7,0,1.2-0.1,1.6-0.2c0.4-0.1,0.7-0.4,0.9-0.7
			c0.2-0.3,0.3-0.8,0.4-1.3c0.1-0.5,0.1-1.2,0.1-1.9v-22.7c0-0.7,0-1.4-0.1-1.9c-0.1-0.5-0.2-0.9-0.4-1.3c-0.2-0.3-0.5-0.6-0.9-0.7
			s-0.9-0.2-1.6-0.2v-1h11.7v1c-0.7,0-1.2,0.1-1.6,0.2s-0.7,0.4-0.9,0.7c-0.2,0.3-0.3,0.8-0.4,1.3c-0.1,0.5-0.1,1.1-0.1,1.9V423
			c0,0.7,0,1.4,0.1,1.9c0.1,0.5,0.2,1,0.4,1.3c0.2,0.3,0.5,0.6,0.9,0.7C-149.4,427.1-148.9,427.2-148.2,427.2z"/>
		<path id="XMLID_9_" class="st1" d="M-134.5,395.3c0.7,0,1.6,0,2.5,0c0.9,0,1.8,0.1,2.8,0.3c0.9,0.2,1.8,0.4,2.7,0.8
			c0.9,0.3,1.7,0.8,2.3,1.4c0.7,0.6,1.2,1.4,1.6,2.4c0.4,1,0.6,2.2,0.6,3.6c0,1.2-0.2,2.2-0.5,3.1c-0.4,0.9-0.8,1.6-1.5,2.3
			c-0.6,0.6-1.3,1.2-2.2,1.6c-0.8,0.5-1.7,0.8-2.6,1.2l6.6,12.3c0.7,1.2,1.4,2,2,2.4c0.7,0.4,1.4,0.6,2.1,0.6v1h-6.2
			c-0.4,0-0.7-0.1-1-0.3c-0.3-0.2-0.5-0.4-0.7-0.7l-7.2-13.4c-0.2-0.4-0.4-0.5-0.8-0.5c-0.3,0-0.6,0.1-0.9,0.1l-1.6,0.4
			c-0.6,0.2-0.9,0.6-0.9,1.3v7.9c0,0.7,0,1.4,0.1,1.9c0.1,0.5,0.2,1,0.4,1.3c0.2,0.3,0.5,0.6,0.9,0.7c0.4,0.1,0.9,0.2,1.6,0.2v1
			h-11.7v-1c0.7,0,1.2-0.1,1.6-0.2c0.4-0.1,0.7-0.4,0.9-0.7c0.2-0.3,0.3-0.8,0.4-1.3c0.1-0.5,0.1-1.2,0.1-1.9v-22.7
			c0-0.7,0-1.4-0.1-1.9c-0.1-0.5-0.2-0.9-0.4-1.3c-0.2-0.3-0.5-0.6-0.9-0.7s-0.9-0.2-1.6-0.2v-1H-134.5z M-137.2,412.3
			c0,0.2,0.1,0.4,0.3,0.5c0.2,0.1,0.4,0.2,0.7,0.1l1.6-0.4c0.9-0.2,1.8-0.6,2.6-1c0.9-0.4,1.6-1,2.3-1.7c0.7-0.7,1.2-1.5,1.6-2.5
			c0.4-1,0.6-2.2,0.6-3.5c0-1.5-0.2-2.7-0.7-3.7c-0.5-1-1.1-1.7-1.7-2.3s-1.4-0.9-2.3-1.2c-0.8-0.2-1.5-0.4-2.2-0.4
			c-1.2,0.1-2,0.4-2.3,1c-0.3,0.6-0.5,1.7-0.5,3.1V412.3z"/>
	</g>
	<g id="XMLID_31_">
		<path id="XMLID_32_" class="st1" d="M-200.6,432.4c0.6,0,1.2,0,1.8,0c0.7,0,1.4,0.1,2.1,0.2c0.7,0.1,1.4,0.3,2,0.6
			c0.7,0.3,1.2,0.6,1.7,1.1c0.5,0.5,0.9,1.1,1.2,1.8c0.3,0.7,0.5,1.6,0.5,2.7c0,0.8-0.1,1.7-0.4,2.4c-0.3,0.8-0.7,1.5-1.3,2
			c-0.6,0.6-1.3,1-2.1,1.4c-0.8,0.3-1.8,0.5-3,0.5h-4c-0.2,0-0.4,0.1-0.5,0.2c-0.1,0.1-0.2,0.3-0.2,0.4v7.4c0,0.6,0,1,0.1,1.4
			c0,0.4,0.1,0.7,0.3,1c0.1,0.2,0.4,0.4,0.7,0.5c0.3,0.1,0.7,0.2,1.2,0.2v0.7h-8.7v-0.7c0.5,0,0.9-0.1,1.2-0.2
			c0.3-0.1,0.5-0.3,0.7-0.5c0.2-0.2,0.3-0.6,0.3-1c0-0.4,0.1-0.9,0.1-1.4v-16.9c0-0.6,0-1-0.1-1.4c0-0.4-0.2-0.7-0.3-1
			c-0.2-0.3-0.4-0.4-0.7-0.5c-0.3-0.1-0.7-0.2-1.2-0.2v-0.7H-200.6z M-202.7,443.7c0,0.2,0.1,0.3,0.2,0.5c0.1,0.1,0.3,0.2,0.5,0.2
			h1.2c0.7,0,1.4-0.1,2-0.3c0.6-0.2,1.2-0.5,1.7-1c0.5-0.4,0.9-1,1.2-1.7c0.3-0.7,0.4-1.6,0.4-2.6c0-1.1-0.2-2-0.5-2.8
			c-0.4-0.7-0.8-1.3-1.3-1.7c-0.5-0.4-1.1-0.7-1.7-0.9c-0.6-0.2-1.2-0.3-1.6-0.3c-0.5,0-0.8,0.1-1.1,0.2c-0.3,0.1-0.5,0.3-0.6,0.5
			c-0.1,0.2-0.2,0.6-0.3,0.9s-0.1,0.8-0.1,1.4V443.7z"/>
		<path id="XMLID_35_" class="st1" d="M-181.8,432.4c0.6,0,1.2,0,1.9,0c0.7,0,1.4,0.1,2.1,0.2c0.7,0.1,1.4,0.3,2,0.6
			c0.7,0.3,1.2,0.6,1.8,1.1c0.5,0.5,0.9,1.1,1.2,1.8c0.3,0.7,0.5,1.6,0.5,2.7c0,0.9-0.1,1.6-0.4,2.3c-0.3,0.7-0.6,1.2-1.1,1.7
			c-0.5,0.5-1,0.9-1.6,1.2c-0.6,0.3-1.3,0.6-2,0.9l4.9,9.2c0.5,0.9,1,1.5,1.5,1.8c0.5,0.3,1,0.4,1.6,0.4v0.7h-4.6
			c-0.3,0-0.5-0.1-0.7-0.2c-0.2-0.1-0.4-0.3-0.5-0.5l-5.4-10c-0.1-0.3-0.3-0.4-0.6-0.4c-0.2,0-0.5,0.1-0.7,0.1l-1.2,0.3
			c-0.5,0.1-0.7,0.4-0.7,0.9v5.9c0,0.6,0,1,0.1,1.4c0,0.4,0.2,0.7,0.3,1c0.2,0.2,0.4,0.4,0.7,0.5c0.3,0.1,0.7,0.2,1.2,0.2v0.7h-8.7
			v-0.7c0.5,0,0.9-0.1,1.2-0.2c0.3-0.1,0.5-0.3,0.7-0.5c0.2-0.2,0.3-0.6,0.3-1c0-0.4,0.1-0.9,0.1-1.4v-16.9c0-0.6,0-1-0.1-1.4
			c0-0.4-0.2-0.7-0.3-1c-0.2-0.3-0.4-0.4-0.7-0.5c-0.3-0.1-0.7-0.2-1.2-0.2v-0.7H-181.8z M-183.8,445.1c0,0.2,0.1,0.3,0.2,0.4
			c0.1,0.1,0.3,0.1,0.5,0.1l1.2-0.3c0.7-0.2,1.3-0.4,2-0.7c0.6-0.3,1.2-0.7,1.7-1.3c0.5-0.5,0.9-1.1,1.2-1.9
			c0.3-0.7,0.5-1.6,0.5-2.6c0-1.1-0.2-2-0.5-2.8c-0.4-0.7-0.8-1.3-1.3-1.7c-0.5-0.4-1.1-0.7-1.7-0.9c-0.6-0.2-1.1-0.3-1.6-0.3
			c-0.9,0-1.5,0.3-1.7,0.8c-0.2,0.5-0.3,1.2-0.3,2.3V445.1z"/>
		<path id="XMLID_38_" class="st1" d="M-158.9,456.3v0.7h-8.7v-0.7c0.5,0,0.9-0.1,1.2-0.2c0.3-0.1,0.5-0.3,0.7-0.5
			c0.2-0.2,0.3-0.6,0.3-1c0-0.4,0.1-0.9,0.1-1.4v-16.9c0-0.6,0-1-0.1-1.4s-0.2-0.7-0.3-1c-0.2-0.3-0.4-0.4-0.7-0.5
			c-0.3-0.1-0.7-0.2-1.2-0.2v-0.7h8.7v0.7c-0.5,0-0.9,0.1-1.2,0.2c-0.3,0.1-0.5,0.3-0.7,0.5c-0.2,0.3-0.3,0.6-0.3,1
			c0,0.4-0.1,0.9-0.1,1.4v16.9c0,0.6,0,1,0.1,1.4c0,0.4,0.2,0.7,0.3,1c0.2,0.2,0.4,0.4,0.7,0.5
			C-159.8,456.2-159.4,456.3-158.9,456.3z"/>
		<path id="XMLID_40_" class="st1" d="M-145.7,432.5c2.2,0,4,0.4,5.4,1.3c0.5,0.3,1,0.5,1.3,0.6c0.3,0.1,0.6,0.1,0.8,0
			c0.2-0.1,0.3-0.3,0.4-0.6c0.1-0.3,0.1-0.7,0.1-1.3h0.8v6.7h-0.8c0-1-0.3-2-1-2.9s-1.5-1.6-2.5-2.1c-1.2-0.6-2.7-0.9-4.4-0.9
			c-1.3,0-2.4,0.3-3.4,0.9c-1,0.6-1.8,1.4-2.4,2.5c-0.7,1.1-1.1,2.3-1.5,3.7c-0.3,1.4-0.5,2.9-0.5,4.5c0,1.6,0.1,3.1,0.4,4.5
			c0.2,1.4,0.7,2.6,1.3,3.7c0.6,1.1,1.4,1.9,2.4,2.5c1,0.6,2.3,0.9,3.8,0.9c3.9,0,6.5-1.5,7.9-4.6h0.9c-0.7,1.6-1.7,2.9-3.1,3.9
			c-1.4,1-3.3,1.5-5.7,1.5c-1.9,0-3.7-0.3-5.2-1c-1.5-0.6-2.8-1.5-3.8-2.6c-1-1.1-1.8-2.4-2.3-3.9c-0.5-1.5-0.8-3.1-0.8-4.8
			s0.3-3.3,0.8-4.8c0.5-1.5,1.3-2.8,2.3-3.9c1-1.1,2.3-2,3.8-2.6C-149.3,432.8-147.6,432.5-145.7,432.5z"/>
		<path id="XMLID_42_" class="st1" d="M-118.1,432.5c0.1,0.8,0.1,1.5,0.2,2.2c0.1,0.7,0.2,1.5,0.3,2.3h-0.8c0-0.4-0.2-0.9-0.3-1.3
			c-0.2-0.4-0.4-0.9-0.7-1.2c-0.3-0.4-0.7-0.7-1.2-0.9c-0.5-0.2-1.1-0.3-1.7-0.3h-3.9c-0.5,0-0.9,0.1-1.2,0.2
			c-0.3,0.1-0.5,0.3-0.7,0.5c-0.2,0.3-0.3,0.6-0.3,1c0,0.4-0.1,0.9-0.1,1.4v6.1c0,0.2,0.1,0.3,0.2,0.5c0.1,0.1,0.3,0.2,0.5,0.2h1.1
			c0.7,0,1.3-0.1,1.8-0.2c0.5-0.2,0.8-0.4,1.1-0.7c0.3-0.3,0.4-0.6,0.5-1s0.1-0.8,0.1-1.2h0.8v6.8h-0.8c0-0.4,0-0.8-0.1-1.2
			c-0.1-0.4-0.3-0.7-0.5-1c-0.3-0.3-0.6-0.5-1.1-0.6c-0.5-0.2-1.1-0.2-1.8-0.2h-1.1c-0.2,0-0.4,0.1-0.5,0.2
			c-0.1,0.1-0.2,0.3-0.2,0.5v8.8c0,0.6,0,1,0.1,1.4c0,0.4,0.2,0.7,0.3,0.9c0.2,0.2,0.4,0.4,0.7,0.5c0.3,0.1,0.7,0.2,1.2,0.2h3.9
			c0.7,0,1.3-0.1,1.7-0.3c0.5-0.2,0.9-0.5,1.2-0.9s0.6-0.8,0.7-1.2c0.2-0.4,0.3-0.9,0.3-1.3h0.8c-0.1,0.8-0.2,1.5-0.3,2.3
			c-0.1,0.7-0.1,1.5-0.2,2.2H-135v-0.7c0.5,0,0.9-0.1,1.2-0.2c0.3-0.1,0.5-0.3,0.7-0.5c0.2-0.2,0.3-0.6,0.3-0.9
			c0-0.4,0.1-0.9,0.1-1.4v-17c0-0.6,0-1-0.1-1.4c0-0.4-0.2-0.7-0.3-1c-0.2-0.2-0.4-0.4-0.7-0.5c-0.3-0.1-0.7-0.2-1.2-0.2v-0.7
			H-118.1z"/>
	</g>
	<g id="XMLID_189_">
		<defs>
			<rect id="XMLID_190_" x="-182.8" y="328.8" width="38.7" height="34.6"/>
		</defs>
		<clipPath id="XMLID_154_">
			<use xlink:href="#XMLID_190_"  style="overflow:visible;"/>
		</clipPath>
		<g id="XMLID_191_" class="st2">
			<defs>
				<rect id="XMLID_192_" x="-182.8" y="328.8" width="38.7" height="34.6"/>
			</defs>
			<clipPath id="XMLID_155_">
				<use xlink:href="#XMLID_192_"  style="overflow:visible;"/>
			</clipPath>
			<path id="XMLID_193_" class="st3" d="M-144.1,338.5c0,0.1,0,0.2,0,0.3c0,0.1,0,0.2-0.1,0.3c0,0,0,0.1-0.1,0.1
				c0,0.1-0.1,0.1-0.1,0.1l-0.1,0.1c0,0,0,0,0,0l-18.2,23.4l-0.1,0.1c0,0.1-0.1,0.1-0.1,0.1c-0.2,0.2-0.4,0.3-0.7,0.3
				c-0.3,0-0.7-0.2-0.8-0.4l-18.2-23.5c-0.1-0.1-0.1-0.2-0.2-0.3c0,0,0-0.1-0.1-0.1c0-0.1-0.1-0.2-0.1-0.3c0-0.2,0-0.3,0.1-0.4
				l4.1-9c0,0,0,0,0-0.1c0-0.1,0.1-0.1,0.1-0.2c0,0,0.1-0.1,0.1-0.1c0,0,0.1,0,0.1-0.1c0,0,0,0,0.1,0c0.1,0,0.1-0.1,0.2-0.1
				c0.1,0,0.2,0,0.3,0h0h27.7c0.1,0,0.2,0,0.3,0c0.1,0,0.2,0.1,0.3,0.2c0.1,0,0.1,0.1,0.1,0.1c0,0,0,0,0.1,0.1
				c0,0.1,0.1,0.1,0.1,0.2l4.8,8.8c0,0,0,0.1,0.1,0.1C-144.2,338.3-144.2,338.4-144.1,338.5 M-146.8,337.7l-3.3-6l-4.4,6H-146.8z
				 M-161,357.5l13.8-17.8h-8.6L-161,357.5z M-156.6,337.1l4.6-6.3h-9.7L-156.6,337.1z M-163.4,358.7l5.6-19H-169L-163.4,358.7z
				 M-158.7,337.7l-5.1-6.3l-4.6,6.3H-158.7z M-170.4,337.1l4.6-6.3h-9.7L-170.4,337.1z M-165.9,357.5l-5.2-17.7h-8.6L-165.9,357.5z
				 M-172.5,337.7l-4.9-6l-2.7,6H-172.5z"/>
		</g>
	</g>
	<g id="XMLID_185_">
		<path id="XMLID_69_" class="st0" d="M-163.4,363.8c-0.5,0-0.9-0.2-1.2-0.6l-18.2-23.5c-0.1-0.1-0.2-0.2-0.2-0.4
			c0,0-0.1-0.1-0.1-0.2c0-0.1-0.1-0.3-0.1-0.4c0-0.2,0-0.4,0.1-0.6l4.1-9l0.4,0.1l-0.3-0.2c0-0.1,0.1-0.2,0.2-0.3
			c0,0,0.1-0.1,0.2-0.2c0,0,0.1,0,0.1-0.1l0.1-0.1c0.1-0.1,0.2-0.1,0.3-0.1c0.1,0,0.2-0.1,0.4-0.1h27.7c0.1,0,0.2,0,0.4,0
			c0.2,0,0.3,0.1,0.5,0.2c0.1,0.1,0.2,0.1,0.2,0.2l0.1,0.1c0,0,0.1,0.1,0.1,0.2l4.8,8.9c0,0,0.1,0.1,0.1,0.2c0,0,0.1,0.1,0.1,0.2
			l0,0c0,0.1,0,0.2,0,0.4c0,0.1,0,0.3-0.1,0.5l-0.1,0.2c0,0.1-0.1,0.1-0.1,0.2l-0.1,0.2l-18.2,23.5c-0.1,0.1-0.1,0.1-0.2,0.2
			C-162.7,363.7-163.1,363.8-163.4,363.8z M-178.1,329.3l-0.1,0.2l-4.1,9c0,0.1-0.1,0.2-0.1,0.3c0,0.1,0,0.1,0,0.2l0,0.1
			c0,0.1,0.1,0.1,0.1,0.1l18.3,23.5c0.2,0.3,0.7,0.4,0.9,0.1l0.1-0.2l18.1-23.3v-0.1l0.2-0.1c0,0,0.1-0.1,0.1-0.1l0.4,0.1l-0.4-0.2
			c0,0,0-0.1,0-0.2c0-0.1,0-0.1,0-0.2c0,0,0-0.1-0.1-0.1l-0.1-0.1l-4.8-8.8c0,0,0-0.1-0.1-0.1l-0.1-0.1c-0.1-0.1-0.2-0.1-0.2-0.1
			c0,0-0.1,0-0.2,0h-27.7c-0.1,0-0.1,0-0.2,0L-178.1,329.3L-178.1,329.3z"/>
	</g>
	<g id="XMLID_181_">
		<path id="XMLID_66_" class="st0" d="M-156.5,337.7l-6-7.4h11.4L-156.5,337.7z M-160.8,331.2l4.3,5.2l3.8-5.2H-160.8z"/>
	</g>
	<g id="XMLID_177_">
		<path id="XMLID_63_" class="st0" d="M-157.8,338.1h-11.4l5.3-7.4L-157.8,338.1z M-167.6,337.3h8l-4.3-5.2L-167.6,337.3z"/>
	</g>
	<g id="XMLID_173_">
		<path id="XMLID_60_" class="st0" d="M-170.4,337.7l-6-7.4h11.3L-170.4,337.7z M-174.7,331.2l4.2,5.2l3.8-5.2H-174.7z"/>
	</g>
	<g id="XMLID_169_">
		<path id="XMLID_57_" class="st0" d="M-171.7,338.1h-9.2l3.3-7.2L-171.7,338.1z M-179.5,337.3h6.2l-4-4.8L-179.5,337.3z"/>
	</g>
	<g id="XMLID_165_">
		<path id="XMLID_54_" class="st0" d="M-164.9,359.5l-15.6-20.1h9.7L-164.9,359.5z M-178.9,340.2l11.9,15.4l-4.5-15.4H-178.9z"/>
	</g>
	<g id="XMLID_161_">
		<path id="XMLID_51_" class="st0" d="M-163.4,360.2l-6.1-20.9h12.2L-163.4,360.2z M-168.5,340.2l5,17.1l5-17.1H-168.5z"/>
	</g>
	<g id="XMLID_157_">
		<path id="XMLID_48_" class="st0" d="M-162,359.5l5.9-20.1h9.7L-162,359.5z M-155.5,340.2l-4.5,15.4l11.9-15.4H-155.5z"/>
	</g>
	<g id="XMLID_153_">
		<path id="XMLID_45_" class="st0" d="M-146.1,338.1h-9.2l5.3-7.2L-146.1,338.1z M-153.7,337.3h6.2l-2.6-4.9L-153.7,337.3z"/>
	</g>
	<path id="XMLID_152_" class="st1" d="M-150.1,322.3L-150.1,322.3c1.4-0.5,2.6-1.7,3.1-3.1c0.5,1.4,1.7,2.6,3.1,3.1
		c-1.4,0.5-2.6,1.7-3.1,3.1C-147.6,323.9-148.7,322.8-150.1,322.3"/>
	<path id="XMLID_151_" class="st1" d="M-146,329.2l-0.3-0.1l0.3-0.1c0.8-0.3,1.4-0.9,1.7-1.7l0.1-0.3l0.1,0.3
		c0.3,0.8,0.9,1.4,1.7,1.7l0.3,0.1l-0.3,0.1c-0.8,0.3-1.4,0.9-1.7,1.7l-0.1,0.3l-0.1-0.3C-144.6,330.1-145.2,329.5-146,329.2"/>
	<path id="XMLID_150_" class="st1" d="M-154.4,325.1l-0.2-0.1l0.2-0.1c0.6-0.2,1-0.7,1.2-1.2l0.1-0.2l0.1,0.2c0.2,0.6,0.7,1,1.2,1.2
		l0.2,0.1l-0.2,0.1c-0.6,0.2-1,0.7-1.2,1.2l-0.1,0.2l-0.1-0.2C-153.4,325.7-153.8,325.3-154.4,325.1"/>
	<path id="XMLID_147_" class="st1" d="M-228.6,481.9c0.2,0,0.4,0,0.6,0c0.2,0,0.4,0,0.6,0.1c0.2,0,0.4,0.1,0.6,0.2
		c0.2,0.1,0.4,0.2,0.5,0.3c0.2,0.1,0.3,0.3,0.4,0.5c0.1,0.2,0.1,0.5,0.1,0.8c0,0.3,0,0.5-0.1,0.7c-0.1,0.2-0.2,0.4-0.3,0.5
		c-0.1,0.1-0.3,0.3-0.5,0.4c-0.2,0.1-0.4,0.2-0.6,0.3l1.5,2.8c0.2,0.3,0.3,0.5,0.5,0.5c0.2,0.1,0.3,0.1,0.5,0.1v0.2h-1.4
		c-0.1,0-0.2,0-0.2-0.1c-0.1,0-0.1-0.1-0.2-0.2l-1.6-3c0-0.1-0.1-0.1-0.2-0.1c-0.1,0-0.1,0-0.2,0l-0.4,0.1c-0.1,0-0.2,0.1-0.2,0.3
		v1.8c0,0.2,0,0.3,0,0.4c0,0.1,0,0.2,0.1,0.3c0,0.1,0.1,0.1,0.2,0.2c0.1,0,0.2,0,0.4,0v0.2h-2.6v-0.2c0.2,0,0.3,0,0.4,0
		c0.1,0,0.2-0.1,0.2-0.2c0-0.1,0.1-0.2,0.1-0.3c0-0.1,0-0.3,0-0.4v-5.1c0-0.2,0-0.3,0-0.4c0-0.1,0-0.2-0.1-0.3
		c0-0.1-0.1-0.1-0.2-0.2c-0.1,0-0.2,0-0.4,0v-0.2H-228.6z M-229.2,485.7c0,0.1,0,0.1,0.1,0.1c0,0,0.1,0,0.1,0l0.4-0.1
		c0.2-0.1,0.4-0.1,0.6-0.2c0.2-0.1,0.4-0.2,0.5-0.4c0.1-0.2,0.3-0.3,0.4-0.6c0.1-0.2,0.1-0.5,0.1-0.8c0-0.3-0.1-0.6-0.2-0.8
		c-0.1-0.2-0.2-0.4-0.4-0.5c-0.2-0.1-0.3-0.2-0.5-0.3c-0.2-0.1-0.3-0.1-0.5-0.1c-0.3,0-0.4,0.1-0.5,0.2c-0.1,0.1-0.1,0.4-0.1,0.7
		V485.7z"/>
	<path id="XMLID_144_" class="st1" d="M-228.6,481.9c0.2,0,0.4,0,0.6,0c0.2,0,0.4,0,0.6,0.1c0.2,0,0.4,0.1,0.6,0.2
		c0.2,0.1,0.4,0.2,0.5,0.3c0.2,0.1,0.3,0.3,0.4,0.5c0.1,0.2,0.1,0.5,0.1,0.8c0,0.3,0,0.5-0.1,0.7c-0.1,0.2-0.2,0.4-0.3,0.5
		c-0.1,0.1-0.3,0.3-0.5,0.4c-0.2,0.1-0.4,0.2-0.6,0.3l1.5,2.8c0.2,0.3,0.3,0.5,0.5,0.5c0.2,0.1,0.3,0.1,0.5,0.1v0.2h-1.4
		c-0.1,0-0.2,0-0.2-0.1c-0.1,0-0.1-0.1-0.2-0.2l-1.6-3c0-0.1-0.1-0.1-0.2-0.1c-0.1,0-0.1,0-0.2,0l-0.4,0.1c-0.1,0-0.2,0.1-0.2,0.3
		v1.8c0,0.2,0,0.3,0,0.4c0,0.1,0,0.2,0.1,0.3c0,0.1,0.1,0.1,0.2,0.2c0.1,0,0.2,0,0.4,0v0.2h-2.6v-0.2c0.2,0,0.3,0,0.4,0
		c0.1,0,0.2-0.1,0.2-0.2c0-0.1,0.1-0.2,0.1-0.3c0-0.1,0-0.3,0-0.4v-5.1c0-0.2,0-0.3,0-0.4c0-0.1,0-0.2-0.1-0.3
		c0-0.1-0.1-0.1-0.2-0.2c-0.1,0-0.2,0-0.4,0v-0.2H-228.6z M-229.2,485.7c0,0.1,0,0.1,0.1,0.1c0,0,0.1,0,0.1,0l0.4-0.1
		c0.2-0.1,0.4-0.1,0.6-0.2c0.2-0.1,0.4-0.2,0.5-0.4c0.1-0.2,0.3-0.3,0.4-0.6c0.1-0.2,0.1-0.5,0.1-0.8c0-0.3-0.1-0.6-0.2-0.8
		c-0.1-0.2-0.2-0.4-0.4-0.5c-0.2-0.1-0.3-0.2-0.5-0.3c-0.2-0.1-0.3-0.1-0.5-0.1c-0.3,0-0.4,0.1-0.5,0.2c-0.1,0.1-0.1,0.4-0.1,0.7
		V485.7z"/>
	<path id="XMLID_143_" class="st1" d="M-219.2,481.9c0,0.2,0,0.5,0.1,0.7c0,0.2,0,0.5,0.1,0.7h-0.3c0-0.1,0-0.3-0.1-0.4
		c0-0.1-0.1-0.3-0.2-0.4c-0.1-0.1-0.2-0.2-0.4-0.3c-0.1-0.1-0.3-0.1-0.5-0.1h-1.2c-0.2,0-0.3,0-0.4,0c-0.1,0-0.2,0.1-0.2,0.2
		c0,0.1-0.1,0.2-0.1,0.3c0,0.1,0,0.3,0,0.4v1.8c0,0.1,0,0.1,0.1,0.1c0,0,0.1,0.1,0.1,0.1h0.3c0.2,0,0.4,0,0.5-0.1
		c0.1,0,0.3-0.1,0.3-0.2c0.1-0.1,0.1-0.2,0.2-0.3c0-0.1,0-0.2,0-0.4h0.3v2.1h-0.3c0-0.1,0-0.3,0-0.4c0-0.1-0.1-0.2-0.2-0.3
		c-0.1-0.1-0.2-0.1-0.3-0.2c-0.1,0-0.3-0.1-0.5-0.1h-0.3c-0.1,0-0.1,0-0.1,0.1c0,0-0.1,0.1-0.1,0.1v2.7c0,0.2,0,0.3,0,0.4
		c0,0.1,0,0.2,0.1,0.3c0,0.1,0.1,0.1,0.2,0.2c0.1,0,0.2,0,0.4,0h1.2c0.2,0,0.4,0,0.5-0.1c0.1-0.1,0.3-0.2,0.4-0.3
		c0.1-0.1,0.2-0.2,0.2-0.4c0-0.1,0.1-0.3,0.1-0.4h0.3c0,0.2-0.1,0.5-0.1,0.7c0,0.2,0,0.4-0.1,0.7h-5.1v-0.2c0.2,0,0.3,0,0.4,0
		c0.1,0,0.2-0.1,0.2-0.2c0-0.1,0.1-0.2,0.1-0.3c0-0.1,0-0.3,0-0.4v-5.1c0-0.2,0-0.3,0-0.4c0-0.1,0-0.2-0.1-0.3
		c0-0.1-0.1-0.1-0.2-0.2c-0.1,0-0.2,0-0.4,0v-0.2H-219.2z"/>
	<path id="XMLID_142_" class="st1" d="M-219.2,481.9c0,0.2,0,0.5,0.1,0.7c0,0.2,0,0.5,0.1,0.7h-0.3c0-0.1,0-0.3-0.1-0.4
		c0-0.1-0.1-0.3-0.2-0.4c-0.1-0.1-0.2-0.2-0.4-0.3c-0.1-0.1-0.3-0.1-0.5-0.1h-1.2c-0.2,0-0.3,0-0.4,0c-0.1,0-0.2,0.1-0.2,0.2
		c0,0.1-0.1,0.2-0.1,0.3c0,0.1,0,0.3,0,0.4v1.8c0,0.1,0,0.1,0.1,0.1c0,0,0.1,0.1,0.1,0.1h0.3c0.2,0,0.4,0,0.5-0.1
		c0.1,0,0.3-0.1,0.3-0.2c0.1-0.1,0.1-0.2,0.2-0.3c0-0.1,0-0.2,0-0.4h0.3v2.1h-0.3c0-0.1,0-0.3,0-0.4c0-0.1-0.1-0.2-0.2-0.3
		c-0.1-0.1-0.2-0.1-0.3-0.2c-0.1,0-0.3-0.1-0.5-0.1h-0.3c-0.1,0-0.1,0-0.1,0.1c0,0-0.1,0.1-0.1,0.1v2.7c0,0.2,0,0.3,0,0.4
		c0,0.1,0,0.2,0.1,0.3c0,0.1,0.1,0.1,0.2,0.2c0.1,0,0.2,0,0.4,0h1.2c0.2,0,0.4,0,0.5-0.1c0.1-0.1,0.3-0.2,0.4-0.3
		c0.1-0.1,0.2-0.2,0.2-0.4c0-0.1,0.1-0.3,0.1-0.4h0.3c0,0.2-0.1,0.5-0.1,0.7c0,0.2,0,0.4-0.1,0.7h-5.1v-0.2c0.2,0,0.3,0,0.4,0
		c0.1,0,0.2-0.1,0.2-0.2c0-0.1,0.1-0.2,0.1-0.3c0-0.1,0-0.3,0-0.4v-5.1c0-0.2,0-0.3,0-0.4c0-0.1,0-0.2-0.1-0.3
		c0-0.1-0.1-0.1-0.2-0.2c-0.1,0-0.2,0-0.4,0v-0.2H-219.2z"/>
	<path id="XMLID_139_" class="st1" d="M-216.8,487.5c-0.1,0-0.1,0-0.2,0.1c-0.1,0-0.1,0.1-0.1,0.2l-0.2,0.4
		c-0.1,0.2-0.1,0.4-0.1,0.5c0,0.1,0,0.2,0,0.3c0,0.1,0.1,0.1,0.1,0.1c0.1,0,0.2,0,0.3,0v0.2h-1.5v-0.2c0.2,0,0.3,0,0.4-0.1
		c0.1,0,0.2-0.2,0.3-0.3l2.4-6.8h0.3l2.4,6.8c0.1,0.2,0.2,0.3,0.3,0.3c0.1,0,0.3,0.1,0.5,0.1v0.2h-2.6v-0.2c0.3,0,0.5-0.1,0.5-0.2
		c0-0.1,0-0.4-0.1-0.7l-0.4-1.1c-0.1-0.1-0.2-0.2-0.4-0.2L-216.8,487.5z M-215.6,484c0-0.1-0.1-0.2-0.1-0.2c-0.1,0-0.1,0.1-0.1,0.2
		l-1.1,3.1c0,0,0,0.1,0,0.1c0,0,0.1,0,0.2,0l1.9-0.5c0.1,0,0.1-0.1,0.2-0.1c0-0.1,0-0.1,0-0.3L-215.6,484z"/>
	<path id="XMLID_136_" class="st1" d="M-216.8,487.5c-0.1,0-0.1,0-0.2,0.1c-0.1,0-0.1,0.1-0.1,0.2l-0.2,0.4
		c-0.1,0.2-0.1,0.4-0.1,0.5c0,0.1,0,0.2,0,0.3c0,0.1,0.1,0.1,0.1,0.1c0.1,0,0.2,0,0.3,0v0.2h-1.5v-0.2c0.2,0,0.3,0,0.4-0.1
		c0.1,0,0.2-0.2,0.3-0.3l2.4-6.8h0.3l2.4,6.8c0.1,0.2,0.2,0.3,0.3,0.3c0.1,0,0.3,0.1,0.5,0.1v0.2h-2.6v-0.2c0.3,0,0.5-0.1,0.5-0.2
		c0-0.1,0-0.4-0.1-0.7l-0.4-1.1c-0.1-0.1-0.2-0.2-0.4-0.2L-216.8,487.5z M-215.6,484c0-0.1-0.1-0.2-0.1-0.2c-0.1,0-0.1,0.1-0.1,0.2
		l-1.1,3.1c0,0,0,0.1,0,0.1c0,0,0.1,0,0.2,0l1.9-0.5c0.1,0,0.1-0.1,0.2-0.1c0-0.1,0-0.1,0-0.3L-215.6,484z"/>
	<path id="XMLID_135_" class="st1" d="M-207.5,489.1c0.2,0,0.4,0,0.5-0.1c0.1-0.1,0.3-0.2,0.4-0.3c0.1-0.1,0.2-0.2,0.2-0.4
		c0-0.1,0.1-0.3,0.1-0.4h0.3l-0.1,1.4h-5.1v-0.2c0.2,0,0.3,0,0.4,0c0.1,0,0.2-0.1,0.2-0.2c0-0.1,0.1-0.2,0.1-0.3c0-0.1,0-0.3,0-0.4
		v-5.1c0-0.2,0-0.3,0-0.4c0-0.1,0-0.2-0.1-0.3c0-0.1-0.1-0.1-0.2-0.2c-0.1,0-0.2,0-0.4,0v-0.2h2.6v0.2c-0.2,0-0.3,0-0.4,0
		c-0.1,0-0.2,0.1-0.2,0.2c0,0.1-0.1,0.2-0.1,0.3c0,0.1,0,0.3,0,0.4v5.1c0,0.2,0,0.3,0,0.4c0,0.1,0,0.2,0.1,0.3
		c0,0.1,0.1,0.1,0.2,0.2c0.1,0,0.2,0,0.4,0H-207.5z"/>
	<path id="XMLID_134_" class="st1" d="M-207.5,489.1c0.2,0,0.4,0,0.5-0.1c0.1-0.1,0.3-0.2,0.4-0.3c0.1-0.1,0.2-0.2,0.2-0.4
		c0-0.1,0.1-0.3,0.1-0.4h0.3l-0.1,1.4h-5.1v-0.2c0.2,0,0.3,0,0.4,0c0.1,0,0.2-0.1,0.2-0.2c0-0.1,0.1-0.2,0.1-0.3c0-0.1,0-0.3,0-0.4
		v-5.1c0-0.2,0-0.3,0-0.4c0-0.1,0-0.2-0.1-0.3c0-0.1-0.1-0.1-0.2-0.2c-0.1,0-0.2,0-0.4,0v-0.2h2.6v0.2c-0.2,0-0.3,0-0.4,0
		c-0.1,0-0.2,0.1-0.2,0.2c0,0.1-0.1,0.2-0.1,0.3c0,0.1,0,0.3,0,0.4v5.1c0,0.2,0,0.3,0,0.4c0,0.1,0,0.2,0.1,0.3
		c0,0.1,0.1,0.1,0.2,0.2c0.1,0,0.2,0,0.4,0H-207.5z"/>
	<path id="XMLID_131_" class="st1" d="M-199.9,481.9c0.6,0,1.1,0.1,1.5,0.3c0.4,0.2,0.8,0.5,1.1,0.8c0.3,0.3,0.5,0.7,0.7,1.2
		c0.2,0.5,0.2,0.9,0.2,1.4c0,0.5-0.1,1-0.2,1.4c-0.2,0.4-0.4,0.8-0.7,1.2c-0.3,0.3-0.7,0.6-1.1,0.8c-0.4,0.2-1,0.3-1.5,0.3h-2.9
		v-0.2c0.2,0,0.3,0,0.4,0c0.1,0,0.2-0.1,0.2-0.2c0-0.1,0.1-0.2,0.1-0.3c0-0.1,0-0.3,0-0.4v-5.1c0-0.2,0-0.3,0-0.4
		c0-0.1,0-0.2-0.1-0.3c0-0.1-0.1-0.1-0.2-0.2c-0.1,0-0.2,0-0.4,0v-0.2H-199.9z M-200.9,488.2c0,0.2,0,0.3,0,0.4c0,0.1,0,0.2,0.1,0.3
		c0,0.1,0.1,0.1,0.2,0.2c0.1,0,0.2,0,0.4,0h0.3c0.5,0,0.8-0.1,1.1-0.3c0.3-0.2,0.5-0.4,0.7-0.7c0.2-0.3,0.3-0.7,0.4-1.1
		c0.1-0.4,0.1-0.9,0.1-1.4c0-0.5,0-0.9-0.1-1.4c-0.1-0.4-0.2-0.8-0.4-1.1c-0.2-0.3-0.4-0.6-0.7-0.7c-0.3-0.2-0.7-0.3-1.1-0.3h-0.3
		c-0.2,0-0.3,0-0.4,0c-0.1,0-0.2,0.1-0.2,0.2c0,0.1-0.1,0.2-0.1,0.3c0,0.1,0,0.3,0,0.4V488.2z"/>
	<path id="XMLID_128_" class="st1" d="M-199.9,481.9c0.6,0,1.1,0.1,1.5,0.3c0.4,0.2,0.8,0.5,1.1,0.8c0.3,0.3,0.5,0.7,0.7,1.2
		c0.2,0.5,0.2,0.9,0.2,1.4c0,0.5-0.1,1-0.2,1.4c-0.2,0.4-0.4,0.8-0.7,1.2c-0.3,0.3-0.7,0.6-1.1,0.8c-0.4,0.2-1,0.3-1.5,0.3h-2.9
		v-0.2c0.2,0,0.3,0,0.4,0c0.1,0,0.2-0.1,0.2-0.2c0-0.1,0.1-0.2,0.1-0.3c0-0.1,0-0.3,0-0.4v-5.1c0-0.2,0-0.3,0-0.4
		c0-0.1,0-0.2-0.1-0.3c0-0.1-0.1-0.1-0.2-0.2c-0.1,0-0.2,0-0.4,0v-0.2H-199.9z M-200.9,488.2c0,0.2,0,0.3,0,0.4c0,0.1,0,0.2,0.1,0.3
		c0,0.1,0.1,0.1,0.2,0.2c0.1,0,0.2,0,0.4,0h0.3c0.5,0,0.8-0.1,1.1-0.3c0.3-0.2,0.5-0.4,0.7-0.7c0.2-0.3,0.3-0.7,0.4-1.1
		c0.1-0.4,0.1-0.9,0.1-1.4c0-0.5,0-0.9-0.1-1.4c-0.1-0.4-0.2-0.8-0.4-1.1c-0.2-0.3-0.4-0.6-0.7-0.7c-0.3-0.2-0.7-0.3-1.1-0.3h-0.3
		c-0.2,0-0.3,0-0.4,0c-0.1,0-0.2,0.1-0.2,0.2c0,0.1-0.1,0.2-0.1,0.3c0,0.1,0,0.3,0,0.4V488.2z"/>
	<path id="XMLID_127_" class="st1" d="M-193.4,489.1v0.2h-2.6v-0.2c0.2,0,0.3,0,0.4,0s0.2-0.1,0.2-0.2c0-0.1,0.1-0.2,0.1-0.3
		c0-0.1,0-0.3,0-0.4v-5.1c0-0.2,0-0.3,0-0.4c0-0.1,0-0.2-0.1-0.3c0-0.1-0.1-0.1-0.2-0.2c-0.1,0-0.2,0-0.4,0v-0.2h2.6v0.2
		c-0.2,0-0.3,0-0.4,0c-0.1,0-0.2,0.1-0.2,0.2c0,0.1-0.1,0.2-0.1,0.3c0,0.1,0,0.3,0,0.4v5.1c0,0.2,0,0.3,0,0.4c0,0.1,0,0.2,0.1,0.3
		c0,0.1,0.1,0.1,0.2,0.2C-193.7,489.1-193.6,489.1-193.4,489.1"/>
	<path id="XMLID_126_" class="st1" d="M-193.4,489.1v0.2h-2.6v-0.2c0.2,0,0.3,0,0.4,0s0.2-0.1,0.2-0.2c0-0.1,0.1-0.2,0.1-0.3
		c0-0.1,0-0.3,0-0.4v-5.1c0-0.2,0-0.3,0-0.4c0-0.1,0-0.2-0.1-0.3c0-0.1-0.1-0.1-0.2-0.2c-0.1,0-0.2,0-0.4,0v-0.2h2.6v0.2
		c-0.2,0-0.3,0-0.4,0c-0.1,0-0.2,0.1-0.2,0.2c0,0.1-0.1,0.2-0.1,0.3c0,0.1,0,0.3,0,0.4v5.1c0,0.2,0,0.3,0,0.4c0,0.1,0,0.2,0.1,0.3
		c0,0.1,0.1,0.1,0.2,0.2C-193.7,489.1-193.6,489.1-193.4,489.1z"/>
	<path id="XMLID_123_" class="st1" d="M-191.2,487.5c-0.1,0-0.1,0-0.2,0.1c-0.1,0-0.1,0.1-0.1,0.2l-0.2,0.4
		c-0.1,0.2-0.1,0.4-0.1,0.5c0,0.1,0,0.2,0,0.3c0,0.1,0.1,0.1,0.1,0.1c0.1,0,0.2,0,0.3,0v0.2h-1.5v-0.2c0.2,0,0.3,0,0.4-0.1
		c0.1,0,0.2-0.2,0.3-0.3l2.4-6.8h0.3l2.4,6.8c0.1,0.2,0.2,0.3,0.3,0.3c0.1,0,0.3,0.1,0.5,0.1v0.2h-2.6v-0.2c0.3,0,0.5-0.1,0.5-0.2
		c0-0.1,0-0.4-0.1-0.7l-0.4-1.1c-0.1-0.1-0.2-0.2-0.4-0.2L-191.2,487.5z M-190,484c0-0.1-0.1-0.2-0.1-0.2c-0.1,0-0.1,0.1-0.1,0.2
		l-1.1,3.1c0,0,0,0.1,0,0.1c0,0,0.1,0,0.2,0l1.9-0.5c0.1,0,0.1-0.1,0.2-0.1c0-0.1,0-0.1,0-0.3L-190,484z"/>
	<path id="XMLID_120_" class="st1" d="M-191.2,487.5c-0.1,0-0.1,0-0.2,0.1c-0.1,0-0.1,0.1-0.1,0.2l-0.2,0.4
		c-0.1,0.2-0.1,0.4-0.1,0.5c0,0.1,0,0.2,0,0.3c0,0.1,0.1,0.1,0.1,0.1c0.1,0,0.2,0,0.3,0v0.2h-1.5v-0.2c0.2,0,0.3,0,0.4-0.1
		c0.1,0,0.2-0.2,0.3-0.3l2.4-6.8h0.3l2.4,6.8c0.1,0.2,0.2,0.3,0.3,0.3c0.1,0,0.3,0.1,0.5,0.1v0.2h-2.6v-0.2c0.3,0,0.5-0.1,0.5-0.2
		c0-0.1,0-0.4-0.1-0.7l-0.4-1.1c-0.1-0.1-0.2-0.2-0.4-0.2L-191.2,487.5z M-190,484c0-0.1-0.1-0.2-0.1-0.2c-0.1,0-0.1,0.1-0.1,0.2
		l-1.1,3.1c0,0,0,0.1,0,0.1c0,0,0.1,0,0.2,0l1.9-0.5c0.1,0,0.1-0.1,0.2-0.1c0-0.1,0-0.1,0-0.3L-190,484z"/>
	<path id="XMLID_119_" class="st1" d="M-179.9,481.9h1.9v0.2c-0.2,0-0.3,0-0.4,0c-0.1,0-0.2,0.1-0.2,0.2c0,0.1-0.1,0.2-0.1,0.3
		c0,0.1,0,0.3,0,0.4v5.1c0,0.2,0,0.3,0,0.4c0,0.1,0,0.2,0.1,0.3c0,0.1,0.1,0.1,0.2,0.2c0.1,0,0.2,0,0.4,0v0.2h-2.6v-0.2
		c0.2,0,0.3,0,0.4,0c0.1,0,0.2-0.1,0.2-0.2c0-0.1,0.1-0.2,0.1-0.3c0-0.1,0-0.3,0-0.4v-4.8c0-0.1,0-0.1,0-0.1c0,0,0-0.1-0.1-0.1
		c0,0-0.1,0-0.1,0c0,0-0.1,0.1-0.1,0.2l-2.1,5.9h-0.3l-2.1-5.9c0-0.1-0.1-0.1-0.1-0.2c0,0,0,0-0.1,0c0,0,0,0,0,0.1c0,0,0,0.1,0,0.1
		v4.8c0,0.2,0,0.4,0,0.5c0,0.1,0.1,0.2,0.1,0.3c0,0.1,0.1,0.1,0.2,0.1c0.1,0,0.2,0,0.3,0v0.2h-1.5v-0.2c0.1,0,0.2,0,0.3,0
		c0.1,0,0.1-0.1,0.2-0.1c0-0.1,0.1-0.2,0.1-0.3s0-0.3,0-0.5v-5.1c0-0.3,0-0.6-0.1-0.7s-0.3-0.2-0.5-0.2v-0.2h1.8l1.9,5.5
		c0.1,0.2,0.1,0.2,0.2,0L-179.9,481.9z"/>
	<path id="XMLID_118_" class="st1" d="M-179.9,481.9h1.9v0.2c-0.2,0-0.3,0-0.4,0c-0.1,0-0.2,0.1-0.2,0.2c0,0.1-0.1,0.2-0.1,0.3
		c0,0.1,0,0.3,0,0.4v5.1c0,0.2,0,0.3,0,0.4c0,0.1,0,0.2,0.1,0.3c0,0.1,0.1,0.1,0.2,0.2c0.1,0,0.2,0,0.4,0v0.2h-2.6v-0.2
		c0.2,0,0.3,0,0.4,0c0.1,0,0.2-0.1,0.2-0.2c0-0.1,0.1-0.2,0.1-0.3c0-0.1,0-0.3,0-0.4v-4.8c0-0.1,0-0.1,0-0.1c0,0,0-0.1-0.1-0.1
		c0,0-0.1,0-0.1,0c0,0-0.1,0.1-0.1,0.2l-2.1,5.9h-0.3l-2.1-5.9c0-0.1-0.1-0.1-0.1-0.2c0,0,0,0-0.1,0c0,0,0,0,0,0.1c0,0,0,0.1,0,0.1
		v4.8c0,0.2,0,0.4,0,0.5c0,0.1,0.1,0.2,0.1,0.3c0,0.1,0.1,0.1,0.2,0.1c0.1,0,0.2,0,0.3,0v0.2h-1.5v-0.2c0.1,0,0.2,0,0.3,0
		c0.1,0,0.1-0.1,0.2-0.1c0-0.1,0.1-0.2,0.1-0.3s0-0.3,0-0.5v-5.1c0-0.3,0-0.6-0.1-0.7s-0.3-0.2-0.5-0.2v-0.2h1.8l1.9,5.5
		c0.1,0.2,0.1,0.2,0.2,0L-179.9,481.9z"/>
	<path id="XMLID_115_" class="st1" d="M-174.1,481.9c0.6,0,1.1,0.1,1.5,0.3c0.4,0.2,0.8,0.5,1.1,0.8c0.3,0.3,0.5,0.7,0.7,1.2
		c0.2,0.5,0.2,0.9,0.2,1.4c0,0.5-0.1,1-0.2,1.4c-0.2,0.5-0.4,0.8-0.7,1.2c-0.3,0.3-0.7,0.6-1.1,0.8c-0.4,0.2-1,0.3-1.5,0.3
		c-0.6,0-1.1-0.1-1.5-0.3c-0.4-0.2-0.8-0.5-1.1-0.8c-0.3-0.3-0.5-0.7-0.7-1.2c-0.2-0.5-0.2-0.9-0.2-1.4c0-0.5,0.1-1,0.2-1.4
		c0.2-0.5,0.4-0.8,0.7-1.2s0.7-0.6,1.1-0.8C-175.2,482-174.7,481.9-174.1,481.9 M-171.8,485.6c0-0.5,0-0.9-0.1-1.4
		c-0.1-0.4-0.2-0.8-0.4-1.1c-0.2-0.3-0.4-0.6-0.7-0.8c-0.3-0.2-0.7-0.3-1.1-0.3c-0.5,0-0.8,0.1-1.1,0.3c-0.3,0.2-0.5,0.4-0.7,0.8
		c-0.2,0.3-0.3,0.7-0.4,1.1c-0.1,0.4-0.1,0.9-0.1,1.4s0,0.9,0.1,1.4c0.1,0.4,0.2,0.8,0.4,1.1c0.2,0.3,0.4,0.6,0.7,0.8
		c0.3,0.2,0.7,0.3,1.1,0.3c0.5,0,0.8-0.1,1.1-0.3c0.3-0.2,0.5-0.4,0.7-0.8c0.2-0.3,0.3-0.7,0.4-1.1
		C-171.8,486.6-171.8,486.1-171.8,485.6"/>
	<path id="XMLID_112_" class="st1" d="M-174.1,481.9c0.6,0,1.1,0.1,1.5,0.3c0.4,0.2,0.8,0.5,1.1,0.8c0.3,0.3,0.5,0.7,0.7,1.2
		c0.2,0.5,0.2,0.9,0.2,1.4c0,0.5-0.1,1-0.2,1.4c-0.2,0.5-0.4,0.8-0.7,1.2c-0.3,0.3-0.7,0.6-1.1,0.8c-0.4,0.2-1,0.3-1.5,0.3
		c-0.6,0-1.1-0.1-1.5-0.3c-0.4-0.2-0.8-0.5-1.1-0.8c-0.3-0.3-0.5-0.7-0.7-1.2c-0.2-0.5-0.2-0.9-0.2-1.4c0-0.5,0.1-1,0.2-1.4
		c0.2-0.5,0.4-0.8,0.7-1.2s0.7-0.6,1.1-0.8C-175.2,482-174.7,481.9-174.1,481.9z M-171.8,485.6c0-0.5,0-0.9-0.1-1.4
		c-0.1-0.4-0.2-0.8-0.4-1.1c-0.2-0.3-0.4-0.6-0.7-0.8c-0.3-0.2-0.7-0.3-1.1-0.3c-0.5,0-0.8,0.1-1.1,0.3c-0.3,0.2-0.5,0.4-0.7,0.8
		c-0.2,0.3-0.3,0.7-0.4,1.1c-0.1,0.4-0.1,0.9-0.1,1.4s0,0.9,0.1,1.4c0.1,0.4,0.2,0.8,0.4,1.1c0.2,0.3,0.4,0.6,0.7,0.8
		c0.3,0.2,0.7,0.3,1.1,0.3c0.5,0,0.8-0.1,1.1-0.3c0.3-0.2,0.5-0.4,0.7-0.8c0.2-0.3,0.3-0.7,0.4-1.1
		C-171.8,486.6-171.8,486.1-171.8,485.6z"/>
	<path id="XMLID_111_" class="st1" d="M-165,486.8c0.1,0.2,0.2,0.2,0.2,0.2s0.1-0.1,0.1-0.2v-3.7c0-0.2,0-0.4,0-0.5
		c0-0.1-0.1-0.2-0.1-0.3c0-0.1-0.1-0.1-0.2-0.1c-0.1,0-0.2,0-0.3,0v-0.2h1.5v0.2c-0.1,0-0.2,0-0.3,0c-0.1,0-0.1,0.1-0.2,0.1
		c0,0.1-0.1,0.2-0.1,0.3c0,0.1,0,0.3,0,0.5v6.2h-0.3l-4.2-5.9c-0.1-0.2-0.2-0.2-0.3-0.2c-0.1,0-0.1,0.1-0.1,0.2v4.8
		c0,0.2,0,0.4,0,0.5c0,0.1,0.1,0.2,0.1,0.3c0,0.1,0.1,0.1,0.2,0.1c0.1,0,0.2,0,0.3,0v0.2h-1.5v-0.2c0.1,0,0.2,0,0.3,0
		c0.1,0,0.1-0.1,0.2-0.1c0.1-0.1,0.1-0.2,0.1-0.3c0-0.1,0-0.3,0-0.5v-5.1c0-0.3,0-0.6-0.1-0.7c-0.1-0.1-0.3-0.2-0.5-0.2v-0.2h1.7
		L-165,486.8z"/>
	<path id="XMLID_110_" class="st1" d="M-165,486.8c0.1,0.2,0.2,0.2,0.2,0.2s0.1-0.1,0.1-0.2v-3.7c0-0.2,0-0.4,0-0.5
		c0-0.1-0.1-0.2-0.1-0.3c0-0.1-0.1-0.1-0.2-0.1c-0.1,0-0.2,0-0.3,0v-0.2h1.5v0.2c-0.1,0-0.2,0-0.3,0c-0.1,0-0.1,0.1-0.2,0.1
		c0,0.1-0.1,0.2-0.1,0.3c0,0.1,0,0.3,0,0.5v6.2h-0.3l-4.2-5.9c-0.1-0.2-0.2-0.2-0.3-0.2c-0.1,0-0.1,0.1-0.1,0.2v4.8
		c0,0.2,0,0.4,0,0.5c0,0.1,0.1,0.2,0.1,0.3c0,0.1,0.1,0.1,0.2,0.1c0.1,0,0.2,0,0.3,0v0.2h-1.5v-0.2c0.1,0,0.2,0,0.3,0
		c0.1,0,0.1-0.1,0.2-0.1c0.1-0.1,0.1-0.2,0.1-0.3c0-0.1,0-0.3,0-0.5v-5.1c0-0.3,0-0.6-0.1-0.7c-0.1-0.1-0.3-0.2-0.5-0.2v-0.2h1.7
		L-165,486.8z"/>
	<path id="XMLID_107_" class="st1" d="M-160.3,481.9c0.6,0,1.1,0.1,1.5,0.3c0.4,0.2,0.8,0.5,1.1,0.8c0.3,0.3,0.5,0.7,0.7,1.2
		c0.2,0.5,0.2,0.9,0.2,1.4c0,0.5-0.1,1-0.2,1.4c-0.2,0.4-0.4,0.8-0.7,1.2c-0.3,0.3-0.7,0.6-1.1,0.8c-0.4,0.2-1,0.3-1.5,0.3h-2.9
		v-0.2c0.2,0,0.3,0,0.4,0c0.1,0,0.2-0.1,0.2-0.2c0-0.1,0.1-0.2,0.1-0.3c0-0.1,0-0.3,0-0.4v-5.1c0-0.2,0-0.3,0-0.4
		c0-0.1,0-0.2-0.1-0.3c0-0.1-0.1-0.1-0.2-0.2c-0.1,0-0.2,0-0.4,0v-0.2H-160.3z M-161.3,488.2c0,0.2,0,0.3,0,0.4c0,0.1,0,0.2,0.1,0.3
		c0,0.1,0.1,0.1,0.2,0.2c0.1,0,0.2,0,0.4,0h0.3c0.5,0,0.8-0.1,1.1-0.3c0.3-0.2,0.5-0.4,0.7-0.7c0.2-0.3,0.3-0.7,0.4-1.1
		c0.1-0.4,0.1-0.9,0.1-1.4c0-0.5,0-0.9-0.1-1.4c-0.1-0.4-0.2-0.8-0.4-1.1c-0.2-0.3-0.4-0.6-0.7-0.7c-0.3-0.2-0.7-0.3-1.1-0.3h-0.3
		c-0.2,0-0.3,0-0.4,0c-0.1,0-0.2,0.1-0.2,0.2s-0.1,0.2-0.1,0.3c0,0.1,0,0.3,0,0.4V488.2z"/>
	<path id="XMLID_104_" class="st1" d="M-160.3,481.9c0.6,0,1.1,0.1,1.5,0.3c0.4,0.2,0.8,0.5,1.1,0.8c0.3,0.3,0.5,0.7,0.7,1.2
		c0.2,0.5,0.2,0.9,0.2,1.4c0,0.5-0.1,1-0.2,1.4c-0.2,0.4-0.4,0.8-0.7,1.2c-0.3,0.3-0.7,0.6-1.1,0.8c-0.4,0.2-1,0.3-1.5,0.3h-2.9
		v-0.2c0.2,0,0.3,0,0.4,0c0.1,0,0.2-0.1,0.2-0.2c0-0.1,0.1-0.2,0.1-0.3c0-0.1,0-0.3,0-0.4v-5.1c0-0.2,0-0.3,0-0.4
		c0-0.1,0-0.2-0.1-0.3c0-0.1-0.1-0.1-0.2-0.2c-0.1,0-0.2,0-0.4,0v-0.2H-160.3z M-161.3,488.2c0,0.2,0,0.3,0,0.4c0,0.1,0,0.2,0.1,0.3
		c0,0.1,0.1,0.1,0.2,0.2c0.1,0,0.2,0,0.4,0h0.3c0.5,0,0.8-0.1,1.1-0.3c0.3-0.2,0.5-0.4,0.7-0.7c0.2-0.3,0.3-0.7,0.4-1.1
		c0.1-0.4,0.1-0.9,0.1-1.4c0-0.5,0-0.9-0.1-1.4c-0.1-0.4-0.2-0.8-0.4-1.1c-0.2-0.3-0.4-0.6-0.7-0.7c-0.3-0.2-0.7-0.3-1.1-0.3h-0.3
		c-0.2,0-0.3,0-0.4,0c-0.1,0-0.2,0.1-0.2,0.2s-0.1,0.2-0.1,0.3c0,0.1,0,0.3,0,0.4V488.2z"/>
	<path id="XMLID_103_" class="st1" d="M-155.7,489.3c-0.1,0-0.2,0-0.3-0.1c-0.1-0.1-0.1-0.2-0.1-0.3c0-0.1,0-0.2,0.1-0.3
		c0.1-0.1,0.2-0.1,0.3-0.1c0.1,0,0.2,0,0.3,0.1c0.1,0.1,0.1,0.2,0.1,0.3c0,0.1,0,0.2-0.1,0.3C-155.5,489.3-155.6,489.3-155.7,489.3"
		/>
	<path id="XMLID_102_" class="st1" d="M-155.7,489.3c-0.1,0-0.2,0-0.3-0.1c-0.1-0.1-0.1-0.2-0.1-0.3c0-0.1,0-0.2,0.1-0.3
		c0.1-0.1,0.2-0.1,0.3-0.1c0.1,0,0.2,0,0.3,0.1c0.1,0.1,0.1,0.2,0.1,0.3c0,0.1,0,0.2-0.1,0.3C-155.5,489.3-155.6,489.3-155.7,489.3z
		"/>
	<path id="XMLID_99_" class="st1" d="M-149.5,481.9c0.2,0,0.4,0,0.6,0c0.2,0,0.4,0,0.6,0.1c0.2,0,0.4,0.1,0.6,0.2
		c0.2,0.1,0.4,0.2,0.5,0.3c0.2,0.1,0.3,0.3,0.4,0.5c0.1,0.2,0.1,0.5,0.1,0.8c0,0.3,0,0.5-0.1,0.7c-0.1,0.2-0.2,0.4-0.3,0.5
		s-0.3,0.3-0.5,0.4c-0.2,0.1-0.4,0.2-0.6,0.3l1.5,2.8c0.2,0.3,0.3,0.5,0.5,0.5c0.2,0.1,0.3,0.1,0.5,0.1v0.2h-1.4
		c-0.1,0-0.2,0-0.2-0.1c-0.1,0-0.1-0.1-0.2-0.2l-1.6-3c0-0.1-0.1-0.1-0.2-0.1c-0.1,0-0.1,0-0.2,0l-0.4,0.1c-0.1,0-0.2,0.1-0.2,0.3
		v1.8c0,0.2,0,0.3,0,0.4c0,0.1,0,0.2,0.1,0.3c0,0.1,0.1,0.1,0.2,0.2c0.1,0,0.2,0,0.4,0v0.2h-2.6v-0.2c0.2,0,0.3,0,0.4,0
		c0.1,0,0.2-0.1,0.2-0.2c0-0.1,0.1-0.2,0.1-0.3c0-0.1,0-0.3,0-0.4v-5.1c0-0.2,0-0.3,0-0.4c0-0.1,0-0.2-0.1-0.3
		c0-0.1-0.1-0.1-0.2-0.2c-0.1,0-0.2,0-0.4,0v-0.2H-149.5z M-150.1,485.7c0,0.1,0,0.1,0.1,0.1c0,0,0.1,0,0.1,0l0.4-0.1
		c0.2-0.1,0.4-0.1,0.6-0.2c0.2-0.1,0.4-0.2,0.5-0.4c0.1-0.2,0.3-0.3,0.4-0.6c0.1-0.2,0.1-0.5,0.1-0.8c0-0.3-0.1-0.6-0.2-0.8
		c-0.1-0.2-0.2-0.4-0.4-0.5c-0.2-0.1-0.3-0.2-0.5-0.3c-0.2-0.1-0.3-0.1-0.5-0.1c-0.3,0-0.4,0.1-0.5,0.2c-0.1,0.1-0.1,0.4-0.1,0.7
		V485.7z"/>
	<path id="XMLID_96_" class="st1" d="M-149.5,481.9c0.2,0,0.4,0,0.6,0c0.2,0,0.4,0,0.6,0.1c0.2,0,0.4,0.1,0.6,0.2
		c0.2,0.1,0.4,0.2,0.5,0.3c0.2,0.1,0.3,0.3,0.4,0.5c0.1,0.2,0.1,0.5,0.1,0.8c0,0.3,0,0.5-0.1,0.7c-0.1,0.2-0.2,0.4-0.3,0.5
		s-0.3,0.3-0.5,0.4c-0.2,0.1-0.4,0.2-0.6,0.3l1.5,2.8c0.2,0.3,0.3,0.5,0.5,0.5c0.2,0.1,0.3,0.1,0.5,0.1v0.2h-1.4
		c-0.1,0-0.2,0-0.2-0.1c-0.1,0-0.1-0.1-0.2-0.2l-1.6-3c0-0.1-0.1-0.1-0.2-0.1c-0.1,0-0.1,0-0.2,0l-0.4,0.1c-0.1,0-0.2,0.1-0.2,0.3
		v1.8c0,0.2,0,0.3,0,0.4c0,0.1,0,0.2,0.1,0.3c0,0.1,0.1,0.1,0.2,0.2c0.1,0,0.2,0,0.4,0v0.2h-2.6v-0.2c0.2,0,0.3,0,0.4,0
		c0.1,0,0.2-0.1,0.2-0.2c0-0.1,0.1-0.2,0.1-0.3c0-0.1,0-0.3,0-0.4v-5.1c0-0.2,0-0.3,0-0.4c0-0.1,0-0.2-0.1-0.3
		c0-0.1-0.1-0.1-0.2-0.2c-0.1,0-0.2,0-0.4,0v-0.2H-149.5z M-150.1,485.7c0,0.1,0,0.1,0.1,0.1c0,0,0.1,0,0.1,0l0.4-0.1
		c0.2-0.1,0.4-0.1,0.6-0.2c0.2-0.1,0.4-0.2,0.5-0.4c0.1-0.2,0.3-0.3,0.4-0.6c0.1-0.2,0.1-0.5,0.1-0.8c0-0.3-0.1-0.6-0.2-0.8
		c-0.1-0.2-0.2-0.4-0.4-0.5c-0.2-0.1-0.3-0.2-0.5-0.3c-0.2-0.1-0.3-0.1-0.5-0.1c-0.3,0-0.4,0.1-0.5,0.2c-0.1,0.1-0.1,0.4-0.1,0.7
		V485.7z"/>
	<path id="XMLID_95_" class="st1" d="M-140.1,481.9c0,0.2,0,0.5,0.1,0.7c0,0.2,0,0.5,0.1,0.7h-0.3c0-0.1,0-0.3-0.1-0.4
		c0-0.1-0.1-0.3-0.2-0.4c-0.1-0.1-0.2-0.2-0.4-0.3c-0.1-0.1-0.3-0.1-0.5-0.1h-1.2c-0.2,0-0.3,0-0.4,0c-0.1,0-0.2,0.1-0.2,0.2
		c0,0.1-0.1,0.2-0.1,0.3c0,0.1,0,0.3,0,0.4v1.8c0,0.1,0,0.1,0.1,0.1c0,0,0.1,0.1,0.1,0.1h0.3c0.2,0,0.4,0,0.5-0.1
		c0.1,0,0.3-0.1,0.3-0.2c0.1-0.1,0.1-0.2,0.2-0.3c0-0.1,0-0.2,0-0.4h0.3v2.1h-0.3c0-0.1,0-0.3,0-0.4c0-0.1-0.1-0.2-0.2-0.3
		c-0.1-0.1-0.2-0.1-0.3-0.2c-0.1,0-0.3-0.1-0.5-0.1h-0.3c-0.1,0-0.1,0-0.1,0.1c0,0-0.1,0.1-0.1,0.1v2.7c0,0.2,0,0.3,0,0.4
		c0,0.1,0,0.2,0.1,0.3c0,0.1,0.1,0.1,0.2,0.2c0.1,0,0.2,0,0.4,0h1.2c0.2,0,0.4,0,0.5-0.1c0.1-0.1,0.3-0.2,0.4-0.3
		c0.1-0.1,0.2-0.2,0.2-0.4c0-0.1,0.1-0.3,0.1-0.4h0.3c0,0.2-0.1,0.5-0.1,0.7c0,0.2,0,0.4-0.1,0.7h-5.1v-0.2c0.2,0,0.3,0,0.4,0
		c0.1,0,0.2-0.1,0.2-0.2c0-0.1,0.1-0.2,0.1-0.3c0-0.1,0-0.3,0-0.4v-5.1c0-0.2,0-0.3,0-0.4c0-0.1,0-0.2-0.1-0.3
		c0-0.1-0.1-0.1-0.2-0.2c-0.1,0-0.2,0-0.4,0v-0.2H-140.1z"/>
	<path id="XMLID_94_" class="st1" d="M-140.1,481.9c0,0.2,0,0.5,0.1,0.7c0,0.2,0,0.5,0.1,0.7h-0.3c0-0.1,0-0.3-0.1-0.4
		c0-0.1-0.1-0.3-0.2-0.4c-0.1-0.1-0.2-0.2-0.4-0.3c-0.1-0.1-0.3-0.1-0.5-0.1h-1.2c-0.2,0-0.3,0-0.4,0c-0.1,0-0.2,0.1-0.2,0.2
		c0,0.1-0.1,0.2-0.1,0.3c0,0.1,0,0.3,0,0.4v1.8c0,0.1,0,0.1,0.1,0.1c0,0,0.1,0.1,0.1,0.1h0.3c0.2,0,0.4,0,0.5-0.1
		c0.1,0,0.3-0.1,0.3-0.2c0.1-0.1,0.1-0.2,0.2-0.3c0-0.1,0-0.2,0-0.4h0.3v2.1h-0.3c0-0.1,0-0.3,0-0.4c0-0.1-0.1-0.2-0.2-0.3
		c-0.1-0.1-0.2-0.1-0.3-0.2c-0.1,0-0.3-0.1-0.5-0.1h-0.3c-0.1,0-0.1,0-0.1,0.1c0,0-0.1,0.1-0.1,0.1v2.7c0,0.2,0,0.3,0,0.4
		c0,0.1,0,0.2,0.1,0.3c0,0.1,0.1,0.1,0.2,0.2c0.1,0,0.2,0,0.4,0h1.2c0.2,0,0.4,0,0.5-0.1c0.1-0.1,0.3-0.2,0.4-0.3
		c0.1-0.1,0.2-0.2,0.2-0.4c0-0.1,0.1-0.3,0.1-0.4h0.3c0,0.2-0.1,0.5-0.1,0.7c0,0.2,0,0.4-0.1,0.7h-5.1v-0.2c0.2,0,0.3,0,0.4,0
		c0.1,0,0.2-0.1,0.2-0.2c0-0.1,0.1-0.2,0.1-0.3c0-0.1,0-0.3,0-0.4v-5.1c0-0.2,0-0.3,0-0.4c0-0.1,0-0.2-0.1-0.3
		c0-0.1-0.1-0.1-0.2-0.2c-0.1,0-0.2,0-0.4,0v-0.2H-140.1z"/>
	<path id="XMLID_91_" class="st1" d="M-137.7,487.5c-0.1,0-0.1,0-0.2,0.1c-0.1,0-0.1,0.1-0.1,0.2l-0.2,0.4c-0.1,0.2-0.1,0.4-0.1,0.5
		c0,0.1,0,0.2,0,0.3c0,0.1,0.1,0.1,0.1,0.1c0.1,0,0.2,0,0.3,0v0.2h-1.5v-0.2c0.2,0,0.3,0,0.4-0.1c0.1,0,0.2-0.2,0.3-0.3l2.4-6.8h0.3
		l2.4,6.8c0.1,0.2,0.2,0.3,0.3,0.3c0.1,0,0.3,0.1,0.5,0.1v0.2h-2.6v-0.2c0.3,0,0.5-0.1,0.5-0.2c0-0.1,0-0.4-0.1-0.7l-0.4-1.1
		c-0.1-0.1-0.2-0.2-0.4-0.2L-137.7,487.5z M-136.5,484c0-0.1-0.1-0.2-0.1-0.2c-0.1,0-0.1,0.1-0.1,0.2l-1.1,3.1c0,0,0,0.1,0,0.1
		c0,0,0.1,0,0.2,0l1.9-0.5c0.1,0,0.1-0.1,0.2-0.1c0-0.1,0-0.1,0-0.3L-136.5,484z"/>
	<path id="XMLID_88_" class="st1" d="M-137.7,487.5c-0.1,0-0.1,0-0.2,0.1c-0.1,0-0.1,0.1-0.1,0.2l-0.2,0.4c-0.1,0.2-0.1,0.4-0.1,0.5
		c0,0.1,0,0.2,0,0.3c0,0.1,0.1,0.1,0.1,0.1c0.1,0,0.2,0,0.3,0v0.2h-1.5v-0.2c0.2,0,0.3,0,0.4-0.1c0.1,0,0.2-0.2,0.3-0.3l2.4-6.8h0.3
		l2.4,6.8c0.1,0.2,0.2,0.3,0.3,0.3c0.1,0,0.3,0.1,0.5,0.1v0.2h-2.6v-0.2c0.3,0,0.5-0.1,0.5-0.2c0-0.1,0-0.4-0.1-0.7l-0.4-1.1
		c-0.1-0.1-0.2-0.2-0.4-0.2L-137.7,487.5z M-136.5,484c0-0.1-0.1-0.2-0.1-0.2c-0.1,0-0.1,0.1-0.1,0.2l-1.1,3.1c0,0,0,0.1,0,0.1
		c0,0,0.1,0,0.2,0l1.9-0.5c0.1,0,0.1-0.1,0.2-0.1c0-0.1,0-0.1,0-0.3L-136.5,484z"/>
	<path id="XMLID_87_" class="st1" d="M-128.4,489.1c0.2,0,0.4,0,0.5-0.1c0.1-0.1,0.3-0.2,0.4-0.3c0.1-0.1,0.2-0.2,0.2-0.4
		c0-0.1,0.1-0.3,0.1-0.4h0.3l-0.1,1.4h-5.1v-0.2c0.2,0,0.3,0,0.4,0c0.1,0,0.2-0.1,0.2-0.2c0-0.1,0.1-0.2,0.1-0.3c0-0.1,0-0.3,0-0.4
		v-5.1c0-0.2,0-0.3,0-0.4c0-0.1,0-0.2-0.1-0.3c0-0.1-0.1-0.1-0.2-0.2c-0.1,0-0.2,0-0.4,0v-0.2h2.6v0.2c-0.2,0-0.3,0-0.4,0
		c-0.1,0-0.2,0.1-0.2,0.2c0,0.1-0.1,0.2-0.1,0.3c0,0.1,0,0.3,0,0.4v5.1c0,0.2,0,0.3,0,0.4c0,0.1,0,0.2,0.1,0.3
		c0,0.1,0.1,0.1,0.2,0.2c0.1,0,0.2,0,0.4,0H-128.4z"/>
	<path id="XMLID_86_" class="st1" d="M-128.4,489.1c0.2,0,0.4,0,0.5-0.1c0.1-0.1,0.3-0.2,0.4-0.3c0.1-0.1,0.2-0.2,0.2-0.4
		c0-0.1,0.1-0.3,0.1-0.4h0.3l-0.1,1.4h-5.1v-0.2c0.2,0,0.3,0,0.4,0c0.1,0,0.2-0.1,0.2-0.2c0-0.1,0.1-0.2,0.1-0.3c0-0.1,0-0.3,0-0.4
		v-5.1c0-0.2,0-0.3,0-0.4c0-0.1,0-0.2-0.1-0.3c0-0.1-0.1-0.1-0.2-0.2c-0.1,0-0.2,0-0.4,0v-0.2h2.6v0.2c-0.2,0-0.3,0-0.4,0
		c-0.1,0-0.2,0.1-0.2,0.2c0,0.1-0.1,0.2-0.1,0.3c0,0.1,0,0.3,0,0.4v5.1c0,0.2,0,0.3,0,0.4c0,0.1,0,0.2,0.1,0.3
		c0,0.1,0.1,0.1,0.2,0.2c0.1,0,0.2,0,0.4,0H-128.4z"/>
	<path id="XMLID_85_" class="st1" d="M-121.4,483l1.5,4.2c0.1,0.1,0.1,0.2,0.2,0.2c0.1,0,0.1-0.1,0.1-0.2l1.4-4.1
		c0.1-0.3,0.2-0.6,0.1-0.7c0-0.1-0.2-0.2-0.4-0.2v-0.2h1.5v0.2c-0.1,0-0.2,0-0.3,0c-0.1,0-0.2,0.1-0.2,0.1c-0.1,0.1-0.1,0.2-0.2,0.3
		c-0.1,0.1-0.1,0.3-0.2,0.5l-2.2,6.3h-0.3l-2.2-6.2c-0.1-0.2-0.1-0.3-0.2-0.4c-0.1-0.1-0.1-0.2-0.2-0.3c-0.1-0.1-0.2-0.1-0.3-0.2
		s-0.2,0-0.4,0v-0.2h2.6v0.2c-0.3,0-0.5,0.1-0.5,0.2C-121.6,482.5-121.5,482.7-121.4,483"/>
	<path id="XMLID_84_" class="st1" d="M-121.4,483l1.5,4.2c0.1,0.1,0.1,0.2,0.2,0.2c0.1,0,0.1-0.1,0.1-0.2l1.4-4.1
		c0.1-0.3,0.2-0.6,0.1-0.7c0-0.1-0.2-0.2-0.4-0.2v-0.2h1.5v0.2c-0.1,0-0.2,0-0.3,0c-0.1,0-0.2,0.1-0.2,0.1c-0.1,0.1-0.1,0.2-0.2,0.3
		c-0.1,0.1-0.1,0.3-0.2,0.5l-2.2,6.3h-0.3l-2.2-6.2c-0.1-0.2-0.1-0.3-0.2-0.4c-0.1-0.1-0.1-0.2-0.2-0.3c-0.1-0.1-0.2-0.1-0.3-0.2
		s-0.2,0-0.4,0v-0.2h2.6v0.2c-0.3,0-0.5,0.1-0.5,0.2C-121.6,482.5-121.5,482.7-121.4,483z"/>
	<path id="XMLID_81_" class="st1" d="M-117.2,487.5c-0.1,0-0.1,0-0.2,0.1c-0.1,0-0.1,0.1-0.1,0.2l-0.2,0.4c-0.1,0.2-0.1,0.4-0.1,0.5
		c0,0.1,0,0.2,0,0.3c0,0.1,0.1,0.1,0.1,0.1c0.1,0,0.2,0,0.3,0v0.2h-1.5v-0.2c0.2,0,0.3,0,0.4-0.1c0.1,0,0.2-0.2,0.3-0.3l2.4-6.8h0.3
		l2.4,6.8c0.1,0.2,0.2,0.3,0.3,0.3c0.1,0,0.3,0.1,0.5,0.1v0.2h-2.6v-0.2c0.3,0,0.5-0.1,0.5-0.2c0-0.1,0-0.4-0.1-0.7l-0.4-1.1
		c-0.1-0.1-0.2-0.2-0.4-0.2L-117.2,487.5z M-116,484c0-0.1-0.1-0.2-0.1-0.2c-0.1,0-0.1,0.1-0.1,0.2l-1.1,3.1c0,0,0,0.1,0,0.1
		c0,0,0.1,0,0.2,0l1.9-0.5c0.1,0,0.1-0.1,0.2-0.1c0-0.1,0-0.1,0-0.3L-116,484z"/>
	<path id="XMLID_78_" class="st1" d="M-117.2,487.5c-0.1,0-0.1,0-0.2,0.1c-0.1,0-0.1,0.1-0.1,0.2l-0.2,0.4c-0.1,0.2-0.1,0.4-0.1,0.5
		c0,0.1,0,0.2,0,0.3c0,0.1,0.1,0.1,0.1,0.1c0.1,0,0.2,0,0.3,0v0.2h-1.5v-0.2c0.2,0,0.3,0,0.4-0.1c0.1,0,0.2-0.2,0.3-0.3l2.4-6.8h0.3
		l2.4,6.8c0.1,0.2,0.2,0.3,0.3,0.3c0.1,0,0.3,0.1,0.5,0.1v0.2h-2.6v-0.2c0.3,0,0.5-0.1,0.5-0.2c0-0.1,0-0.4-0.1-0.7l-0.4-1.1
		c-0.1-0.1-0.2-0.2-0.4-0.2L-117.2,487.5z M-116,484c0-0.1-0.1-0.2-0.1-0.2c-0.1,0-0.1,0.1-0.1,0.2l-1.1,3.1c0,0,0,0.1,0,0.1
		c0,0,0.1,0,0.2,0l1.9-0.5c0.1,0,0.1-0.1,0.2-0.1c0-0.1,0-0.1,0-0.3L-116,484z"/>
	<path id="XMLID_77_" class="st1" d="M-107.9,489.1c0.2,0,0.4,0,0.5-0.1c0.1-0.1,0.3-0.2,0.4-0.3c0.1-0.1,0.2-0.2,0.2-0.4
		c0-0.1,0.1-0.3,0.1-0.4h0.3l-0.1,1.4h-5.1v-0.2c0.2,0,0.3,0,0.4,0c0.1,0,0.2-0.1,0.2-0.2c0-0.1,0.1-0.2,0.1-0.3c0-0.1,0-0.3,0-0.4
		v-5.1c0-0.2,0-0.3,0-0.4c0-0.1,0-0.2-0.1-0.3c0-0.1-0.1-0.1-0.2-0.2c-0.1,0-0.2,0-0.4,0v-0.2h2.6v0.2c-0.2,0-0.3,0-0.4,0
		c-0.1,0-0.2,0.1-0.2,0.2c0,0.1-0.1,0.2-0.1,0.3c0,0.1,0,0.3,0,0.4v5.1c0,0.2,0,0.3,0,0.4c0,0.1,0,0.2,0.1,0.3
		c0,0.1,0.1,0.1,0.2,0.2c0.1,0,0.2,0,0.4,0H-107.9z"/>
	<path id="XMLID_76_" class="st1" d="M-107.9,489.1c0.2,0,0.4,0,0.5-0.1c0.1-0.1,0.3-0.2,0.4-0.3c0.1-0.1,0.2-0.2,0.2-0.4
		c0-0.1,0.1-0.3,0.1-0.4h0.3l-0.1,1.4h-5.1v-0.2c0.2,0,0.3,0,0.4,0c0.1,0,0.2-0.1,0.2-0.2c0-0.1,0.1-0.2,0.1-0.3c0-0.1,0-0.3,0-0.4
		v-5.1c0-0.2,0-0.3,0-0.4c0-0.1,0-0.2-0.1-0.3c0-0.1-0.1-0.1-0.2-0.2c-0.1,0-0.2,0-0.4,0v-0.2h2.6v0.2c-0.2,0-0.3,0-0.4,0
		c-0.1,0-0.2,0.1-0.2,0.2c0,0.1-0.1,0.2-0.1,0.3c0,0.1,0,0.3,0,0.4v5.1c0,0.2,0,0.3,0,0.4c0,0.1,0,0.2,0.1,0.3
		c0,0.1,0.1,0.1,0.2,0.2c0.1,0,0.2,0,0.4,0H-107.9z"/>
	<path id="XMLID_75_" class="st1" d="M-103.9,481.9v0.2c-0.2,0-0.3,0-0.4,0c-0.1,0-0.2,0.1-0.2,0.2c0,0.1-0.1,0.2-0.1,0.3
		c0,0.1,0,0.3,0,0.4v4.6c0,0.3,0,0.5,0.1,0.7c0.1,0.2,0.2,0.3,0.3,0.4c0.1,0.1,0.3,0.2,0.5,0.2c0.2,0,0.5,0.1,0.8,0.1
		c0.2,0,0.5,0,0.7-0.1c0.2,0,0.4-0.1,0.6-0.2c0.2-0.1,0.3-0.2,0.5-0.4c0.1-0.2,0.2-0.4,0.2-0.7v-4.6c0-0.2,0-0.4,0-0.5
		c0-0.1-0.1-0.2-0.1-0.3s-0.1-0.1-0.2-0.1c-0.1,0-0.2,0-0.3,0v-0.2h1.5v0.2c-0.1,0-0.2,0-0.3,0c-0.1,0-0.1,0.1-0.2,0.1
		c0,0.1-0.1,0.2-0.1,0.3c0,0.1,0,0.3,0,0.5v4.6c0,0.3-0.1,0.6-0.2,0.8c-0.1,0.2-0.3,0.4-0.5,0.5c-0.2,0.1-0.4,0.2-0.7,0.3
		c-0.3,0.1-0.6,0.1-0.9,0.1c-0.4,0-0.8,0-1.1-0.1c-0.4,0-0.7-0.1-0.9-0.2c-0.3-0.1-0.5-0.3-0.6-0.5c-0.2-0.2-0.2-0.5-0.2-0.8v-4.6
		c0-0.2,0-0.3,0-0.4c0-0.1,0-0.2-0.1-0.3c0-0.1-0.1-0.1-0.2-0.2c-0.1,0-0.2,0-0.4,0v-0.2H-103.9z"/>
	<path id="XMLID_74_" class="st1" d="M-103.9,481.9v0.2c-0.2,0-0.3,0-0.4,0c-0.1,0-0.2,0.1-0.2,0.2c0,0.1-0.1,0.2-0.1,0.3
		c0,0.1,0,0.3,0,0.4v4.6c0,0.3,0,0.5,0.1,0.7c0.1,0.2,0.2,0.3,0.3,0.4c0.1,0.1,0.3,0.2,0.5,0.2c0.2,0,0.5,0.1,0.8,0.1
		c0.2,0,0.5,0,0.7-0.1c0.2,0,0.4-0.1,0.6-0.2c0.2-0.1,0.3-0.2,0.5-0.4c0.1-0.2,0.2-0.4,0.2-0.7v-4.6c0-0.2,0-0.4,0-0.5
		c0-0.1-0.1-0.2-0.1-0.3s-0.1-0.1-0.2-0.1c-0.1,0-0.2,0-0.3,0v-0.2h1.5v0.2c-0.1,0-0.2,0-0.3,0c-0.1,0-0.1,0.1-0.2,0.1
		c0,0.1-0.1,0.2-0.1,0.3c0,0.1,0,0.3,0,0.5v4.6c0,0.3-0.1,0.6-0.2,0.8c-0.1,0.2-0.3,0.4-0.5,0.5c-0.2,0.1-0.4,0.2-0.7,0.3
		c-0.3,0.1-0.6,0.1-0.9,0.1c-0.4,0-0.8,0-1.1-0.1c-0.4,0-0.7-0.1-0.9-0.2c-0.3-0.1-0.5-0.3-0.6-0.5c-0.2-0.2-0.2-0.5-0.2-0.8v-4.6
		c0-0.2,0-0.3,0-0.4c0-0.1,0-0.2-0.1-0.3c0-0.1-0.1-0.1-0.2-0.2c-0.1,0-0.2,0-0.4,0v-0.2H-103.9z"/>
	<path id="XMLID_73_" class="st1" d="M-94.4,481.9c0,0.2,0,0.5,0.1,0.7c0,0.2,0,0.5,0.1,0.7h-0.3c0-0.1,0-0.3-0.1-0.4
		c0-0.1-0.1-0.3-0.2-0.4c-0.1-0.1-0.2-0.2-0.4-0.3c-0.1-0.1-0.3-0.1-0.5-0.1h-1.2c-0.2,0-0.3,0-0.4,0c-0.1,0-0.2,0.1-0.2,0.2
		c0,0.1-0.1,0.2-0.1,0.3c0,0.1,0,0.3,0,0.4v1.8c0,0.1,0,0.1,0.1,0.1c0,0,0.1,0.1,0.1,0.1h0.3c0.2,0,0.4,0,0.5-0.1
		c0.1,0,0.3-0.1,0.3-0.2c0.1-0.1,0.1-0.2,0.2-0.3c0-0.1,0-0.2,0-0.4h0.3v2.1h-0.3c0-0.1,0-0.3,0-0.4c0-0.1-0.1-0.2-0.2-0.3
		c-0.1-0.1-0.2-0.1-0.3-0.2c-0.1,0-0.3-0.1-0.5-0.1h-0.3c-0.1,0-0.1,0-0.1,0.1c0,0-0.1,0.1-0.1,0.1v2.7c0,0.2,0,0.3,0,0.4
		c0,0.1,0,0.2,0.1,0.3c0,0.1,0.1,0.1,0.2,0.2c0.1,0,0.2,0,0.4,0h1.2c0.2,0,0.4,0,0.5-0.1c0.1-0.1,0.3-0.2,0.4-0.3
		c0.1-0.1,0.2-0.2,0.2-0.4c0-0.1,0.1-0.3,0.1-0.4h0.3c0,0.2-0.1,0.5-0.1,0.7c0,0.2,0,0.4-0.1,0.7h-5.1v-0.2c0.2,0,0.3,0,0.4,0
		c0.1,0,0.2-0.1,0.2-0.2s0.1-0.2,0.1-0.3c0-0.1,0-0.3,0-0.4v-5.1c0-0.2,0-0.3,0-0.4c0-0.1,0-0.2-0.1-0.3c0-0.1-0.1-0.1-0.2-0.2
		c-0.1,0-0.2,0-0.4,0v-0.2H-94.4z"/>
	<path id="XMLID_72_" class="st1" d="M-94.4,481.9c0,0.2,0,0.5,0.1,0.7c0,0.2,0,0.5,0.1,0.7h-0.3c0-0.1,0-0.3-0.1-0.4
		c0-0.1-0.1-0.3-0.2-0.4c-0.1-0.1-0.2-0.2-0.4-0.3c-0.1-0.1-0.3-0.1-0.5-0.1h-1.2c-0.2,0-0.3,0-0.4,0c-0.1,0-0.2,0.1-0.2,0.2
		c0,0.1-0.1,0.2-0.1,0.3c0,0.1,0,0.3,0,0.4v1.8c0,0.1,0,0.1,0.1,0.1c0,0,0.1,0.1,0.1,0.1h0.3c0.2,0,0.4,0,0.5-0.1
		c0.1,0,0.3-0.1,0.3-0.2c0.1-0.1,0.1-0.2,0.2-0.3c0-0.1,0-0.2,0-0.4h0.3v2.1h-0.3c0-0.1,0-0.3,0-0.4c0-0.1-0.1-0.2-0.2-0.3
		c-0.1-0.1-0.2-0.1-0.3-0.2c-0.1,0-0.3-0.1-0.5-0.1h-0.3c-0.1,0-0.1,0-0.1,0.1c0,0-0.1,0.1-0.1,0.1v2.7c0,0.2,0,0.3,0,0.4
		c0,0.1,0,0.2,0.1,0.3c0,0.1,0.1,0.1,0.2,0.2c0.1,0,0.2,0,0.4,0h1.2c0.2,0,0.4,0,0.5-0.1c0.1-0.1,0.3-0.2,0.4-0.3
		c0.1-0.1,0.2-0.2,0.2-0.4c0-0.1,0.1-0.3,0.1-0.4h0.3c0,0.2-0.1,0.5-0.1,0.7c0,0.2,0,0.4-0.1,0.7h-5.1v-0.2c0.2,0,0.3,0,0.4,0
		c0.1,0,0.2-0.1,0.2-0.2s0.1-0.2,0.1-0.3c0-0.1,0-0.3,0-0.4v-5.1c0-0.2,0-0.3,0-0.4c0-0.1,0-0.2-0.1-0.3c0-0.1-0.1-0.1-0.2-0.2
		c-0.1,0-0.2,0-0.4,0v-0.2H-94.4z"/>
</g>
</svg>
